<svg width="95" height="118" viewBox="0 0 95 118" fill="none" xmlns="http://www.w3.org/2000/svg">
<path d="M82.5922 48.2933H56.8785L61.4224 58.7378H74.8253L82.5922 48.2933ZM95 28.6933H48.3542L52.8981 39.1378H87.2418L95 28.6933Z" fill="#009A61"/>
<path d="M48.2309 0L12.0115 79.92H25.8018L48.2133 28.3733L70.66 80H84.4591L48.2309 0Z" fill="#00384F"/>
<path d="M0 28.6933L7.58203 39.1378H52.8981L48.3542 28.6933H0ZM13.7903 48.2933L21.3812 58.7378H61.4224L56.8785 48.2933H13.7903Z" fill="#009A61"/>
<path d="M10.7697 99.8H13.5697L18.7897 114H15.9497L14.6297 110.46H9.66969L8.36969 114H5.52969L10.7697 99.8ZM14.1297 108.52L12.1697 102.66L10.1297 108.52H14.1297ZM19.1542 108.76C19.1542 107.747 19.3542 106.833 19.7542 106.02C20.1542 105.193 20.7076 104.54 21.4142 104.06C22.1209 103.58 22.9276 103.34 23.8342 103.34C24.6076 103.34 25.3009 103.533 25.9142 103.92C26.5409 104.293 27.0276 104.773 27.3742 105.36V99.4H30.0542V111C30.0542 111.28 30.1009 111.48 30.1942 111.6C30.2876 111.72 30.4476 111.793 30.6742 111.82V114C30.2076 114.093 29.8276 114.14 29.5342 114.14C29.0542 114.14 28.6542 114.02 28.3342 113.78C28.0276 113.54 27.8542 113.227 27.8142 112.84L27.7742 112.18C27.3876 112.833 26.8609 113.333 26.1942 113.68C25.5409 114.027 24.8542 114.2 24.1342 114.2C23.4142 114.2 22.7476 114.06 22.1342 113.78C21.5342 113.5 21.0076 113.113 20.5542 112.62C20.1142 112.127 19.7676 111.553 19.5142 110.9C19.2742 110.233 19.1542 109.52 19.1542 108.76ZM27.3742 110.16V107.66C27.2409 107.273 27.0276 106.927 26.7342 106.62C26.4409 106.313 26.1142 106.073 25.7542 105.9C25.3942 105.713 25.0342 105.62 24.6742 105.62C24.2609 105.62 23.8876 105.707 23.5542 105.88C23.2209 106.053 22.9276 106.287 22.6742 106.58C22.4342 106.873 22.2476 107.213 22.1142 107.6C21.9942 107.987 21.9342 108.393 21.9342 108.82C21.9342 109.247 22.0009 109.653 22.1342 110.04C22.2809 110.413 22.4876 110.74 22.7542 111.02C23.0209 111.3 23.3276 111.52 23.6742 111.68C24.0342 111.84 24.4209 111.92 24.8342 111.92C25.0876 111.92 25.3409 111.88 25.5942 111.8C25.8609 111.707 26.1076 111.587 26.3342 111.44C26.5742 111.28 26.7809 111.093 26.9542 110.88C27.1409 110.653 27.2809 110.413 27.3742 110.16ZM35.4658 114L31.6058 103.52H34.3858L37.0258 111.56L39.6858 103.52H42.2258L38.3858 114H35.4658ZM43.0419 106.8C43.0419 105.933 43.1952 105.087 43.5019 104.26C43.8219 103.42 44.2819 102.66 44.8819 101.98C45.4819 101.287 46.2152 100.74 47.0819 100.34C47.9485 99.9267 48.9352 99.72 50.0419 99.72C51.3485 99.72 52.4752 100.007 53.4219 100.58C54.3819 101.153 55.0952 101.9 55.5619 102.82L53.4419 104.28C53.2019 103.747 52.8885 103.327 52.5019 103.02C52.1152 102.7 51.7019 102.48 51.2619 102.36C50.8219 102.227 50.3885 102.16 49.9619 102.16C49.2685 102.16 48.6619 102.3 48.1419 102.58C47.6352 102.86 47.2085 103.227 46.8619 103.68C46.5152 104.133 46.2552 104.64 46.0819 105.2C45.9219 105.76 45.8419 106.32 45.8419 106.88C45.8419 107.507 45.9419 108.113 46.1419 108.7C46.3419 109.273 46.6219 109.787 46.9819 110.24C47.3552 110.68 47.7952 111.033 48.3019 111.3C48.8219 111.553 49.3885 111.68 50.0019 111.68C50.4419 111.68 50.8885 111.607 51.3419 111.46C51.7952 111.313 52.2152 111.08 52.6019 110.76C52.9885 110.44 53.2885 110.027 53.5019 109.52L55.7619 110.82C55.4819 111.527 55.0219 112.127 54.3819 112.62C53.7552 113.113 53.0485 113.487 52.2619 113.74C51.4752 113.993 50.6952 114.12 49.9219 114.12C48.9085 114.12 47.9819 113.913 47.1419 113.5C46.3019 113.073 45.5752 112.513 44.9619 111.82C44.3619 111.113 43.8885 110.327 43.5419 109.46C43.2085 108.58 43.0419 107.693 43.0419 106.8ZM56.6328 110.9C56.6328 110.22 56.8195 109.627 57.1928 109.12C57.5795 108.6 58.1128 108.2 58.7928 107.92C59.4728 107.64 60.2528 107.5 61.1328 107.5C61.5728 107.5 62.0195 107.533 62.4728 107.6C62.9261 107.667 63.3195 107.773 63.6528 107.92V107.36C63.6528 106.693 63.4528 106.18 63.0528 105.82C62.6661 105.46 62.0861 105.28 61.3128 105.28C60.7395 105.28 60.1928 105.38 59.6728 105.58C59.1528 105.78 58.6061 106.073 58.0328 106.46L57.1728 104.7C57.8661 104.247 58.5728 103.907 59.2928 103.68C60.0261 103.453 60.7928 103.34 61.5928 103.34C63.0861 103.34 64.2461 103.713 65.0728 104.46C65.9128 105.207 66.3328 106.273 66.3328 107.66V111C66.3328 111.28 66.3795 111.48 66.4728 111.6C66.5795 111.72 66.7461 111.793 66.9728 111.82V114C66.7328 114.04 66.5128 114.073 66.3128 114.1C66.1261 114.127 65.9661 114.14 65.8328 114.14C65.2995 114.14 64.8928 114.02 64.6128 113.78C64.3461 113.54 64.1795 113.247 64.1128 112.9L64.0528 112.36C63.5995 112.947 63.0328 113.4 62.3528 113.72C61.6728 114.04 60.9795 114.2 60.2728 114.2C59.5795 114.2 58.9528 114.06 58.3928 113.78C57.8461 113.487 57.4128 113.093 57.0928 112.6C56.7861 112.093 56.6328 111.527 56.6328 110.9ZM63.1528 111.44C63.2995 111.28 63.4195 111.12 63.5128 110.96C63.6061 110.8 63.6528 110.653 63.6528 110.52V109.46C63.3328 109.327 62.9861 109.227 62.6128 109.16C62.2395 109.08 61.8861 109.04 61.5528 109.04C60.8595 109.04 60.2861 109.193 59.8328 109.5C59.3928 109.793 59.1728 110.187 59.1728 110.68C59.1728 110.947 59.2461 111.2 59.3928 111.44C59.5395 111.68 59.7528 111.873 60.0328 112.02C60.3128 112.167 60.6461 112.24 61.0328 112.24C61.4328 112.24 61.8261 112.167 62.2128 112.02C62.5995 111.86 62.9128 111.667 63.1528 111.44ZM72.6972 114.2C71.8039 114.2 70.9505 114.053 70.1372 113.76C69.3239 113.467 68.6239 113.033 68.0372 112.46L68.9972 110.72C69.6239 111.227 70.2372 111.6 70.8372 111.84C71.4505 112.08 72.0372 112.2 72.5972 112.2C73.1172 112.2 73.5305 112.107 73.8372 111.92C74.1572 111.733 74.3172 111.453 74.3172 111.08C74.3172 110.827 74.2305 110.633 74.0572 110.5C73.8839 110.353 73.6305 110.227 73.2972 110.12C72.9772 110.013 72.5839 109.893 72.1172 109.76C71.3439 109.507 70.6972 109.26 70.1772 109.02C69.6572 108.78 69.2639 108.48 68.9972 108.12C68.7439 107.747 68.6172 107.273 68.6172 106.7C68.6172 106.007 68.7905 105.413 69.1372 104.92C69.4972 104.413 69.9905 104.02 70.6172 103.74C71.2572 103.46 72.0039 103.32 72.8572 103.32C73.6039 103.32 74.3105 103.44 74.9772 103.68C75.6439 103.907 76.2505 104.28 76.7972 104.8L75.7172 106.5C75.1839 106.087 74.6772 105.787 74.1972 105.6C73.7172 105.4 73.2305 105.3 72.7372 105.3C72.4572 105.3 72.1905 105.333 71.9372 105.4C71.6972 105.467 71.4972 105.58 71.3372 105.74C71.1905 105.887 71.1172 106.1 71.1172 106.38C71.1172 106.633 71.1839 106.833 71.3172 106.98C71.4639 107.113 71.6772 107.233 71.9572 107.34C72.2505 107.447 72.6039 107.567 73.0172 107.7C73.8572 107.94 74.5639 108.187 75.1372 108.44C75.7239 108.693 76.1639 109.007 76.4572 109.38C76.7505 109.74 76.8972 110.24 76.8972 110.88C76.8972 111.92 76.5172 112.733 75.7572 113.32C74.9972 113.907 73.9772 114.2 72.6972 114.2ZM88.46 114H85.78V108.12C85.78 107.307 85.62 106.7 85.3 106.3C84.9933 105.9 84.5667 105.7 84.02 105.7C83.7 105.7 83.36 105.793 83 105.98C82.64 106.167 82.3133 106.427 82.02 106.76C81.74 107.08 81.5333 107.453 81.4 107.88V114H78.72V99.4H81.4V105.46C81.7867 104.793 82.3133 104.273 82.98 103.9C83.6467 103.527 84.3733 103.34 85.16 103.34C85.84 103.34 86.3933 103.46 86.82 103.7C87.2467 103.927 87.58 104.24 87.82 104.64C88.06 105.027 88.2267 105.467 88.32 105.96C88.4133 106.44 88.46 106.94 88.46 107.46V114Z" fill="#0F5A51"/>
</svg>
