<svg width="21" height="16" viewBox="0 0 21 16" fill="none" xmlns="http://www.w3.org/2000/svg">
<path d="M1 7.2124C0.447715 7.2124 -1.65058e-09 7.66012 0 8.2124C1.65058e-09 8.76469 0.447715 9.2124 1 9.2124L1 7.2124ZM19.9688 8.91951C20.3593 8.52898 20.3593 7.89582 19.9688 7.5053L13.6048 1.14133C13.2143 0.75081 12.5811 0.75081 12.1906 1.14133C11.8001 1.53186 11.8001 2.16502 12.1906 2.55555L17.8474 8.2124L12.1906 13.8693C11.8001 14.2598 11.8001 14.8929 12.1906 15.2835C12.5811 15.674 13.2143 15.674 13.6048 15.2835L19.9688 8.91951ZM1 9.2124L19.2617 9.2124L19.2617 7.2124L1 7.2124L1 9.2124Z" fill="#06AEE5"/>
</svg>
