<svg width="26" height="26" viewBox="0 0 26 26" fill="none" xmlns="http://www.w3.org/2000/svg">
<path fill-rule="evenodd" clip-rule="evenodd" d="M13 26C20.1797 26 26 20.1797 26 13C26 5.8203 20.1797 0 13 0C5.8203 0 0 5.8203 0 13C0 20.1797 5.8203 26 13 26ZM10.5003 13.6962C10.3848 13.9967 10.2923 14.3144 10.223 14.6496H12.9097C12.9675 14.3953 13.1292 14.1873 13.395 14.0256C13.6723 13.8522 13.9959 13.6847 14.3657 13.5229C14.747 13.3611 15.1226 13.1647 15.4923 12.9336C15.7697 12.7602 16.0239 12.5696 16.255 12.3616C16.4977 12.1536 16.7057 11.9109 16.879 11.6336C17.0523 11.3562 17.1852 11.0384 17.2777 10.6802C17.3817 10.322 17.4337 9.91178 17.4337 9.44956C17.4337 8.77933 17.2835 8.242 16.983 7.83755C16.6941 7.43311 16.3243 7.13844 15.8737 6.95356C15.423 6.76867 14.9492 6.67622 14.4523 6.67622C13.9208 6.67622 13.4066 6.76867 12.9097 6.95356C12.4243 7.12689 11.9737 7.38111 11.5577 7.71622C11.1532 8.03978 10.8066 8.43844 10.5177 8.91222L12.303 10.4029C12.407 10.2873 12.5226 10.1487 12.6497 9.98689C12.7768 9.81355 12.9328 9.66333 13.1177 9.53622C13.3026 9.39755 13.5163 9.32822 13.759 9.32822C13.967 9.32822 14.1403 9.39178 14.279 9.51889C14.4177 9.646 14.487 9.81933 14.487 10.0389C14.487 10.2122 14.4408 10.3798 14.3483 10.5416C14.2675 10.6918 14.1288 10.8478 13.9323 11.0096C13.7475 11.1598 13.499 11.3273 13.187 11.5122C12.8866 11.6856 12.511 11.882 12.0603 12.1016C11.6097 12.3211 11.263 12.5696 11.0203 12.8469C10.7892 13.1127 10.6159 13.3958 10.5003 13.6962ZM9.92834 16.2962L9.32168 19.1389H12.0083L12.615 16.2962H9.92834Z" fill="url(#paint0_linear_1008_552)"/>
<defs>
<linearGradient id="paint0_linear_1008_552" x1="0.380319" y1="13.0491" x2="23.9082" y2="13.0491" gradientUnits="userSpaceOnUse">
<stop stop-color="#BAFB02"/>
<stop offset="1" stop-color="#06AEE5"/>
</linearGradient>
</defs>
</svg>
