<svg width="46" height="46" viewBox="0 0 46 46" fill="none" xmlns="http://www.w3.org/2000/svg">
<rect x="0.5" y="0.5" width="45" height="45" rx="7.5" fill="url(#paint0_radial_748_636)" stroke="url(#paint1_linear_748_636)"/>
<path d="M14.6971 25.5114L14.7371 25.5413L14.7373 25.5411L14.738 25.5401L14.7414 25.5358C14.7446 25.5318 14.7494 25.5258 14.756 25.5179C14.7692 25.502 14.7893 25.4787 14.8168 25.4494C14.8718 25.3908 14.956 25.3083 15.0719 25.2137C15.3034 25.0248 15.6614 24.7879 16.166 24.5984L16.166 24.5984L16.1708 24.597L16.1898 24.5912L16.2623 24.5688C16.3252 24.5492 16.4161 24.5204 16.5284 24.4836C16.753 24.41 17.0631 24.3043 17.4052 24.1761C18.0752 23.9251 18.8731 23.586 19.3901 23.2305L19.4356 23.2627C19.48 23.2941 19.5392 23.3358 19.5983 23.3768C19.6572 23.4176 19.7164 23.458 19.7606 23.4867C19.7786 23.4984 19.7948 23.5086 19.8077 23.5161L19.8077 23.5175L19.8062 23.6132L19.8006 23.952L19.783 24.9759L19.7653 25.9982L19.7594 26.3348L19.7578 26.4291L19.7574 26.454L19.7573 26.4604L19.7572 26.462L19.7572 26.4624L19.7572 26.4625L19.8072 26.4634L19.7572 26.4625L19.757 26.4722L19.7605 26.4812L22.5616 33.8287C22.6304 34.0096 22.8058 34.1285 23.0006 34.1285C23.1953 34.1285 23.3707 34.0096 23.4395 33.8287L26.2416 26.4812L26.245 26.4722L26.2449 26.4625L26.1935 23.5096L26.6093 23.2299C27.1271 23.5856 27.9258 23.925 28.5962 24.1761C28.9383 24.3043 29.2483 24.41 29.4728 24.4836C29.5851 24.5204 29.676 24.5492 29.7389 24.5688L29.8114 24.5912L29.8303 24.597L29.8352 24.5984L29.8352 24.5984C30.3397 24.7879 30.6978 25.0248 30.9293 25.2137C31.0451 25.3083 31.1293 25.3908 31.1843 25.4494C31.2118 25.4787 31.232 25.502 31.2452 25.5179C31.2517 25.5258 31.2566 25.5318 31.2597 25.5358L31.2631 25.5401L31.2635 25.5406C32.737 27.6894 32.8593 30.3087 32.9383 32.0136L32.9427 32.1092C32.9695 32.6935 32.9205 33.0895 32.8284 33.3529C32.7369 33.6148 32.6041 33.7422 32.4625 33.7977L32.4624 33.7977C30.5169 34.5645 26.762 34.95 22.9993 34.95C19.2366 34.95 15.4818 34.5645 13.5369 33.7977C13.3961 33.7418 13.2633 33.6143 13.1716 33.3525C13.0794 33.0892 13.0303 32.6935 13.0575 32.1092L13.0075 32.1069L13.0575 32.1092L13.0616 32.0199L13.0117 32.0176L13.0616 32.0199C13.1406 30.315 13.2633 27.6912 14.7383 25.5396L14.6971 25.5114ZM14.6971 25.5114C14.6971 25.5114 15.1279 24.9344 16.15 24.551L14.6971 25.5114ZM18.3152 18.5181L18.3152 18.518L18.3076 18.4841L18.3076 18.4841C18.2574 18.2599 18.1929 17.9709 18.1734 17.6956C18.1538 17.4175 18.1815 17.1674 18.3022 17.0111L18.3027 17.0104C18.3377 16.9634 18.3796 16.9248 18.4258 16.8945L18.4564 16.8744L18.4465 16.8391C17.9305 15.0097 18.349 14.0436 18.4179 13.8845L18.4184 13.8835L18.4184 13.8835L18.4197 13.8804L18.4199 13.8801C18.8801 12.799 19.6073 11.937 20.5688 11.4603C21.5296 10.9838 22.7302 10.8892 24.1435 11.353C25.1081 11.6698 26.1643 12.0677 26.9232 12.8562C28.2484 14.2331 27.8123 15.7547 27.5417 16.6948C27.5274 16.7446 27.5135 16.7928 27.5004 16.8391L27.4918 16.8695L27.5155 16.8903C27.5241 16.8978 27.5542 16.9249 27.5843 16.9524C27.6145 16.9801 27.6405 17.0047 27.6476 17.0123C27.772 17.1755 27.8134 17.4163 27.8087 17.6789C27.8041 17.9407 27.754 18.2148 27.7052 18.4356C27.6182 18.8191 27.4746 19.1365 27.3329 19.28L27.3221 19.2909L27.3193 19.3058C27.1375 20.2642 26.6412 21.3496 25.9045 22.2086C25.1678 23.0674 24.1948 23.6955 23.0601 23.7502L23.0601 23.7502C22.1731 23.7933 21.1689 23.299 20.3388 22.4809C19.5097 21.6638 18.8614 20.5301 18.6826 19.3079L18.6802 19.2918L18.6688 19.2801C18.5258 19.1344 18.3988 18.896 18.3152 18.5181ZM18.6331 19.3152C18.9942 21.7841 21.2504 23.8881 23.0625 23.8002C25.3678 23.689 27.0017 21.2488 27.3684 19.3152H18.6331ZM19.8084 23.4883C19.8078 23.4815 19.8083 23.4716 19.8136 23.4612C19.8284 23.4704 19.8401 23.4773 19.8478 23.4812L19.8084 23.4883ZM19.8081 23.4841L19.8081 23.4842C19.8081 23.4834 19.8081 23.4832 19.8081 23.4841ZM22.975 24.8017L22.9761 24.8017L23.1025 24.7989L23.1033 24.7989C23.4579 24.7849 23.7967 24.7294 24.119 24.6454L23.0984 26.1789L23.0751 26.2139L23.1056 26.2429L24.0838 27.1692L23.0625 33.261C23.0625 33.2611 23.0625 33.2611 23.0625 33.2612C23.0573 33.2896 23.0323 33.3106 23.0024 33.3106C22.971 33.3106 22.9467 33.2892 22.9424 33.2619L22.9423 33.2615L21.9209 27.1692L22.8982 26.2429L22.9287 26.2139L22.9054 26.1789L21.874 24.6284C22.2379 24.7394 22.6076 24.8017 22.975 24.8017Z" fill="url(#paint2_linear_748_636)" stroke="black" stroke-width="0.1"/>
<defs>
<radialGradient id="paint0_radial_748_636" cx="0" cy="0" r="1" gradientUnits="userSpaceOnUse" gradientTransform="translate(23 23) rotate(90) scale(23)">
<stop stop-color="#02100E"/>
<stop offset="1" stop-color="#062622"/>
</radialGradient>
<linearGradient id="paint1_linear_748_636" x1="0.672872" y1="23.0868" x2="42.2992" y2="23.0868" gradientUnits="userSpaceOnUse">
<stop stop-color="#BAFB02"/>
<stop offset="1" stop-color="#06AEE5"/>
</linearGradient>
<linearGradient id="paint2_linear_748_636" x1="13.2926" y1="23.0453" x2="31.391" y2="23.0453" gradientUnits="userSpaceOnUse">
<stop stop-color="#BAFB02"/>
<stop offset="1" stop-color="#06AEE5"/>
</linearGradient>
</defs>
</svg>
