<svg width="100" height="24" viewBox="0 0 100 24" fill="none" xmlns="http://www.w3.org/2000/svg">
<mask id="path-1-inside-1_757_1323" fill="white">
<path d="M0 8C0 3.58172 3.58172 0 8 0H92C96.4183 0 100 3.58172 100 8V16C100 20.4183 96.4183 24 92 24H8C3.58172 24 0 20.4183 0 16V8Z"/>
</mask>
<path d="M0 8C0 3.58172 3.58172 0 8 0H92C96.4183 0 100 3.58172 100 8V16C100 20.4183 96.4183 24 92 24H8C3.58172 24 0 20.4183 0 16V8Z" fill="url(#paint0_radial_757_1323)" stroke="url(#paint1_linear_757_1323)" stroke-width="2" mask="url(#path-1-inside-1_757_1323)"/>
<path d="M5.05453 17V7.06H13.5805V17H10.8505V9.44H7.78453V17H5.05453ZM19.8281 17.084C19.0721 17.084 18.3861 16.944 17.7701 16.664C17.1541 16.3747 16.6221 15.992 16.1741 15.516C15.7355 15.0307 15.3948 14.4893 15.1521 13.892C14.9188 13.2853 14.8021 12.66 14.8021 12.016C14.8021 11.3533 14.9281 10.7233 15.1801 10.126C15.4321 9.52867 15.7821 8.99667 16.2301 8.53C16.6875 8.054 17.2241 7.68067 17.8401 7.41C18.4655 7.13933 19.1468 7.004 19.8841 7.004C20.6401 7.004 21.3261 7.14867 21.9421 7.438C22.5581 7.718 23.0855 8.10067 23.5241 8.586C23.9628 9.07133 24.2988 9.61733 24.5321 10.224C24.7748 10.8213 24.8961 11.4373 24.8961 12.072C24.8961 12.7253 24.7701 13.3507 24.5181 13.948C24.2755 14.5453 23.9255 15.082 23.4681 15.558C23.0201 16.0247 22.4881 16.398 21.8721 16.678C21.2561 16.9487 20.5748 17.084 19.8281 17.084ZM17.5741 12.044C17.5741 12.38 17.6208 12.7067 17.7141 13.024C17.8075 13.332 17.9475 13.612 18.1341 13.864C18.3208 14.1067 18.5541 14.3027 18.8341 14.452C19.1235 14.592 19.4641 14.662 19.8561 14.662C20.2481 14.662 20.5888 14.5873 20.8781 14.438C21.1675 14.2887 21.4008 14.088 21.5781 13.836C21.7648 13.5747 21.9001 13.29 21.9841 12.982C22.0775 12.6647 22.1241 12.3427 22.1241 12.016C22.1241 11.68 22.0775 11.358 21.9841 11.05C21.8908 10.742 21.7508 10.4667 21.5641 10.224C21.3775 9.972 21.1395 9.776 20.8501 9.636C20.5608 9.496 20.2248 9.426 19.8421 9.426C19.4501 9.426 19.1095 9.50067 18.8201 9.65C18.5401 9.79933 18.3068 10 18.1201 10.252C17.9335 10.4947 17.7935 10.7747 17.7001 11.092C17.6161 11.4 17.5741 11.7173 17.5741 12.044ZM26.1092 17V7.06H34.6352V17H31.9052V9.44H28.8392V17H26.1092ZM40.8828 17.084C40.1268 17.084 39.4408 16.944 38.8248 16.664C38.2088 16.3747 37.6768 15.992 37.2288 15.516C36.7902 15.0307 36.4495 14.4893 36.2068 13.892C35.9735 13.2853 35.8568 12.66 35.8568 12.016C35.8568 11.3533 35.9828 10.7233 36.2348 10.126C36.4868 9.52867 36.8368 8.99667 37.2848 8.53C37.7422 8.054 38.2788 7.68067 38.8948 7.41C39.5202 7.13933 40.2015 7.004 40.9388 7.004C41.6948 7.004 42.3808 7.14867 42.9968 7.438C43.6128 7.718 44.1402 8.10067 44.5788 8.586C45.0175 9.07133 45.3535 9.61733 45.5868 10.224C45.8295 10.8213 45.9508 11.4373 45.9508 12.072C45.9508 12.7253 45.8248 13.3507 45.5728 13.948C45.3302 14.5453 44.9802 15.082 44.5228 15.558C44.0748 16.0247 43.5428 16.398 42.9268 16.678C42.3108 16.9487 41.6295 17.084 40.8828 17.084ZM38.6288 12.044C38.6288 12.38 38.6755 12.7067 38.7688 13.024C38.8622 13.332 39.0022 13.612 39.1888 13.864C39.3755 14.1067 39.6088 14.3027 39.8888 14.452C40.1782 14.592 40.5188 14.662 40.9108 14.662C41.3028 14.662 41.6435 14.5873 41.9328 14.438C42.2222 14.2887 42.4555 14.088 42.6328 13.836C42.8195 13.5747 42.9548 13.29 43.0388 12.982C43.1322 12.6647 43.1788 12.3427 43.1788 12.016C43.1788 11.68 43.1322 11.358 43.0388 11.05C42.9455 10.742 42.8055 10.4667 42.6188 10.224C42.4322 9.972 42.1942 9.776 41.9048 9.636C41.6155 9.496 41.2795 9.426 40.8968 9.426C40.5048 9.426 40.1642 9.50067 39.8748 9.65C39.5948 9.79933 39.3615 10 39.1748 10.252C38.9882 10.4947 38.8482 10.7747 38.7548 11.092C38.6708 11.4 38.6288 11.7173 38.6288 12.044ZM53.1279 17V9.44H51.1959L51.1399 10.784C51.0839 12.0533 50.9626 13.0987 50.7759 13.92C50.5986 14.732 50.3326 15.3713 49.9779 15.838C49.6232 16.2953 49.1659 16.622 48.6059 16.818C48.0552 17.0047 47.3879 17.098 46.6039 17.098V14.746C46.9212 14.746 47.1919 14.69 47.4159 14.578C47.6492 14.4567 47.8406 14.2327 47.9899 13.906C48.1486 13.57 48.2699 13.0893 48.3539 12.464C48.4472 11.8293 48.5126 10.9987 48.5499 9.972L48.6619 7.06H55.8579V17H53.1279ZM66.3589 7.06V17H63.6289V13.108H60.2969V17H57.5669V7.06H60.2969V10.728H63.6289V7.06H66.3589ZM68.1229 17V7.06H70.8529V13.108L74.5209 7.06H77.0689V17H74.3389V10.952L70.7129 17H68.1229ZM86.5687 9.44H83.7127V17H80.9827V9.44H78.1127V7.06H86.5687V9.44ZM87.619 17V7.06H90.349V10.35H91.973C92.7197 10.35 93.359 10.4853 93.891 10.756C94.4323 11.0173 94.8477 11.3953 95.137 11.89C95.4357 12.3753 95.585 12.9587 95.585 13.64C95.585 14.3307 95.445 14.928 95.165 15.432C94.885 15.936 94.4837 16.3233 93.961 16.594C93.4477 16.8647 92.8317 17 92.113 17H87.619ZM90.349 14.788H91.721C91.9637 14.788 92.1643 14.7413 92.323 14.648C92.4817 14.5547 92.5983 14.424 92.673 14.256C92.757 14.0787 92.799 13.8733 92.799 13.64C92.799 13.4533 92.757 13.2807 92.673 13.122C92.589 12.954 92.4677 12.8187 92.309 12.716C92.1503 12.6133 91.9543 12.562 91.721 12.562H90.349V14.788Z" fill="url(#paint2_linear_757_1323)"/>
<defs>
<radialGradient id="paint0_radial_757_1323" cx="0" cy="0" r="1" gradientUnits="userSpaceOnUse" gradientTransform="translate(50 12) rotate(90) scale(12 50)">
<stop stop-color="#02100E"/>
<stop offset="1" stop-color="#062622"/>
</radialGradient>
<linearGradient id="paint1_linear_757_1323" x1="1.46277" y1="12.0453" x2="91.9548" y2="12.0453" gradientUnits="userSpaceOnUse">
<stop stop-color="#BAFB02"/>
<stop offset="1" stop-color="#06AEE5"/>
</linearGradient>
<linearGradient id="paint2_linear_757_1323" x1="5.34574" y1="12.0302" x2="88.5984" y2="12.0302" gradientUnits="userSpaceOnUse">
<stop stop-color="#BAFB02"/>
<stop offset="1" stop-color="#06AEE5"/>
</linearGradient>
</defs>
</svg>
