<svg width="219" height="94" viewBox="0 0 219 94" fill="none" xmlns="http://www.w3.org/2000/svg">
<g filter="url(#filter0_f_757_1335)">
<mask id="path-1-inside-1_757_1335" fill="white">
<path d="M10 18C10 13.5817 13.5817 10 18 10H201C205.418 10 209 13.5817 209 18V76C209 80.4183 205.418 84 201 84H18C13.5817 84 10 80.4183 10 76V18Z"/>
</mask>
<path d="M10 18C10 13.5817 13.5817 10 18 10H201C205.418 10 209 13.5817 209 18V76C209 80.4183 205.418 84 201 84H18C13.5817 84 10 80.4183 10 76V18Z" fill="url(#paint0_radial_757_1335)"/>
<path d="M10 18C10 13.5817 13.5817 10 18 10H201C205.418 10 209 13.5817 209 18V76C209 80.4183 205.418 84 201 84H18C13.5817 84 10 80.4183 10 76V18Z" stroke="url(#paint1_linear_757_1335)" stroke-width="2" mask="url(#path-1-inside-1_757_1335)"/>
</g>
<g filter="url(#filter1_f_757_1335)">
<mask id="path-2-inside-2_757_1335" fill="white">
<path d="M10 18C10 13.5817 13.5817 10 18 10H201C205.418 10 209 13.5817 209 18V76C209 80.4183 205.418 84 201 84H18C13.5817 84 10 80.4183 10 76V18Z"/>
</mask>
<path d="M10 18C10 13.5817 13.5817 10 18 10H201C205.418 10 209 13.5817 209 18V76C209 80.4183 205.418 84 201 84H18C13.5817 84 10 80.4183 10 76V18Z" fill="url(#paint2_radial_757_1335)"/>
<path d="M10 18C10 13.5817 13.5817 10 18 10H201C205.418 10 209 13.5817 209 18V76C209 80.4183 205.418 84 201 84H18C13.5817 84 10 80.4183 10 76V18Z" stroke="url(#paint3_linear_757_1335)" stroke-width="2" mask="url(#path-2-inside-2_757_1335)"/>
</g>
<mask id="path-3-inside-3_757_1335" fill="white">
<path d="M10 18C10 13.5817 13.5817 10 18 10H201C205.418 10 209 13.5817 209 18V76C209 80.4183 205.418 84 201 84H18C13.5817 84 10 80.4183 10 76V18Z"/>
</mask>
<path d="M10 18C10 13.5817 13.5817 10 18 10H201C205.418 10 209 13.5817 209 18V76C209 80.4183 205.418 84 201 84H18C13.5817 84 10 80.4183 10 76V18Z" fill="url(#paint4_radial_757_1335)" stroke="url(#paint5_linear_757_1335)" stroke-width="2" mask="url(#path-3-inside-3_757_1335)"/>
<path d="M18.3973 44L21.9973 26.96H26.6533L25.3333 33.224H25.9573L31.6213 26.96H37.2853L29.3173 34.88L33.5413 44H28.1413L25.5493 37.472H24.4213L23.0533 44H18.3973ZM37.9324 44.168L38.7484 40.328H40.7884C41.0444 40.328 41.2524 40.272 41.4124 40.16C41.5724 40.048 41.7324 39.912 41.8924 39.752L42.0364 39.584L37.2844 26.96H42.4444L44.5564 35.072L48.8284 26.96H53.6524L45.1084 41.528C44.6924 42.2 44.2524 42.728 43.7884 43.112C43.3244 43.496 42.8044 43.768 42.2284 43.928C41.6684 44.088 41.0124 44.168 40.2604 44.168H37.9324ZM51.7957 44L55.3958 26.96H70.0118L66.4118 44H61.7318L64.4678 31.04H59.2118L56.4758 44H51.7957ZM69.3739 44L72.9739 26.96H77.6539L75.4219 37.496L83.3659 26.96H87.7339L84.1339 44H79.4539L81.5659 34.088L73.8139 44H69.3739ZM93.2366 31.04H88.6526L89.5166 26.96H103.341L102.477 31.04H97.9166L95.1566 44H90.4766L93.2366 31.04ZM101.483 44L105.083 26.96H109.763L108.563 32.6H111.155C112.435 32.6 113.499 32.832 114.347 33.296C115.211 33.744 115.835 34.392 116.219 35.24C116.603 36.072 116.715 37.072 116.555 38.24C116.395 39.424 116.011 40.448 115.403 41.312C114.795 42.176 114.011 42.84 113.051 43.304C112.107 43.768 111.019 44 109.787 44H101.483ZM106.979 40.208H109.643C110.059 40.208 110.411 40.128 110.699 39.968C111.003 39.808 111.243 39.584 111.419 39.296C111.611 38.992 111.731 38.64 111.779 38.24C111.827 37.92 111.795 37.624 111.683 37.352C111.587 37.064 111.411 36.832 111.155 36.656C110.915 36.48 110.595 36.392 110.195 36.392H107.771L106.979 40.208ZM122.929 44L126.529 26.96H141.145L137.545 44H132.865L135.601 31.04H130.345L127.609 44H122.929ZM148.235 26.96H152.531L154.427 44H149.675L149.507 40.664H145.427L143.867 44H139.091L148.235 26.96ZM149.435 37.544L149.243 32.264L146.771 37.544H149.435ZM155.272 44L158.872 26.96H163.528L162.208 33.224H162.832L168.496 26.96H174.16L166.192 34.88L170.416 44H165.016L162.424 37.472H161.296L159.928 44H155.272ZM175.911 26.96H187.287L186.423 31.04H179.727L179.223 33.44H184.935L184.119 37.232H178.407L177.831 39.92H184.743L183.879 44H172.287L175.911 26.96ZM192.26 31.04H187.676L188.54 26.96H202.364L201.5 31.04H196.94L194.18 44H189.5L192.26 31.04Z" fill="url(#paint6_linear_757_1335)"/>
<path d="M44.2666 68V56.64H54.0106V68H50.8906V59.36H47.3866V68H44.2666ZM61.4867 68.16C60.8787 68.16 60.3507 68.0427 59.9027 67.808C59.4547 67.5627 59.108 67.2107 58.8627 66.752V71.408H55.8227V59.584H58.4627V60.848C58.7614 60.3893 59.1294 60.0373 59.5667 59.792C60.0147 59.5467 60.5534 59.424 61.1827 59.424C61.748 59.424 62.2654 59.5307 62.7347 59.744C63.204 59.9573 63.6147 60.2613 63.9667 60.656C64.3187 61.0507 64.5907 61.5093 64.7827 62.032C64.9747 62.5547 65.0707 63.1307 65.0707 63.76C65.0707 64.6027 64.916 65.3547 64.6067 66.016C64.2974 66.6773 63.8707 67.2 63.3267 67.584C62.7934 67.968 62.18 68.16 61.4867 68.16ZM60.4307 65.6C60.6547 65.6 60.8574 65.552 61.0387 65.456C61.2307 65.36 61.396 65.2267 61.5347 65.056C61.6734 64.8853 61.78 64.688 61.8547 64.464C61.9294 64.24 61.9667 64 61.9667 63.744C61.9667 63.4773 61.924 63.2373 61.8387 63.024C61.764 62.8107 61.652 62.6293 61.5027 62.48C61.3534 62.32 61.1774 62.1973 60.9747 62.112C60.772 62.0267 60.548 61.984 60.3027 61.984C60.164 61.984 60.0254 62.0053 59.8867 62.048C59.7587 62.08 59.636 62.1333 59.5187 62.208C59.4014 62.272 59.284 62.3573 59.1667 62.464C59.06 62.5707 58.9587 62.6987 58.8627 62.848V64.304C58.9587 64.5493 59.0867 64.7733 59.2467 64.976C59.4174 65.168 59.604 65.3227 59.8067 65.44C60.0094 65.5467 60.2174 65.6 60.4307 65.6ZM66.2141 68V59.584H69.2541V63.952L71.9101 59.584H74.6781V68H71.6381V63.776L68.9981 68H66.2141ZM80.7086 68.16C79.2046 68.16 78.0579 67.728 77.2686 66.864C76.4899 65.9893 76.1006 64.6613 76.1006 62.88C76.1006 61.888 76.1912 61.0453 76.3726 60.352C76.5646 59.648 76.8472 59.0667 77.2206 58.608C77.5939 58.1493 78.0686 57.7813 78.6446 57.504C79.2206 57.2267 79.8979 57.0187 80.6766 56.88L84.3406 56.16V58.528L80.6286 59.344C80.2019 59.44 79.8019 59.5947 79.4286 59.808C79.0659 60.0213 78.7672 60.2987 78.5326 60.64C78.2979 60.9707 78.1592 61.3707 78.1166 61.84C78.4899 61.3707 78.9539 60.992 79.5086 60.704C80.0632 60.416 80.7619 60.272 81.6046 60.272C82.3086 60.272 82.9379 60.432 83.4926 60.752C84.0579 61.0613 84.5006 61.4933 84.8206 62.048C85.1512 62.592 85.3166 63.2267 85.3166 63.952C85.3166 64.7413 85.1406 65.456 84.7886 66.096C84.4366 66.736 83.9192 67.2427 83.2366 67.616C82.5539 67.9787 81.7112 68.16 80.7086 68.16ZM80.7086 65.6C81.1459 65.6 81.5032 65.4667 81.7806 65.2C82.0579 64.9227 82.1966 64.56 82.1966 64.112C82.1966 63.696 82.0579 63.3547 81.7806 63.088C81.5032 62.8107 81.1459 62.672 80.7086 62.672C80.4206 62.672 80.1646 62.736 79.9406 62.864C79.7166 62.9813 79.5406 63.152 79.4126 63.376C79.2846 63.5893 79.2206 63.8347 79.2206 64.112C79.2206 64.4213 79.2846 64.688 79.4126 64.912C79.5406 65.136 79.7166 65.3067 79.9406 65.424C80.1646 65.5413 80.4206 65.6 80.7086 65.6ZM86.4172 68V59.584H89.4572V61.952H90.6732C91.7079 61.952 92.5079 62.224 93.0732 62.768C93.6385 63.3013 93.9212 64.0107 93.9212 64.896C93.9212 65.5147 93.8039 66.0587 93.5692 66.528C93.3345 66.9973 92.9879 67.36 92.5292 67.616C92.0812 67.872 91.5265 68 90.8652 68H86.4172ZM89.4572 65.712H90.3532C90.5239 65.712 90.6679 65.68 90.7852 65.616C90.9025 65.552 90.9879 65.4613 91.0412 65.344C91.1052 65.216 91.1372 65.0667 91.1372 64.896C91.1372 64.7253 91.1052 64.5813 91.0412 64.464C90.9879 64.3467 90.9025 64.256 90.7852 64.192C90.6679 64.1173 90.5239 64.08 90.3532 64.08H89.4572V65.712ZM95.1052 68V59.584H98.1452V68H95.1052ZM99.2653 68.16V65.472C99.5106 65.4613 99.724 65.4133 99.9053 65.328C100.087 65.2427 100.241 65.0987 100.369 64.896C100.508 64.6827 100.615 64.384 100.689 64C100.764 63.6053 100.817 63.0987 100.849 62.48L100.977 59.584H108.001V68H104.961V62.224H103.665L103.633 62.8C103.58 63.8347 103.457 64.6987 103.265 65.392C103.073 66.0853 102.801 66.6347 102.449 67.04C102.097 67.4347 101.66 67.7173 101.137 67.888C100.615 68.0587 99.9906 68.1493 99.2653 68.16ZM109.605 68V59.584H112.645V61.952H114.341C115.375 61.952 116.175 62.224 116.741 62.768C117.306 63.3013 117.589 64.0107 117.589 64.896C117.589 65.5147 117.471 66.0587 117.237 66.528C117.002 66.9973 116.655 67.36 116.197 67.616C115.749 67.872 115.194 68 114.533 68H109.605ZM112.645 65.712H114.021C114.191 65.712 114.335 65.68 114.453 65.616C114.57 65.552 114.655 65.4613 114.709 65.344C114.773 65.216 114.805 65.0667 114.805 64.896C114.805 64.7253 114.773 64.5813 114.709 64.464C114.655 64.3467 114.57 64.256 114.453 64.192C114.335 64.1173 114.191 64.08 114.021 64.08H112.645V65.712ZM119.114 62.64V59.696H121.578V62.64H119.114ZM119.114 68V65.056H121.578V68H119.114ZM131.023 66.48H132.303V70.064H131.023V66.48ZM131.247 66.128V58.576L132.079 58.352V66.16L131.247 66.128ZM131.023 54.96H132.303V58.032L131.023 58.256V54.96ZM134.527 60.352C134.527 60.352 134.437 60.2987 134.255 60.192C134.074 60.0853 133.834 59.968 133.535 59.84C133.237 59.7013 132.911 59.5787 132.559 59.472C132.207 59.3653 131.861 59.312 131.519 59.312C131.253 59.312 131.034 59.3547 130.863 59.44C130.693 59.5253 130.607 59.6693 130.607 59.872C130.607 60.064 130.693 60.2187 130.863 60.336C131.034 60.4533 131.274 60.56 131.583 60.656C131.903 60.752 132.282 60.8693 132.719 61.008C133.423 61.2213 134.031 61.4667 134.543 61.744C135.055 62.0213 135.45 62.3787 135.727 62.816C136.005 63.2427 136.143 63.8133 136.143 64.528C136.143 65.2107 136.021 65.7867 135.775 66.256C135.53 66.7147 135.199 67.0827 134.783 67.36C134.367 67.6373 133.903 67.84 133.391 67.968C132.879 68.0853 132.357 68.144 131.823 68.144C131.279 68.144 130.709 68.0907 130.111 67.984C129.525 67.8667 128.954 67.712 128.399 67.52C127.845 67.3173 127.338 67.0827 126.879 66.816L128.223 64.08C128.223 64.08 128.33 64.144 128.543 64.272C128.757 64.4 129.039 64.544 129.391 64.704C129.743 64.864 130.133 65.008 130.559 65.136C130.997 65.264 131.434 65.328 131.871 65.328C132.213 65.328 132.447 65.2853 132.575 65.2C132.714 65.104 132.783 64.9813 132.783 64.832C132.783 64.608 132.666 64.4373 132.431 64.32C132.197 64.192 131.887 64.0747 131.503 63.968C131.13 63.8507 130.714 63.7173 130.255 63.568C129.594 63.344 129.05 63.0933 128.623 62.816C128.197 62.528 127.882 62.192 127.679 61.808C127.477 61.4133 127.375 60.9387 127.375 60.384C127.375 59.5413 127.573 58.8373 127.967 58.272C128.362 57.7067 128.879 57.28 129.519 56.992C130.17 56.6933 130.869 56.544 131.615 56.544C132.17 56.544 132.703 56.6133 133.215 56.752C133.738 56.88 134.223 57.04 134.671 57.232C135.13 57.424 135.53 57.6053 135.871 57.776L134.527 60.352ZM137.254 68C137.254 67.4667 137.296 66.9973 137.382 66.592C137.467 66.1867 137.606 65.824 137.798 65.504C137.99 65.184 138.235 64.8907 138.534 64.624C138.843 64.3573 139.222 64.1067 139.67 63.872C140.246 63.5627 140.704 63.312 141.046 63.12C141.387 62.928 141.638 62.7787 141.798 62.672C141.968 62.5547 142.075 62.4587 142.118 62.384C142.171 62.2987 142.198 62.208 142.198 62.112C142.198 61.9307 142.155 61.7867 142.07 61.68C141.995 61.5627 141.888 61.4773 141.75 61.424C141.611 61.36 141.44 61.328 141.238 61.328C141.067 61.328 140.896 61.3493 140.726 61.392C140.566 61.4347 140.406 61.504 140.246 61.6C140.086 61.696 139.92 61.8187 139.75 61.968C139.59 62.1067 139.424 62.2773 139.254 62.48L137.334 60.224C137.547 60 137.808 59.7973 138.118 59.616C138.438 59.424 138.79 59.264 139.174 59.136C139.568 58.9973 139.984 58.8907 140.422 58.816C140.859 58.7413 141.307 58.704 141.766 58.704C142.576 58.704 143.259 58.8213 143.814 59.056C144.368 59.28 144.79 59.6053 145.078 60.032C145.366 60.4587 145.51 60.976 145.51 61.584C145.51 61.9147 145.467 62.2133 145.382 62.48C145.296 62.736 145.179 62.9653 145.03 63.168C144.88 63.3707 144.704 63.5573 144.502 63.728C144.31 63.8987 144.102 64.0587 143.878 64.208C143.718 64.2933 143.547 64.384 143.366 64.48C143.195 64.5653 143.019 64.6507 142.838 64.736C142.656 64.8213 142.475 64.912 142.294 65.008C142.112 65.0933 141.931 65.184 141.75 65.28H145.686V68H137.254ZM155.488 63.312C155.488 64.2507 155.301 65.088 154.928 65.824C154.555 66.5493 154.048 67.12 153.408 67.536C152.779 67.952 152.059 68.16 151.248 68.16C150.448 68.16 149.728 67.952 149.088 67.536C148.448 67.12 147.941 66.5493 147.568 65.824C147.195 65.088 147.008 64.2507 147.008 63.312C147.008 62.3733 147.195 61.5413 147.568 60.816C147.941 60.08 148.448 59.504 149.088 59.088C149.728 58.6613 150.453 58.448 151.264 58.448C152.064 58.448 152.779 58.6613 153.408 59.088C154.048 59.504 154.555 60.08 154.928 60.816C155.301 61.5413 155.488 62.3733 155.488 63.312ZM152.416 63.312C152.416 62.896 152.363 62.5333 152.256 62.224C152.16 61.9147 152.021 61.6747 151.84 61.504C151.669 61.3227 151.472 61.232 151.248 61.232C151.013 61.232 150.805 61.3227 150.624 61.504C150.443 61.6747 150.299 61.9147 150.192 62.224C150.096 62.5333 150.048 62.896 150.048 63.312C150.048 63.728 150.096 64.0907 150.192 64.4C150.299 64.7093 150.443 64.9493 150.624 65.12C150.805 65.2907 151.013 65.376 151.248 65.376C151.472 65.376 151.669 65.2907 151.84 65.12C152.021 64.9493 152.16 64.7093 152.256 64.4C152.363 64.0907 152.416 63.728 152.416 63.312ZM165.332 64.464C165.332 65.2 165.14 65.8453 164.756 66.4C164.372 66.9547 163.855 67.3867 163.204 67.696C162.553 68.0053 161.833 68.16 161.044 68.16C160.297 68.16 159.593 68.0053 158.932 67.696C158.281 67.3867 157.753 66.9493 157.348 66.384C156.953 65.808 156.756 65.136 156.756 64.368C156.756 63.984 156.825 63.6373 156.964 63.328C157.113 63.0187 157.295 62.7467 157.508 62.512C157.721 62.2773 157.929 62.0853 158.132 61.936C157.929 61.808 157.748 61.6427 157.588 61.44C157.428 61.2373 157.3 61.0133 157.204 60.768C157.119 60.512 157.076 60.2613 157.076 60.016C157.076 59.472 157.199 58.992 157.444 58.576C157.689 58.1493 158.009 57.792 158.404 57.504C158.799 57.216 159.225 57.0027 159.684 56.864C160.153 56.7147 160.607 56.64 161.044 56.64C161.481 56.64 161.935 56.7147 162.404 56.864C162.873 57.0027 163.305 57.216 163.7 57.504C164.095 57.7813 164.415 58.128 164.66 58.544C164.905 58.96 165.028 59.44 165.028 59.984C165.028 60.2293 164.98 60.48 164.884 60.736C164.788 60.992 164.66 61.2267 164.5 61.44C164.34 61.6533 164.159 61.8187 163.956 61.936C164.169 62.096 164.383 62.2987 164.596 62.544C164.809 62.7787 164.985 63.056 165.124 63.376C165.263 63.696 165.332 64.0587 165.332 64.464ZM162.244 64.288C162.244 64.1067 162.212 63.952 162.148 63.824C162.095 63.6853 162.009 63.568 161.892 63.472C161.785 63.376 161.657 63.3067 161.508 63.264C161.369 63.2107 161.215 63.184 161.044 63.184C160.809 63.184 160.601 63.232 160.42 63.328C160.239 63.4133 160.095 63.5413 159.988 63.712C159.892 63.872 159.844 64.064 159.844 64.288C159.844 64.448 159.876 64.5973 159.94 64.736C160.004 64.864 160.089 64.9813 160.196 65.088C160.303 65.184 160.425 65.2587 160.564 65.312C160.713 65.3653 160.873 65.392 161.044 65.392C161.279 65.392 161.487 65.344 161.668 65.248C161.849 65.1413 161.988 65.008 162.084 64.848C162.191 64.6773 162.244 64.4907 162.244 64.288ZM160.164 60.08C160.164 60.272 160.207 60.432 160.292 60.56C160.377 60.6773 160.489 60.768 160.628 60.832C160.767 60.896 160.905 60.928 161.044 60.928C161.193 60.928 161.332 60.896 161.46 60.832C161.599 60.768 161.711 60.6773 161.796 60.56C161.892 60.432 161.94 60.272 161.94 60.08C161.94 59.9413 161.903 59.8133 161.828 59.696C161.753 59.5787 161.647 59.488 161.508 59.424C161.38 59.3493 161.225 59.312 161.044 59.312C160.873 59.312 160.719 59.3493 160.58 59.424C160.452 59.488 160.351 59.5787 160.276 59.696C160.201 59.8133 160.164 59.9413 160.164 60.08ZM175.097 63.312C175.097 64.2507 174.911 65.088 174.537 65.824C174.164 66.5493 173.657 67.12 173.017 67.536C172.388 67.952 171.668 68.16 170.857 68.16C170.057 68.16 169.337 67.952 168.697 67.536C168.057 67.12 167.551 66.5493 167.177 65.824C166.804 65.088 166.617 64.2507 166.617 63.312C166.617 62.3733 166.804 61.5413 167.177 60.816C167.551 60.08 168.057 59.504 168.697 59.088C169.337 58.6613 170.063 58.448 170.873 58.448C171.673 58.448 172.388 58.6613 173.017 59.088C173.657 59.504 174.164 60.08 174.537 60.816C174.911 61.5413 175.097 62.3733 175.097 63.312ZM172.025 63.312C172.025 62.896 171.972 62.5333 171.865 62.224C171.769 61.9147 171.631 61.6747 171.449 61.504C171.279 61.3227 171.081 61.232 170.857 61.232C170.623 61.232 170.415 61.3227 170.233 61.504C170.052 61.6747 169.908 61.9147 169.801 62.224C169.705 62.5333 169.657 62.896 169.657 63.312C169.657 63.728 169.705 64.0907 169.801 64.4C169.908 64.7093 170.052 64.9493 170.233 65.12C170.415 65.2907 170.623 65.376 170.857 65.376C171.081 65.376 171.279 65.2907 171.449 65.12C171.631 64.9493 171.769 64.7093 171.865 64.4C171.972 64.0907 172.025 63.728 172.025 63.312Z" fill="url(#paint7_linear_757_1335)"/>
<defs>
<filter id="filter0_f_757_1335" x="0" y="0" width="219" height="94" filterUnits="userSpaceOnUse" color-interpolation-filters="sRGB">
<feFlood flood-opacity="0" result="BackgroundImageFix"/>
<feBlend mode="normal" in="SourceGraphic" in2="BackgroundImageFix" result="shape"/>
<feGaussianBlur stdDeviation="5" result="effect1_foregroundBlur_757_1335"/>
</filter>
<filter id="filter1_f_757_1335" x="5" y="5" width="209" height="84" filterUnits="userSpaceOnUse" color-interpolation-filters="sRGB">
<feFlood flood-opacity="0" result="BackgroundImageFix"/>
<feBlend mode="normal" in="SourceGraphic" in2="BackgroundImageFix" result="shape"/>
<feGaussianBlur stdDeviation="2.5" result="effect1_foregroundBlur_757_1335"/>
</filter>
<radialGradient id="paint0_radial_757_1335" cx="0" cy="0" r="1" gradientUnits="userSpaceOnUse" gradientTransform="translate(109.5 47) rotate(90) scale(37 99.5)">
<stop stop-color="#02100E"/>
<stop offset="1" stop-color="#062622"/>
</radialGradient>
<linearGradient id="paint1_linear_757_1335" x1="12.9109" y1="47.1397" x2="192.99" y2="47.1397" gradientUnits="userSpaceOnUse">
<stop stop-color="#BAFB02"/>
<stop offset="1" stop-color="#06AEE5"/>
</linearGradient>
<radialGradient id="paint2_radial_757_1335" cx="0" cy="0" r="1" gradientUnits="userSpaceOnUse" gradientTransform="translate(109.5 47) rotate(90) scale(37 99.5)">
<stop stop-color="#02100E"/>
<stop offset="1" stop-color="#062622"/>
</radialGradient>
<linearGradient id="paint3_linear_757_1335" x1="12.9109" y1="47.1397" x2="192.99" y2="47.1397" gradientUnits="userSpaceOnUse">
<stop stop-color="#BAFB02"/>
<stop offset="1" stop-color="#06AEE5"/>
</linearGradient>
<radialGradient id="paint4_radial_757_1335" cx="0" cy="0" r="1" gradientUnits="userSpaceOnUse" gradientTransform="translate(109.5 47) rotate(90) scale(37 99.5)">
<stop stop-color="#02100E"/>
<stop offset="1" stop-color="#062622"/>
</radialGradient>
<linearGradient id="paint5_linear_757_1335" x1="12.9109" y1="47.1397" x2="192.99" y2="47.1397" gradientUnits="userSpaceOnUse">
<stop stop-color="#BAFB02"/>
<stop offset="1" stop-color="#06AEE5"/>
</linearGradient>
<linearGradient id="paint6_linear_757_1335" x1="20.6769" y1="36.0528" x2="186.277" y2="36.0528" gradientUnits="userSpaceOnUse">
<stop stop-color="#BAFB02"/>
<stop offset="1" stop-color="#06AEE5"/>
</linearGradient>
<linearGradient id="paint7_linear_757_1335" x1="44.9455" y1="62.5359" x2="165.3" y2="62.5358" gradientUnits="userSpaceOnUse">
<stop stop-color="#BAFB02"/>
<stop offset="1" stop-color="#06AEE5"/>
</linearGradient>
</defs>
</svg>
