<svg width="166" height="29" viewBox="0 0 166 29" fill="none" xmlns="http://www.w3.org/2000/svg">
<mask id="path-1-inside-1_757_1348" fill="white">
<path d="M0 8C0 3.58172 3.58172 0 8 0H158C162.418 0 166 3.58172 166 8V21C166 25.4183 162.418 29 158 29H8C3.58173 29 0 25.4183 0 21V8Z"/>
</mask>
<path d="M0 8C0 3.58172 3.58172 0 8 0H158C162.418 0 166 3.58172 166 8V21C166 25.4183 162.418 29 158 29H8C3.58173 29 0 25.4183 0 21V8Z" fill="url(#paint0_radial_757_1348)" stroke="url(#paint1_linear_757_1348)" stroke-width="2" mask="url(#path-1-inside-1_757_1348)"/>
<path d="M6.43844 20V8.64H9.54244V12.816H10.1824L13.1104 8.64H16.5344L12.5344 14.128L16.9024 20H13.1264L10.0544 15.648H9.54244V20H6.43844ZM19.0528 20.112V17.552H20.1888C20.4661 17.552 20.6795 17.504 20.8288 17.408C20.9888 17.3013 21.0955 17.1307 21.1488 16.896L21.1808 16.736L16.9728 8.64H20.4128L22.5728 13.584L24.5568 8.64H27.8368L23.5008 18.352C23.1701 19.024 22.7755 19.488 22.3168 19.744C21.8581 19.9893 21.2555 20.112 20.5088 20.112H19.0528ZM28.7197 20V8.64H38.4637V20H35.3437V11.36H31.8397V20H28.7197ZM40.5478 20V8.64H43.6678V15.552L47.8598 8.64H50.7718V20H47.6518V13.088L43.5078 20H40.5478ZM61.6287 11.36H58.3647V20H55.2447V11.36H51.9647V8.64H61.6287V11.36ZM62.8291 20V8.64H65.9491V12.4H67.8051C68.6584 12.4 69.3891 12.5547 69.9971 12.864C70.6157 13.1627 71.0904 13.5947 71.4211 14.16C71.7624 14.7147 71.9331 15.3813 71.9331 16.16C71.9331 16.9493 71.7731 17.632 71.4531 18.208C71.1331 18.784 70.6744 19.2267 70.0771 19.536C69.4904 19.8453 68.7864 20 67.9651 20H62.8291ZM65.9491 17.472H67.5171C67.7944 17.472 68.0237 17.4187 68.2051 17.312C68.3864 17.2053 68.5197 17.056 68.6051 16.864C68.7011 16.6613 68.7491 16.4267 68.7491 16.16C68.7491 15.9467 68.7011 15.7493 68.6051 15.568C68.5091 15.376 68.3704 15.2213 68.1891 15.104C68.0077 14.9867 67.7837 14.928 67.5171 14.928H65.9491V17.472ZM76.8119 20V8.64H81.7079C82.2626 8.64 82.7746 8.752 83.2439 8.976C83.7133 9.2 84.1186 9.504 84.4599 9.888C84.8013 10.2613 85.0626 10.6827 85.2439 11.152C85.4359 11.6213 85.5319 12.096 85.5319 12.576C85.5319 13.248 85.3719 13.8827 85.0519 14.48C84.7426 15.0773 84.3053 15.568 83.7399 15.952C83.1853 16.3253 82.5346 16.512 81.7879 16.512H79.9319V20H76.8119ZM79.9319 13.792H81.5799C81.7079 13.792 81.8306 13.7547 81.9479 13.68C82.0653 13.6053 82.1613 13.4773 82.2359 13.296C82.3213 13.1147 82.3639 12.8747 82.3639 12.576C82.3639 12.256 82.3159 12.0107 82.2199 11.84C82.1346 11.6587 82.0226 11.536 81.8839 11.472C81.7559 11.3973 81.6279 11.36 81.4999 11.36H79.9319V13.792ZM94.8767 17.28V20H86.7807V8.64H94.7327V11.36H89.9007V12.96H94.0287V15.488H89.9007V17.28H94.8767ZM100.428 20V18.992C99.7877 18.9493 99.1744 18.8053 98.5877 18.56C98.001 18.304 97.4784 17.9573 97.0197 17.52C96.561 17.0827 96.1984 16.5653 95.9317 15.968C95.665 15.3707 95.5317 14.704 95.5317 13.968C95.5317 13.2 95.6704 12.512 95.9477 11.904C96.225 11.296 96.593 10.7787 97.0517 10.352C97.521 9.92533 98.0437 9.59467 98.6197 9.36C99.2064 9.11467 99.809 8.97067 100.428 8.928V8.032H103.372V8.928C103.99 8.97067 104.588 9.11467 105.164 9.36C105.75 9.59467 106.273 9.92533 106.732 10.352C107.201 10.7787 107.574 11.296 107.852 11.904C108.129 12.512 108.268 13.2 108.268 13.968C108.268 14.704 108.134 15.3707 107.868 15.968C107.601 16.5653 107.238 17.0827 106.78 17.52C106.321 17.9573 105.798 18.304 105.212 18.56C104.625 18.8053 104.012 18.9493 103.372 18.992V20H100.428ZM100.508 16.512V11.408C100.177 11.4507 99.8677 11.5733 99.5797 11.776C99.3024 11.9787 99.0784 12.2613 98.9077 12.624C98.737 12.9867 98.6517 13.4347 98.6517 13.968C98.6517 14.3627 98.6997 14.7147 98.7957 15.024C98.9024 15.3227 99.041 15.5787 99.2117 15.792C99.393 15.9947 99.5957 16.16 99.8197 16.288C100.044 16.4053 100.273 16.48 100.508 16.512ZM103.292 16.512C103.612 16.4587 103.91 16.336 104.188 16.144C104.476 15.9413 104.705 15.664 104.876 15.312C105.057 14.9493 105.148 14.5013 105.148 13.968C105.148 13.5733 105.1 13.2267 105.004 12.928C104.908 12.6293 104.774 12.3733 104.604 12.16C104.433 11.9467 104.236 11.776 104.012 11.648C103.788 11.52 103.548 11.44 103.292 11.408V16.512ZM117.689 17.28V20H109.593V8.64H117.545V11.36H112.713V12.96H116.841V15.488H112.713V17.28H117.689ZM119.14 20V8.64H124.036C124.591 8.64 125.103 8.752 125.572 8.976C126.041 9.2 126.447 9.504 126.788 9.888C127.129 10.2613 127.391 10.6827 127.572 11.152C127.764 11.6213 127.86 12.096 127.86 12.576C127.86 13.248 127.7 13.8827 127.38 14.48C127.071 15.0773 126.633 15.568 126.068 15.952C125.513 16.3253 124.863 16.512 124.116 16.512H122.26V20H119.14ZM122.26 13.792H123.908C124.036 13.792 124.159 13.7547 124.276 13.68C124.393 13.6053 124.489 13.4773 124.564 13.296C124.649 13.1147 124.692 12.8747 124.692 12.576C124.692 12.256 124.644 12.0107 124.548 11.84C124.463 11.6587 124.351 11.536 124.212 11.472C124.084 11.3973 123.956 11.36 123.828 11.36H122.26V13.792ZM130.905 8.64H134.393L138.009 20H134.841L134.153 17.776H131.129L130.457 20H127.273L130.905 8.64ZM133.657 15.696L132.649 11.696L131.593 15.696H133.657ZM145.833 20V11.36H143.625L143.561 12.896C143.497 14.3467 143.358 15.5413 143.145 16.48C142.942 17.408 142.638 18.1387 142.233 18.672C141.827 19.1947 141.305 19.568 140.665 19.792C140.035 20.0053 139.273 20.112 138.377 20.112V17.424C138.739 17.424 139.049 17.36 139.305 17.232C139.571 17.0933 139.79 16.8373 139.961 16.464C140.142 16.08 140.281 15.5307 140.377 14.816C140.483 14.0907 140.558 13.1413 140.601 11.968L140.729 8.64H148.953V20H145.833ZM153.53 8.64H157.018L160.634 20H157.466L156.778 17.776H153.754L153.082 20H149.898L153.53 8.64ZM156.282 15.696L155.274 11.696L154.218 15.696H156.282Z" fill="url(#paint2_linear_757_1348)"/>
<defs>
<radialGradient id="paint0_radial_757_1348" cx="0" cy="0" r="1" gradientUnits="userSpaceOnUse" gradientTransform="translate(83 14.5) rotate(90) scale(14.5 83)">
<stop stop-color="#02100E"/>
<stop offset="1" stop-color="#062622"/>
</radialGradient>
<linearGradient id="paint1_linear_757_1348" x1="2.42819" y1="14.5547" x2="152.645" y2="14.5547" gradientUnits="userSpaceOnUse">
<stop stop-color="#BAFB02"/>
<stop offset="1" stop-color="#06AEE5"/>
</linearGradient>
<linearGradient id="paint2_linear_757_1348" x1="7.28191" y1="14.5359" x2="148.449" y2="14.5358" gradientUnits="userSpaceOnUse">
<stop stop-color="#BAFB02"/>
<stop offset="1" stop-color="#06AEE5"/>
</linearGradient>
</defs>
</svg>
