<svg width="171" height="60" viewBox="0 0 171 60" fill="none" xmlns="http://www.w3.org/2000/svg">
<rect x="0.5" y="-0.5" width="170" height="59" transform="matrix(1 0 0 -1 0 59)" fill="url(#paint0_linear_333_171)" stroke="url(#paint1_linear_333_171)"/>
<path d="M59.2727 35L61.6727 23.64H64.7767L63.8967 27.816H64.3127L68.0887 23.64H71.8647L66.5527 28.92L69.3687 35H65.7687L64.0407 30.648H63.2887L62.3767 35H59.2727ZM75.7841 23.64H78.6481L79.9121 35H76.7441L76.6321 32.776H73.9121L72.8721 35H69.6881L75.7841 23.64ZM76.5841 30.696L76.4561 27.176L74.8081 30.696H76.5841ZM80.4754 35L82.8914 23.64H91.5794L91.0194 26.312H85.4514L85.0834 28.04H87.5474C88.4114 28.04 89.1154 28.1787 89.6594 28.456C90.2141 28.7333 90.6088 29.128 90.8434 29.64C91.0781 30.1413 91.1421 30.744 91.0354 31.448C90.9288 32.184 90.6941 32.8187 90.3314 33.352C89.9688 33.8747 89.4834 34.28 88.8754 34.568C88.2781 34.856 87.5581 35 86.7154 35H80.4754ZM84.1554 32.376H86.6354C86.9021 32.376 87.1154 32.328 87.2754 32.232C87.4461 32.1253 87.5741 31.992 87.6594 31.832C87.7554 31.672 87.8141 31.512 87.8354 31.352C87.8674 31.192 87.8621 31.0427 87.8194 30.904C87.7768 30.7547 87.6808 30.6373 87.5314 30.552C87.3928 30.4667 87.1794 30.424 86.8914 30.424H84.5714L84.1554 32.376ZM91.4758 35L93.8758 23.64H96.9958L95.5078 30.664L100.804 23.64H103.716L101.316 35H98.1958L99.6038 28.392L94.4358 35H91.4758ZM105.688 23.64H108.808L107.912 27.832H111.304L112.2 23.64H115.32L112.904 35H109.784L110.728 30.552H107.336L106.392 35H103.272L105.688 23.64ZM117.266 23.64H124.85L124.274 26.36H119.81L119.474 27.96H123.282L122.738 30.488H118.93L118.546 32.28H123.154L122.578 35H114.85L117.266 23.64ZM128.166 26.36H125.11L125.686 23.64H134.902L134.326 26.36H131.286L129.446 35H126.326L128.166 26.36Z" fill="white"/>
<path d="M48.3918 27.6075L48.3918 27.6075L40.0691 21.1993L40.0496 21.1843V21.1596V14.4818C40.0496 13.6916 39.4085 13.05 38.6184 13.05C37.8282 13.05 37.1872 13.6916 37.1872 14.4818V18.8776V18.9792L37.1067 18.9172L29.8726 13.3477L29.9031 13.3081L29.8726 13.3477C29.3582 12.9516 28.6412 12.9515 28.1256 13.3477L48.3918 27.6075ZM48.3918 27.6075C49.0188 28.0892 49.1352 28.9879 48.6513 29.6131L48.6511 29.6133C48.3698 29.9795 47.9456 30.1709 47.5166 30.1709C47.2109 30.1709 46.9037 30.0741 46.643 29.8743L44.8317 28.4788L44.7512 28.4168V28.5184V45.5297C44.7512 45.6058 44.7448 45.6796 44.7333 45.7523L37.2547 38.2736C38.2341 36.7491 38.8018 34.9372 38.8018 32.9905C38.8018 27.5763 34.4133 23.1873 28.9997 23.1873C23.5855 23.1873 19.1964 27.5763 19.1964 32.9905C19.1964 38.403 23.5855 42.7926 28.9997 42.7926C31.0023 42.7926 32.8637 42.192 34.4154 41.1627L40.2159 46.962H14.493C13.7029 46.962 13.0618 46.3198 13.0618 45.5308V28.6623V28.5607L12.9813 28.6227L11.3545 29.8749C10.7281 30.3567 9.82872 30.2402 9.34701 29.6138L9.34699 29.6138C8.86524 28.988 8.98176 28.0892 9.60811 27.6075L9.60814 27.6075L28.1256 13.3478L48.3918 27.6075ZM35.657 32.7561V32.756C35.657 29.0158 32.6135 25.9716 28.8727 25.9716C28.163 25.9716 27.5884 26.5474 27.5884 27.2564C27.5884 27.9661 28.163 28.5413 28.8727 28.5413C31.1964 28.5413 33.0874 30.4317 33.0874 32.756C33.0874 33.4651 33.6626 34.0402 34.3717 34.0402C35.0814 34.0402 35.6558 33.4651 35.657 32.7561ZM20.8347 32.8812C20.8347 28.3727 24.4899 24.7163 29.0002 24.7163C33.5088 24.7163 37.1646 28.3727 37.1652 32.8812C37.1652 37.3921 33.5088 41.0462 29.0002 41.0462C24.4899 41.0462 20.8347 37.3915 20.8347 32.8812Z" fill="url(#paint2_linear_333_171)" stroke="black" stroke-width="0.1"/>
<defs>
<linearGradient id="paint0_linear_333_171" x1="171" y1="30.0001" x2="-6.97675e-07" y2="30.0001" gradientUnits="userSpaceOnUse">
<stop stop-color="#0B0B17" stop-opacity="0"/>
<stop offset="0.335108" stop-color="#0D443E" stop-opacity="0.34"/>
<stop offset="0.473677" stop-color="#0D4B43" stop-opacity="0.5"/>
<stop offset="0.648803" stop-color="#0D443E" stop-opacity="0.32"/>
<stop offset="1" stop-color="#0B0B17" stop-opacity="0"/>
</linearGradient>
<linearGradient id="paint1_linear_333_171" x1="1.27405e-06" y1="30" x2="162.45" y2="30" gradientUnits="userSpaceOnUse">
<stop stop-opacity="0"/>
<stop offset="0.260841" stop-color="#24CAB6"/>
<stop offset="0.721452" stop-color="#24CAB6" stop-opacity="0.882827"/>
<stop offset="1" stop-opacity="0"/>
</linearGradient>
<linearGradient id="paint2_linear_333_171" x1="9.58511" y1="30.0702" x2="45.7819" y2="30.0702" gradientUnits="userSpaceOnUse">
<stop stop-color="#BAFB02"/>
<stop offset="1" stop-color="#06AEE5"/>
</linearGradient>
</defs>
</svg>
