<svg width="932" height="194" viewBox="0 0 932 194" fill="none" xmlns="http://www.w3.org/2000/svg">
<rect x="0.5" y="-0.5" width="931" height="124" transform="matrix(1 0 0 -1 0 193)" fill="url(#paint0_linear_533_731)" fill-opacity="0.7" stroke="url(#paint1_linear_533_731)"/>
<path d="M46.872 154L56.472 108.56H68.888L65.368 125.264H67.032L82.136 108.56H97.24L75.992 129.68L87.256 154H72.856L65.944 136.592H62.936L59.288 154H46.872ZM112.918 108.56H124.374L129.43 154H116.758L116.31 145.104H105.43L101.27 154H88.5335L112.918 108.56ZM116.118 136.784L115.606 122.704L109.014 136.784H116.118ZM131.62 154L141.285 108.56H176.037L173.797 119.248H151.525L150.053 126.16H159.909C163.365 126.16 166.181 126.715 168.357 127.824C170.575 128.933 172.154 130.512 173.093 132.56C174.031 134.565 174.287 136.976 173.861 139.792C173.434 142.736 172.495 145.275 171.045 147.408C169.594 149.499 167.653 151.12 165.221 152.272C162.831 153.424 159.951 154 156.581 154H131.62ZM146.341 143.504H156.261C157.327 143.504 158.181 143.312 158.821 142.928C159.503 142.501 160.015 141.968 160.357 141.328C160.741 140.688 160.975 140.048 161.061 139.408C161.189 138.768 161.167 138.171 160.997 137.616C160.826 137.019 160.442 136.549 159.845 136.208C159.29 135.867 158.437 135.696 157.285 135.696H148.005L146.341 143.504ZM175.622 154L185.222 108.56H197.702L191.75 136.656L212.934 108.56H224.582L214.982 154H202.502L208.134 127.568L187.462 154H175.622ZM232.472 108.56H244.952L241.368 125.328H254.936L258.52 108.56H271L261.336 154H248.856L252.632 136.208H239.064L235.288 154H222.808L232.472 108.56ZM278.785 108.56H309.121L306.817 119.44H288.961L287.617 125.84H302.849L300.673 135.952H285.441L283.905 143.12H302.337L300.033 154H269.12L278.785 108.56ZM322.381 119.44H310.157L312.461 108.56H349.325L347.021 119.44H334.861L327.501 154H315.021L322.381 119.44Z" fill="url(#paint2_linear_533_731)"/>
<mask id="path-3-inside-1_533_731" fill="white">
<path d="M679.01 75.3834L635.94 42.2232V7.66764C635.94 3.43597 632.507 0 628.275 0C624.043 0 620.61 3.43597 620.61 7.66764V30.4144L583.173 1.59441C580.418 -0.527451 576.578 -0.527451 573.817 1.59441L477.989 75.3834C474.634 77.9634 474.01 82.7767 476.591 86.1283C479.171 89.4829 483.988 90.1068 487.342 87.5268L495.761 81.0467V168.335C495.761 172.561 499.194 176 503.426 176H637.167L606.558 145.399C598.534 150.77 588.885 153.907 578.498 153.907C550.623 153.907 528.025 131.308 528.025 103.444C528.025 75.5702 550.623 52.9742 578.498 52.9742C606.371 52.9742 628.965 75.5702 628.965 103.444C628.965 113.541 625.999 122.932 620.887 130.817L660.084 170.011C660.202 169.466 660.271 168.911 660.271 168.329V80.3022L669.645 87.5238C671.041 88.5938 672.687 89.1122 674.323 89.1122C676.62 89.1122 678.893 88.0874 680.4 86.1253C682.992 82.7767 682.368 77.9634 679.01 75.3834Z"/>
<path d="M578.501 60.3687C555.017 60.3687 535.986 79.4052 535.986 102.878C535.986 126.36 555.017 145.388 578.501 145.388C601.976 145.388 621.014 126.363 621.014 102.878C621.011 79.4052 601.976 60.3687 578.501 60.3687ZM606.298 108.617C602.772 108.617 599.911 105.757 599.911 102.23C599.911 90.0597 590.009 80.1617 577.841 80.1617C574.311 80.1617 571.454 77.3014 571.454 73.772C571.454 70.2456 574.311 67.3823 577.841 67.3823C597.057 67.3823 612.691 83.019 612.691 102.23C612.685 105.757 609.828 108.617 606.298 108.617Z"/>
</mask>
<path d="M679.01 75.3834L635.94 42.2232V7.66764C635.94 3.43597 632.507 0 628.275 0C624.043 0 620.61 3.43597 620.61 7.66764V30.4144L583.173 1.59441C580.418 -0.527451 576.578 -0.527451 573.817 1.59441L477.989 75.3834C474.634 77.9634 474.01 82.7767 476.591 86.1283C479.171 89.4829 483.988 90.1068 487.342 87.5268L495.761 81.0467V168.335C495.761 172.561 499.194 176 503.426 176H637.167L606.558 145.399C598.534 150.77 588.885 153.907 578.498 153.907C550.623 153.907 528.025 131.308 528.025 103.444C528.025 75.5702 550.623 52.9742 578.498 52.9742C606.371 52.9742 628.965 75.5702 628.965 103.444C628.965 113.541 625.999 122.932 620.887 130.817L660.084 170.011C660.202 169.466 660.271 168.911 660.271 168.329V80.3022L669.645 87.5238C671.041 88.5938 672.687 89.1122 674.323 89.1122C676.62 89.1122 678.893 88.0874 680.4 86.1253C682.992 82.7767 682.368 77.9634 679.01 75.3834Z" fill="url(#paint3_linear_533_731)"/>
<path d="M578.501 60.3687C555.017 60.3687 535.986 79.4052 535.986 102.878C535.986 126.36 555.017 145.388 578.501 145.388C601.976 145.388 621.014 126.363 621.014 102.878C621.011 79.4052 601.976 60.3687 578.501 60.3687ZM606.298 108.617C602.772 108.617 599.911 105.757 599.911 102.23C599.911 90.0597 590.009 80.1617 577.841 80.1617C574.311 80.1617 571.454 77.3014 571.454 73.772C571.454 70.2456 574.311 67.3823 577.841 67.3823C597.057 67.3823 612.691 83.019 612.691 102.23C612.685 105.757 609.828 108.617 606.298 108.617Z" fill="url(#paint4_linear_533_731)"/>
<path d="M679.01 75.3834L635.94 42.2232V7.66764C635.94 3.43597 632.507 0 628.275 0C624.043 0 620.61 3.43597 620.61 7.66764V30.4144L583.173 1.59441C580.418 -0.527451 576.578 -0.527451 573.817 1.59441L477.989 75.3834C474.634 77.9634 474.01 82.7767 476.591 86.1283C479.171 89.4829 483.988 90.1068 487.342 87.5268L495.761 81.0467V168.335C495.761 172.561 499.194 176 503.426 176H637.167L606.558 145.399C598.534 150.77 588.885 153.907 578.498 153.907C550.623 153.907 528.025 131.308 528.025 103.444C528.025 75.5702 550.623 52.9742 578.498 52.9742C606.371 52.9742 628.965 75.5702 628.965 103.444C628.965 113.541 625.999 122.932 620.887 130.817L660.084 170.011C660.202 169.466 660.271 168.911 660.271 168.329V80.3022L669.645 87.5238C671.041 88.5938 672.687 89.1122 674.323 89.1122C676.62 89.1122 678.893 88.0874 680.4 86.1253C682.992 82.7767 682.368 77.9634 679.01 75.3834Z" stroke="black" stroke-width="0.2" mask="url(#path-3-inside-1_533_731)"/>
<path d="M578.501 60.3687C555.017 60.3687 535.986 79.4052 535.986 102.878C535.986 126.36 555.017 145.388 578.501 145.388C601.976 145.388 621.014 126.363 621.014 102.878C621.011 79.4052 601.976 60.3687 578.501 60.3687ZM606.298 108.617C602.772 108.617 599.911 105.757 599.911 102.23C599.911 90.0597 590.009 80.1617 577.841 80.1617C574.311 80.1617 571.454 77.3014 571.454 73.772C571.454 70.2456 574.311 67.3823 577.841 67.3823C597.057 67.3823 612.691 83.019 612.691 102.23C612.685 105.757 609.828 108.617 606.298 108.617Z" stroke="black" stroke-width="0.2" mask="url(#path-3-inside-1_533_731)"/>
<defs>
<linearGradient id="paint0_linear_533_731" x1="932" y1="62.5001" x2="-3.80253e-06" y2="62.5001" gradientUnits="userSpaceOnUse">
<stop stop-color="#0B0B17" stop-opacity="0"/>
<stop offset="0.105792" stop-color="#082523" stop-opacity="0.365182"/>
<stop offset="0.246641" stop-color="#0A312C" stop-opacity="0.5"/>
<stop offset="0.473677" stop-color="#0D4B43" stop-opacity="0.5"/>
<stop offset="0.682984" stop-color="#09342E" stop-opacity="0.5"/>
<stop offset="0.806953" stop-color="#082C28" stop-opacity="0.419712"/>
<stop offset="1" stop-color="#0B1117" stop-opacity="0"/>
</linearGradient>
<linearGradient id="paint1_linear_533_731" x1="6.94394e-06" y1="62.4999" x2="885.4" y2="62.5" gradientUnits="userSpaceOnUse">
<stop stop-opacity="0"/>
<stop offset="0.260841" stop-color="#24CAB6"/>
<stop offset="0.721452" stop-color="#24CAB6" stop-opacity="0.882827"/>
<stop offset="1" stop-opacity="0"/>
</linearGradient>
<linearGradient id="paint2_linear_533_731" x1="51.359" y1="131.642" x2="321.025" y2="131.642" gradientUnits="userSpaceOnUse">
<stop stop-color="#BAFB02"/>
<stop offset="1" stop-color="#06AEE5"/>
</linearGradient>
<linearGradient id="paint3_linear_533_731" x1="478.028" y1="88.3322" x2="665.346" y2="88.3322" gradientUnits="userSpaceOnUse">
<stop stop-color="#BAFB02"/>
<stop offset="1" stop-color="#06AEE5"/>
</linearGradient>
<linearGradient id="paint4_linear_533_731" x1="478.028" y1="88.3322" x2="665.346" y2="88.3322" gradientUnits="userSpaceOnUse">
<stop stop-color="#BAFB02"/>
<stop offset="1" stop-color="#06AEE5"/>
</linearGradient>
</defs>
</svg>
