<svg width="116" height="116" viewBox="0 0 116 116" fill="none" xmlns="http://www.w3.org/2000/svg">
<g filter="url(#filter0_d_681_214)">
<path d="M14 39C14 25.1929 25.1929 14 39 14H79C92.8071 14 104 25.1929 104 39V79C104 92.8071 92.8071 104 79 104H39C25.1929 104 14 92.8071 14 79V39Z" fill="url(#paint0_radial_681_214)" shape-rendering="crispEdges"/>
<path d="M50.3201 64.4004L45.41 69.6415L46.7201 78.8004L61.1201 68.0004L50.3201 64.4004Z" fill="#217061"/>
<path d="M25 53.6L39.52 60.8L50.32 64.4L75.52 86L86.44 32L25 53.6Z" fill="#4CFFDF"/>
<path d="M39.336 60.2402L46.536 78.2402L50.136 63.8402L75.336 42.2402L39.336 60.2402Z" fill="#3BB7A0"/>
</g>
<defs>
<filter id="filter0_d_681_214" x="0" y="0" width="116" height="116" filterUnits="userSpaceOnUse" color-interpolation-filters="sRGB">
<feFlood flood-opacity="0" result="BackgroundImageFix"/>
<feColorMatrix in="SourceAlpha" type="matrix" values="0 0 0 0 0 0 0 0 0 0 0 0 0 0 0 0 0 0 127 0" result="hardAlpha"/>
<feMorphology radius="3" operator="dilate" in="SourceAlpha" result="effect1_dropShadow_681_214"/>
<feOffset dx="-1" dy="-1"/>
<feGaussianBlur stdDeviation="5"/>
<feComposite in2="hardAlpha" operator="out"/>
<feColorMatrix type="matrix" values="0 0 0 0 0 0 0 0 0 0 0 0 0 0 0 0 0 0 0.7 0"/>
<feBlend mode="normal" in2="BackgroundImageFix" result="effect1_dropShadow_681_214"/>
<feBlend mode="normal" in="SourceGraphic" in2="effect1_dropShadow_681_214" result="shape"/>
</filter>
<radialGradient id="paint0_radial_681_214" cx="0" cy="0" r="1" gradientUnits="userSpaceOnUse" gradientTransform="translate(14 14) rotate(45) scale(127.279 162.036)">
<stop offset="0.0162837" stop-color="#106055"/>
<stop offset="1"/>
</radialGradient>
</defs>
</svg>
