<svg width="20" height="20" viewBox="0 0 20 20" fill="none" xmlns="http://www.w3.org/2000/svg">
<path d="M4.19354 3.22583C4.19354 1.4444 5.6376 0 7.41934 0H16.7742C18.5559 0 20 1.4444 20 3.22583V12.5806C20 14.3621 18.5559 15.8065 16.7742 15.8065H16.4516V6.77417C16.4516 4.99274 15.0076 3.5484 13.2258 3.5484H4.19354V3.22583Z" fill="#062622"/>
<path fill-rule="evenodd" clip-rule="evenodd" d="M3.2258 4.19354C1.44424 4.19354 0 5.63782 0 7.41937V16.7742C0 18.5558 1.44424 20 3.2258 20H12.5807C14.3622 20 15.8065 18.5558 15.8065 16.7742V7.41937C15.8065 5.63782 14.3622 4.19354 12.5807 4.19354H3.2258ZM7.74176 9.32953L9.07416 7.99713C9.88007 7.19122 11.1739 7.17389 11.9581 7.95813C12.7426 8.74261 12.7253 10.0364 11.9194 10.8423L9.61163 13.1501C8.80511 13.9566 7.51102 13.9742 6.7265 13.1897C6.5607 13.0239 6.56442 12.7523 6.73477 12.5818C6.90515 12.4115 7.17685 12.4078 7.34262 12.5736C7.79678 13.0278 8.54504 13.0175 9.01208 12.5505L11.3198 10.2428C11.7859 9.77667 11.7961 9.02838 11.342 8.57422C10.8878 8.12006 10.1398 8.13055 9.67374 8.59668L8.34134 9.92908C8.17065 10.0997 7.89926 10.1031 7.73349 9.93738C7.56772 9.77161 7.57111 9.50018 7.74176 9.32953ZM5.76953 11.3018L3.4621 13.6092C2.65588 14.4154 2.63794 15.7092 3.42245 16.4938C4.20697 17.2783 5.5011 17.2606 6.30731 16.4544L7.63876 15.1229C7.80914 14.9526 7.81284 14.6808 7.64706 14.5151C7.48099 14.349 7.20956 14.353 7.03922 14.5234L5.70773 15.8549C5.24103 16.3216 4.49277 16.3318 4.0386 15.8776C3.58441 15.4235 3.59494 14.6755 4.06165 14.2087L6.36908 11.9013C6.83612 11.4343 7.58377 11.4241 8.03793 11.8783C8.20401 12.0444 8.47543 12.0403 8.64578 11.87C8.81647 11.6993 8.82016 11.4282 8.65408 11.2621C7.86984 10.4779 6.57574 10.4955 5.76953 11.3018Z" fill="#062622"/>
</svg>
