<svg width="171" height="60" viewBox="0 0 171 60" fill="none" xmlns="http://www.w3.org/2000/svg">
<rect x="0.5" y="-0.5" width="170" height="59" transform="matrix(1 0 0 -1 0 59)" fill="url(#paint0_linear_748_1526)" stroke="url(#paint1_linear_748_1526)"/>
<path d="M16.7551 28.0062C18.6157 28.1789 23.3079 27.5508 24.2066 26.6633C24.2074 26.6626 24.2081 26.6618 24.2087 26.6613C24.2092 26.6608 24.2101 26.6602 24.2105 26.6597C25.0981 25.7607 25.7263 21.0685 25.5533 19.208C25.513 18.7788 25.4266 18.4559 25.2803 18.3096C25.1911 18.2204 22.3824 16.2697 22.3824 16.2697L22.2267 16.9104L20.6896 23.1426L14.4574 24.6797L13.817 24.8354C13.817 24.8354 15.7675 27.644 15.8566 27.7333C16.0031 27.8795 16.3261 27.9657 16.7551 28.0062Z" fill="url(#paint2_linear_748_1526)"/>
<path d="M22.9995 12L13.4687 15.92L9.54865 25.4508L20.163 22.6145L22.9995 12Z" fill="url(#paint3_linear_748_1526)"/>
<path d="M9 32.2393L9.54865 33.5671L10.0971 32.2393L9.54865 25.5477L9 32.2393Z" fill="url(#paint4_linear_748_1526)"/>
<path d="M26.7988 19.1447C26.8048 19.2091 26.8099 19.2763 26.8142 19.346H44.57L44.5607 33.9231H18.8183L18.8211 29.1967C18.3722 29.2287 17.9451 29.2462 17.563 29.2462C17.2584 29.2462 16.9841 29.235 16.7468 29.2137V35.7632H46.6514V17.5025H26.1597C26.1715 17.5134 26.1807 17.5225 26.1896 17.5313C26.5341 17.876 26.7277 18.3888 26.7988 19.1447Z" fill="url(#paint5_linear_748_1526)"/>
<path d="M14.8208 42.8162H48.6537L48.9364 42.0002H14.5133L14.8208 42.8162Z" fill="url(#paint6_linear_748_1526)"/>
<path d="M46.6157 36.414H16.7177L14.4496 41.4479H49L46.6157 36.414ZM29.9155 41.0053L30.2355 39.8093H32.5287L32.8485 41.0053H29.9155ZM16.7342 39.452L17.6369 37.4484H45.4677L46.1437 39.452H16.7342Z" fill="url(#paint7_linear_748_1526)"/>
<path d="M64.488 36.096C63.624 36.096 62.8613 35.936 62.2 35.616C61.5493 35.2853 61.0107 34.848 60.584 34.304C60.1573 33.7493 59.8533 33.1307 59.672 32.448C59.5013 31.7547 59.464 31.04 59.56 30.304C59.6667 29.5467 59.912 28.8267 60.296 28.144C60.68 27.4613 61.1707 26.8533 61.768 26.32C62.3653 25.776 63.0373 25.3493 63.784 25.04C64.5413 24.7307 65.3413 24.576 66.184 24.576C67.048 24.576 67.8053 24.7413 68.456 25.072C69.1173 25.392 69.6613 25.8293 70.088 26.384C70.5147 26.9387 70.8133 27.5627 70.984 28.256C71.1547 28.9387 71.192 29.6427 71.096 30.368C70.9893 31.1147 70.744 31.8293 70.36 32.512C69.9867 33.1947 69.5013 33.808 68.904 34.352C68.3173 34.8853 67.6453 35.312 66.888 35.632C66.1413 35.9413 65.3413 36.096 64.488 36.096ZM64.92 33.328C65.368 33.328 65.768 33.2427 66.12 33.072C66.472 32.9013 66.7707 32.672 67.016 32.384C67.272 32.0853 67.4747 31.76 67.624 31.408C67.7733 31.0453 67.8747 30.6773 67.928 30.304C67.9813 29.92 67.9813 29.552 67.928 29.2C67.8747 28.848 67.7573 28.5333 67.576 28.256C67.3947 27.968 67.1493 27.744 66.84 27.584C66.5413 27.424 66.1733 27.344 65.736 27.344C65.288 27.344 64.888 27.4293 64.536 27.6C64.184 27.7707 63.88 28 63.624 28.288C63.3787 28.5653 63.1813 28.8853 63.032 29.248C62.8827 29.6 62.7813 29.9627 62.728 30.336C62.6747 30.72 62.6747 31.0933 62.728 31.456C62.792 31.808 62.9093 32.128 63.08 32.416C63.2507 32.6933 63.4853 32.9173 63.784 33.088C64.0933 33.248 64.472 33.328 64.92 33.328ZM71.2332 36L73.6493 24.64H82.3373L81.7773 27.312H76.2093L75.8413 29.04H78.3053C79.1693 29.04 79.8733 29.1787 80.4173 29.456C80.9719 29.7333 81.3666 30.128 81.6013 30.64C81.8359 31.1413 81.8999 31.744 81.7933 32.448C81.6866 33.184 81.4519 33.8187 81.0893 34.352C80.7266 34.8747 80.2413 35.28 79.6333 35.568C79.0359 35.856 78.3159 36 77.4733 36H71.2332ZM74.9133 33.376H77.3933C77.6599 33.376 77.8733 33.328 78.0333 33.232C78.2039 33.1253 78.3319 32.992 78.4173 32.832C78.5133 32.672 78.5719 32.512 78.5933 32.352C78.6253 32.192 78.6199 32.0427 78.5773 31.904C78.5346 31.7547 78.4386 31.6373 78.2893 31.552C78.1506 31.4667 77.9373 31.424 77.6493 31.424H75.3293L74.9133 33.376ZM83.8976 36.112L84.4416 33.552H85.8016C85.9723 33.552 86.111 33.5147 86.2176 33.44C86.3243 33.3653 86.431 33.2747 86.5376 33.168L86.6336 33.056L83.4656 24.64H86.9056L88.3136 30.048L91.1616 24.64H94.3776L88.6816 34.352C88.4043 34.8 88.111 35.152 87.8016 35.408C87.4923 35.664 87.1456 35.8453 86.7616 35.952C86.3883 36.0587 85.951 36.112 85.4496 36.112H83.8976ZM101.636 24.64H104.756L102.34 36H99.2199L100.068 32.048C99.8012 32.1547 99.5025 32.2453 99.1719 32.32C98.8519 32.384 98.4572 32.416 97.9879 32.416C97.1132 32.416 96.3825 32.272 95.7959 31.984C95.2092 31.696 94.8039 31.264 94.5799 30.688C94.3665 30.1013 94.3719 29.3707 94.5959 28.496L95.5399 24.64H98.5799L97.6359 28.448C97.5079 28.9707 97.5612 29.3493 97.7959 29.584C98.0412 29.808 98.4732 29.92 99.0919 29.92C99.2625 29.92 99.4279 29.9093 99.5879 29.888C99.7585 29.8667 99.9292 29.8347 100.1 29.792C100.271 29.7387 100.431 29.68 100.58 29.616L101.636 24.64ZM106.712 24.64H114.296L113.72 27.36H109.256L108.92 28.96H112.728L112.184 31.488H108.376L107.992 33.28H112.6L112.024 36H104.296L106.712 24.64ZM115.915 24.64H119.035L118.139 28.832H121.531L122.427 24.64H125.547L123.131 36H120.011L120.955 31.552H117.563L116.619 36H113.499L115.915 24.64ZM125.093 36L127.493 24.64H130.613L129.125 31.664L134.421 24.64H137.333L134.933 36H131.813L133.221 29.392L128.053 36H125.093ZM139.306 24.64H146.89L146.314 27.36H141.85L141.514 28.96H145.322L144.778 31.488H140.97L140.586 33.28H145.194L144.618 36H136.889L139.306 24.64Z" fill="white"/>
<defs>
<linearGradient id="paint0_linear_748_1526" x1="171" y1="30.0001" x2="-6.97675e-07" y2="30.0001" gradientUnits="userSpaceOnUse">
<stop stop-color="#0B0B17" stop-opacity="0"/>
<stop offset="0.335108" stop-color="#0D443E" stop-opacity="0.34"/>
<stop offset="0.473677" stop-color="#0D4B43" stop-opacity="0.5"/>
<stop offset="0.648803" stop-color="#0D443E" stop-opacity="0.32"/>
<stop offset="1" stop-color="#0B0B17" stop-opacity="0"/>
</linearGradient>
<linearGradient id="paint1_linear_748_1526" x1="1.27405e-06" y1="30" x2="162.45" y2="30" gradientUnits="userSpaceOnUse">
<stop stop-opacity="0"/>
<stop offset="0.260841" stop-color="#24CAB6"/>
<stop offset="0.721452" stop-color="#24CAB6" stop-opacity="0.882827"/>
<stop offset="1" stop-opacity="0"/>
</linearGradient>
<linearGradient id="paint2_linear_748_1526" x1="9.58511" y1="27.4663" x2="45.7819" y2="27.4663" gradientUnits="userSpaceOnUse">
<stop stop-color="#BAFB02"/>
<stop offset="1" stop-color="#06AEE5"/>
</linearGradient>
<linearGradient id="paint3_linear_748_1526" x1="9.58511" y1="27.4663" x2="45.7819" y2="27.4663" gradientUnits="userSpaceOnUse">
<stop stop-color="#BAFB02"/>
<stop offset="1" stop-color="#06AEE5"/>
</linearGradient>
<linearGradient id="paint4_linear_748_1526" x1="9.58511" y1="27.4663" x2="45.7819" y2="27.4663" gradientUnits="userSpaceOnUse">
<stop stop-color="#BAFB02"/>
<stop offset="1" stop-color="#06AEE5"/>
</linearGradient>
<linearGradient id="paint5_linear_748_1526" x1="9.58511" y1="27.4663" x2="45.7819" y2="27.4663" gradientUnits="userSpaceOnUse">
<stop stop-color="#BAFB02"/>
<stop offset="1" stop-color="#06AEE5"/>
</linearGradient>
<linearGradient id="paint6_linear_748_1526" x1="9.58511" y1="27.4663" x2="45.7819" y2="27.4663" gradientUnits="userSpaceOnUse">
<stop stop-color="#BAFB02"/>
<stop offset="1" stop-color="#06AEE5"/>
</linearGradient>
<linearGradient id="paint7_linear_748_1526" x1="9.58511" y1="27.4663" x2="45.7819" y2="27.4663" gradientUnits="userSpaceOnUse">
<stop stop-color="#BAFB02"/>
<stop offset="1" stop-color="#06AEE5"/>
</linearGradient>
</defs>
</svg>
