<svg width="49" height="49" viewBox="0 0 49 49" fill="none" xmlns="http://www.w3.org/2000/svg">
<g filter="url(#filter0_di_611_8)">
<circle cx="23.5" cy="25.5" r="22.5" fill="white"/>
</g>
<path d="M23.5 21.0373C23.7754 21.0373 24.5 21.0373 24.5 21.5372V25.5372C24.5 26.0373 23.7754 26.0373 23.5 26.0373C23.2246 26.0373 22.4993 26.0373 22.4993 25.5373V21.5373C22.4993 21.0373 23.2246 21.0373 23.5 21.0373Z" fill="#F6AC0E"/>
<path d="M23.5 28.886C24.0971 28.886 24.5016 28.4798 24.5007 27.886C24.5 27.386 24 26.886 23.5007 26.8859C23 26.8858 22.5 27.386 22.5 27.886C22.5 28.386 23 28.886 23.5 28.886Z" fill="#F6AC0E"/>
<path fill-rule="evenodd" clip-rule="evenodd" d="M24.366 14.4999C24.241 14.2821 24.0535 14.1351 23.8445 14.0599C23.4148 13.9046 22.8953 14.0511 22.6355 14.4999L13.5417 30.2499C13.157 30.9164 13.6374 31.7499 14.407 31.7499H32.5945C32.9167 31.7499 33.1882 31.6034 33.366 31.3846C33.614 31.0809 33.6824 30.6371 33.4597 30.2499L24.366 14.4999ZM23.5007 16.9999L16.1394 29.7499H30.8621L23.5007 16.9999Z" fill="#F6AC0E"/>
<defs>
<filter id="filter0_di_611_8" x="0" y="0" width="49" height="49" filterUnits="userSpaceOnUse" color-interpolation-filters="sRGB">
<feFlood flood-opacity="0" result="BackgroundImageFix"/>
<feColorMatrix in="SourceAlpha" type="matrix" values="0 0 0 0 0 0 0 0 0 0 0 0 0 0 0 0 0 0 127 0" result="hardAlpha"/>
<feOffset dx="1" dy="-1"/>
<feGaussianBlur stdDeviation="1"/>
<feComposite in2="hardAlpha" operator="out"/>
<feColorMatrix type="matrix" values="0 0 0 0 0.964706 0 0 0 0 0.67451 0 0 0 0 0.054902 0 0 0 1 0"/>
<feBlend mode="normal" in2="BackgroundImageFix" result="effect1_dropShadow_611_8"/>
<feBlend mode="normal" in="SourceGraphic" in2="effect1_dropShadow_611_8" result="shape"/>
<feColorMatrix in="SourceAlpha" type="matrix" values="0 0 0 0 0 0 0 0 0 0 0 0 0 0 0 0 0 0 127 0" result="hardAlpha"/>
<feMorphology radius="1" operator="erode" in="SourceAlpha" result="effect2_innerShadow_611_8"/>
<feOffset dx="3"/>
<feGaussianBlur stdDeviation="2.5"/>
<feComposite in2="hardAlpha" operator="arithmetic" k2="-1" k3="1"/>
<feColorMatrix type="matrix" values="0 0 0 0 0 0 0 0 0 0 0 0 0 0 0 0 0 0 0.2 0"/>
<feBlend mode="normal" in2="shape" result="effect2_innerShadow_611_8"/>
</filter>
</defs>
</svg>
