<svg width="358" height="214" viewBox="0 0 358 214" fill="none" xmlns="http://www.w3.org/2000/svg">
<g filter="url(#filter0_d_840_1580)">
<rect x="14" y="14" width="332" height="188" rx="25" fill="url(#paint0_radial_840_1580)"/>
<rect x="15" y="15" width="330" height="186" rx="24" stroke="url(#paint1_linear_840_1580)" stroke-width="2" stroke-linejoin="round"/>
</g>
<g opacity="0.1" filter="url(#filter1_f_840_1580)">
<path d="M77.8196 43C77.6509 53.1704 66.3845 64.9427 48.257 81.7739C10.4527 116.838 31.8368 147.391 59.7448 143.323L70.7793 114.572L44.642 115.784C44.642 115.784 70.3262 87.5283 79.0843 77.906C95.8522 59.4623 77.8196 43 77.8196 43Z" fill="#9DB5B2"/>
<path d="M46.3494 142.028C47.0766 142.291 47.8144 142.523 48.5626 142.723C48.5626 142.723 48.5732 142.723 48.5837 142.723C52.0617 143.651 55.8242 143.893 59.7448 143.324L70.7794 114.573L44.6526 115.785C38.0234 123.226 36.432 137.907 46.3494 142.028Z" fill="#9DB5B2"/>
<path d="M68.7777 173C68.9464 162.829 80.2128 151.057 98.3403 134.226C136.145 99.1617 114.76 68.6085 86.8525 72.6766L75.818 101.428L101.955 100.216C101.955 100.216 76.2711 128.471 67.513 138.094C50.7451 156.537 68.7672 173 68.7672 173H68.7777Z" fill="#9DB5B2"/>
<path d="M100.258 73.9739C99.5307 73.7105 98.793 73.4786 98.0447 73.2784C98.0447 73.2784 98.0342 73.2784 98.0236 73.2784C94.5457 72.3509 90.7832 72.1085 86.8626 72.6776L75.828 101.429L101.955 100.217C108.584 92.776 110.175 78.0948 100.258 73.9739Z" fill="#9DB5B2"/>
<path d="M149.186 111.902C146.397 111.902 143.822 111.437 141.459 110.506C139.096 109.575 137.043 108.276 135.3 106.608C133.557 104.902 132.202 102.904 131.233 100.616C130.265 98.3279 129.781 95.8457 129.781 93.1696C129.781 90.0281 130.381 87.0611 131.582 84.2686C132.821 81.4374 134.526 78.9552 136.695 76.822C138.864 74.6501 141.343 72.963 144.131 71.7607C146.959 70.5196 149.941 69.8991 153.079 69.8991C156.642 69.8991 159.915 70.6747 162.898 72.2261C165.88 73.7775 168.185 75.8718 169.812 78.5092L162.142 84.9086C161.135 83.0469 159.76 81.6119 158.017 80.6035C156.313 79.5951 154.396 79.0909 152.265 79.0909C150.561 79.0909 148.954 79.44 147.443 80.1381C145.971 80.8362 144.654 81.8058 143.492 83.0469C142.369 84.2492 141.478 85.6648 140.82 87.2938C140.2 88.9227 139.89 90.668 139.89 92.5297C139.89 94.5077 140.316 96.2723 141.168 97.8237C142.059 99.3751 143.279 100.597 144.829 101.489C146.378 102.381 148.16 102.827 150.174 102.827C151.684 102.827 153.098 102.555 154.415 102.012C155.732 101.431 156.875 100.655 157.843 99.6854C158.811 98.677 159.528 97.5134 159.993 96.1948H149.128L150.987 87.5847H172.136L171.322 92.0061C170.625 95.8845 169.211 99.3363 167.081 102.361C164.951 105.348 162.336 107.694 159.237 109.401C156.178 111.069 152.827 111.902 149.186 111.902Z" fill="#9DB5B2"/>
<path d="M172.442 111.088L181.099 70.3645H200.04C202.596 70.3645 204.823 70.8687 206.721 71.8771C208.658 72.8854 210.168 74.2817 211.253 76.0657C212.337 77.811 212.88 79.8472 212.88 82.1743C212.88 84.2298 212.434 86.169 211.543 87.9919C210.691 89.776 209.491 91.3273 207.941 92.646C206.392 93.9259 204.591 94.8761 202.538 95.4967L208.697 111.088H198.355L193.126 96.2529H185.34L182.203 111.088H172.442ZM187.083 88.1083H197.251C198.335 88.1083 199.304 87.8949 200.156 87.4683C201.008 87.0029 201.666 86.4017 202.131 85.6648C202.635 84.8892 202.887 84.0359 202.887 83.1051C202.887 81.8252 202.46 80.8168 201.608 80.0799C200.795 79.3042 199.691 78.9164 198.297 78.9164H189.059L187.083 88.1083Z" fill="#9DB5B2"/>
<path d="M211.875 111.088L220.532 70.3645H251.964L250.105 79.0327H228.434L226.865 86.363H241.158L239.415 94.7404H225.122L223.495 102.42H245.399L243.54 111.088H211.875Z" fill="#9DB5B2"/>
<path d="M249.436 111.088L258.093 70.3645H289.525L287.666 79.0327H265.995L264.426 86.363H278.718L276.975 94.7404H262.683L261.056 102.42H282.96L281.101 111.088H249.436Z" fill="#9DB5B2"/>
<path d="M286.997 111.088L295.654 70.3645H304.892L317.79 94.8567L322.961 70.3645H332.199L323.542 111.088H314.885L301.638 85.6648L296.235 111.088H286.997Z" fill="#9DB5B2"/>
<path d="M127.096 158.356L133.949 126.117H158.833L157.361 132.979H140.205L138.963 138.782H150.278L148.898 145.414H137.583L136.295 151.494H153.636L152.164 158.356H127.096Z" fill="#9DB5B2"/>
<path d="M156.832 158.356L163.685 126.117H170.998L181.209 145.507L185.303 126.117H192.616L185.763 158.356H178.91L168.423 138.23L164.145 158.356H156.832Z" fill="#9DB5B2"/>
<path d="M191.014 158.356L197.868 126.117H222.751L221.279 132.979H204.123L202.881 138.782H214.196L212.816 145.414H201.501L200.213 151.494H217.554L216.082 158.356H191.014Z" fill="#9DB5B2"/>
<path d="M220.75 158.356L227.603 126.117H242.598C244.622 126.117 246.385 126.516 247.887 127.314C249.421 128.113 250.616 129.218 251.475 130.63C252.334 132.012 252.763 133.624 252.763 135.466C252.763 137.094 252.41 138.629 251.705 140.072C251.03 141.484 250.08 142.712 248.853 143.756C247.627 144.77 246.201 145.522 244.576 146.013L249.451 158.356H241.264L237.124 146.612H230.961L228.477 158.356H220.75ZM232.341 140.164H240.39C241.249 140.164 242.015 139.995 242.69 139.657C243.364 139.289 243.886 138.813 244.254 138.23C244.652 137.616 244.852 136.94 244.852 136.203C244.852 135.19 244.514 134.392 243.84 133.808C243.196 133.194 242.322 132.887 241.218 132.887H233.905L232.341 140.164Z" fill="#9DB5B2"/>
<path d="M269.446 159.001C267.238 159.001 265.199 158.633 263.329 157.896C261.458 157.159 259.833 156.13 258.453 154.81C257.073 153.459 256 151.878 255.233 150.066C254.467 148.255 254.083 146.289 254.083 144.171C254.083 141.684 254.559 139.335 255.509 137.124C256.491 134.883 257.84 132.918 259.557 131.229C261.274 129.51 263.237 128.174 265.444 127.222C267.683 126.24 270.044 125.748 272.528 125.748C275.349 125.748 277.94 126.362 280.301 127.591C282.662 128.819 284.487 130.477 285.775 132.565L279.703 137.631C278.906 136.157 277.817 135.021 276.437 134.223C275.088 133.424 273.57 133.025 271.884 133.025C270.535 133.025 269.262 133.302 268.066 133.854C266.901 134.407 265.858 135.175 264.938 136.157C264.049 137.109 263.344 138.23 262.823 139.519C262.332 140.809 262.087 142.19 262.087 143.664C262.087 145.23 262.424 146.627 263.099 147.855C263.804 149.084 264.77 150.051 265.996 150.757C267.223 151.463 268.633 151.816 270.228 151.816C271.424 151.816 272.543 151.601 273.586 151.171C274.628 150.711 275.533 150.097 276.299 149.329C277.066 148.531 277.633 147.61 278.001 146.566H269.4L270.872 139.749H287.614L286.971 143.25C286.419 146.32 285.299 149.053 283.613 151.448C281.926 153.812 279.856 155.67 277.403 157.021C274.981 158.341 272.329 159.001 269.446 159.001Z" fill="#9DB5B2"/>
<path d="M293.706 158.356L296.235 146.289L287.496 126.117H295.729L301.295 139.335L312.288 126.117H321.395L304.009 146.382L301.479 158.356H293.706Z" fill="#9DB5B2"/>
</g>
<defs>
<filter id="filter0_d_840_1580" x="0" y="0" width="358" height="214" filterUnits="userSpaceOnUse" color-interpolation-filters="sRGB">
<feFlood flood-opacity="0" result="BackgroundImageFix"/>
<feColorMatrix in="SourceAlpha" type="matrix" values="0 0 0 0 0 0 0 0 0 0 0 0 0 0 0 0 0 0 127 0" result="hardAlpha"/>
<feMorphology radius="3" operator="dilate" in="SourceAlpha" result="effect1_dropShadow_840_1580"/>
<feOffset dx="-1" dy="-1"/>
<feGaussianBlur stdDeviation="5"/>
<feComposite in2="hardAlpha" operator="out"/>
<feColorMatrix type="matrix" values="0 0 0 0 0 0 0 0 0 0 0 0 0 0 0 0 0 0 0.7 0"/>
<feBlend mode="normal" in2="BackgroundImageFix" result="effect1_dropShadow_840_1580"/>
<feBlend mode="normal" in="SourceGraphic" in2="effect1_dropShadow_840_1580" result="shape"/>
</filter>
<filter id="filter1_f_840_1580" x="24.9072" y="40" width="310.292" height="136" filterUnits="userSpaceOnUse" color-interpolation-filters="sRGB">
<feFlood flood-opacity="0" result="BackgroundImageFix"/>
<feBlend mode="normal" in="SourceGraphic" in2="BackgroundImageFix" result="shape"/>
<feGaussianBlur stdDeviation="1.5" result="effect1_foregroundBlur_840_1580"/>
</filter>
<radialGradient id="paint0_radial_840_1580" cx="0" cy="0" r="1" gradientUnits="userSpaceOnUse" gradientTransform="translate(24 197.5) rotate(-27.7622) scale(363.888 397.266)">
<stop/>
<stop offset="1" stop-color="#0F5A51"/>
</radialGradient>
<linearGradient id="paint1_linear_840_1580" x1="18.8564" y1="108.355" x2="319.29" y2="108.355" gradientUnits="userSpaceOnUse">
<stop stop-color="#BAFB02"/>
<stop offset="1" stop-color="#06AEE5"/>
</linearGradient>
</defs>
</svg>
