<svg width="17" height="11" viewBox="0 0 17 11" fill="none" xmlns="http://www.w3.org/2000/svg">
<path d="M0 5.0638L0.0666743 5.20936C1.3822 8.11042 4.77595 10.0504 8.50906 10.0362H8.52605C12.2695 10.0161 15.6468 8.04186 16.9348 5.11871L17 4.9725L16.9333 4.82693C15.6178 1.92588 12.2252 -0.0140573 8.49094 7.6722e-05H8.47395C4.73031 0.0203843 1.35307 1.99444 0.065056 4.91759L0 5.0638ZM0.753484 5.05974C1.98178 2.46249 5.06029 0.718801 8.4775 0.700443H8.49337C11.9027 0.687934 14.9939 2.39962 16.2476 4.97656C15.0194 7.57381 11.9397 9.31766 8.52347 9.33602H8.50647C5.09702 9.34853 2.00589 7.63685 0.753322 5.0599L0.753484 5.05974Z" fill="black"/>
<path d="M5.61918 5.03841C5.62743 6.59933 6.92305 7.85726 8.51142 7.84881C10.0998 7.8402 11.382 6.56847 11.3736 5.00755C11.3653 3.44679 10.0697 2.1887 8.48132 2.19731C6.89295 2.20592 5.61093 3.47766 5.61918 5.03858V5.03841Z" stroke="black" stroke-miterlimit="10"/>
<path d="M7.07252 5.02786C7.07668 5.79961 7.71789 6.42152 8.50389 6.41734C9.29013 6.41317 9.92463 5.7843 9.92047 5.01255C9.9163 4.2408 9.2751 3.61889 8.48886 3.62307C7.70262 3.62724 7.06812 4.25611 7.07229 5.02786H7.07252Z" fill="black"/>
<line x1="2.6957" y1="0.873509" x2="14.8735" y2="9.3043" stroke="black" stroke-linecap="round"/>
</svg>
