<svg width="14" height="18" viewBox="0 0 14 18" fill="none" xmlns="http://www.w3.org/2000/svg">
<path d="M12.8535 7.26915H12.5027V5.62762C12.5027 2.5915 10.0934 0.05525 7.08195 0.00110944C6.99967 -0.000369813 6.83525 -0.000369813 6.753 0.00110944C3.74151 0.05525 1.33218 2.5915 1.33218 5.62762V7.26915H0.981409C0.440891 7.26915 0 7.8269 0 8.51575V16.749C0 17.437 0.440891 18 0.981446 18H12.8535C13.394 18 13.8349 17.437 13.8349 16.749V8.51575C13.8349 7.82694 13.394 7.26915 12.8535 7.26915ZM8.0297 12.624V15.1118C8.0297 15.3966 7.79121 15.6377 7.50612 15.6377H6.32886C6.04374 15.6377 5.80524 15.3966 5.80524 15.1118V12.624C5.52874 12.3518 5.36776 11.9755 5.36776 11.5591C5.36776 10.7702 5.97761 10.0922 6.75304 10.0609C6.83521 10.0576 6.99981 10.0576 7.08199 10.0609C7.85741 10.0922 8.46727 10.7702 8.46727 11.5591C8.46719 11.9755 8.30621 12.3518 8.0297 12.624ZM10.191 7.26915H7.08195H6.753H3.64391V5.62762C3.64391 3.81906 5.11369 2.32364 6.91746 2.32364C8.72122 2.32364 10.1911 3.81906 10.1911 5.62762V7.26915H10.191Z" fill="#03323F"/>
</svg>
