<svg width="185" height="82" viewBox="0 0 185 82" fill="none" xmlns="http://www.w3.org/2000/svg">
<g filter="url(#filter0_d_681_441)">
<path d="M29.6891 0C29.5888 6.04958 22.8872 13.0521 12.1045 23.0636C-10.3824 43.9206 2.33742 62.0944 18.9377 59.6746L25.5014 42.5728L9.95426 43.2937C9.95426 43.2937 25.2318 26.4865 30.4414 20.7629C40.4153 9.79218 29.6891 0 29.6891 0Z" fill="url(#paint0_linear_681_441)"/>
<path d="M10.9698 58.904C11.4023 59.0607 11.8412 59.1986 12.2863 59.3177C12.2863 59.3177 12.2925 59.3177 12.2988 59.3177C14.3676 59.8694 16.6056 60.0136 18.9377 59.6751L25.5013 42.5732L9.96046 43.2942C6.01726 47.7201 5.07064 56.4528 10.9698 58.904Z" fill="url(#paint1_radial_681_441)" fill-opacity="0.7"/>
<path d="M24.3107 77.3272C24.411 71.2776 31.1125 64.2751 41.8952 54.2635C64.3821 33.4066 51.6623 15.2327 35.062 17.6526L28.4984 34.7544L44.0455 34.0335C44.0455 34.0335 28.7679 50.8407 23.5584 56.5643C13.5844 67.535 24.3044 77.3272 24.3044 77.3272H24.3107Z" fill="url(#paint2_linear_681_441)"/>
<path d="M43.036 18.4242C42.6034 18.2675 42.1646 18.1296 41.7195 18.0105C41.7195 18.0105 41.7132 18.0105 41.707 18.0105C39.6382 17.4588 37.4002 17.3146 35.0681 17.6531L28.5044 34.7549L44.0453 34.034C47.9885 29.6081 48.9351 20.8754 43.036 18.4242Z" fill="url(#paint3_linear_681_441)" fill-opacity="0.7"/>
<path d="M43.036 18.4242C42.6034 18.2675 42.1646 18.1296 41.7195 18.0105C41.7195 18.0105 41.7132 18.0105 41.707 18.0105C39.6382 17.4588 37.4002 17.3146 35.0681 17.6531L28.5044 34.7549L44.0453 34.034C47.9885 29.6081 48.9351 20.8754 43.036 18.4242Z" fill="url(#paint4_radial_681_441)" fill-opacity="0.2"/>
</g>
<g filter="url(#filter1_d_681_441)">
<path d="M72.1397 36.9846C70.4809 36.9846 68.9488 36.7078 67.5434 36.1541C66.1379 35.6004 64.9168 34.8276 63.8801 33.8356C62.8433 32.8205 62.0369 31.6324 61.4609 30.2713C60.8849 28.9102 60.5969 27.4337 60.5969 25.8419C60.5969 23.9732 60.954 22.2084 61.6683 20.5474C62.4055 18.8633 63.4193 17.3868 64.7095 16.118C65.9997 14.8261 67.4742 13.8225 69.1331 13.1073C70.815 12.3691 72.589 12 74.4552 12C76.5749 12 78.5217 12.4614 80.2957 13.3842C82.0698 14.307 83.4406 15.5528 84.4083 17.1215L79.8465 20.928C79.2474 19.8207 78.4295 18.9671 77.3928 18.3673C76.379 17.7675 75.2386 17.4675 73.9714 17.4675C72.9576 17.4675 72.0015 17.6752 71.103 18.0904C70.2275 18.5057 69.4441 19.0824 68.7529 19.8207C68.0848 20.5358 67.5549 21.3779 67.1632 22.3468C66.7946 23.3157 66.6103 24.3539 66.6103 25.4612C66.6103 26.6378 66.8637 27.6875 67.3706 28.6103C67.9005 29.5331 68.6262 30.2598 69.5478 30.7904C70.4694 31.321 71.5292 31.5863 72.7273 31.5863C73.6258 31.5863 74.4667 31.4248 75.2501 31.1018C76.0334 30.7558 76.7131 30.2944 77.2891 29.7176C77.8651 29.1178 78.2913 28.4257 78.5678 27.6413H72.1052L73.2111 22.5198H85.7907L85.3068 25.1498C84.8921 27.4568 84.0512 29.51 82.784 31.3094C81.5168 33.0858 79.9617 34.4815 78.1185 35.4966C76.2984 36.4886 74.3055 36.9846 72.1397 36.9846Z" fill="url(#paint5_linear_681_441)"/>
<path d="M85.9729 36.5001L91.1223 12.2768H102.389C103.909 12.2768 105.234 12.5767 106.363 13.1766C107.515 13.7764 108.413 14.6069 109.059 15.6681C109.704 16.7062 110.026 17.9174 110.026 19.3016C110.026 20.5243 109.761 21.6778 109.231 22.7621C108.724 23.8233 108.01 24.7461 107.089 25.5304C106.167 26.2917 105.096 26.857 103.875 27.2261L107.538 36.5001H101.386L98.276 27.6759H93.6451L91.7789 36.5001H85.9729ZM94.6819 22.8313H100.73C101.375 22.8313 101.951 22.7044 102.458 22.4506C102.965 22.1738 103.356 21.8162 103.633 21.3779C103.932 20.9165 104.082 20.4089 104.082 19.8553C104.082 19.094 103.829 18.4942 103.322 18.0558C102.838 17.5944 102.181 17.3637 101.352 17.3637H95.8569L94.6819 22.8313Z" fill="url(#paint6_linear_681_441)"/>
<path d="M109.429 36.5001L114.578 12.2768H133.275L132.169 17.4329H119.278L118.345 21.7931H126.847L125.81 26.7762H117.308L116.341 31.344H129.369L128.264 36.5001H109.429Z" fill="url(#paint7_linear_681_441)"/>
<path d="M131.771 36.5001L136.92 12.2768H155.617L154.511 17.4329H141.62L140.687 21.7931H149.189L148.152 26.7762H139.65L138.683 31.344H151.712L150.606 36.5001H131.771Z" fill="url(#paint8_linear_681_441)"/>
<path d="M154.113 36.5001L159.262 12.2768H164.757L172.429 26.8454L175.505 12.2768H181L175.851 36.5001H170.701L162.822 21.3779L159.608 36.5001H154.113Z" fill="url(#paint9_linear_681_441)"/>
<path d="M59 64.6165L63.0766 45.4397H77.878L77.0025 49.5216H66.7974L66.0587 52.9734H72.7892L71.9684 56.9184H65.238L64.4719 60.5345H74.7864L73.9109 64.6165H59Z" fill="url(#paint10_linear_681_441)"/>
<path d="M76.6875 64.6165L80.764 45.4397H85.1142L91.188 56.9732L93.623 45.4397H97.9731L93.8966 64.6165H89.82L83.5821 52.6447L81.0376 64.6165H76.6875Z" fill="url(#paint11_linear_681_441)"/>
<path d="M97.02 64.6165L101.097 45.4397H115.898L115.023 49.5216H104.817L104.079 52.9734H110.809L109.988 56.9184H103.258L102.492 60.5345H112.806L111.931 64.6165H97.02Z" fill="url(#paint12_linear_681_441)"/>
<path d="M114.708 64.6165L118.784 45.4397H127.703C128.907 45.4397 129.956 45.6771 130.85 46.152C131.762 46.6268 132.473 47.2843 132.984 48.1244C133.494 48.9463 133.75 49.9051 133.75 51.001C133.75 51.9689 133.54 52.8821 133.12 53.7405C132.719 54.5806 132.154 55.3112 131.424 55.9321C130.695 56.5348 129.846 56.9823 128.88 57.2745L131.78 64.6165H126.91L124.447 57.6306H120.781L119.304 64.6165H114.708ZM121.602 53.7953H126.39C126.901 53.7953 127.357 53.6948 127.758 53.4939C128.159 53.2748 128.469 52.9917 128.688 52.6447C128.925 52.2794 129.044 51.8776 129.044 51.4393C129.044 50.8366 128.843 50.3617 128.442 50.0147C128.059 49.6494 127.539 49.4668 126.882 49.4668H122.532L121.602 53.7953Z" fill="url(#paint13_linear_681_441)"/>
<path d="M143.673 65C142.36 65 141.147 64.7808 140.034 64.3425C138.922 63.9042 137.955 63.2924 137.134 62.507C136.314 61.7034 135.675 60.7628 135.219 59.6853C134.763 58.6077 134.535 57.4389 134.535 56.1787C134.535 54.6993 134.818 53.3022 135.383 51.9872C135.967 50.6539 136.77 49.4851 137.791 48.4806C138.812 47.4578 139.98 46.6633 141.293 46.0972C142.624 45.5127 144.029 45.2205 145.506 45.2205C147.184 45.2205 148.726 45.5858 150.13 46.3163C151.535 47.0469 152.62 48.0331 153.386 49.275L149.774 52.2885C149.3 51.4119 148.653 50.7361 147.832 50.2613C147.029 49.7864 146.127 49.549 145.123 49.549C144.321 49.549 143.564 49.7134 142.852 50.0421C142.159 50.3709 141.539 50.8274 140.992 51.4119C140.463 51.9781 140.044 52.6447 139.734 53.4118C139.442 54.1788 139.296 55.0007 139.296 55.8773C139.296 56.8088 139.496 57.6398 139.898 58.3703C140.317 59.1009 140.892 59.6762 141.621 60.0962C142.351 60.5163 143.19 60.7263 144.138 60.7263C144.85 60.7263 145.515 60.5985 146.136 60.3428C146.756 60.0688 147.294 59.7036 147.75 59.247C148.206 58.7721 148.543 58.2242 148.762 57.6032H143.646L144.521 53.5487H154.48L154.097 55.6308C153.769 57.4571 153.103 59.0826 152.1 60.5072C151.097 61.9135 149.866 63.0184 148.406 63.822C146.966 64.6073 145.388 65 143.673 65Z" fill="url(#paint14_linear_681_441)"/>
<path d="M158.103 64.6165L159.608 57.4389L154.41 45.4397H159.307L162.618 53.3022L169.157 45.4397H174.574L164.232 57.4937L162.727 64.6165H158.103Z" fill="url(#paint15_linear_681_441)"/>
</g>
<defs>
<filter id="filter0_d_681_441" x="0" y="0" width="57.9997" height="81.3271" filterUnits="userSpaceOnUse" color-interpolation-filters="sRGB">
<feFlood flood-opacity="0" result="BackgroundImageFix"/>
<feColorMatrix in="SourceAlpha" type="matrix" values="0 0 0 0 0 0 0 0 0 0 0 0 0 0 0 0 0 0 127 0" result="hardAlpha"/>
<feOffset dx="2" dy="2"/>
<feGaussianBlur stdDeviation="1"/>
<feComposite in2="hardAlpha" operator="out"/>
<feColorMatrix type="matrix" values="0 0 0 0 0 0 0 0 0 0 0 0 0 0 0 0 0 0 0.5 0"/>
<feBlend mode="normal" in2="BackgroundImageFix" result="effect1_dropShadow_681_441"/>
<feBlend mode="normal" in="SourceGraphic" in2="effect1_dropShadow_681_441" result="shape"/>
</filter>
<filter id="filter1_d_681_441" x="59" y="12" width="126" height="57" filterUnits="userSpaceOnUse" color-interpolation-filters="sRGB">
<feFlood flood-opacity="0" result="BackgroundImageFix"/>
<feColorMatrix in="SourceAlpha" type="matrix" values="0 0 0 0 0 0 0 0 0 0 0 0 0 0 0 0 0 0 127 0" result="hardAlpha"/>
<feOffset dx="2" dy="2"/>
<feGaussianBlur stdDeviation="1"/>
<feComposite in2="hardAlpha" operator="out"/>
<feColorMatrix type="matrix" values="0 0 0 0 0 0 0 0 0 0 0 0 0 0 0 0 0 0 0.5 0"/>
<feBlend mode="normal" in2="BackgroundImageFix" result="effect1_dropShadow_681_441"/>
<feBlend mode="normal" in="SourceGraphic" in2="effect1_dropShadow_681_441" result="shape"/>
</filter>
<linearGradient id="paint0_linear_681_441" x1="0.507393" y1="30.0589" x2="31.8966" y2="30.0589" gradientUnits="userSpaceOnUse">
<stop stop-color="#BAFB02"/>
<stop offset="1" stop-color="#06AEE5"/>
</linearGradient>
<radialGradient id="paint1_radial_681_441" cx="0" cy="0" r="1" gradientUnits="userSpaceOnUse" gradientTransform="translate(7.20888 54.2272) rotate(-16.5572) scale(12.0993 1005.73)">
<stop stop-color="#43640A"/>
<stop offset="1" stop-color="#B4F90A"/>
</radialGradient>
<linearGradient id="paint2_linear_681_441" x1="19.8184" y1="47.4944" x2="51.2089" y2="47.4944" gradientUnits="userSpaceOnUse">
<stop stop-color="#BAFB02"/>
<stop offset="1" stop-color="#06AEE5"/>
</linearGradient>
<linearGradient id="paint3_linear_681_441" x1="28.5234" y1="34.7925" x2="47.1503" y2="27.6159" gradientUnits="userSpaceOnUse">
<stop stop-color="#26BCBD"/>
<stop offset="0.602507" stop-color="#0CAAD4"/>
<stop offset="0.974351" stop-color="#0A5E74"/>
</linearGradient>
<radialGradient id="paint4_radial_681_441" cx="0" cy="0" r="1" gradientUnits="userSpaceOnUse" gradientTransform="translate(47.017 23.5083) rotate(149.744) scale(21.7729 18.6018)">
<stop/>
<stop offset="1" stop-opacity="0"/>
</radialGradient>
<linearGradient id="paint5_linear_681_441" x1="60.7846" y1="38.6" x2="171.185" y2="38.6" gradientUnits="userSpaceOnUse">
<stop stop-color="#BAFB02"/>
<stop offset="1" stop-color="#06AEE5"/>
</linearGradient>
<linearGradient id="paint6_linear_681_441" x1="60.7846" y1="38.6" x2="171.185" y2="38.6" gradientUnits="userSpaceOnUse">
<stop stop-color="#BAFB02"/>
<stop offset="1" stop-color="#06AEE5"/>
</linearGradient>
<linearGradient id="paint7_linear_681_441" x1="60.7846" y1="38.6" x2="171.185" y2="38.6" gradientUnits="userSpaceOnUse">
<stop stop-color="#BAFB02"/>
<stop offset="1" stop-color="#06AEE5"/>
</linearGradient>
<linearGradient id="paint8_linear_681_441" x1="60.7846" y1="38.6" x2="171.185" y2="38.6" gradientUnits="userSpaceOnUse">
<stop stop-color="#BAFB02"/>
<stop offset="1" stop-color="#06AEE5"/>
</linearGradient>
<linearGradient id="paint9_linear_681_441" x1="60.7846" y1="38.6" x2="171.185" y2="38.6" gradientUnits="userSpaceOnUse">
<stop stop-color="#BAFB02"/>
<stop offset="1" stop-color="#06AEE5"/>
</linearGradient>
<linearGradient id="paint10_linear_681_441" x1="60.7846" y1="38.6" x2="171.185" y2="38.6" gradientUnits="userSpaceOnUse">
<stop stop-color="#BAFB02"/>
<stop offset="1" stop-color="#06AEE5"/>
</linearGradient>
<linearGradient id="paint11_linear_681_441" x1="60.7846" y1="38.6" x2="171.185" y2="38.6" gradientUnits="userSpaceOnUse">
<stop stop-color="#BAFB02"/>
<stop offset="1" stop-color="#06AEE5"/>
</linearGradient>
<linearGradient id="paint12_linear_681_441" x1="60.7846" y1="38.6" x2="171.185" y2="38.6" gradientUnits="userSpaceOnUse">
<stop stop-color="#BAFB02"/>
<stop offset="1" stop-color="#06AEE5"/>
</linearGradient>
<linearGradient id="paint13_linear_681_441" x1="60.7846" y1="38.6" x2="171.185" y2="38.6" gradientUnits="userSpaceOnUse">
<stop stop-color="#BAFB02"/>
<stop offset="1" stop-color="#06AEE5"/>
</linearGradient>
<linearGradient id="paint14_linear_681_441" x1="60.7846" y1="38.6" x2="171.185" y2="38.6" gradientUnits="userSpaceOnUse">
<stop stop-color="#BAFB02"/>
<stop offset="1" stop-color="#06AEE5"/>
</linearGradient>
<linearGradient id="paint15_linear_681_441" x1="60.7846" y1="38.6" x2="171.185" y2="38.6" gradientUnits="userSpaceOnUse">
<stop stop-color="#BAFB02"/>
<stop offset="1" stop-color="#06AEE5"/>
</linearGradient>
</defs>
</svg>
