<svg width="293" height="125" viewBox="0 0 293 125" fill="none" xmlns="http://www.w3.org/2000/svg">
<path d="M47.9924 0C47.8303 9.77916 36.9972 21.0987 19.567 37.2824C-16.7831 70.9977 3.77845 100.376 30.6129 96.4641L41.223 68.8189L16.0911 69.9843C16.0911 69.9843 40.7873 42.8155 49.2085 33.5633C65.3314 15.8291 47.9924 0 47.9924 0Z" fill="url(#paint0_linear_583_2)"/>
<path d="M17.7314 95.218C18.4306 95.4713 19.14 95.6943 19.8595 95.8868C19.8595 95.8868 19.8696 95.8868 19.8797 95.8868C23.2239 96.7786 26.8417 97.0117 30.6115 96.4645L41.2216 68.8193L16.0998 69.9847C9.72562 77.1392 8.19541 91.2557 17.7314 95.218Z" fill="url(#paint1_radial_583_2)" fill-opacity="0.7"/>
<path d="M39.2988 125C39.4609 115.221 50.294 103.901 67.7242 87.7173C104.074 54.002 83.5128 24.624 56.6783 28.5356L46.0682 56.1808L71.2001 55.0154C71.2001 55.0154 46.504 82.1842 38.0827 91.4364C21.9598 109.171 39.2887 125 39.2887 125H39.2988Z" fill="url(#paint2_linear_583_2)"/>
<path d="M69.5684 29.7834C68.8691 29.5301 68.1598 29.3071 67.4403 29.1146C67.4403 29.1146 67.4301 29.1146 67.42 29.1146C64.0758 28.2228 60.458 27.9897 56.6883 28.537L46.0781 56.1821L71.1999 55.0167C77.5741 47.8622 79.1043 33.7457 69.5684 29.7834Z" fill="url(#paint3_linear_583_2)" fill-opacity="0.7"/>
<path d="M69.5684 29.7834C68.8691 29.5301 68.1598 29.3071 67.4403 29.1146C67.4403 29.1146 67.4301 29.1146 67.42 29.1146C64.0758 28.2228 60.458 27.9897 56.6883 28.537L46.0781 56.1821L71.1999 55.0167C77.5741 47.8622 79.1043 33.7457 69.5684 29.7834Z" fill="url(#paint4_radial_583_2)" fill-opacity="0.2"/>
<path d="M116.613 60.2517C113.932 60.2517 111.455 59.8041 109.183 58.9091C106.912 58.0141 104.938 56.7648 103.262 55.1612C101.586 53.5204 100.282 51.5998 99.3511 49.3996C98.42 47.1993 97.9545 44.8126 97.9545 42.2394C97.9545 39.2188 98.5318 36.3659 99.6863 33.6808C100.878 30.9585 102.517 28.5718 104.602 26.5207C106.688 24.4323 109.072 22.8101 111.753 21.654C114.472 20.4607 117.34 19.864 120.356 19.864C123.783 19.864 126.93 20.6099 129.798 22.1016C132.665 23.5932 134.881 25.607 136.446 28.1429L129.071 34.2962C128.103 32.5061 126.781 31.1263 125.105 30.1567C123.466 29.1871 121.623 28.7023 119.574 28.7023C117.936 28.7023 116.39 29.0379 114.938 29.7092C113.522 30.3805 112.256 31.3128 111.139 32.5061C110.059 33.6622 109.202 35.0234 108.569 36.5896C107.973 38.1559 107.675 39.8341 107.675 41.6241C107.675 43.526 108.085 45.2228 108.904 46.7145C109.761 48.2062 110.934 49.3809 112.424 50.2386C113.913 51.0964 115.627 51.5252 117.563 51.5252C119.016 51.5252 120.375 51.2642 121.641 50.7421C122.908 50.1827 124.006 49.4369 124.937 48.5046C125.868 47.535 126.557 46.4162 127.004 45.1482H116.558L118.345 36.8693H138.68L137.898 41.1207C137.228 44.8499 135.868 48.1689 133.82 51.0777C131.772 53.9492 129.258 56.2054 126.278 57.8463C123.336 59.4499 120.114 60.2517 116.613 60.2517Z" fill="url(#paint5_linear_583_2)"/>
<path d="M138.975 59.4685L147.299 20.3115H165.511C167.969 20.3115 170.11 20.7963 171.935 21.7659C173.797 22.7355 175.25 24.0781 176.293 25.7935C177.336 27.4717 177.857 29.4295 177.857 31.667C177.857 33.6435 177.429 35.5082 176.572 37.2609C175.753 38.9764 174.598 40.468 173.108 41.736C171.619 42.9666 169.887 43.8803 167.913 44.477L173.835 59.4685H163.891L158.863 45.2042H151.377L148.36 59.4685H138.975ZM153.053 37.3728H162.829C163.872 37.3728 164.803 37.1677 165.623 36.7575C166.442 36.3099 167.075 35.7319 167.522 35.0234C168.006 34.2775 168.248 33.4571 168.248 32.5621C168.248 31.3314 167.838 30.3618 167.019 29.6533C166.237 28.9074 165.176 28.5345 163.835 28.5345H154.952L153.053 37.3728Z" fill="url(#paint6_linear_583_2)"/>
<path d="M176.891 59.4685L185.215 20.3115H215.438L213.65 28.6464H192.813L191.304 35.6946H205.047L203.371 43.7498H189.628L188.064 51.1337H209.125L207.338 59.4685H176.891Z" fill="url(#paint7_linear_583_2)"/>
<path d="M213.007 59.4685L221.331 20.3115H251.554L249.766 28.6464H228.929L227.42 35.6946H241.163L239.487 43.7498H225.744L224.18 51.1337H245.241L243.454 59.4685H213.007Z" fill="url(#paint8_linear_583_2)"/>
<path d="M249.123 59.4685L257.447 20.3115H266.33L278.732 43.8617L283.704 20.3115H292.586L284.262 59.4685H275.938L263.201 35.0234L258.006 59.4685H249.123Z" fill="url(#paint9_linear_583_2)"/>
<path d="M95.373 104.919L101.963 73.9193H125.889L124.474 80.5177H107.978L106.784 86.0976H117.663L116.336 92.4746H105.457L104.218 98.3202H120.892L119.477 104.919H95.373Z" fill="url(#paint10_linear_583_2)"/>
<path d="M123.965 104.919L130.555 73.9193H137.587L147.405 92.5632L151.341 73.9193H158.373L151.783 104.919H145.194L135.11 85.5662L130.997 104.919H123.965Z" fill="url(#paint11_linear_583_2)"/>
<path d="M156.832 104.919L163.422 73.9193H187.349L185.934 80.5177H169.437L168.243 86.0976H179.123L177.796 92.4746H166.916L165.678 98.3202H182.351L180.936 104.919H156.832Z" fill="url(#paint12_linear_583_2)"/>
<path d="M185.424 104.919L192.014 73.9193H206.432C208.378 73.9193 210.073 74.3031 211.518 75.0707C212.992 75.8383 214.142 76.9011 214.968 78.2592C215.793 79.5877 216.206 81.1377 216.206 82.9091C216.206 84.4738 215.867 85.95 215.189 87.3376C214.54 88.6956 213.626 89.8766 212.447 90.8803C211.267 91.8546 209.896 92.5779 208.334 93.0503L213.022 104.919H205.149L201.169 93.626H195.243L192.854 104.919H185.424ZM196.569 87.4261H204.309C205.135 87.4261 205.872 87.2638 206.52 86.939C207.169 86.5847 207.67 86.1271 208.024 85.5662C208.407 84.9757 208.599 84.3262 208.599 83.6176C208.599 82.6434 208.275 81.8758 207.626 81.3148C207.007 80.7244 206.167 80.4291 205.105 80.4291H198.073L196.569 87.4261Z" fill="url(#paint13_linear_583_2)"/>
<path d="M232.247 105.539C230.125 105.539 228.164 105.184 226.365 104.476C224.567 103.767 223.004 102.778 221.677 101.509C220.351 100.21 219.319 98.6892 218.581 96.9473C217.844 95.2055 217.476 93.316 217.476 91.2789C217.476 88.8875 217.933 86.629 218.847 84.5033C219.79 82.3482 221.088 80.4587 222.739 78.8349C224.39 77.1816 226.277 75.8974 228.4 74.9821C230.552 74.0374 232.822 73.565 235.211 73.565C237.923 73.565 240.415 74.1555 242.685 75.3364C244.955 76.5173 246.71 78.1116 247.948 80.1192L242.11 84.9905C241.343 83.5734 240.297 82.481 238.97 81.7134C237.673 80.9458 236.213 80.562 234.591 80.562C233.294 80.562 232.071 80.8277 230.921 81.3591C229.8 81.8905 228.798 82.6286 227.913 83.5734C227.058 84.4886 226.38 85.5662 225.879 86.8062C225.407 88.0461 225.171 89.3747 225.171 90.7918C225.171 92.2974 225.496 93.6408 226.144 94.8217C226.822 96.0026 227.751 96.9326 228.93 97.6116C230.11 98.2906 231.466 98.6302 232.999 98.6302C234.149 98.6302 235.225 98.4235 236.228 98.0102C237.23 97.5673 238.1 96.9769 238.837 96.2388C239.574 95.4712 240.12 94.5855 240.474 93.5817H232.203L233.619 87.0276H249.717L249.098 90.3932C248.567 93.3455 247.491 95.9731 245.869 98.2759C244.248 100.549 242.257 102.335 239.899 103.634C237.569 104.904 235.019 105.539 232.247 105.539Z" fill="url(#paint14_linear_583_2)"/>
<path d="M255.574 104.919L258.006 93.316L249.603 73.9193H257.52L262.871 86.629L273.441 73.9193H282.198L265.481 93.4046L263.048 104.919H255.574Z" fill="url(#paint15_linear_583_2)"/>
<defs>
<linearGradient id="paint0_linear_583_2" x1="0.820202" y1="48.5902" x2="51.5609" y2="48.5902" gradientUnits="userSpaceOnUse">
<stop stop-color="#BAFB02"/>
<stop offset="1" stop-color="#06AEE5"/>
</linearGradient>
<radialGradient id="paint1_radial_583_2" cx="0" cy="0" r="1" gradientUnits="userSpaceOnUse" gradientTransform="translate(11.6519 87.658) rotate(-16.5572) scale(19.5586 1625.77)">
<stop stop-color="#43640A"/>
<stop offset="1" stop-color="#B4F90A"/>
</radialGradient>
<linearGradient id="paint2_linear_583_2" x1="32.037" y1="76.775" x2="82.7799" y2="76.775" gradientUnits="userSpaceOnUse">
<stop stop-color="#BAFB02"/>
<stop offset="1" stop-color="#06AEE5"/>
</linearGradient>
<linearGradient id="paint3_linear_583_2" x1="46.1088" y1="56.2428" x2="76.2192" y2="44.6418" gradientUnits="userSpaceOnUse">
<stop stop-color="#26BCBD"/>
<stop offset="0.602507" stop-color="#0CAAD4"/>
<stop offset="0.974351" stop-color="#0A5E74"/>
</linearGradient>
<radialGradient id="paint4_radial_583_2" cx="0" cy="0" r="1" gradientUnits="userSpaceOnUse" gradientTransform="translate(76.0037 38.0019) rotate(149.744) scale(35.196 30.0698)">
<stop/>
<stop offset="1" stop-opacity="0"/>
</radialGradient>
<linearGradient id="paint5_linear_583_2" x1="98.2578" y1="62.863" x2="276.72" y2="62.863" gradientUnits="userSpaceOnUse">
<stop stop-color="#BAFB02"/>
<stop offset="1" stop-color="#06AEE5"/>
</linearGradient>
<linearGradient id="paint6_linear_583_2" x1="98.2578" y1="62.863" x2="276.72" y2="62.863" gradientUnits="userSpaceOnUse">
<stop stop-color="#BAFB02"/>
<stop offset="1" stop-color="#06AEE5"/>
</linearGradient>
<linearGradient id="paint7_linear_583_2" x1="98.2578" y1="62.863" x2="276.72" y2="62.863" gradientUnits="userSpaceOnUse">
<stop stop-color="#BAFB02"/>
<stop offset="1" stop-color="#06AEE5"/>
</linearGradient>
<linearGradient id="paint8_linear_583_2" x1="98.2578" y1="62.863" x2="276.72" y2="62.863" gradientUnits="userSpaceOnUse">
<stop stop-color="#BAFB02"/>
<stop offset="1" stop-color="#06AEE5"/>
</linearGradient>
<linearGradient id="paint9_linear_583_2" x1="98.2578" y1="62.863" x2="276.72" y2="62.863" gradientUnits="userSpaceOnUse">
<stop stop-color="#BAFB02"/>
<stop offset="1" stop-color="#06AEE5"/>
</linearGradient>
<linearGradient id="paint10_linear_583_2" x1="98.2578" y1="62.863" x2="276.72" y2="62.863" gradientUnits="userSpaceOnUse">
<stop stop-color="#BAFB02"/>
<stop offset="1" stop-color="#06AEE5"/>
</linearGradient>
<linearGradient id="paint11_linear_583_2" x1="98.2578" y1="62.863" x2="276.72" y2="62.863" gradientUnits="userSpaceOnUse">
<stop stop-color="#BAFB02"/>
<stop offset="1" stop-color="#06AEE5"/>
</linearGradient>
<linearGradient id="paint12_linear_583_2" x1="98.2578" y1="62.863" x2="276.72" y2="62.863" gradientUnits="userSpaceOnUse">
<stop stop-color="#BAFB02"/>
<stop offset="1" stop-color="#06AEE5"/>
</linearGradient>
<linearGradient id="paint13_linear_583_2" x1="98.2578" y1="62.863" x2="276.72" y2="62.863" gradientUnits="userSpaceOnUse">
<stop stop-color="#BAFB02"/>
<stop offset="1" stop-color="#06AEE5"/>
</linearGradient>
<linearGradient id="paint14_linear_583_2" x1="98.2578" y1="62.863" x2="276.72" y2="62.863" gradientUnits="userSpaceOnUse">
<stop stop-color="#BAFB02"/>
<stop offset="1" stop-color="#06AEE5"/>
</linearGradient>
<linearGradient id="paint15_linear_583_2" x1="98.2578" y1="62.863" x2="276.72" y2="62.863" gradientUnits="userSpaceOnUse">
<stop stop-color="#BAFB02"/>
<stop offset="1" stop-color="#06AEE5"/>
</linearGradient>
</defs>
</svg>
