<svg width="46" height="46" viewBox="0 0 46 46" fill="none" xmlns="http://www.w3.org/2000/svg">
<rect x="0.5" y="0.5" width="45" height="45" rx="7.5" fill="url(#paint0_radial_376_279)" stroke="url(#paint1_linear_376_279)"/>
<path d="M31.7215 19.9458L31.7215 19.9458L32.9068 21.1311L32.9922 21.2164H32.8715H27.7506C27.2713 21.2164 26.8839 21.6047 26.8839 22.0831C26.8839 22.5615 27.2713 22.9497 27.7506 22.9497H32.8714H32.9922L32.9068 23.0351L31.7215 24.2203C31.3826 24.5592 31.3826 25.1078 31.7214 25.4457L31.7216 25.4459C31.8905 25.6156 32.1122 25.6997 32.3343 25.6997C32.5563 25.6997 32.778 25.6157 32.947 25.4459L32.947 25.4458L35.6963 22.6967L35.6965 22.6965C35.7767 22.6171 35.84 22.521 35.8844 22.4141C35.9719 22.2027 35.9719 21.9635 35.8844 21.7521C35.84 21.646 35.7767 21.5498 35.6963 21.4695L32.9471 18.7204L31.7215 19.9458ZM31.7215 19.9458C31.3827 19.6078 31.3826 19.0593 31.7215 18.7204M31.7215 19.9458L31.7215 18.7204M28.7175 30.3833H28.6675H25.0007H24.9507V30.3333V15.6666C24.9507 15.2845 24.6993 14.9464 24.3327 14.8364L21.1489 13.8812L21.1632 13.7833H28.6675H28.7175V13.8333V18.4167C28.7175 18.8951 29.105 19.2833 29.5843 19.2833C30.0635 19.2833 30.451 18.8951 30.451 18.4167V12.9167C30.451 12.4382 30.0635 12.05 29.5843 12.05H14.9167C14.9068 12.05 14.8964 12.052 14.8814 12.0558C14.8794 12.0563 14.8774 12.0568 14.8752 12.0574C14.8622 12.0607 14.8453 12.0651 14.828 12.0671L14.8276 12.0671L14.8276 12.0671C14.7871 12.0714 14.75 12.0783 14.7107 12.0879C14.6196 12.1114 14.5374 12.1469 14.4604 12.1953C14.4454 12.2048 14.4292 12.2101 14.4195 12.2132C14.4186 12.2135 14.4177 12.2138 14.4169 12.2141C14.4055 12.2178 14.402 12.2196 14.3998 12.2212L14.3995 12.2215L14.3995 12.2215C14.3996 12.2214 14.3997 12.2213 14.3997 12.2212C14.4023 12.2192 14.4038 12.2175 14.4041 12.2171C14.4041 12.217 14.4041 12.217 14.4041 12.217C14.4042 12.2169 14.404 12.2172 14.4027 12.2192C14.4026 12.2193 14.4025 12.2194 14.4025 12.2196C14.4013 12.2213 14.399 12.2249 14.3962 12.2285C14.3932 12.2324 14.3888 12.2374 14.3826 12.2421M28.7175 30.3833L14.3819 12.2426C14.3822 12.2425 14.3824 12.2423 14.3826 12.2421M28.7175 30.3833V30.3333M28.7175 30.3833V30.3333M14.3826 12.2421C14.2879 12.3169 14.2094 12.4077 14.1525 12.5154M14.3826 12.2421L14.1525 12.5154M14.0101 12.7837C14.0198 12.7162 14.0456 12.6556 14.0717 12.5947L14.0825 12.5692L14.0101 12.7837ZM14.0101 12.7837C14.0074 12.7998 14.0091 12.8153 14.0108 12.8307C14.012 12.8416 14.0132 12.8525 14.0128 12.8635L14.0101 12.7837ZM28.7175 30.3333V25.75C28.7175 25.2716 29.105 24.8833 29.5843 24.8833C30.0635 24.8833 30.451 25.2716 30.451 25.75V31.25C30.451 31.7284 30.0635 32.1167 29.5843 32.1167H25.0006H24.9506V32.1667V33.0833C24.9506 33.3432 24.8337 33.5886 24.6333 33.7533C24.4774 33.8815 24.2824 33.95 24.0839 33.95C24.0274 33.95 23.9705 33.9448 23.9148 33.9328L23.9141 33.9326L14.7469 32.0993L14.7468 32.0993C14.3421 32.0187 14.05 31.6633 14.05 31.25V12.9169C14.05 12.9167 14.0504 12.9147 14.0532 12.9069C14.0534 12.9063 14.0536 12.9058 14.0538 12.9051C14.0566 12.8975 14.062 12.8826 14.0628 12.866L14.0628 12.866L14.0628 12.8652C14.0633 12.8502 14.0616 12.835 14.0604 12.8242C14.0602 12.8222 14.06 12.8204 14.0598 12.8188C14.0585 12.8063 14.0583 12.7987 14.0594 12.792L14.0596 12.7908C14.0683 12.7302 14.0913 12.6761 14.1176 12.6146C14.1212 12.6061 14.1249 12.5975 14.1286 12.5887L14.1286 12.5887M28.7175 30.3333L14.1286 12.5887M14.1286 12.5887L14.1291 12.5875M14.1286 12.5887L14.1291 12.5875M14.1291 12.5875C14.1344 12.574 14.1381 12.56 14.141 12.5492C14.1415 12.5472 14.142 12.5454 14.1425 12.5436C14.1459 12.5313 14.1487 12.5228 14.1525 12.5154M14.1291 12.5875L14.1525 12.5154M31.7215 18.7204C32.0604 18.3824 32.6081 18.3824 32.947 18.7204H31.7215Z" fill="url(#paint2_linear_376_279)" stroke="black" stroke-width="0.1"/>
<defs>
<radialGradient id="paint0_radial_376_279" cx="0" cy="0" r="1" gradientUnits="userSpaceOnUse" gradientTransform="translate(23 23) rotate(90) scale(23)">
<stop stop-color="#02100E"/>
<stop offset="1" stop-color="#062622"/>
</radialGradient>
<linearGradient id="paint1_linear_376_279" x1="0.672872" y1="23.0868" x2="42.2992" y2="23.0868" gradientUnits="userSpaceOnUse">
<stop stop-color="#BAFB02"/>
<stop offset="1" stop-color="#06AEE5"/>
</linearGradient>
<linearGradient id="paint2_linear_376_279" x1="14.3218" y1="23.0415" x2="34.2301" y2="23.0415" gradientUnits="userSpaceOnUse">
<stop stop-color="#BAFB02"/>
<stop offset="1" stop-color="#06AEE5"/>
</linearGradient>
</defs>
</svg>
