<svg width="535" height="167" viewBox="0 0 535 167" fill="none" xmlns="http://www.w3.org/2000/svg">
<path d="M313.671 50.54C310.311 50.54 307.207 49.98 304.361 48.86C301.514 47.74 299.041 46.1767 296.941 44.17C294.841 42.1167 293.207 39.7133 292.041 36.96C290.874 34.2067 290.291 31.22 290.291 28C290.291 24.22 291.014 20.65 292.461 17.29C293.954 13.8833 296.007 10.8967 298.621 8.33C301.234 5.71666 304.221 3.68666 307.581 2.24C310.987 0.746665 314.581 0 318.361 0C322.654 0 326.597 0.933332 330.191 2.8C333.784 4.66666 336.561 7.18667 338.521 10.36L329.281 18.06C328.067 15.82 326.411 14.0933 324.311 12.88C322.257 11.6667 319.947 11.06 317.381 11.06C315.327 11.06 313.391 11.48 311.571 12.32C309.797 13.16 308.211 14.3267 306.811 15.82C305.457 17.2667 304.384 18.97 303.591 20.93C302.844 22.89 302.471 24.99 302.471 27.23C302.471 29.61 302.984 31.7333 304.011 33.6C305.084 35.4667 306.554 36.9367 308.421 38.01C310.287 39.0833 312.434 39.62 314.861 39.62C316.681 39.62 318.384 39.2933 319.971 38.64C321.557 37.94 322.934 37.0067 324.101 35.84C325.267 34.6267 326.131 33.2267 326.691 31.64H313.601L315.841 21.28H341.321L340.341 26.6C339.501 31.2667 337.797 35.42 335.231 39.06C332.664 42.6533 329.514 45.4767 325.781 47.53C322.094 49.5367 318.057 50.54 313.671 50.54Z" fill="url(#paint0_linear_445_210)"/>
<path d="M341.69 49.56L352.12 0.559997H374.94C378.02 0.559997 380.703 1.16666 382.99 2.38C385.323 3.59333 387.143 5.27333 388.45 7.42C389.756 9.52 390.41 11.97 390.41 14.77C390.41 17.2433 389.873 19.5767 388.8 21.77C387.773 23.9167 386.326 25.7833 384.46 27.37C382.593 28.91 380.423 30.0533 377.95 30.8L385.37 49.56H372.91L366.61 31.71H357.23L353.45 49.56H341.69ZM359.33 21.91H371.58C372.886 21.91 374.053 21.6533 375.08 21.14C376.106 20.58 376.9 19.8567 377.46 18.97C378.066 18.0367 378.37 17.01 378.37 15.89C378.37 14.35 377.856 13.1367 376.83 12.25C375.85 11.3167 374.52 10.85 372.84 10.85H361.71L359.33 21.91Z" fill="url(#paint1_linear_445_210)"/>
<path d="M389.199 49.56L399.629 0.559997H437.499L435.259 10.99H409.149L407.259 19.81H424.479L422.379 29.89H405.159L403.199 39.13H429.589L427.349 49.56H389.199Z" fill="url(#paint2_linear_445_210)"/>
<path d="M434.453 49.56L444.883 0.559997H482.753L480.513 10.99H454.403L452.513 19.81H469.733L467.633 29.89H450.413L448.453 39.13H474.843L472.603 49.56H434.453Z" fill="url(#paint3_linear_445_210)"/>
<path d="M479.707 49.56L490.137 0.559997H501.267L516.807 30.03L523.037 0.559997H534.167L523.737 49.56H513.307L497.347 18.97L490.837 49.56H479.707Z" fill="url(#paint4_linear_445_210)"/>
<path d="M292.949 109.56L298.916 81.612H287.441L289.124 73.86H320.591L318.908 81.612H307.535L301.568 109.56H292.949Z" fill="url(#paint5_linear_445_210)"/>
<path d="M336.277 110.121C333.795 110.121 331.5 109.696 329.392 108.846C327.284 107.996 325.431 106.823 323.833 105.327C322.269 103.797 321.045 102.012 320.161 99.972C319.311 97.898 318.886 95.654 318.886 93.24C318.886 90.486 319.396 87.919 320.416 85.539C321.47 83.125 322.915 81 324.751 79.164C326.621 77.328 328.763 75.9 331.177 74.88C333.591 73.826 336.175 73.299 338.929 73.299C341.411 73.299 343.706 73.724 345.814 74.574C347.922 75.424 349.758 76.614 351.322 78.144C352.92 79.64 354.144 81.425 354.994 83.499C355.878 85.539 356.32 87.766 356.32 90.18C356.32 92.934 355.793 95.518 354.739 97.932C353.719 100.312 352.274 102.42 350.404 104.256C348.568 106.092 346.443 107.537 344.029 108.591C341.615 109.611 339.031 110.121 336.277 110.121ZM336.838 102.063C338.334 102.063 339.711 101.774 340.969 101.196C342.261 100.618 343.4 99.819 344.386 98.799C345.372 97.745 346.137 96.538 346.681 95.178C347.225 93.784 347.497 92.305 347.497 90.741C347.497 88.939 347.106 87.341 346.324 85.947C345.542 84.519 344.454 83.397 343.06 82.581C341.7 81.765 340.136 81.357 338.368 81.357C336.906 81.357 335.529 81.646 334.237 82.224C332.945 82.802 331.806 83.618 330.82 84.672C329.834 85.692 329.069 86.899 328.525 88.293C327.981 89.653 327.709 91.115 327.709 92.679C327.709 94.481 328.1 96.096 328.882 97.524C329.664 98.918 330.735 100.023 332.095 100.839C333.489 101.655 335.07 102.063 336.838 102.063Z" fill="url(#paint6_linear_445_210)"/>
<path d="M374.009 110.019C370.507 110.019 367.583 109.288 365.237 107.826C362.925 106.33 361.31 104.256 360.392 101.604C359.508 98.918 359.44 95.824 360.188 92.322L364.115 73.86H372.734L368.603 93.24C368.229 95.008 368.229 96.555 368.603 97.881C368.977 99.173 369.674 100.176 370.694 100.89C371.748 101.604 373.057 101.961 374.621 101.961C376.661 101.961 378.446 101.298 379.976 99.972C381.506 98.646 382.492 96.912 382.934 94.77L387.371 73.86H395.939L391.298 95.637C390.652 98.629 389.53 101.196 387.932 103.338C386.334 105.48 384.345 107.129 381.965 108.285C379.619 109.441 376.967 110.019 374.009 110.019Z" fill="url(#paint7_linear_445_210)"/>
<path d="M393.633 109.56L401.232 73.86H417.858C420.102 73.86 422.057 74.302 423.723 75.186C425.423 76.07 426.749 77.294 427.701 78.858C428.653 80.388 429.129 82.173 429.129 84.213C429.129 86.015 428.738 87.715 427.956 89.313C427.208 90.877 426.154 92.237 424.794 93.393C423.434 94.515 421.853 95.348 420.051 95.892L425.457 109.56H416.379L411.789 96.555H404.955L402.201 109.56H393.633ZM406.485 89.415H415.41C416.362 89.415 417.212 89.228 417.96 88.854C418.708 88.446 419.286 87.919 419.694 87.273C420.136 86.593 420.357 85.845 420.357 85.029C420.357 83.907 419.983 83.023 419.235 82.377C418.521 81.697 417.552 81.357 416.328 81.357H408.219L406.485 89.415Z" fill="url(#paint8_linear_445_210)"/>
<path d="M428.247 109.56L435.846 73.86H444.414L436.815 109.56H428.247Z" fill="url(#paint9_linear_445_210)"/>
<path d="M458.603 110.07C455.271 110.07 452.16 109.458 449.27 108.234C446.38 107.01 443.881 105.259 441.773 102.981L447.383 96.963C449.321 98.969 451.242 100.448 453.146 101.4C455.084 102.318 457.141 102.777 459.317 102.777C460.507 102.777 461.527 102.641 462.377 102.369C463.227 102.063 463.873 101.638 464.315 101.094C464.791 100.516 465.029 99.853 465.029 99.105C465.029 98.323 464.689 97.677 464.009 97.167C463.363 96.657 462.258 96.198 460.694 95.79L453.248 93.852C450.766 93.172 448.879 92.067 447.587 90.537C446.295 89.007 445.649 87.103 445.649 84.825C445.649 82.445 446.21 80.405 447.332 78.705C448.488 77.005 450.12 75.696 452.228 74.778C454.336 73.826 456.835 73.35 459.725 73.35C462.717 73.35 465.59 73.894 468.344 74.982C471.132 76.07 473.512 77.583 475.484 79.521L470.078 85.641C468.344 83.941 466.576 82.683 464.774 81.867C462.972 81.051 461.034 80.643 458.96 80.643C457.396 80.643 456.155 80.932 455.237 81.51C454.319 82.054 453.86 82.819 453.86 83.805C453.86 84.553 454.149 85.165 454.727 85.641C455.339 86.083 456.325 86.491 457.685 86.865L464.672 88.548C467.596 89.228 469.806 90.367 471.302 91.965C472.832 93.563 473.597 95.535 473.597 97.881C473.597 100.329 472.968 102.471 471.71 104.307C470.486 106.143 468.752 107.571 466.508 108.591C464.264 109.577 461.629 110.07 458.603 110.07Z" fill="url(#paint10_linear_445_210)"/>
<path d="M474.814 109.56L482.413 73.86H493.021L498.07 90.639L510.31 73.86H521.377L513.778 109.56H505.873L511.024 85.284L495.01 107.01L488.074 85.131L482.923 109.56H474.814Z" fill="url(#paint11_linear_445_210)"/>
<path d="M302.253 163.04C300.333 163.04 298.546 162.707 296.893 162.04C295.266 161.347 293.826 160.4 292.573 159.2C291.346 157.973 290.386 156.56 289.693 154.96C289 153.333 288.653 151.587 288.653 149.72C288.653 147.587 289.053 145.587 289.853 143.72C290.68 141.853 291.8 140.213 293.213 138.8C294.653 137.387 296.306 136.28 298.173 135.48C300.066 134.68 302.093 134.28 304.253 134.28C306.866 134.28 309.173 134.787 311.173 135.8C313.2 136.813 314.8 138.267 315.973 140.16L310.733 144.56C309.986 143.253 309.026 142.267 307.853 141.6C306.706 140.907 305.386 140.56 303.893 140.56C302.746 140.56 301.666 140.787 300.653 141.24C299.64 141.693 298.746 142.333 297.973 143.16C297.226 143.96 296.64 144.893 296.213 145.96C295.786 147.027 295.573 148.16 295.573 149.36C295.573 150.747 295.893 152 296.533 153.12C297.2 154.24 298.093 155.12 299.213 155.76C300.36 156.4 301.653 156.72 303.093 156.72C304.373 156.72 305.6 156.453 306.773 155.92C307.973 155.36 309.093 154.547 310.133 153.48L313.853 158.08C312.386 159.6 310.6 160.813 308.493 161.72C306.413 162.6 304.333 163.04 302.253 163.04Z" fill="url(#paint12_linear_445_210)"/>
<path d="M314.974 162.56L320.934 134.56H327.654L322.974 156.48H337.454L336.174 162.56H314.974Z" fill="url(#paint13_linear_445_210)"/>
<path d="M351.341 162.92C348.594 162.92 346.301 162.347 344.461 161.2C342.648 160.027 341.381 158.4 340.661 156.32C339.968 154.213 339.914 151.787 340.501 149.04L343.581 134.56H350.341L347.101 149.76C346.808 151.147 346.808 152.36 347.101 153.4C347.394 154.413 347.941 155.2 348.741 155.76C349.568 156.32 350.594 156.6 351.821 156.6C353.421 156.6 354.821 156.08 356.021 155.04C357.221 154 357.994 152.64 358.341 150.96L361.821 134.56H368.541L364.901 151.64C364.394 153.987 363.514 156 362.261 157.68C361.008 159.36 359.448 160.653 357.581 161.56C355.741 162.467 353.661 162.92 351.341 162.92Z" fill="url(#paint14_linear_445_210)"/>
<path d="M366.732 162.56L372.692 134.56H385.412C387.999 134.56 390.065 135.187 391.612 136.44C393.185 137.693 393.972 139.36 393.972 141.44C393.972 142.88 393.585 144.213 392.812 145.44C392.039 146.667 391.012 147.667 389.732 148.44C390.665 149.027 391.385 149.76 391.892 150.64C392.425 151.52 392.692 152.493 392.692 153.56C392.692 155.267 392.212 156.8 391.252 158.16C390.319 159.52 389.039 160.6 387.412 161.4C385.785 162.173 383.945 162.56 381.892 162.56H366.732ZM377.052 145.72H383.452C384.492 145.72 385.359 145.427 386.052 144.84C386.745 144.227 387.092 143.467 387.092 142.56C387.092 141.813 386.839 141.24 386.332 140.84C385.825 140.413 385.132 140.2 384.252 140.2H378.212L377.052 145.72ZM374.652 156.92H382.052C382.799 156.92 383.465 156.773 384.052 156.48C384.639 156.187 385.092 155.787 385.412 155.28C385.759 154.747 385.932 154.16 385.932 153.52C385.932 152.747 385.652 152.133 385.092 151.68C384.559 151.227 383.812 151 382.852 151H375.932L374.652 156.92Z" fill="url(#paint15_linear_445_210)"/>
<path fill-rule="evenodd" clip-rule="evenodd" d="M68.6461 57.3734C68.6461 57.3734 95.051 17.6626 145.471 5.21452C272.09 -26.316 287.82 156.278 169.871 166.154C110.261 171.147 89.061 121.475 43.6362 95.5732C19.5613 81.8443 18.3313 100.441 28.7962 107.051C37.1612 112.334 52.3011 113.465 60.8911 114.315C68.5011 120.569 75.6061 127.199 82.686 133.618C-27.1986 152.395 -22.4686 31.9469 66.7861 68.3055C86.576 76.3657 106.521 90.62 126.986 101.782C158.776 119.123 205.876 115.141 208.506 64.5781C209.556 3.66351 133.726 6.20016 105.751 46.8666C122.256 34.1333 148.731 24.362 168.641 28.6647C210.141 37.6256 201.111 113.44 139.216 90.0696C113.366 80.3083 84.841 60.1602 68.6461 57.3734Z" fill="url(#paint16_linear_445_210)"/>
<path opacity="0.3" fill-rule="evenodd" clip-rule="evenodd" d="M108.501 44.8354C125.086 33.1178 149.801 24.5923 168.641 28.6599C210.14 37.6208 201.111 113.435 139.216 90.0648C134.826 88.4087 130.356 86.4475 125.886 84.3261C205.091 94.605 191.777 9.21438 107.305 45.9415L108.501 44.8354Z" fill="#0EB1DC"/>
<path fill-rule="evenodd" clip-rule="evenodd" d="M249.447 76.8661C248.072 149.053 163.797 118.158 135.877 105.92C166.877 118.033 206.112 110.603 208.507 64.5781C209.042 33.548 189.627 18.9935 166.752 17.5426L166.737 17.5326C166.737 17.5326 174.333 7.8368 196.369 22.9868C236.769 64.5781 240.901 43.6458 249.452 76.8661" fill="url(#paint17_linear_445_210)" fill-opacity="0.7"/>
<path fill-rule="evenodd" clip-rule="evenodd" d="M249.447 76.8661C248.072 149.053 163.797 118.158 135.877 105.92C166.877 118.033 206.112 110.603 208.507 64.5781C209.042 33.548 189.627 18.9935 166.752 17.5426L166.737 17.5326C166.737 17.5326 174.333 7.8368 196.369 22.9868C236.769 64.5781 240.901 43.6458 249.452 76.8661" fill="url(#paint18_linear_445_210)" fill-opacity="0.2"/>
<path fill-rule="evenodd" clip-rule="evenodd" d="M24.4765 102.778C24.4765 102.778 6.97654 95.8033 4.48155 109.297C3.20656 106.966 2.20156 104.569 1.47656 102.157C3.08656 81.3089 22.8415 86.2471 36.0415 91.9908C22.6915 87.2327 20.1615 96.0935 24.4765 102.778Z" fill="url(#paint19_radial_445_210)" fill-opacity="0.7"/>
<path fill-rule="evenodd" clip-rule="evenodd" d="M32.2777 108.872C32.2777 108.872 26.5066 127.2 46.2077 134.624C56.5477 136.14 68.6776 136.009 82.6776 133.618C75.6026 127.204 68.4976 120.569 60.8876 114.315C53.3877 113.57 40.8927 112.619 32.2777 108.872Z" fill="url(#paint20_linear_445_210)" fill-opacity="0.7"/>
<defs>
<linearGradient id="paint0_linear_445_210" x1="291.05" y1="81.8277" x2="514.318" y2="81.8277" gradientUnits="userSpaceOnUse">
<stop stop-color="#BAFB02"/>
<stop offset="1" stop-color="#06AEE5"/>
</linearGradient>
<linearGradient id="paint1_linear_445_210" x1="291.05" y1="81.8277" x2="514.318" y2="81.8277" gradientUnits="userSpaceOnUse">
<stop stop-color="#BAFB02"/>
<stop offset="1" stop-color="#06AEE5"/>
</linearGradient>
<linearGradient id="paint2_linear_445_210" x1="291.05" y1="81.8277" x2="514.318" y2="81.8277" gradientUnits="userSpaceOnUse">
<stop stop-color="#BAFB02"/>
<stop offset="1" stop-color="#06AEE5"/>
</linearGradient>
<linearGradient id="paint3_linear_445_210" x1="291.05" y1="81.8277" x2="514.318" y2="81.8277" gradientUnits="userSpaceOnUse">
<stop stop-color="#BAFB02"/>
<stop offset="1" stop-color="#06AEE5"/>
</linearGradient>
<linearGradient id="paint4_linear_445_210" x1="291.05" y1="81.8277" x2="514.318" y2="81.8277" gradientUnits="userSpaceOnUse">
<stop stop-color="#BAFB02"/>
<stop offset="1" stop-color="#06AEE5"/>
</linearGradient>
<linearGradient id="paint5_linear_445_210" x1="291.05" y1="81.8277" x2="514.318" y2="81.8277" gradientUnits="userSpaceOnUse">
<stop stop-color="#BAFB02"/>
<stop offset="1" stop-color="#06AEE5"/>
</linearGradient>
<linearGradient id="paint6_linear_445_210" x1="291.05" y1="81.8277" x2="514.318" y2="81.8277" gradientUnits="userSpaceOnUse">
<stop stop-color="#BAFB02"/>
<stop offset="1" stop-color="#06AEE5"/>
</linearGradient>
<linearGradient id="paint7_linear_445_210" x1="291.05" y1="81.8277" x2="514.318" y2="81.8277" gradientUnits="userSpaceOnUse">
<stop stop-color="#BAFB02"/>
<stop offset="1" stop-color="#06AEE5"/>
</linearGradient>
<linearGradient id="paint8_linear_445_210" x1="291.05" y1="81.8277" x2="514.318" y2="81.8277" gradientUnits="userSpaceOnUse">
<stop stop-color="#BAFB02"/>
<stop offset="1" stop-color="#06AEE5"/>
</linearGradient>
<linearGradient id="paint9_linear_445_210" x1="291.05" y1="81.8277" x2="514.318" y2="81.8277" gradientUnits="userSpaceOnUse">
<stop stop-color="#BAFB02"/>
<stop offset="1" stop-color="#06AEE5"/>
</linearGradient>
<linearGradient id="paint10_linear_445_210" x1="291.05" y1="81.8277" x2="514.318" y2="81.8277" gradientUnits="userSpaceOnUse">
<stop stop-color="#BAFB02"/>
<stop offset="1" stop-color="#06AEE5"/>
</linearGradient>
<linearGradient id="paint11_linear_445_210" x1="291.05" y1="81.8277" x2="514.318" y2="81.8277" gradientUnits="userSpaceOnUse">
<stop stop-color="#BAFB02"/>
<stop offset="1" stop-color="#06AEE5"/>
</linearGradient>
<linearGradient id="paint12_linear_445_210" x1="291.05" y1="81.8277" x2="514.318" y2="81.8277" gradientUnits="userSpaceOnUse">
<stop stop-color="#BAFB02"/>
<stop offset="1" stop-color="#06AEE5"/>
</linearGradient>
<linearGradient id="paint13_linear_445_210" x1="291.05" y1="81.8277" x2="514.318" y2="81.8277" gradientUnits="userSpaceOnUse">
<stop stop-color="#BAFB02"/>
<stop offset="1" stop-color="#06AEE5"/>
</linearGradient>
<linearGradient id="paint14_linear_445_210" x1="291.05" y1="81.8277" x2="514.318" y2="81.8277" gradientUnits="userSpaceOnUse">
<stop stop-color="#BAFB02"/>
<stop offset="1" stop-color="#06AEE5"/>
</linearGradient>
<linearGradient id="paint15_linear_445_210" x1="291.05" y1="81.8277" x2="514.318" y2="81.8277" gradientUnits="userSpaceOnUse">
<stop stop-color="#BAFB02"/>
<stop offset="1" stop-color="#06AEE5"/>
</linearGradient>
<linearGradient id="paint16_linear_445_210" x1="3.65691" y1="84.3433" x2="229.887" y2="84.3433" gradientUnits="userSpaceOnUse">
<stop stop-color="#BAFB02"/>
<stop offset="1" stop-color="#06AEE5"/>
</linearGradient>
<linearGradient id="paint17_linear_445_210" x1="174.683" y1="16.9322" x2="205.332" y2="124.508" gradientUnits="userSpaceOnUse">
<stop stop-color="#26BCBD"/>
<stop offset="0.602507" stop-color="#0CAAD4"/>
<stop offset="0.974351" stop-color="#0A5E74"/>
</linearGradient>
<linearGradient id="paint18_linear_445_210" x1="262.019" y1="111.591" x2="239.064" y2="94.1456" gradientUnits="userSpaceOnUse">
<stop/>
<stop offset="1" stop-opacity="0"/>
</linearGradient>
<radialGradient id="paint19_radial_445_210" cx="0" cy="0" r="1" gradientUnits="userSpaceOnUse" gradientTransform="translate(17.1751 86.9582) rotate(65.5561) scale(9.81016 1064.57)">
<stop stop-color="#1E2D05"/>
<stop offset="1" stop-color="#B4F90A"/>
</radialGradient>
<linearGradient id="paint20_linear_445_210" x1="69.2019" y1="120.314" x2="59.3996" y2="132.197" gradientUnits="userSpaceOnUse">
<stop stop-color="#1E2D05"/>
<stop offset="0.600318" stop-color="#80BD17"/>
<stop offset="1" stop-color="#A4F21E"/>
</linearGradient>
</defs>
</svg>
