<svg width="782" height="92" viewBox="0 0 782 92" fill="none" xmlns="http://www.w3.org/2000/svg">
<g filter="url(#filter0_f_1225_2740)">
<path d="M43.2594 81C38.6234 81 34.3414 80.2244 30.4136 78.6731C26.4858 77.1219 23.0731 74.9566 20.1756 72.1773C17.278 69.3333 15.0244 66.0046 13.4146 62.1911C11.8049 58.3777 11 54.241 11 49.7812C11 44.5457 11.998 39.6011 13.9941 34.9474C16.0546 30.229 18.8878 26.0923 22.4936 22.5374C26.0995 18.9178 30.2205 16.1062 34.8565 14.1025C39.557 12.0342 44.5151 11 49.7307 11C55.6545 11 61.0955 12.2927 66.0536 14.8781C71.0116 17.4635 74.8428 20.9538 77.5472 25.349L64.7979 36.0138C63.1238 32.9114 60.838 30.5198 57.9404 28.8393C55.1072 27.1588 51.9199 26.3186 48.3785 26.3186C45.5453 26.3186 42.8731 26.9003 40.3619 28.0637C37.9151 29.2271 35.7258 30.843 33.7941 32.9114C31.9268 34.915 30.4458 37.2742 29.3512 39.9889C28.3209 42.7036 27.8058 45.6122 27.8058 48.7147C27.8058 52.0111 28.5141 54.952 29.9307 57.5374C31.4117 60.1228 33.44 62.1588 36.0156 63.6454C38.5912 65.132 41.5531 65.8753 44.9014 65.8753C47.4126 65.8753 49.7629 65.4229 51.9521 64.518C54.1414 63.5485 56.0409 62.2558 57.6506 60.6399C59.2604 58.9594 60.4516 57.0203 61.2243 54.8227H43.1629L46.2536 40.4737H81.4106L80.0584 47.8421C78.8994 54.3056 76.5491 60.0582 73.0077 65.0997C69.4662 70.0766 65.1199 73.9871 59.9687 76.831C54.8819 79.6103 49.3121 81 43.2594 81Z" fill="black"/>
<path d="M81.9199 79.6427L96.3111 11.7756H127.798C132.048 11.7756 135.75 12.6159 138.905 14.2964C142.125 15.9769 144.636 18.3038 146.439 21.277C148.242 24.1856 149.143 27.5789 149.143 31.4571C149.143 34.8827 148.403 38.1145 146.922 41.1524C145.505 44.1256 143.509 46.711 140.933 48.9086C138.358 51.0415 135.364 52.6251 131.951 53.6593L142.189 79.6427H124.997L116.304 54.9197H103.362L98.1462 79.6427H81.9199ZM106.259 41.3463H123.162C124.965 41.3463 126.574 40.9908 127.991 40.2798C129.408 39.5042 130.502 38.5023 131.275 37.2742C132.112 35.9815 132.531 34.5596 132.531 33.0083C132.531 30.8753 131.822 29.1948 130.406 27.9668C129.053 26.674 127.218 26.0277 124.9 26.0277H109.543L106.259 41.3463Z" fill="black"/>
<path d="M147.473 79.6427L161.865 11.7756H214.117L211.026 26.2216H175L172.392 38.4377H196.152L193.255 52.3989H169.495L166.79 65.1967H203.203L200.112 79.6427H147.473Z" fill="black"/>
<path d="M209.914 79.6427L224.305 11.7756H276.558L273.467 26.2216H237.441L234.833 38.4377H258.593L255.696 52.3989H231.936L229.231 65.1967H265.644L262.553 79.6427H209.914Z" fill="black"/>
<path d="M272.355 79.6427L286.746 11.7756H302.103L323.545 52.5928L332.141 11.7756H347.498L333.107 79.6427H318.716L296.694 37.2742L287.712 79.6427H272.355Z" fill="black"/>
<path d="M362.998 79.6427L377.389 11.7756H429.642L426.551 26.2216H390.525L387.917 38.4377H411.677L408.779 52.3989H385.019L382.315 65.1967H418.728L415.637 79.6427H362.998Z" fill="black"/>
<path d="M425.439 79.6427L439.83 11.7756H455.187L476.629 52.5928L485.225 11.7756H500.582L486.191 79.6427H471.8L449.778 37.2742L440.796 79.6427H425.439Z" fill="black"/>
<path d="M497.217 79.6427L511.608 11.7756H563.861L560.77 26.2216H524.744L522.136 38.4377H545.896L542.999 52.3989H519.239L516.534 65.1967H552.947L549.856 79.6427H497.217Z" fill="black"/>
<path d="M559.658 79.6427L574.049 11.7756H605.536C609.786 11.7756 613.488 12.6159 616.643 14.2964C619.863 15.9769 622.374 18.3038 624.177 21.277C625.98 24.1856 626.881 27.5789 626.881 31.4571C626.881 34.8827 626.141 38.1145 624.66 41.1524C623.243 44.1256 621.247 46.711 618.672 48.9086C616.096 51.0415 613.102 52.6251 609.689 53.6593L619.927 79.6427H602.735L594.042 54.9197H581.1L575.884 79.6427H559.658ZM583.998 41.3463H600.9C602.703 41.3463 604.313 40.9908 605.729 40.2798C607.146 39.5042 608.24 38.5023 609.013 37.2742C609.85 35.9815 610.269 34.5596 610.269 33.0083C610.269 30.8753 609.56 29.1948 608.144 27.9668C606.792 26.674 604.957 26.0277 602.639 26.0277H587.281L583.998 41.3463Z" fill="black"/>
<path d="M661.914 81C657.278 81 652.996 80.2244 649.068 78.6731C645.14 77.1219 641.728 74.9566 638.83 72.1773C635.932 69.3333 633.679 66.0046 632.069 62.1911C630.459 58.3777 629.654 54.241 629.654 49.7812C629.654 44.5457 630.652 39.6011 632.649 34.9474C634.709 30.229 637.542 26.0923 641.148 22.5374C644.754 18.9178 648.875 16.1062 653.511 14.1025C658.211 12.0342 663.169 11 668.385 11C674.309 11 679.75 12.2927 684.708 14.8781C689.666 17.4635 693.497 20.9538 696.202 25.349L683.452 36.0138C681.778 32.9114 679.492 30.5198 676.595 28.8393C673.762 27.1588 670.574 26.3186 667.033 26.3186C664.2 26.3186 661.528 26.9003 659.016 28.0637C656.57 29.2271 654.38 30.843 652.449 32.9114C650.581 34.915 649.1 37.2742 648.006 39.9889C646.975 42.7036 646.46 45.6122 646.46 48.7147C646.46 52.0111 647.169 54.952 648.585 57.5374C650.066 60.1228 652.094 62.1588 654.67 63.6454C657.246 65.132 660.208 65.8753 663.556 65.8753C666.067 65.8753 668.417 65.4229 670.607 64.518C672.796 63.5485 674.695 62.2558 676.305 60.6399C677.915 58.9594 679.106 57.0203 679.879 54.8227H661.817L664.908 40.4737H700.065L698.713 47.8421C697.554 54.3056 695.204 60.0582 691.662 65.0997C688.121 70.0766 683.774 73.9871 678.623 76.831C673.536 79.6103 667.967 81 661.914 81Z" fill="black"/>
<path d="M712.856 79.6427L718.168 54.241L699.817 11.7756H717.106L728.792 39.6011L751.876 11.7756H771L734.491 54.4349L729.179 79.6427H712.856Z" fill="black"/>
</g>
<mask id="path-2-outside-1_1225_2740" maskUnits="userSpaceOnUse" x="7.51196" y="8.03198" width="762" height="76" fill="black">
<rect fill="white" x="7.51196" y="8.03198" width="762" height="76"/>
<path d="M42.576 80.344C37.968 80.344 33.712 79.576 29.808 78.04C25.904 76.504 22.512 74.36 19.632 71.608C16.752 68.792 14.512 65.496 12.912 61.72C11.312 57.944 10.512 53.848 10.512 49.432C10.512 44.248 11.504 39.352 13.488 34.744C15.536 30.072 18.352 25.976 21.936 22.456C25.52 18.872 29.616 16.088 34.224 14.104C38.896 12.056 43.824 11.032 49.008 11.032C54.896 11.032 60.304 12.312 65.232 14.872C70.16 17.432 73.968 20.888 76.656 25.24L63.984 35.8C62.32 32.728 60.048 30.36 57.168 28.696C54.352 27.032 51.184 26.2 47.664 26.2C44.848 26.2 42.192 26.776 39.696 27.928C37.264 29.08 35.088 30.68 33.168 32.728C31.312 34.712 29.84 37.048 28.752 39.736C27.728 42.424 27.216 45.304 27.216 48.376C27.216 51.64 27.92 54.552 29.328 57.112C30.8 59.672 32.816 61.688 35.376 63.16C37.936 64.632 40.88 65.368 44.208 65.368C46.704 65.368 49.04 64.92 51.216 64.024C53.392 63.064 55.28 61.784 56.88 60.184C58.48 58.52 59.664 56.6 60.432 54.424H42.48L45.552 40.216H80.496L79.152 47.512C78 53.912 75.664 59.608 72.144 64.6C68.624 69.528 64.304 73.4 59.184 76.216C54.128 78.968 48.592 80.344 42.576 80.344Z"/>
<path d="M81.0022 79L95.3062 11.8H126.602C130.826 11.8 134.506 12.632 137.642 14.296C140.842 15.96 143.338 18.264 145.13 21.208C146.922 24.088 147.818 27.448 147.818 31.288C147.818 34.68 147.082 37.88 145.61 40.888C144.202 43.832 142.218 46.392 139.658 48.568C137.098 50.68 134.122 52.248 130.73 53.272L140.906 79H123.818L115.178 54.52H102.314L97.1302 79H81.0022ZM105.194 41.08H121.994C123.786 41.08 125.386 40.728 126.794 40.024C128.202 39.256 129.29 38.264 130.058 37.048C130.89 35.768 131.306 34.36 131.306 32.824C131.306 30.712 130.602 29.048 129.194 27.832C127.85 26.552 126.026 25.912 123.722 25.912H108.458L105.194 41.08Z"/>
<path d="M146.158 79L160.462 11.8H212.398L209.326 26.104H173.518L170.926 38.2H194.542L191.662 52.024H168.046L165.358 64.696H201.55L198.478 79H146.158Z"/>
<path d="M208.221 79L222.525 11.8H274.461L271.389 26.104H235.581L232.989 38.2H256.605L253.725 52.024H230.109L227.421 64.696H263.613L260.541 79H208.221Z"/>
<path d="M270.283 79L284.587 11.8H299.851L321.163 52.216L329.707 11.8H344.971L330.667 79H316.363L294.475 37.048L285.547 79H270.283Z"/>
<path d="M360.377 79L374.681 11.8H426.617L423.545 26.104H387.737L385.145 38.2H408.761L405.881 52.024H382.265L379.577 64.696H415.769L412.697 79H360.377Z"/>
<path d="M422.44 79L436.744 11.8H452.008L473.32 52.216L481.864 11.8H497.128L482.824 79H468.52L446.632 37.048L437.704 79H422.44Z"/>
<path d="M493.783 79L508.087 11.8H560.023L556.951 26.104H521.143L518.551 38.2H542.167L539.287 52.024H515.671L512.983 64.696H549.175L546.103 79H493.783Z"/>
<path d="M555.846 79L570.15 11.8H601.446C605.67 11.8 609.35 12.632 612.486 14.296C615.686 15.96 618.182 18.264 619.974 21.208C621.766 24.088 622.662 27.448 622.662 31.288C622.662 34.68 621.926 37.88 620.454 40.888C619.046 43.832 617.062 46.392 614.502 48.568C611.942 50.68 608.966 52.248 605.574 53.272L615.75 79H598.662L590.022 54.52H577.158L571.974 79H555.846ZM580.038 41.08H596.838C598.63 41.08 600.23 40.728 601.638 40.024C603.046 39.256 604.134 38.264 604.902 37.048C605.734 35.768 606.15 34.36 606.15 32.824C606.15 30.712 605.446 29.048 604.038 27.832C602.694 26.552 600.87 25.912 598.566 25.912H583.302L580.038 41.08Z"/>
<path d="M657.482 80.344C652.874 80.344 648.618 79.576 644.714 78.04C640.81 76.504 637.418 74.36 634.538 71.608C631.658 68.792 629.418 65.496 627.818 61.72C626.218 57.944 625.418 53.848 625.418 49.432C625.418 44.248 626.41 39.352 628.394 34.744C630.442 30.072 633.258 25.976 636.842 22.456C640.426 18.872 644.522 16.088 649.13 14.104C653.802 12.056 658.73 11.032 663.914 11.032C669.802 11.032 675.21 12.312 680.138 14.872C685.066 17.432 688.874 20.888 691.562 25.24L678.89 35.8C677.226 32.728 674.954 30.36 672.074 28.696C669.258 27.032 666.09 26.2 662.57 26.2C659.754 26.2 657.098 26.776 654.602 27.928C652.17 29.08 649.994 30.68 648.074 32.728C646.218 34.712 644.746 37.048 643.658 39.736C642.634 42.424 642.122 45.304 642.122 48.376C642.122 51.64 642.826 54.552 644.234 57.112C645.706 59.672 647.722 61.688 650.282 63.16C652.842 64.632 655.786 65.368 659.114 65.368C661.61 65.368 663.946 64.92 666.122 64.024C668.298 63.064 670.186 61.784 671.786 60.184C673.386 58.52 674.57 56.6 675.338 54.424H657.386L660.458 40.216H695.402L694.058 47.512C692.906 53.912 690.57 59.608 687.05 64.6C683.53 69.528 679.21 73.4 674.09 76.216C669.034 78.968 663.498 80.344 657.482 80.344Z"/>
<path d="M708.115 79L713.395 53.848L695.155 11.8H712.339L723.955 39.352L746.899 11.8H765.907L729.619 54.04L724.339 79H708.115Z"/>
</mask>
<path d="M42.576 80.344C37.968 80.344 33.712 79.576 29.808 78.04C25.904 76.504 22.512 74.36 19.632 71.608C16.752 68.792 14.512 65.496 12.912 61.72C11.312 57.944 10.512 53.848 10.512 49.432C10.512 44.248 11.504 39.352 13.488 34.744C15.536 30.072 18.352 25.976 21.936 22.456C25.52 18.872 29.616 16.088 34.224 14.104C38.896 12.056 43.824 11.032 49.008 11.032C54.896 11.032 60.304 12.312 65.232 14.872C70.16 17.432 73.968 20.888 76.656 25.24L63.984 35.8C62.32 32.728 60.048 30.36 57.168 28.696C54.352 27.032 51.184 26.2 47.664 26.2C44.848 26.2 42.192 26.776 39.696 27.928C37.264 29.08 35.088 30.68 33.168 32.728C31.312 34.712 29.84 37.048 28.752 39.736C27.728 42.424 27.216 45.304 27.216 48.376C27.216 51.64 27.92 54.552 29.328 57.112C30.8 59.672 32.816 61.688 35.376 63.16C37.936 64.632 40.88 65.368 44.208 65.368C46.704 65.368 49.04 64.92 51.216 64.024C53.392 63.064 55.28 61.784 56.88 60.184C58.48 58.52 59.664 56.6 60.432 54.424H42.48L45.552 40.216H80.496L79.152 47.512C78 53.912 75.664 59.608 72.144 64.6C68.624 69.528 64.304 73.4 59.184 76.216C54.128 78.968 48.592 80.344 42.576 80.344Z" fill="url(#paint0_linear_1225_2740)"/>
<path d="M81.0022 79L95.3062 11.8H126.602C130.826 11.8 134.506 12.632 137.642 14.296C140.842 15.96 143.338 18.264 145.13 21.208C146.922 24.088 147.818 27.448 147.818 31.288C147.818 34.68 147.082 37.88 145.61 40.888C144.202 43.832 142.218 46.392 139.658 48.568C137.098 50.68 134.122 52.248 130.73 53.272L140.906 79H123.818L115.178 54.52H102.314L97.1302 79H81.0022ZM105.194 41.08H121.994C123.786 41.08 125.386 40.728 126.794 40.024C128.202 39.256 129.29 38.264 130.058 37.048C130.89 35.768 131.306 34.36 131.306 32.824C131.306 30.712 130.602 29.048 129.194 27.832C127.85 26.552 126.026 25.912 123.722 25.912H108.458L105.194 41.08Z" fill="url(#paint1_linear_1225_2740)"/>
<path d="M146.158 79L160.462 11.8H212.398L209.326 26.104H173.518L170.926 38.2H194.542L191.662 52.024H168.046L165.358 64.696H201.55L198.478 79H146.158Z" fill="url(#paint2_linear_1225_2740)"/>
<path d="M208.221 79L222.525 11.8H274.461L271.389 26.104H235.581L232.989 38.2H256.605L253.725 52.024H230.109L227.421 64.696H263.613L260.541 79H208.221Z" fill="url(#paint3_linear_1225_2740)"/>
<path d="M270.283 79L284.587 11.8H299.851L321.163 52.216L329.707 11.8H344.971L330.667 79H316.363L294.475 37.048L285.547 79H270.283Z" fill="url(#paint4_linear_1225_2740)"/>
<path d="M360.377 79L374.681 11.8H426.617L423.545 26.104H387.737L385.145 38.2H408.761L405.881 52.024H382.265L379.577 64.696H415.769L412.697 79H360.377Z" fill="url(#paint5_linear_1225_2740)"/>
<path d="M422.44 79L436.744 11.8H452.008L473.32 52.216L481.864 11.8H497.128L482.824 79H468.52L446.632 37.048L437.704 79H422.44Z" fill="url(#paint6_linear_1225_2740)"/>
<path d="M493.783 79L508.087 11.8H560.023L556.951 26.104H521.143L518.551 38.2H542.167L539.287 52.024H515.671L512.983 64.696H549.175L546.103 79H493.783Z" fill="url(#paint7_linear_1225_2740)"/>
<path d="M555.846 79L570.15 11.8H601.446C605.67 11.8 609.35 12.632 612.486 14.296C615.686 15.96 618.182 18.264 619.974 21.208C621.766 24.088 622.662 27.448 622.662 31.288C622.662 34.68 621.926 37.88 620.454 40.888C619.046 43.832 617.062 46.392 614.502 48.568C611.942 50.68 608.966 52.248 605.574 53.272L615.75 79H598.662L590.022 54.52H577.158L571.974 79H555.846ZM580.038 41.08H596.838C598.63 41.08 600.23 40.728 601.638 40.024C603.046 39.256 604.134 38.264 604.902 37.048C605.734 35.768 606.15 34.36 606.15 32.824C606.15 30.712 605.446 29.048 604.038 27.832C602.694 26.552 600.87 25.912 598.566 25.912H583.302L580.038 41.08Z" fill="url(#paint8_linear_1225_2740)"/>
<path d="M657.482 80.344C652.874 80.344 648.618 79.576 644.714 78.04C640.81 76.504 637.418 74.36 634.538 71.608C631.658 68.792 629.418 65.496 627.818 61.72C626.218 57.944 625.418 53.848 625.418 49.432C625.418 44.248 626.41 39.352 628.394 34.744C630.442 30.072 633.258 25.976 636.842 22.456C640.426 18.872 644.522 16.088 649.13 14.104C653.802 12.056 658.73 11.032 663.914 11.032C669.802 11.032 675.21 12.312 680.138 14.872C685.066 17.432 688.874 20.888 691.562 25.24L678.89 35.8C677.226 32.728 674.954 30.36 672.074 28.696C669.258 27.032 666.09 26.2 662.57 26.2C659.754 26.2 657.098 26.776 654.602 27.928C652.17 29.08 649.994 30.68 648.074 32.728C646.218 34.712 644.746 37.048 643.658 39.736C642.634 42.424 642.122 45.304 642.122 48.376C642.122 51.64 642.826 54.552 644.234 57.112C645.706 59.672 647.722 61.688 650.282 63.16C652.842 64.632 655.786 65.368 659.114 65.368C661.61 65.368 663.946 64.92 666.122 64.024C668.298 63.064 670.186 61.784 671.786 60.184C673.386 58.52 674.57 56.6 675.338 54.424H657.386L660.458 40.216H695.402L694.058 47.512C692.906 53.912 690.57 59.608 687.05 64.6C683.53 69.528 679.21 73.4 674.09 76.216C669.034 78.968 663.498 80.344 657.482 80.344Z" fill="url(#paint9_linear_1225_2740)"/>
<path d="M708.115 79L713.395 53.848L695.155 11.8H712.339L723.955 39.352L746.899 11.8H765.907L729.619 54.04L724.339 79H708.115Z" fill="url(#paint10_linear_1225_2740)"/>
<path d="M42.576 80.344C37.968 80.344 33.712 79.576 29.808 78.04C25.904 76.504 22.512 74.36 19.632 71.608C16.752 68.792 14.512 65.496 12.912 61.72C11.312 57.944 10.512 53.848 10.512 49.432C10.512 44.248 11.504 39.352 13.488 34.744C15.536 30.072 18.352 25.976 21.936 22.456C25.52 18.872 29.616 16.088 34.224 14.104C38.896 12.056 43.824 11.032 49.008 11.032C54.896 11.032 60.304 12.312 65.232 14.872C70.16 17.432 73.968 20.888 76.656 25.24L63.984 35.8C62.32 32.728 60.048 30.36 57.168 28.696C54.352 27.032 51.184 26.2 47.664 26.2C44.848 26.2 42.192 26.776 39.696 27.928C37.264 29.08 35.088 30.68 33.168 32.728C31.312 34.712 29.84 37.048 28.752 39.736C27.728 42.424 27.216 45.304 27.216 48.376C27.216 51.64 27.92 54.552 29.328 57.112C30.8 59.672 32.816 61.688 35.376 63.16C37.936 64.632 40.88 65.368 44.208 65.368C46.704 65.368 49.04 64.92 51.216 64.024C53.392 63.064 55.28 61.784 56.88 60.184C58.48 58.52 59.664 56.6 60.432 54.424H42.48L45.552 40.216H80.496L79.152 47.512C78 53.912 75.664 59.608 72.144 64.6C68.624 69.528 64.304 73.4 59.184 76.216C54.128 78.968 48.592 80.344 42.576 80.344Z" stroke="black" stroke-width="6" stroke-linejoin="round" mask="url(#path-2-outside-1_1225_2740)"/>
<path d="M81.0022 79L95.3062 11.8H126.602C130.826 11.8 134.506 12.632 137.642 14.296C140.842 15.96 143.338 18.264 145.13 21.208C146.922 24.088 147.818 27.448 147.818 31.288C147.818 34.68 147.082 37.88 145.61 40.888C144.202 43.832 142.218 46.392 139.658 48.568C137.098 50.68 134.122 52.248 130.73 53.272L140.906 79H123.818L115.178 54.52H102.314L97.1302 79H81.0022ZM105.194 41.08H121.994C123.786 41.08 125.386 40.728 126.794 40.024C128.202 39.256 129.29 38.264 130.058 37.048C130.89 35.768 131.306 34.36 131.306 32.824C131.306 30.712 130.602 29.048 129.194 27.832C127.85 26.552 126.026 25.912 123.722 25.912H108.458L105.194 41.08Z" stroke="black" stroke-width="6" stroke-linejoin="round" mask="url(#path-2-outside-1_1225_2740)"/>
<path d="M146.158 79L160.462 11.8H212.398L209.326 26.104H173.518L170.926 38.2H194.542L191.662 52.024H168.046L165.358 64.696H201.55L198.478 79H146.158Z" stroke="black" stroke-width="6" stroke-linejoin="round" mask="url(#path-2-outside-1_1225_2740)"/>
<path d="M208.221 79L222.525 11.8H274.461L271.389 26.104H235.581L232.989 38.2H256.605L253.725 52.024H230.109L227.421 64.696H263.613L260.541 79H208.221Z" stroke="black" stroke-width="6" stroke-linejoin="round" mask="url(#path-2-outside-1_1225_2740)"/>
<path d="M270.283 79L284.587 11.8H299.851L321.163 52.216L329.707 11.8H344.971L330.667 79H316.363L294.475 37.048L285.547 79H270.283Z" stroke="black" stroke-width="6" stroke-linejoin="round" mask="url(#path-2-outside-1_1225_2740)"/>
<path d="M360.377 79L374.681 11.8H426.617L423.545 26.104H387.737L385.145 38.2H408.761L405.881 52.024H382.265L379.577 64.696H415.769L412.697 79H360.377Z" stroke="black" stroke-width="6" stroke-linejoin="round" mask="url(#path-2-outside-1_1225_2740)"/>
<path d="M422.44 79L436.744 11.8H452.008L473.32 52.216L481.864 11.8H497.128L482.824 79H468.52L446.632 37.048L437.704 79H422.44Z" stroke="black" stroke-width="6" stroke-linejoin="round" mask="url(#path-2-outside-1_1225_2740)"/>
<path d="M493.783 79L508.087 11.8H560.023L556.951 26.104H521.143L518.551 38.2H542.167L539.287 52.024H515.671L512.983 64.696H549.175L546.103 79H493.783Z" stroke="black" stroke-width="6" stroke-linejoin="round" mask="url(#path-2-outside-1_1225_2740)"/>
<path d="M555.846 79L570.15 11.8H601.446C605.67 11.8 609.35 12.632 612.486 14.296C615.686 15.96 618.182 18.264 619.974 21.208C621.766 24.088 622.662 27.448 622.662 31.288C622.662 34.68 621.926 37.88 620.454 40.888C619.046 43.832 617.062 46.392 614.502 48.568C611.942 50.68 608.966 52.248 605.574 53.272L615.75 79H598.662L590.022 54.52H577.158L571.974 79H555.846ZM580.038 41.08H596.838C598.63 41.08 600.23 40.728 601.638 40.024C603.046 39.256 604.134 38.264 604.902 37.048C605.734 35.768 606.15 34.36 606.15 32.824C606.15 30.712 605.446 29.048 604.038 27.832C602.694 26.552 600.87 25.912 598.566 25.912H583.302L580.038 41.08Z" stroke="black" stroke-width="6" stroke-linejoin="round" mask="url(#path-2-outside-1_1225_2740)"/>
<path d="M657.482 80.344C652.874 80.344 648.618 79.576 644.714 78.04C640.81 76.504 637.418 74.36 634.538 71.608C631.658 68.792 629.418 65.496 627.818 61.72C626.218 57.944 625.418 53.848 625.418 49.432C625.418 44.248 626.41 39.352 628.394 34.744C630.442 30.072 633.258 25.976 636.842 22.456C640.426 18.872 644.522 16.088 649.13 14.104C653.802 12.056 658.73 11.032 663.914 11.032C669.802 11.032 675.21 12.312 680.138 14.872C685.066 17.432 688.874 20.888 691.562 25.24L678.89 35.8C677.226 32.728 674.954 30.36 672.074 28.696C669.258 27.032 666.09 26.2 662.57 26.2C659.754 26.2 657.098 26.776 654.602 27.928C652.17 29.08 649.994 30.68 648.074 32.728C646.218 34.712 644.746 37.048 643.658 39.736C642.634 42.424 642.122 45.304 642.122 48.376C642.122 51.64 642.826 54.552 644.234 57.112C645.706 59.672 647.722 61.688 650.282 63.16C652.842 64.632 655.786 65.368 659.114 65.368C661.61 65.368 663.946 64.92 666.122 64.024C668.298 63.064 670.186 61.784 671.786 60.184C673.386 58.52 674.57 56.6 675.338 54.424H657.386L660.458 40.216H695.402L694.058 47.512C692.906 53.912 690.57 59.608 687.05 64.6C683.53 69.528 679.21 73.4 674.09 76.216C669.034 78.968 663.498 80.344 657.482 80.344Z" stroke="black" stroke-width="6" stroke-linejoin="round" mask="url(#path-2-outside-1_1225_2740)"/>
<path d="M708.115 79L713.395 53.848L695.155 11.8H712.339L723.955 39.352L746.899 11.8H765.907L729.619 54.04L724.339 79H708.115Z" stroke="black" stroke-width="6" stroke-linejoin="round" mask="url(#path-2-outside-1_1225_2740)"/>
<defs>
<filter id="filter0_f_1225_2740" x="0" y="0" width="782" height="92" filterUnits="userSpaceOnUse" color-interpolation-filters="sRGB">
<feFlood flood-opacity="0" result="BackgroundImageFix"/>
<feBlend mode="normal" in="SourceGraphic" in2="BackgroundImageFix" result="shape"/>
<feGaussianBlur stdDeviation="5.5" result="effect1_foregroundBlur_1225_2740"/>
</filter>
<linearGradient id="paint0_linear_1225_2740" x1="21.5616" y1="45.8188" x2="705.134" y2="45.8187" gradientUnits="userSpaceOnUse">
<stop stop-color="#BAFB02"/>
<stop offset="1" stop-color="#06AEE5"/>
</linearGradient>
<linearGradient id="paint1_linear_1225_2740" x1="21.5616" y1="45.8188" x2="705.134" y2="45.8187" gradientUnits="userSpaceOnUse">
<stop stop-color="#BAFB02"/>
<stop offset="1" stop-color="#06AEE5"/>
</linearGradient>
<linearGradient id="paint2_linear_1225_2740" x1="21.5616" y1="45.8188" x2="705.134" y2="45.8187" gradientUnits="userSpaceOnUse">
<stop stop-color="#BAFB02"/>
<stop offset="1" stop-color="#06AEE5"/>
</linearGradient>
<linearGradient id="paint3_linear_1225_2740" x1="21.5616" y1="45.8188" x2="705.134" y2="45.8187" gradientUnits="userSpaceOnUse">
<stop stop-color="#BAFB02"/>
<stop offset="1" stop-color="#06AEE5"/>
</linearGradient>
<linearGradient id="paint4_linear_1225_2740" x1="21.5616" y1="45.8188" x2="705.134" y2="45.8187" gradientUnits="userSpaceOnUse">
<stop stop-color="#BAFB02"/>
<stop offset="1" stop-color="#06AEE5"/>
</linearGradient>
<linearGradient id="paint5_linear_1225_2740" x1="21.5616" y1="45.8188" x2="705.134" y2="45.8187" gradientUnits="userSpaceOnUse">
<stop stop-color="#BAFB02"/>
<stop offset="1" stop-color="#06AEE5"/>
</linearGradient>
<linearGradient id="paint6_linear_1225_2740" x1="21.5616" y1="45.8188" x2="705.134" y2="45.8187" gradientUnits="userSpaceOnUse">
<stop stop-color="#BAFB02"/>
<stop offset="1" stop-color="#06AEE5"/>
</linearGradient>
<linearGradient id="paint7_linear_1225_2740" x1="21.5616" y1="45.8188" x2="705.134" y2="45.8187" gradientUnits="userSpaceOnUse">
<stop stop-color="#BAFB02"/>
<stop offset="1" stop-color="#06AEE5"/>
</linearGradient>
<linearGradient id="paint8_linear_1225_2740" x1="21.5616" y1="45.8188" x2="705.134" y2="45.8187" gradientUnits="userSpaceOnUse">
<stop stop-color="#BAFB02"/>
<stop offset="1" stop-color="#06AEE5"/>
</linearGradient>
<linearGradient id="paint9_linear_1225_2740" x1="21.5616" y1="45.8188" x2="705.134" y2="45.8187" gradientUnits="userSpaceOnUse">
<stop stop-color="#BAFB02"/>
<stop offset="1" stop-color="#06AEE5"/>
</linearGradient>
<linearGradient id="paint10_linear_1225_2740" x1="21.5616" y1="45.8188" x2="705.134" y2="45.8187" gradientUnits="userSpaceOnUse">
<stop stop-color="#BAFB02"/>
<stop offset="1" stop-color="#06AEE5"/>
</linearGradient>
</defs>
</svg>
