<svg width="579" height="91" viewBox="0 0 579 91" fill="none" xmlns="http://www.w3.org/2000/svg">
<g filter="url(#filter0_f_1225_8919)">
<path d="M11.7775 80L26.2735 11.456H45.1855L48.2575 62.72H48.6415L74.3695 11.456H94.2415L79.7455 80H66.5935L73.4095 47.552C73.8575 45.376 74.3695 43.072 74.9455 40.64C75.5855 38.144 76.1935 35.712 76.7695 33.344C77.4095 30.912 77.9855 28.768 78.4975 26.912H78.1135L51.4255 80H38.2735L35.3935 26.912H35.0095C34.8815 28.256 34.6255 30.112 34.2415 32.48C33.8575 34.784 33.4095 37.312 32.8975 40.064C32.4495 42.816 31.9375 45.504 31.3615 48.128L24.6415 80H11.7775Z" fill="black"/>
<path d="M87.9902 80L123.894 11.456H141.366L148.278 80H134.358L133.206 63.68H111.03L102.966 80H87.9902ZM116.886 51.488H132.534L131.286 33.824C131.158 31.968 131.03 30.08 130.902 28.16C130.774 26.24 130.742 24.288 130.806 22.304H130.614C129.974 24.032 129.27 25.76 128.502 27.488C127.734 29.152 126.87 30.976 125.91 32.96L116.886 51.488Z" fill="black"/>
<path d="M156.527 80L171.023 11.456H190.127C195.695 11.456 200.143 12.288 203.471 13.952C206.863 15.616 209.295 17.952 210.767 20.96C212.303 23.968 213.071 27.456 213.071 31.424C213.071 35.52 212.303 39.072 210.767 42.08C209.295 45.088 207.215 47.616 204.527 49.664C201.839 51.648 198.671 53.152 195.023 54.176C191.375 55.136 187.439 55.616 183.215 55.616H175.919L170.831 80H156.527ZM184.367 43.712C187.247 43.712 189.743 43.264 191.855 42.368C194.031 41.408 195.695 40.032 196.847 38.24C198.063 36.448 198.671 34.304 198.671 31.808C198.671 28.928 197.903 26.816 196.367 25.472C194.831 24.064 192.559 23.36 189.551 23.36H182.831L178.511 43.712H184.367Z" fill="black"/>
<path d="M215.121 80L229.617 11.456H243.921L237.105 43.52L262.449 11.456H278.577L251.313 45.344L265.137 80H249.297L236.529 46.304L229.425 80H215.121Z" fill="black"/>
<path d="M272.215 80L286.711 11.456H325.015L322.519 23.36H298.519L295.351 38.432H317.719L315.127 50.336H292.759L289.015 68H313.015L310.519 80H272.215Z" fill="black"/>
<path d="M334.23 80L346.134 23.552H329.622L332.214 11.456H379.542L376.95 23.552H360.438L348.534 80H334.23Z" fill="black"/>
<path d="M375.246 80L389.742 11.456H402.894L395.982 43.904C395.662 45.504 395.246 47.296 394.734 49.28C394.286 51.264 393.838 53.216 393.39 55.136C392.942 57.056 392.494 58.816 392.046 60.416H392.526L428.334 11.456H445.71L431.214 80H418.254L425.07 47.744C425.454 45.888 425.838 44.032 426.222 42.176C426.67 40.32 427.118 38.4 427.566 36.416C428.014 34.432 428.494 32.384 429.006 30.272L428.622 30.176L392.814 80H375.246Z" fill="black"/>
<path d="M447.715 80L462.211 11.456H476.515L470.851 38.336H492.931L498.595 11.456H512.899L498.403 80H484.099L490.339 50.432H468.259L462.019 80H447.715Z" fill="black"/>
<path d="M514.934 80L529.43 11.456H567.542L565.046 23.36H541.046L529.046 80H514.934Z" fill="black"/>
</g>
<mask id="path-2-outside-1_1225_8919" maskUnits="userSpaceOnUse" x="8.77734" y="8.45599" width="562" height="75" fill="black">
<rect fill="white" x="8.77734" y="8.45599" width="562" height="75"/>
<path d="M11.7773 80L26.2733 11.456H45.1853L48.2573 62.72H48.6413L74.3693 11.456H94.2413L79.7453 80H66.5933L73.4093 47.552C73.8573 45.376 74.3693 43.072 74.9453 40.64C75.5853 38.144 76.1933 35.712 76.7693 33.344C77.4094 30.912 77.9853 28.768 78.4973 26.912H78.1133L51.4253 80H38.2733L35.3933 26.912H35.0093C34.8813 28.256 34.6253 30.112 34.2413 32.48C33.8573 34.784 33.4093 37.312 32.8973 40.064C32.4493 42.816 31.9373 45.504 31.3613 48.128L24.6413 80H11.7773Z"/>
<path d="M87.9901 80L123.894 11.456H141.366L148.278 80H134.358L133.206 63.68H111.03L102.966 80H87.9901ZM116.886 51.488H132.534L131.286 33.824C131.158 31.968 131.03 30.08 130.902 28.16C130.774 26.24 130.742 24.288 130.806 22.304H130.614C129.974 24.032 129.27 25.76 128.502 27.488C127.734 29.152 126.87 30.976 125.91 32.96L116.886 51.488Z"/>
<path d="M156.527 80L171.023 11.456H190.127C195.695 11.456 200.143 12.288 203.471 13.952C206.863 15.616 209.295 17.952 210.767 20.96C212.303 23.968 213.071 27.456 213.071 31.424C213.071 35.52 212.303 39.072 210.767 42.08C209.295 45.088 207.215 47.616 204.527 49.664C201.839 51.648 198.671 53.152 195.023 54.176C191.375 55.136 187.439 55.616 183.215 55.616H175.919L170.831 80H156.527ZM184.367 43.712C187.247 43.712 189.743 43.264 191.855 42.368C194.031 41.408 195.695 40.032 196.847 38.24C198.063 36.448 198.671 34.304 198.671 31.808C198.671 28.928 197.903 26.816 196.367 25.472C194.831 24.064 192.559 23.36 189.551 23.36H182.831L178.511 43.712H184.367Z"/>
<path d="M215.121 80L229.617 11.456H243.921L237.105 43.52L262.449 11.456H278.577L251.313 45.344L265.137 80H249.297L236.529 46.304L229.425 80H215.121Z"/>
<path d="M272.215 80L286.711 11.456H325.015L322.519 23.36H298.519L295.351 38.432H317.719L315.127 50.336H292.759L289.015 68H313.015L310.519 80H272.215Z"/>
<path d="M334.23 80L346.134 23.552H329.622L332.214 11.456H379.542L376.95 23.552H360.438L348.534 80H334.23Z"/>
<path d="M375.246 80L389.742 11.456H402.894L395.982 43.904C395.662 45.504 395.246 47.296 394.734 49.28C394.286 51.264 393.838 53.216 393.39 55.136C392.942 57.056 392.494 58.816 392.046 60.416H392.526L428.334 11.456H445.71L431.214 80H418.254L425.07 47.744C425.454 45.888 425.838 44.032 426.222 42.176C426.67 40.32 427.118 38.4 427.566 36.416C428.014 34.432 428.494 32.384 429.006 30.272L428.622 30.176L392.814 80H375.246Z"/>
<path d="M447.715 80L462.211 11.456H476.515L470.851 38.336H492.931L498.595 11.456H512.899L498.403 80H484.099L490.339 50.432H468.259L462.019 80H447.715Z"/>
<path d="M514.934 80L529.43 11.456H567.542L565.046 23.36H541.046L529.046 80H514.934Z"/>
</mask>
<path d="M11.7773 80L26.2733 11.456H45.1853L48.2573 62.72H48.6413L74.3693 11.456H94.2413L79.7453 80H66.5933L73.4093 47.552C73.8573 45.376 74.3693 43.072 74.9453 40.64C75.5853 38.144 76.1933 35.712 76.7693 33.344C77.4094 30.912 77.9853 28.768 78.4973 26.912H78.1133L51.4253 80H38.2733L35.3933 26.912H35.0093C34.8813 28.256 34.6253 30.112 34.2413 32.48C33.8573 34.784 33.4093 37.312 32.8973 40.064C32.4493 42.816 31.9373 45.504 31.3613 48.128L24.6413 80H11.7773Z" fill="url(#paint0_linear_1225_8919)"/>
<path d="M87.9901 80L123.894 11.456H141.366L148.278 80H134.358L133.206 63.68H111.03L102.966 80H87.9901ZM116.886 51.488H132.534L131.286 33.824C131.158 31.968 131.03 30.08 130.902 28.16C130.774 26.24 130.742 24.288 130.806 22.304H130.614C129.974 24.032 129.27 25.76 128.502 27.488C127.734 29.152 126.87 30.976 125.91 32.96L116.886 51.488Z" fill="url(#paint1_linear_1225_8919)"/>
<path d="M156.527 80L171.023 11.456H190.127C195.695 11.456 200.143 12.288 203.471 13.952C206.863 15.616 209.295 17.952 210.767 20.96C212.303 23.968 213.071 27.456 213.071 31.424C213.071 35.52 212.303 39.072 210.767 42.08C209.295 45.088 207.215 47.616 204.527 49.664C201.839 51.648 198.671 53.152 195.023 54.176C191.375 55.136 187.439 55.616 183.215 55.616H175.919L170.831 80H156.527ZM184.367 43.712C187.247 43.712 189.743 43.264 191.855 42.368C194.031 41.408 195.695 40.032 196.847 38.24C198.063 36.448 198.671 34.304 198.671 31.808C198.671 28.928 197.903 26.816 196.367 25.472C194.831 24.064 192.559 23.36 189.551 23.36H182.831L178.511 43.712H184.367Z" fill="url(#paint2_linear_1225_8919)"/>
<path d="M215.121 80L229.617 11.456H243.921L237.105 43.52L262.449 11.456H278.577L251.313 45.344L265.137 80H249.297L236.529 46.304L229.425 80H215.121Z" fill="url(#paint3_linear_1225_8919)"/>
<path d="M272.215 80L286.711 11.456H325.015L322.519 23.36H298.519L295.351 38.432H317.719L315.127 50.336H292.759L289.015 68H313.015L310.519 80H272.215Z" fill="url(#paint4_linear_1225_8919)"/>
<path d="M334.23 80L346.134 23.552H329.622L332.214 11.456H379.542L376.95 23.552H360.438L348.534 80H334.23Z" fill="url(#paint5_linear_1225_8919)"/>
<path d="M375.246 80L389.742 11.456H402.894L395.982 43.904C395.662 45.504 395.246 47.296 394.734 49.28C394.286 51.264 393.838 53.216 393.39 55.136C392.942 57.056 392.494 58.816 392.046 60.416H392.526L428.334 11.456H445.71L431.214 80H418.254L425.07 47.744C425.454 45.888 425.838 44.032 426.222 42.176C426.67 40.32 427.118 38.4 427.566 36.416C428.014 34.432 428.494 32.384 429.006 30.272L428.622 30.176L392.814 80H375.246Z" fill="url(#paint6_linear_1225_8919)"/>
<path d="M447.715 80L462.211 11.456H476.515L470.851 38.336H492.931L498.595 11.456H512.899L498.403 80H484.099L490.339 50.432H468.259L462.019 80H447.715Z" fill="url(#paint7_linear_1225_8919)"/>
<path d="M514.934 80L529.43 11.456H567.542L565.046 23.36H541.046L529.046 80H514.934Z" fill="url(#paint8_linear_1225_8919)"/>
<path d="M11.7773 80L26.2733 11.456H45.1853L48.2573 62.72H48.6413L74.3693 11.456H94.2413L79.7453 80H66.5933L73.4093 47.552C73.8573 45.376 74.3693 43.072 74.9453 40.64C75.5853 38.144 76.1933 35.712 76.7693 33.344C77.4094 30.912 77.9853 28.768 78.4973 26.912H78.1133L51.4253 80H38.2733L35.3933 26.912H35.0093C34.8813 28.256 34.6253 30.112 34.2413 32.48C33.8573 34.784 33.4093 37.312 32.8973 40.064C32.4493 42.816 31.9373 45.504 31.3613 48.128L24.6413 80H11.7773Z" stroke="black" stroke-width="6" stroke-linejoin="round" mask="url(#path-2-outside-1_1225_8919)"/>
<path d="M87.9901 80L123.894 11.456H141.366L148.278 80H134.358L133.206 63.68H111.03L102.966 80H87.9901ZM116.886 51.488H132.534L131.286 33.824C131.158 31.968 131.03 30.08 130.902 28.16C130.774 26.24 130.742 24.288 130.806 22.304H130.614C129.974 24.032 129.27 25.76 128.502 27.488C127.734 29.152 126.87 30.976 125.91 32.96L116.886 51.488Z" stroke="black" stroke-width="6" stroke-linejoin="round" mask="url(#path-2-outside-1_1225_8919)"/>
<path d="M156.527 80L171.023 11.456H190.127C195.695 11.456 200.143 12.288 203.471 13.952C206.863 15.616 209.295 17.952 210.767 20.96C212.303 23.968 213.071 27.456 213.071 31.424C213.071 35.52 212.303 39.072 210.767 42.08C209.295 45.088 207.215 47.616 204.527 49.664C201.839 51.648 198.671 53.152 195.023 54.176C191.375 55.136 187.439 55.616 183.215 55.616H175.919L170.831 80H156.527ZM184.367 43.712C187.247 43.712 189.743 43.264 191.855 42.368C194.031 41.408 195.695 40.032 196.847 38.24C198.063 36.448 198.671 34.304 198.671 31.808C198.671 28.928 197.903 26.816 196.367 25.472C194.831 24.064 192.559 23.36 189.551 23.36H182.831L178.511 43.712H184.367Z" stroke="black" stroke-width="6" stroke-linejoin="round" mask="url(#path-2-outside-1_1225_8919)"/>
<path d="M215.121 80L229.617 11.456H243.921L237.105 43.52L262.449 11.456H278.577L251.313 45.344L265.137 80H249.297L236.529 46.304L229.425 80H215.121Z" stroke="black" stroke-width="6" stroke-linejoin="round" mask="url(#path-2-outside-1_1225_8919)"/>
<path d="M272.215 80L286.711 11.456H325.015L322.519 23.36H298.519L295.351 38.432H317.719L315.127 50.336H292.759L289.015 68H313.015L310.519 80H272.215Z" stroke="black" stroke-width="6" stroke-linejoin="round" mask="url(#path-2-outside-1_1225_8919)"/>
<path d="M334.23 80L346.134 23.552H329.622L332.214 11.456H379.542L376.95 23.552H360.438L348.534 80H334.23Z" stroke="black" stroke-width="6" stroke-linejoin="round" mask="url(#path-2-outside-1_1225_8919)"/>
<path d="M375.246 80L389.742 11.456H402.894L395.982 43.904C395.662 45.504 395.246 47.296 394.734 49.28C394.286 51.264 393.838 53.216 393.39 55.136C392.942 57.056 392.494 58.816 392.046 60.416H392.526L428.334 11.456H445.71L431.214 80H418.254L425.07 47.744C425.454 45.888 425.838 44.032 426.222 42.176C426.67 40.32 427.118 38.4 427.566 36.416C428.014 34.432 428.494 32.384 429.006 30.272L428.622 30.176L392.814 80H375.246Z" stroke="black" stroke-width="6" stroke-linejoin="round" mask="url(#path-2-outside-1_1225_8919)"/>
<path d="M447.715 80L462.211 11.456H476.515L470.851 38.336H492.931L498.595 11.456H512.899L498.403 80H484.099L490.339 50.432H468.259L462.019 80H447.715Z" stroke="black" stroke-width="6" stroke-linejoin="round" mask="url(#path-2-outside-1_1225_8919)"/>
<path d="M514.934 80L529.43 11.456H567.542L565.046 23.36H541.046L529.046 80H514.934Z" stroke="black" stroke-width="6" stroke-linejoin="round" mask="url(#path-2-outside-1_1225_8919)"/>
<defs>
<filter id="filter0_f_1225_8919" x="0.777466" y="0.455994" width="577.764" height="90.544" filterUnits="userSpaceOnUse" color-interpolation-filters="sRGB">
<feFlood flood-opacity="0" result="BackgroundImageFix"/>
<feBlend mode="normal" in="SourceGraphic" in2="BackgroundImageFix" result="shape"/>
<feGaussianBlur stdDeviation="5.5" result="effect1_foregroundBlur_1225_8919"/>
</filter>
<linearGradient id="paint0_linear_1225_8919" x1="19.9069" y1="45.8574" x2="522.829" y2="45.8573" gradientUnits="userSpaceOnUse">
<stop stop-color="#BAFB02"/>
<stop offset="1" stop-color="#06AEE5"/>
</linearGradient>
<linearGradient id="paint1_linear_1225_8919" x1="19.9069" y1="45.8574" x2="522.829" y2="45.8573" gradientUnits="userSpaceOnUse">
<stop stop-color="#BAFB02"/>
<stop offset="1" stop-color="#06AEE5"/>
</linearGradient>
<linearGradient id="paint2_linear_1225_8919" x1="19.9069" y1="45.8574" x2="522.829" y2="45.8573" gradientUnits="userSpaceOnUse">
<stop stop-color="#BAFB02"/>
<stop offset="1" stop-color="#06AEE5"/>
</linearGradient>
<linearGradient id="paint3_linear_1225_8919" x1="19.9069" y1="45.8574" x2="522.829" y2="45.8573" gradientUnits="userSpaceOnUse">
<stop stop-color="#BAFB02"/>
<stop offset="1" stop-color="#06AEE5"/>
</linearGradient>
<linearGradient id="paint4_linear_1225_8919" x1="19.9069" y1="45.8574" x2="522.829" y2="45.8573" gradientUnits="userSpaceOnUse">
<stop stop-color="#BAFB02"/>
<stop offset="1" stop-color="#06AEE5"/>
</linearGradient>
<linearGradient id="paint5_linear_1225_8919" x1="19.9069" y1="45.8574" x2="522.829" y2="45.8573" gradientUnits="userSpaceOnUse">
<stop stop-color="#BAFB02"/>
<stop offset="1" stop-color="#06AEE5"/>
</linearGradient>
<linearGradient id="paint6_linear_1225_8919" x1="19.9069" y1="45.8574" x2="522.829" y2="45.8573" gradientUnits="userSpaceOnUse">
<stop stop-color="#BAFB02"/>
<stop offset="1" stop-color="#06AEE5"/>
</linearGradient>
<linearGradient id="paint7_linear_1225_8919" x1="19.9069" y1="45.8574" x2="522.829" y2="45.8573" gradientUnits="userSpaceOnUse">
<stop stop-color="#BAFB02"/>
<stop offset="1" stop-color="#06AEE5"/>
</linearGradient>
<linearGradient id="paint8_linear_1225_8919" x1="19.9069" y1="45.8574" x2="522.829" y2="45.8573" gradientUnits="userSpaceOnUse">
<stop stop-color="#BAFB02"/>
<stop offset="1" stop-color="#06AEE5"/>
</linearGradient>
</defs>
</svg>
