<svg width="99" height="118" viewBox="0 0 99 118" fill="none" xmlns="http://www.w3.org/2000/svg">
<path d="M88.1674 0L54.2192 25.0083L60.4983 10.2533L88.1674 0Z" fill="#E2761B"/>
<path d="M9.79825 0L43.4736 25.245L37.5017 10.2533L9.79825 0Z" fill="#E4761B"/>
<path d="M75.9524 57.9696L66.9114 71.7099L86.2569 76.988L91.8185 58.2744L75.9524 57.9696Z" fill="#E4761B"/>
<path d="M6.2158 58.2744L11.7431 76.988L31.0886 71.7099L22.0476 57.9696L6.2158 58.2744Z" fill="#E4761B"/>
<path d="M29.9969 34.7542L24.6052 42.8434L43.8134 43.6896L43.132 23.2154L29.9969 34.7542Z" fill="#E4761B"/>
<path d="M67.9688 34.7542L54.6638 22.9788L54.2192 43.6896L73.3948 42.8434L67.9688 34.7542Z" fill="#E4761B"/>
<path d="M31.0886 71.7099L42.6204 66.1252L32.6576 58.4089L31.0886 71.7099Z" fill="#E4761B"/>
<path d="M55.3452 66.1252L66.9114 71.7099L65.3081 58.4089L55.3452 66.1252Z" fill="#E4761B"/>
<path d="M66.9114 71.7099L55.3452 66.1252L56.267 73.6049L56.164 76.7514L66.9114 71.7099Z" fill="#D7C1B3"/>
<path d="M31.0886 71.7099L41.836 76.7514L41.7673 73.6049L42.6204 66.1252L31.0886 71.7099Z" fill="#D7C1B3"/>
<path d="M42.0059 53.4695L32.3846 50.6602L39.1736 47.5801L42.0059 53.4695Z" fill="#233447"/>
<path d="M55.9598 53.4695L58.7921 47.5801L65.6154 50.6602L55.9598 53.4695Z" fill="#233447"/>
<path d="M31.0886 71.7099L32.7262 57.9696L22.0476 58.2744L31.0886 71.7099Z" fill="#CD6116"/>
<path d="M65.2738 57.9696L66.9114 71.7099L75.9524 58.2744L65.2738 57.9696Z" fill="#CD6116"/>
<path d="M73.3948 42.8434L54.2192 43.6896L55.9941 53.4695L58.8264 47.5801L65.6497 50.6602L73.3948 42.8434Z" fill="#CD6116"/>
<path d="M32.3846 50.6602L39.2079 47.5801L42.0059 53.4695L43.8134 43.6896L24.6052 42.8434L32.3846 50.6602Z" fill="#CD6116"/>
<path d="M24.6052 42.8434L32.6576 58.4089L32.3846 50.6602L24.6052 42.8434Z" fill="#E4751F"/>
<path d="M65.6497 50.6602L65.3081 58.4089L73.3948 42.8434L65.6497 50.6602Z" fill="#E4751F"/>
<path d="M43.8134 43.6896L42.0059 53.4695L44.258 65.0083L44.7696 49.814L43.8134 43.6896Z" fill="#E4751F"/>
<path d="M54.2192 43.6896L53.2991 49.7799L53.7076 65.0083L55.9941 53.4695L54.2192 43.6896Z" fill="#E4751F"/>
<path d="M55.9941 53.4695L53.7076 65.0083L55.3452 66.1252L65.3081 58.4089L65.6497 50.6602L55.9941 53.4695Z" fill="#F6851B"/>
<path d="M32.3846 50.6602L32.6576 58.4089L42.6204 66.1252L44.258 65.0083L42.0059 53.4695L32.3846 50.6602Z" fill="#F6851B"/>
<path d="M56.164 76.7514L56.267 73.6049L55.4139 72.8592H42.5518L41.7673 73.6049L41.836 76.7514L31.0886 71.7099L34.841 74.7542L42.4488 80H55.5169L63.159 74.7542L66.9114 71.7099L56.164 76.7514Z" fill="#C0AD9E"/>
<path d="M55.3452 66.1252L53.7076 65.0083H44.258L42.6204 66.1252L41.7673 73.6049L42.5518 72.8592H55.4139L56.267 73.6049L55.3452 66.1252Z" fill="#161616"/>
<path d="M89.6007 26.6326L92.5 12.8259L88.1674 0L55.3452 24.1621L67.9688 34.7542L85.8123 39.9319L89.7707 35.3637L88.0644 34.1463L90.7938 31.6758L88.679 30.0515L91.4083 27.9862L89.6007 26.6326Z" fill="#763D16"/>
<path d="M5.5 12.8259L8.39926 26.6326L6.5574 27.9862L9.28671 30.0515L7.20625 31.6758L9.93557 34.1463L8.22932 35.3637L12.1534 39.9319L29.9969 34.7542L42.6204 24.1621L9.79825 0L5.5 12.8259Z" fill="#763D16"/>
<path d="M85.8123 39.9319L67.9688 34.7542L73.3948 42.8434L65.3081 58.4089L75.9524 58.2744H91.8185L85.8123 39.9319Z" fill="#F6851B"/>
<path d="M29.9969 34.7542L12.1534 39.9319L6.2158 58.2744H22.0476L32.6576 58.4089L24.6052 42.8434L29.9969 34.7542Z" fill="#F6851B"/>
<path d="M54.2192 43.6896L55.3452 24.1621L60.5327 10.2533H37.5017L42.6204 24.1621L43.8134 43.6896L44.2237 49.848L44.258 65.0083H53.7076L53.7763 49.848L54.2192 43.6896Z" fill="#F6851B"/>
<path d="M13.1245 114V104.68L9.48445 111.62H7.94445L4.30445 104.68V114H1.54445V99.8H4.50445L8.70445 107.88L12.9445 99.8H15.8845V114H13.1245ZM23.2734 114.2C22.4334 114.2 21.6734 114.06 20.9934 113.78C20.3134 113.487 19.7334 113.093 19.2534 112.6C18.7734 112.093 18.4 111.52 18.1334 110.88C17.88 110.227 17.7534 109.54 17.7534 108.82C17.7534 107.82 17.9734 106.907 18.4134 106.08C18.8667 105.253 19.5067 104.593 20.3334 104.1C21.1734 103.593 22.16 103.34 23.2934 103.34C24.44 103.34 25.42 103.593 26.2334 104.1C27.0467 104.593 27.6667 105.253 28.0934 106.08C28.5334 106.893 28.7534 107.773 28.7534 108.72C28.7534 108.88 28.7467 109.047 28.7334 109.22C28.72 109.38 28.7067 109.513 28.6934 109.62H20.5934C20.6467 110.153 20.8 110.62 21.0534 111.02C21.32 111.42 21.6534 111.727 22.0534 111.94C22.4667 112.14 22.9067 112.24 23.3734 112.24C23.9067 112.24 24.4067 112.113 24.8734 111.86C25.3534 111.593 25.68 111.247 25.8534 110.82L28.1534 111.46C27.9 111.993 27.5334 112.467 27.0534 112.88C26.5867 113.293 26.0334 113.62 25.3934 113.86C24.7534 114.087 24.0467 114.2 23.2734 114.2ZM20.5334 107.92H26.0134C25.96 107.387 25.8067 106.927 25.5534 106.54C25.3134 106.14 24.9934 105.833 24.5934 105.62C24.1934 105.393 23.7467 105.28 23.2534 105.28C22.7734 105.28 22.3334 105.393 21.9334 105.62C21.5467 105.833 21.2267 106.14 20.9734 106.54C20.7334 106.927 20.5867 107.387 20.5334 107.92ZM36.5684 113.46C36.3417 113.553 36.0684 113.66 35.7484 113.78C35.4284 113.9 35.0817 113.993 34.7084 114.06C34.3484 114.14 33.9817 114.18 33.6084 114.18C33.115 114.18 32.6617 114.093 32.2484 113.92C31.835 113.747 31.5017 113.473 31.2484 113.1C31.0084 112.713 30.8884 112.213 30.8884 111.6V105.58H29.5084V103.52H30.8884V100.12H33.5684V103.52H35.7684V105.58H33.5684V110.7C33.5817 111.06 33.6817 111.32 33.8684 111.48C34.055 111.64 34.2884 111.72 34.5684 111.72C34.8484 111.72 35.1217 111.673 35.3884 111.58C35.655 111.487 35.8684 111.407 36.0284 111.34L36.5684 113.46ZM37.2441 110.9C37.2441 110.22 37.4308 109.627 37.8041 109.12C38.1908 108.6 38.7241 108.2 39.4041 107.92C40.0841 107.64 40.8641 107.5 41.7441 107.5C42.1841 107.5 42.6308 107.533 43.0841 107.6C43.5375 107.667 43.9308 107.773 44.2641 107.92V107.36C44.2641 106.693 44.0641 106.18 43.6641 105.82C43.2775 105.46 42.6975 105.28 41.9241 105.28C41.3508 105.28 40.8041 105.38 40.2841 105.58C39.7641 105.78 39.2175 106.073 38.6441 106.46L37.7841 104.7C38.4775 104.247 39.1841 103.907 39.9041 103.68C40.6375 103.453 41.4041 103.34 42.2041 103.34C43.6975 103.34 44.8575 103.713 45.6841 104.46C46.5241 105.207 46.9441 106.273 46.9441 107.66V111C46.9441 111.28 46.9908 111.48 47.0841 111.6C47.1908 111.72 47.3575 111.793 47.5841 111.82V114C47.3441 114.04 47.1241 114.073 46.9241 114.1C46.7375 114.127 46.5775 114.14 46.4441 114.14C45.9108 114.14 45.5041 114.02 45.2241 113.78C44.9575 113.54 44.7908 113.247 44.7241 112.9L44.6641 112.36C44.2108 112.947 43.6441 113.4 42.9641 113.72C42.2841 114.04 41.5908 114.2 40.8841 114.2C40.1908 114.2 39.5641 114.06 39.0041 113.78C38.4575 113.487 38.0241 113.093 37.7041 112.6C37.3975 112.093 37.2441 111.527 37.2441 110.9ZM43.7641 111.44C43.9108 111.28 44.0308 111.12 44.1241 110.96C44.2175 110.8 44.2641 110.653 44.2641 110.52V109.46C43.9441 109.327 43.5975 109.227 43.2241 109.16C42.8508 109.08 42.4975 109.04 42.1641 109.04C41.4708 109.04 40.8975 109.193 40.4441 109.5C40.0041 109.793 39.7841 110.187 39.7841 110.68C39.7841 110.947 39.8575 111.2 40.0041 111.44C40.1508 111.68 40.3641 111.873 40.6441 112.02C40.9241 112.167 41.2575 112.24 41.6441 112.24C42.0441 112.24 42.4375 112.167 42.8241 112.02C43.2108 111.86 43.5241 111.667 43.7641 111.44ZM61.2885 114V104.68L57.6485 111.62H56.1085L52.4685 104.68V114H49.7085V99.8H52.6685L56.8685 107.88L61.1085 99.8H64.0485V114H61.2885ZM65.916 110.9C65.916 110.22 66.1027 109.627 66.476 109.12C66.8627 108.6 67.396 108.2 68.076 107.92C68.756 107.64 69.536 107.5 70.416 107.5C70.856 107.5 71.3027 107.533 71.756 107.6C72.2093 107.667 72.6027 107.773 72.936 107.92V107.36C72.936 106.693 72.736 106.18 72.336 105.82C71.9493 105.46 71.3693 105.28 70.596 105.28C70.0227 105.28 69.476 105.38 68.956 105.58C68.436 105.78 67.8893 106.073 67.316 106.46L66.456 104.7C67.1493 104.247 67.856 103.907 68.576 103.68C69.3093 103.453 70.076 103.34 70.876 103.34C72.3693 103.34 73.5293 103.713 74.356 104.46C75.196 105.207 75.616 106.273 75.616 107.66V111C75.616 111.28 75.6627 111.48 75.756 111.6C75.8627 111.72 76.0293 111.793 76.256 111.82V114C76.016 114.04 75.796 114.073 75.596 114.1C75.4093 114.127 75.2493 114.14 75.116 114.14C74.5827 114.14 74.176 114.02 73.896 113.78C73.6293 113.54 73.4627 113.247 73.396 112.9L73.336 112.36C72.8827 112.947 72.316 113.4 71.636 113.72C70.956 114.04 70.2627 114.2 69.556 114.2C68.8627 114.2 68.236 114.06 67.676 113.78C67.1293 113.487 66.696 113.093 66.376 112.6C66.0693 112.093 65.916 111.527 65.916 110.9ZM72.436 111.44C72.5827 111.28 72.7027 111.12 72.796 110.96C72.8893 110.8 72.936 110.653 72.936 110.52V109.46C72.616 109.327 72.2693 109.227 71.896 109.16C71.5227 109.08 71.1693 109.04 70.836 109.04C70.1427 109.04 69.5693 109.193 69.116 109.5C68.676 109.793 68.456 110.187 68.456 110.68C68.456 110.947 68.5293 111.2 68.676 111.44C68.8227 111.68 69.036 111.873 69.316 112.02C69.596 112.167 69.9293 112.24 70.316 112.24C70.716 112.24 71.1093 112.167 71.496 112.02C71.8827 111.86 72.196 111.667 72.436 111.44ZM81.9804 114.2C81.0871 114.2 80.2337 114.053 79.4204 113.76C78.6071 113.467 77.9071 113.033 77.3204 112.46L78.2804 110.72C78.9071 111.227 79.5204 111.6 80.1204 111.84C80.7337 112.08 81.3204 112.2 81.8804 112.2C82.4004 112.2 82.8137 112.107 83.1204 111.92C83.4404 111.733 83.6004 111.453 83.6004 111.08C83.6004 110.827 83.5137 110.633 83.3404 110.5C83.1671 110.353 82.9137 110.227 82.5804 110.12C82.2604 110.013 81.8671 109.893 81.4004 109.76C80.6271 109.507 79.9804 109.26 79.4604 109.02C78.9404 108.78 78.5471 108.48 78.2804 108.12C78.0271 107.747 77.9004 107.273 77.9004 106.7C77.9004 106.007 78.0737 105.413 78.4204 104.92C78.7804 104.413 79.2737 104.02 79.9004 103.74C80.5404 103.46 81.2871 103.32 82.1404 103.32C82.8871 103.32 83.5937 103.44 84.2604 103.68C84.9271 103.907 85.5337 104.28 86.0804 104.8L85.0004 106.5C84.4671 106.087 83.9604 105.787 83.4804 105.6C83.0004 105.4 82.5137 105.3 82.0204 105.3C81.7404 105.3 81.4737 105.333 81.2204 105.4C80.9804 105.467 80.7804 105.58 80.6204 105.74C80.4737 105.887 80.4004 106.1 80.4004 106.38C80.4004 106.633 80.4671 106.833 80.6004 106.98C80.7471 107.113 80.9604 107.233 81.2404 107.34C81.5337 107.447 81.8871 107.567 82.3004 107.7C83.1404 107.94 83.8471 108.187 84.4204 108.44C85.0071 108.693 85.4471 109.007 85.7404 109.38C86.0337 109.74 86.1804 110.24 86.1804 110.88C86.1804 111.92 85.8004 112.733 85.0404 113.32C84.2804 113.907 83.2604 114.2 81.9804 114.2ZM95.1632 114L92.1032 109.48L90.6832 110.88V114H88.0032V99.4H90.6832V108.24L94.9032 103.54H97.7432L93.8432 107.98L98.0232 114H95.1632Z" fill="#0F5A51"/>
</svg>
