<svg width="65" height="65" viewBox="0 0 65 65" fill="none" xmlns="http://www.w3.org/2000/svg">
<g filter="url(#filter0_d_921_1763)">
<rect x="14" y="14" width="39" height="39" rx="5" fill="url(#paint0_radial_921_1763)" shape-rendering="crispEdges"/>
<path d="M21 26.0357C21 24.9114 21.8794 24 22.9643 24H44.0357C45.1206 24 46 24.9114 46 26.0357C46 27.16 45.1206 28.0715 44.0357 28.0715H22.9643C21.8794 28.0715 21 27.16 21 26.0357Z" fill="#4CFFDF"/>
<path d="M21 33.5001C21 32.3758 21.8794 31.4644 22.9643 31.4644H44.0357C45.1206 31.4644 46 32.3758 46 33.5001C46 34.6244 45.1206 35.5358 44.0357 35.5358H22.9643C21.8794 35.5358 21 34.6244 21 33.5001Z" fill="#4CFFDF"/>
<path d="M21 41.1C21 40.0506 21.8208 39.2 22.8333 39.2H37.8333C38.8459 39.2 39.6667 40.0506 39.6667 41.1C39.6667 42.1493 38.8459 43 37.8333 43H22.8333C21.8208 43 21 42.1493 21 41.1Z" fill="#4CFFDF"/>
</g>
<defs>
<filter id="filter0_d_921_1763" x="0" y="0" width="65" height="65" filterUnits="userSpaceOnUse" color-interpolation-filters="sRGB">
<feFlood flood-opacity="0" result="BackgroundImageFix"/>
<feColorMatrix in="SourceAlpha" type="matrix" values="0 0 0 0 0 0 0 0 0 0 0 0 0 0 0 0 0 0 127 0" result="hardAlpha"/>
<feMorphology radius="3" operator="dilate" in="SourceAlpha" result="effect1_dropShadow_921_1763"/>
<feOffset dx="-1" dy="-1"/>
<feGaussianBlur stdDeviation="5"/>
<feComposite in2="hardAlpha" operator="out"/>
<feColorMatrix type="matrix" values="0 0 0 0 0 0 0 0 0 0 0 0 0 0 0 0 0 0 0.7 0"/>
<feBlend mode="normal" in2="BackgroundImageFix" result="effect1_dropShadow_921_1763"/>
<feBlend mode="normal" in="SourceGraphic" in2="effect1_dropShadow_921_1763" result="shape"/>
</filter>
<radialGradient id="paint0_radial_921_1763" cx="0" cy="0" r="1" gradientUnits="userSpaceOnUse" gradientTransform="translate(14 14) rotate(45) scale(55.1543 70.2157)">
<stop offset="0.0162837" stop-color="#106055"/>
<stop offset="1"/>
</radialGradient>
</defs>
</svg>
