<svg width="171" height="60" viewBox="0 0 171 60" fill="none" xmlns="http://www.w3.org/2000/svg">
<rect x="0.5" y="-0.5" width="170" height="59" transform="matrix(1 0 0 -1 0 59)" fill="url(#paint0_linear_748_1527)" stroke="url(#paint1_linear_748_1527)"/>
<mask id="path-2-inside-1_748_1527" fill="white">
<path fill-rule="evenodd" clip-rule="evenodd" d="M46.5507 23.7745H11.4493C10.0975 23.7745 9 24.872 9 26.2239V34.4322C9 35.7841 10.0975 36.8816 11.4493 36.8816H46.5507C47.9025 36.8816 49 35.7841 49 34.4322V26.2239C49 24.872 47.9025 23.7745 46.5507 23.7745ZM41.2323 33.1284C40.4644 33.1284 39.733 32.9012 39.2454 32.6399H39.245L38.916 33.7987C39.3671 34.0486 40.2691 34.2758 41.1346 34.2758C43.2556 34.2758 44.2553 33.2079 44.2553 31.9809C44.2553 30.879 43.5605 30.2085 42.1343 29.7086C41.0372 29.3109 40.5618 29.0382 40.5618 28.4474C40.5618 28.0044 40.9762 27.5272 41.9271 27.5272C42.695 27.5272 43.2679 27.7431 43.5605 27.8908L43.9262 26.766C43.4995 26.5615 42.8414 26.3796 41.9515 26.3796C40.1719 26.3796 39.0503 27.334 39.0503 28.5838C39.0503 29.6859 39.9158 30.3563 41.269 30.8107C42.3173 31.1631 42.7317 31.5039 42.7317 32.0833C42.7317 32.7082 42.1952 33.1284 41.2323 33.1284ZM14.1218 26.5048V34.1624L15.4992 34.1626V31.4244C15.4992 30.1634 15.4871 29.1522 15.4262 28.1637L15.4627 28.1523C15.865 29.0158 16.4135 29.9588 16.9377 30.7995L19.0831 34.1624H20.6311V26.5048H19.2415V29.1747C19.2415 30.3451 19.2782 31.3334 19.3756 32.356H19.3512C18.9733 31.5266 18.498 30.6404 17.9494 29.7883L15.8284 26.5048H14.1218ZM23.8615 30.7652H26.9578V29.6293H23.8615V27.6524H27.1406V26.5048H22.3621V34.1624H27.3234V33.0148H23.8615V30.7652ZM30.0664 34.1624L28.0551 26.5048H29.652L30.4321 29.9815C30.6393 30.9131 30.8344 31.8902 30.9686 32.6515H30.993C31.1058 31.9732 31.2876 31.2224 31.4802 30.4265L31.4803 30.4262C31.5167 30.2757 31.5536 30.1236 31.5904 29.9701L32.4803 26.5048H34.0527L34.8694 30.0269C35.0766 30.9359 35.2473 31.788 35.3692 32.6173H35.3936C35.5398 31.7766 35.7349 30.9017 35.9543 29.9701L36.8076 26.5048H38.3315L36.1251 34.1624H34.516L33.6627 30.5609C33.4555 29.686 33.3093 28.9589 33.2116 28.1296H33.1872C33.041 28.9475 32.8826 29.686 32.6387 30.5609L31.6878 34.1624H30.0664Z"/>
<path fill-rule="evenodd" clip-rule="evenodd" d="M28.9995 11C30.7687 11 32.4825 11.2378 34.1102 11.6829C40.22 13.3538 45.1225 17.9473 47.2215 23.8677C47.0083 23.807 46.7832 23.7745 46.5507 23.7745H45.3643C44.4279 21.3606 42.9766 19.147 41.1128 17.377L41.1049 17.3696C41.0049 17.2722 40.9035 17.176 40.8015 17.0813C39.446 17.9066 38.0009 18.5892 36.4857 19.121C37.324 20.5919 37.9949 22.1577 38.4868 23.7745H36.6678C36.1963 22.3407 35.5706 20.9571 34.8004 19.642C33.196 20.0728 31.5465 20.3352 29.8775 20.4246V23.7745H28.1221V20.4551C26.4208 20.4229 24.7357 20.2121 23.0926 19.8263C22.3677 21.0925 21.7758 22.4094 21.3254 23.7745H19.503C19.9697 22.2447 20.599 20.7655 21.3808 19.3559C19.8012 18.8575 18.2926 18.1981 16.8762 17.3869C15.0176 19.1554 13.5699 21.3651 12.6351 23.7745H11.4493C11.2164 23.7745 10.9909 23.8071 10.7774 23.868C12.876 17.9483 17.7774 13.3551 23.8863 11.6838C25.5147 11.238 27.2303 11 28.9995 11ZM35.6143 17.7097C36.9414 17.2601 38.2298 16.6787 39.457 15.9657C37.0526 14.1789 34.2023 13.0858 31.336 12.8483C33.0015 14.3084 34.4352 15.9429 35.6143 17.7097ZM33.8897 18.2155C32.7743 16.6078 31.4305 15.1225 29.8775 13.7971V18.8254C31.2286 18.7463 32.5728 18.5429 33.8897 18.2155ZM28.1221 18.8591V13.7973C26.5157 15.1684 25.1326 16.7106 23.9951 18.3823C25.3536 18.6716 26.7366 18.8303 28.1221 18.8591ZM26.6632 12.8487C24.9286 14.3695 23.4456 16.0797 22.2393 17.9316C20.8423 17.5102 19.483 16.9455 18.1873 16.238C20.6631 14.2905 23.6542 13.0982 26.6632 12.8487Z"/>
<path fill-rule="evenodd" clip-rule="evenodd" d="M10.7774 36.7881C12.8764 42.7086 17.779 47.3022 23.8889 48.9731C25.5166 49.4182 27.2303 49.656 28.9995 49.656C30.7687 49.656 32.4843 49.418 34.1127 48.9722C40.2214 47.301 45.1228 42.7079 47.2215 36.7884C47.0083 36.8491 46.7832 36.8816 46.5507 36.8816H45.3636C44.4288 39.291 42.9811 41.5007 41.1225 43.2692C39.706 42.458 38.1975 41.7984 36.6179 41.2999C37.3996 39.8905 38.0289 38.4113 38.4956 36.8816H36.6742C36.2238 38.2467 35.6319 39.5637 34.907 40.8299C33.2639 40.4441 31.5788 40.2333 29.8775 40.2012V36.8816H28.1221V40.2314C26.4531 40.3208 24.8036 40.5833 23.1992 41.014C22.4289 39.6989 21.8032 38.3154 21.3318 36.8816H19.5119C20.0038 38.4983 20.6747 40.064 21.5129 41.5348C19.9978 42.0667 18.5527 42.7494 17.1972 43.5745C17.0951 43.4798 16.9938 43.3837 16.8938 43.2862L16.8859 43.2791C15.0221 41.509 13.5707 39.2955 12.6344 36.8816H11.4493C11.2164 36.8816 10.991 36.849 10.7774 36.7881ZM34.0044 42.2741C32.646 41.9848 31.2629 41.8261 29.8775 41.7973V46.8591C31.4839 45.488 32.867 43.9458 34.0044 42.2741ZM29.0002 48.6193V48.6153H28.9997L29.0002 48.6193ZM28.1221 46.8591V41.8307C26.771 41.91 25.4268 42.1133 24.1098 42.4407C25.2253 44.0484 26.5691 45.5337 28.1221 46.8591ZM22.3847 42.9463C21.0576 43.396 19.7693 43.9774 18.542 44.6904C20.9464 46.4772 23.7967 47.5703 26.663 47.8078C24.9975 46.3476 23.5638 44.7131 22.3847 42.9463ZM31.3362 47.8075C34.3452 47.558 37.3363 46.3657 39.8121 44.4182C38.5164 43.7107 37.1571 43.146 35.7601 42.7246C34.5538 44.5765 33.0708 46.2867 31.3362 47.8075Z"/>
</mask>
<path fill-rule="evenodd" clip-rule="evenodd" d="M46.5507 23.7745H11.4493C10.0975 23.7745 9 24.872 9 26.2239V34.4322C9 35.7841 10.0975 36.8816 11.4493 36.8816H46.5507C47.9025 36.8816 49 35.7841 49 34.4322V26.2239C49 24.872 47.9025 23.7745 46.5507 23.7745ZM41.2323 33.1284C40.4644 33.1284 39.733 32.9012 39.2454 32.6399H39.245L38.916 33.7987C39.3671 34.0486 40.2691 34.2758 41.1346 34.2758C43.2556 34.2758 44.2553 33.2079 44.2553 31.9809C44.2553 30.879 43.5605 30.2085 42.1343 29.7086C41.0372 29.3109 40.5618 29.0382 40.5618 28.4474C40.5618 28.0044 40.9762 27.5272 41.9271 27.5272C42.695 27.5272 43.2679 27.7431 43.5605 27.8908L43.9262 26.766C43.4995 26.5615 42.8414 26.3796 41.9515 26.3796C40.1719 26.3796 39.0503 27.334 39.0503 28.5838C39.0503 29.6859 39.9158 30.3563 41.269 30.8107C42.3173 31.1631 42.7317 31.5039 42.7317 32.0833C42.7317 32.7082 42.1952 33.1284 41.2323 33.1284ZM14.1218 26.5048V34.1624L15.4992 34.1626V31.4244C15.4992 30.1634 15.4871 29.1522 15.4262 28.1637L15.4627 28.1523C15.865 29.0158 16.4135 29.9588 16.9377 30.7995L19.0831 34.1624H20.6311V26.5048H19.2415V29.1747C19.2415 30.3451 19.2782 31.3334 19.3756 32.356H19.3512C18.9733 31.5266 18.498 30.6404 17.9494 29.7883L15.8284 26.5048H14.1218ZM23.8615 30.7652H26.9578V29.6293H23.8615V27.6524H27.1406V26.5048H22.3621V34.1624H27.3234V33.0148H23.8615V30.7652ZM30.0664 34.1624L28.0551 26.5048H29.652L30.4321 29.9815C30.6393 30.9131 30.8344 31.8902 30.9686 32.6515H30.993C31.1058 31.9732 31.2876 31.2224 31.4802 30.4265L31.4803 30.4262C31.5167 30.2757 31.5536 30.1236 31.5904 29.9701L32.4803 26.5048H34.0527L34.8694 30.0269C35.0766 30.9359 35.2473 31.788 35.3692 32.6173H35.3936C35.5398 31.7766 35.7349 30.9017 35.9543 29.9701L36.8076 26.5048H38.3315L36.1251 34.1624H34.516L33.6627 30.5609C33.4555 29.686 33.3093 28.9589 33.2116 28.1296H33.1872C33.041 28.9475 32.8826 29.686 32.6387 30.5609L31.6878 34.1624H30.0664Z" fill="url(#paint2_linear_748_1527)"/>
<path fill-rule="evenodd" clip-rule="evenodd" d="M28.9995 11C30.7687 11 32.4825 11.2378 34.1102 11.6829C40.22 13.3538 45.1225 17.9473 47.2215 23.8677C47.0083 23.807 46.7832 23.7745 46.5507 23.7745H45.3643C44.4279 21.3606 42.9766 19.147 41.1128 17.377L41.1049 17.3696C41.0049 17.2722 40.9035 17.176 40.8015 17.0813C39.446 17.9066 38.0009 18.5892 36.4857 19.121C37.324 20.5919 37.9949 22.1577 38.4868 23.7745H36.6678C36.1963 22.3407 35.5706 20.9571 34.8004 19.642C33.196 20.0728 31.5465 20.3352 29.8775 20.4246V23.7745H28.1221V20.4551C26.4208 20.4229 24.7357 20.2121 23.0926 19.8263C22.3677 21.0925 21.7758 22.4094 21.3254 23.7745H19.503C19.9697 22.2447 20.599 20.7655 21.3808 19.3559C19.8012 18.8575 18.2926 18.1981 16.8762 17.3869C15.0176 19.1554 13.5699 21.3651 12.6351 23.7745H11.4493C11.2164 23.7745 10.9909 23.8071 10.7774 23.868C12.876 17.9483 17.7774 13.3551 23.8863 11.6838C25.5147 11.238 27.2303 11 28.9995 11ZM35.6143 17.7097C36.9414 17.2601 38.2298 16.6787 39.457 15.9657C37.0526 14.1789 34.2023 13.0858 31.336 12.8483C33.0015 14.3084 34.4352 15.9429 35.6143 17.7097ZM33.8897 18.2155C32.7743 16.6078 31.4305 15.1225 29.8775 13.7971V18.8254C31.2286 18.7463 32.5728 18.5429 33.8897 18.2155ZM28.1221 18.8591V13.7973C26.5157 15.1684 25.1326 16.7106 23.9951 18.3823C25.3536 18.6716 26.7366 18.8303 28.1221 18.8591ZM26.6632 12.8487C24.9286 14.3695 23.4456 16.0797 22.2393 17.9316C20.8423 17.5102 19.483 16.9455 18.1873 16.238C20.6631 14.2905 23.6542 13.0982 26.6632 12.8487Z" fill="url(#paint3_linear_748_1527)"/>
<path fill-rule="evenodd" clip-rule="evenodd" d="M10.7774 36.7881C12.8764 42.7086 17.779 47.3022 23.8889 48.9731C25.5166 49.4182 27.2303 49.656 28.9995 49.656C30.7687 49.656 32.4843 49.418 34.1127 48.9722C40.2214 47.301 45.1228 42.7079 47.2215 36.7884C47.0083 36.8491 46.7832 36.8816 46.5507 36.8816H45.3636C44.4288 39.291 42.9811 41.5007 41.1225 43.2692C39.706 42.458 38.1975 41.7984 36.6179 41.2999C37.3996 39.8905 38.0289 38.4113 38.4956 36.8816H36.6742C36.2238 38.2467 35.6319 39.5637 34.907 40.8299C33.2639 40.4441 31.5788 40.2333 29.8775 40.2012V36.8816H28.1221V40.2314C26.4531 40.3208 24.8036 40.5833 23.1992 41.014C22.4289 39.6989 21.8032 38.3154 21.3318 36.8816H19.5119C20.0038 38.4983 20.6747 40.064 21.5129 41.5348C19.9978 42.0667 18.5527 42.7494 17.1972 43.5745C17.0951 43.4798 16.9938 43.3837 16.8938 43.2862L16.8859 43.2791C15.0221 41.509 13.5707 39.2955 12.6344 36.8816H11.4493C11.2164 36.8816 10.991 36.849 10.7774 36.7881ZM34.0044 42.2741C32.646 41.9848 31.2629 41.8261 29.8775 41.7973V46.8591C31.4839 45.488 32.867 43.9458 34.0044 42.2741ZM29.0002 48.6193V48.6153H28.9997L29.0002 48.6193ZM28.1221 46.8591V41.8307C26.771 41.91 25.4268 42.1133 24.1098 42.4407C25.2253 44.0484 26.5691 45.5337 28.1221 46.8591ZM22.3847 42.9463C21.0576 43.396 19.7693 43.9774 18.542 44.6904C20.9464 46.4772 23.7967 47.5703 26.663 47.8078C24.9975 46.3476 23.5638 44.7131 22.3847 42.9463ZM31.3362 47.8075C34.3452 47.558 37.3363 46.3657 39.8121 44.4182C38.5164 43.7107 37.1571 43.146 35.7601 42.7246C34.5538 44.5765 33.0708 46.2867 31.3362 47.8075Z" fill="url(#paint4_linear_748_1527)"/>
<path d="M28.9497 12.0369V12.041H29.0497V12.0369H28.9497ZM39.2454 32.6399L39.2927 32.5518L39.2705 32.5399H39.2454V32.6399ZM39.245 32.6399V32.5399H39.1695L39.1489 32.6126L39.245 32.6399ZM38.916 33.7987L38.8198 33.7714L38.7981 33.8477L38.8675 33.8861L38.916 33.7987ZM42.1343 29.7086L42.1002 29.8026L42.1012 29.803L42.1343 29.7086ZM43.5605 27.8908L43.5154 27.9801L43.6195 28.0326L43.6556 27.9217L43.5605 27.8908ZM43.9262 26.766L44.0213 26.7969L44.0484 26.7136L43.9695 26.6758L43.9262 26.766ZM41.269 30.8107L41.3008 30.7159L41.3008 30.7159L41.269 30.8107ZM14.1218 34.1624H14.0218V34.2624L14.1218 34.2624L14.1218 34.1624ZM14.1218 26.5048V26.4048H14.0218V26.5048H14.1218ZM15.4992 34.1626L15.4992 34.2626L15.5992 34.2626V34.1626H15.4992ZM15.4262 28.1637L15.3964 28.0682L15.3215 28.0916L15.3263 28.1698L15.4262 28.1637ZM15.4627 28.1523L15.5533 28.1101L15.5164 28.0308L15.4329 28.0568L15.4627 28.1523ZM16.9377 30.7995L16.8528 30.8524L16.8534 30.8533L16.9377 30.7995ZM19.0831 34.1624L18.9988 34.2162L19.0283 34.2624H19.0831V34.1624ZM20.6311 34.1624V34.2624H20.7311V34.1624H20.6311ZM20.6311 26.5048H20.7311V26.4048H20.6311V26.5048ZM19.2415 26.5048V26.4048H19.1415V26.5048H19.2415ZM19.3756 32.356V32.456H19.4856L19.4752 32.3465L19.3756 32.356ZM19.3512 32.356L19.2602 32.3974L19.2869 32.456H19.3512V32.356ZM17.9494 29.7883L18.0335 29.7341L18.0334 29.734L17.9494 29.7883ZM15.8284 26.5048L15.9124 26.4505L15.8829 26.4048H15.8284V26.5048ZM26.9578 30.7652V30.8652H27.0578V30.7652H26.9578ZM23.8615 30.7652V30.6652H23.7615V30.7652H23.8615ZM26.9578 29.6293H27.0578V29.5293H26.9578V29.6293ZM23.8615 29.6293H23.7615V29.7293H23.8615V29.6293ZM23.8615 27.6524V27.5524H23.7615V27.6524H23.8615ZM27.1406 27.6524V27.7524H27.2406V27.6524H27.1406ZM27.1406 26.5048H27.2406V26.4048H27.1406V26.5048ZM22.3621 26.5048V26.4048H22.2621V26.5048H22.3621ZM22.3621 34.1624H22.2621V34.2624H22.3621V34.1624ZM27.3234 34.1624V34.2624H27.4234V34.1624H27.3234ZM27.3234 33.0148H27.4234V32.9148H27.3234V33.0148ZM23.8615 33.0148H23.7615V33.1148H23.8615V33.0148ZM28.0551 26.5048V26.4048H27.9255L27.9584 26.5302L28.0551 26.5048ZM30.0664 34.1624L29.9697 34.1878L29.9892 34.2624H30.0664V34.1624ZM29.652 26.5048L29.7495 26.4829L29.732 26.4048H29.652V26.5048ZM30.4321 29.9815L30.5298 29.9598L30.5297 29.9596L30.4321 29.9815ZM30.9686 32.6515L30.8701 32.6688L30.8847 32.7515H30.9686V32.6515ZM30.993 32.6515V32.7515H31.0777L31.0916 32.6679L30.993 32.6515ZM31.4802 30.4265L31.3832 30.4022L31.3831 30.4029L31.4802 30.4265ZM31.4803 30.4262L31.5773 30.4504L31.5775 30.4497L31.4803 30.4262ZM31.5904 29.9701L31.4935 29.9453L31.4931 29.9468L31.5904 29.9701ZM32.4803 26.5048V26.4048H32.4027L32.3834 26.4799L32.4803 26.5048ZM34.0527 26.5048L34.1502 26.4822L34.1322 26.4048H34.0527V26.5048ZM34.8694 30.0269L34.9669 30.0046L34.9668 30.0043L34.8694 30.0269ZM35.3692 32.6173L35.2702 32.6319L35.2828 32.7173H35.3692V32.6173ZM35.3936 32.6173V32.7173H35.4777L35.4921 32.6345L35.3936 32.6173ZM35.9543 29.9701L35.8571 29.9462L35.8569 29.9472L35.9543 29.9701ZM36.8076 26.5048V26.4048H36.7293L36.7105 26.4809L36.8076 26.5048ZM38.3315 26.5048L38.4275 26.5325L38.4643 26.4048H38.3315V26.5048ZM36.1251 34.1624V34.2624H36.2004L36.2212 34.1901L36.1251 34.1624ZM34.516 34.1624L34.4186 34.1855L34.4369 34.2624H34.516V34.1624ZM33.6627 30.5609L33.5654 30.584L33.5654 30.584L33.6627 30.5609ZM33.2116 28.1296L33.311 28.1179L33.3006 28.0296H33.2116V28.1296ZM33.1872 28.1296V28.0296H33.1035L33.0888 28.112L33.1872 28.1296ZM32.6387 30.5609L32.5423 30.5341L32.542 30.5354L32.6387 30.5609ZM31.6878 34.1624V34.2624H31.7649L31.7845 34.1879L31.6878 34.1624ZM34.1102 11.6829L34.1365 11.5864L34.1365 11.5864L34.1102 11.6829ZM47.2215 23.8677L47.1941 23.9639L47.3805 24.0169L47.3157 23.8343L47.2215 23.8677ZM45.3643 23.7745L45.2711 23.8107L45.2958 23.8745H45.3643V23.7745ZM41.1128 17.377L41.1816 17.3045L41.1809 17.3037L41.1128 17.377ZM41.1049 17.3696L41.0351 17.4413L41.0368 17.4429L41.1049 17.3696ZM40.8015 17.0813L40.8695 17.008L40.8141 16.9566L40.7495 16.9959L40.8015 17.0813ZM36.4857 19.121L36.4526 19.0267L36.3395 19.0664L36.3988 19.1705L36.4857 19.121ZM38.4868 23.7745V23.8745H38.6218L38.5825 23.7454L38.4868 23.7745ZM36.6678 23.7745L36.5728 23.8058L36.5954 23.8745H36.6678V23.7745ZM34.8004 19.642L34.8867 19.5915L34.8481 19.5257L34.7745 19.5455L34.8004 19.642ZM29.8775 20.4246L29.8722 20.3247L29.7775 20.3298V20.4246H29.8775ZM29.8775 23.7745V23.8745H29.9775V23.7745H29.8775ZM28.1221 23.7745H28.0221V23.8745H28.1221V23.7745ZM28.1221 20.4551H28.2221V20.3569L28.124 20.3551L28.1221 20.4551ZM23.0926 19.8263L23.1154 19.729L23.0428 19.7119L23.0058 19.7766L23.0926 19.8263ZM21.3254 23.7745V23.8745H21.3978L21.4204 23.8058L21.3254 23.7745ZM19.503 23.7745L19.4074 23.7453L19.368 23.8745H19.503V23.7745ZM21.3808 19.3559L21.4683 19.4044L21.5276 19.2974L21.4109 19.2606L21.3808 19.3559ZM16.8762 17.3869L16.9259 17.3001L16.8612 17.2631L16.8072 17.3144L16.8762 17.3869ZM12.6351 23.7745V23.8745H12.7035L12.7283 23.8107L12.6351 23.7745ZM10.7774 23.868L10.6831 23.8346L10.6183 24.0173L10.8048 23.9642L10.7774 23.868ZM23.8863 11.6838L23.9127 11.7803L23.9127 11.7803L23.8863 11.6838ZM10.7774 36.7881L10.8048 36.6919L10.6184 36.6388L10.6832 36.8215L10.7774 36.7881ZM23.8889 48.9731L23.8625 49.0696H23.8625L23.8889 48.9731ZM34.1127 48.9722L34.0863 48.8758L34.0863 48.8758L34.1127 48.9722ZM47.2215 36.7884L47.3157 36.8218L47.3805 36.6392L47.1941 36.6922L47.2215 36.7884ZM45.3636 36.8816V36.7816H45.2951L45.2703 36.8454L45.3636 36.8816ZM41.1225 43.2692L41.0728 43.3559L41.1375 43.393L41.1914 43.3416L41.1225 43.2692ZM36.6179 41.2999L36.5304 41.2514L36.471 41.3585L36.5878 41.3953L36.6179 41.2999ZM38.4956 36.8816L38.5912 36.9107L38.6306 36.7816H38.4956V36.8816ZM36.6742 36.8816V36.7816H36.6019L36.5792 36.8502L36.6742 36.8816ZM34.907 40.8299L34.8842 40.9273L34.9568 40.9443L34.9938 40.8796L34.907 40.8299ZM29.8775 40.2012H29.7775V40.2993L29.8756 40.3011L29.8775 40.2012ZM29.8775 36.8816H29.9775V36.7816H29.8775V36.8816ZM28.1221 36.8816V36.7816H28.0221V36.8816H28.1221ZM28.1221 40.2314L28.1274 40.3313L28.2221 40.3262V40.2314H28.1221ZM23.1992 41.014L23.1129 41.0645L23.1514 41.1304L23.2251 41.1106L23.1992 41.014ZM21.3318 36.8816L21.4268 36.8503L21.4042 36.7816H21.3318V36.8816ZM19.5119 36.8816V36.7816H19.3769L19.4162 36.9107L19.5119 36.8816ZM21.5129 41.5348L21.5461 41.6292L21.6592 41.5895L21.5998 41.4853L21.5129 41.5348ZM17.1972 43.5745L17.1291 43.6478L17.1846 43.6993L17.2491 43.66L17.1972 43.5745ZM16.8938 43.2862L16.9636 43.2146L16.961 43.2122L16.8938 43.2862ZM16.8859 43.2791L16.817 43.3516L16.8187 43.3531L16.8859 43.2791ZM12.6344 36.8816L12.7276 36.8454L12.7028 36.7816H12.6344V36.8816ZM39.457 15.9657L39.5072 16.0521L39.6384 15.9759L39.5166 15.8854L39.457 15.9657ZM35.6143 17.7097L35.5312 17.7652L35.5738 17.829L35.6464 17.8044L35.6143 17.7097ZM31.336 12.8483L31.3442 12.7486L31.0421 12.7236L31.2701 12.9235L31.336 12.8483ZM29.8775 13.7971L29.9424 13.7211L29.7775 13.5803V13.7971H29.8775ZM33.8897 18.2155L33.9139 18.3125L34.0545 18.2776L33.9719 18.1585L33.8897 18.2155ZM29.8775 18.8254H29.7775V18.9314L29.8833 18.9252L29.8775 18.8254ZM29.8775 41.7973L29.8796 41.6973L29.7775 41.6952V41.7973H29.8775ZM34.0044 42.2741L34.0871 42.3303L34.1709 42.2073L34.0253 42.1763L34.0044 42.2741ZM29.8775 46.8591H29.7775V47.0759L29.9424 46.9352L29.8775 46.8591ZM29.0002 48.6153H29.1002V48.5153H29.0002V48.6153ZM29.0002 48.6193L28.9012 48.6328L29.1002 48.6193H29.0002ZM28.9997 48.6153V48.5153H28.8851L28.9006 48.6288L28.9997 48.6153ZM28.1221 13.7973H28.2221V13.5805L28.0572 13.7212L28.1221 13.7973ZM28.1221 18.8591L28.12 18.9591L28.2221 18.9612V18.8591H28.1221ZM23.9951 18.3823L23.9125 18.3261L23.8287 18.4491L23.9743 18.4801L23.9951 18.3823ZM28.1221 41.8307H28.2221V41.7246L28.1162 41.7309L28.1221 41.8307ZM28.1221 46.8591L28.0572 46.9352L28.2221 47.0759V46.8591H28.1221ZM24.1098 42.4407L24.0857 42.3437L23.9451 42.3786L24.0277 42.4977L24.1098 42.4407ZM26.6632 12.8487L26.7291 12.9239L26.9571 12.724L26.6549 12.749L26.6632 12.8487ZM22.2393 17.9316L22.2105 18.0273L22.2822 18.049L22.3231 17.9862L22.2393 17.9316ZM18.1873 16.238L18.1254 16.1594L18.0063 16.2531L18.1393 16.3258L18.1873 16.238ZM18.542 44.6904L18.4918 44.6039L18.3606 44.6801L18.4824 44.7706L18.542 44.6904ZM22.3847 42.9463L22.4679 42.8908L22.4253 42.827L22.3526 42.8516L22.3847 42.9463ZM26.663 47.8078L26.6548 47.9074L26.957 47.9324L26.729 47.7326L26.663 47.8078ZM39.8121 44.4182L39.8739 44.4968L39.9931 44.4031L39.86 44.3304L39.8121 44.4182ZM31.3362 47.8075L31.2703 47.7323L31.0423 47.9322L31.3445 47.9072L31.3362 47.8075ZM35.7601 42.7246L35.7889 42.6289L35.7172 42.6073L35.6763 42.6701L35.7601 42.7246ZM11.4493 23.8745H46.5507V23.6745H11.4493V23.8745ZM9.1 26.2239C9.1 24.9272 10.1527 23.8745 11.4493 23.8745V23.6745C10.0423 23.6745 8.9 24.8168 8.9 26.2239H9.1ZM9.1 34.4322V26.2239H8.9V34.4322H9.1ZM11.4493 36.7816C10.1527 36.7816 9.1 35.7289 9.1 34.4322H8.9C8.9 35.8393 10.0423 36.9816 11.4493 36.9816V36.7816ZM46.5507 36.7816H11.4493V36.9816H46.5507V36.7816ZM48.9 34.4322C48.9 35.7289 47.8473 36.7816 46.5507 36.7816V36.9816C47.9577 36.9816 49.1 35.8393 49.1 34.4322H48.9ZM48.9 26.2239V34.4322H49.1V26.2239H48.9ZM46.5507 23.8745C47.8473 23.8745 48.9 24.9272 48.9 26.2239H49.1C49.1 24.8168 47.9577 23.6745 46.5507 23.6745V23.8745ZM39.1982 32.728C39.6989 32.9964 40.4464 33.2284 41.2323 33.2284V33.0284C40.4824 33.0284 39.7672 32.8061 39.2927 32.5518L39.1982 32.728ZM39.245 32.7399H39.2454V32.5399H39.245V32.7399ZM39.0122 33.826L39.3412 32.6672L39.1489 32.6126L38.8198 33.7714L39.0122 33.826ZM41.1346 34.1758C40.2816 34.1758 39.3972 33.951 38.9645 33.7112L38.8675 33.8861C39.337 34.1463 40.2567 34.3758 41.1346 34.3758V34.1758ZM44.1553 31.9809C44.1553 32.5655 43.918 33.1104 43.4271 33.511C42.9347 33.9129 42.1792 34.1758 41.1346 34.1758V34.3758C42.2111 34.3758 43.0159 34.1048 43.5536 33.666C44.0928 33.2259 44.3553 32.6233 44.3553 31.9809H44.1553ZM42.1012 29.803C42.8077 30.0506 43.3211 30.3367 43.6574 30.6881C43.9904 31.0361 44.1553 31.4539 44.1553 31.9809H44.3553C44.3553 31.4059 44.1728 30.9375 43.8019 30.5499C43.4342 30.1657 42.887 29.8665 42.1674 29.6143L42.1012 29.803ZM40.4618 28.4474C40.4618 28.6092 40.4946 28.7537 40.5652 28.8851C40.6354 29.0159 40.7403 29.1283 40.8767 29.2305C41.1462 29.4323 41.5528 29.6042 42.1002 29.8026L42.1684 29.6146C41.6186 29.4153 41.2391 29.252 40.9966 29.0704C40.8771 28.9808 40.7945 28.8894 40.7414 28.7905C40.6885 28.6921 40.6618 28.581 40.6618 28.4474H40.4618ZM41.9271 27.4272C41.4356 27.4272 41.0706 27.5506 40.8261 27.7425C40.581 27.935 40.4618 28.1934 40.4618 28.4474H40.6618C40.6618 28.2584 40.7499 28.0567 40.9497 27.8998C41.1501 27.7424 41.4678 27.6272 41.9271 27.6272V27.4272ZM43.6056 27.8015C43.302 27.6482 42.7136 27.4272 41.9271 27.4272V27.6272C42.6763 27.6272 43.2339 27.8379 43.5154 27.9801L43.6056 27.8015ZM43.8311 26.735L43.4654 27.8599L43.6556 27.9217L44.0213 26.7969L43.8311 26.735ZM41.9515 26.4796C42.828 26.4796 43.4711 26.6588 43.883 26.8561L43.9695 26.6758C43.528 26.4642 42.8549 26.2796 41.9515 26.2796V26.4796ZM39.1503 28.5838C39.1503 27.9914 39.4152 27.4687 39.8953 27.0917C40.3768 26.7136 41.0788 26.4796 41.9515 26.4796V26.2796C41.0445 26.2796 40.296 26.5228 39.7718 26.9344C39.2462 27.347 38.9503 27.9264 38.9503 28.5838H39.1503ZM41.3008 30.7159C40.6305 30.4908 40.0912 30.2153 39.7207 29.8672C39.3533 29.5221 39.1503 29.1046 39.1503 28.5838H38.9503C38.9503 29.1651 39.1801 29.6338 39.5838 30.013C39.9843 30.3893 40.5543 30.6762 41.2371 30.9055L41.3008 30.7159ZM42.8317 32.0833C42.8317 31.7638 42.7149 31.5063 42.4586 31.286C42.2086 31.0712 41.8275 30.8929 41.3008 30.7159L41.2371 30.9055C41.7587 31.0808 42.1089 31.2492 42.3283 31.4377C42.5413 31.6208 42.6317 31.8233 42.6317 32.0833H42.8317ZM41.2323 33.2284C41.7267 33.2284 42.1245 33.1208 42.4015 32.9213C42.682 32.7194 42.8317 32.428 42.8317 32.0833H42.6317C42.6317 32.3634 42.5131 32.5946 42.2847 32.759C42.0527 32.926 41.7008 33.0284 41.2323 33.0284V33.2284ZM14.2218 34.1624V26.5048H14.0218V34.1624H14.2218ZM15.4992 34.0626L14.1218 34.0624L14.1218 34.2624L15.4992 34.2626L15.4992 34.0626ZM15.3992 31.4244V34.1626H15.5992V31.4244H15.3992ZM15.3263 28.1698C15.3871 29.1551 15.3992 30.1637 15.3992 31.4244H15.5992C15.5992 30.163 15.5871 29.1493 15.526 28.1575L15.3263 28.1698ZM15.4329 28.0568L15.3964 28.0682L15.4559 28.2592L15.4924 28.2478L15.4329 28.0568ZM17.0225 30.7466C16.4992 29.9072 15.9531 28.9682 15.5533 28.1101L15.372 28.1946C15.7768 29.0634 16.3278 30.0104 16.8528 30.8524L17.0225 30.7466ZM19.1674 34.1086L17.022 30.7457L16.8534 30.8533L18.9988 34.2162L19.1674 34.1086ZM20.6311 34.0624H19.0831V34.2624H20.6311V34.0624ZM20.5311 26.5048V34.1624H20.7311V26.5048H20.5311ZM19.2415 26.6048H20.6311V26.4048H19.2415V26.6048ZM19.3415 29.1747V26.5048H19.1415V29.1747H19.3415ZM19.4752 32.3465C19.3781 31.3279 19.3415 30.3429 19.3415 29.1747H19.1415C19.1415 30.3473 19.1782 31.3389 19.2761 32.3655L19.4752 32.3465ZM19.3512 32.456H19.3756V32.256H19.3512V32.456ZM17.8654 29.8424C18.4112 30.6902 18.8842 31.5722 19.2602 32.3974L19.4422 32.3145C19.0625 31.481 18.5848 30.5905 18.0335 29.7341L17.8654 29.8424ZM15.7444 26.5591L17.8655 29.8425L18.0334 29.734L15.9124 26.4505L15.7444 26.5591ZM14.1218 26.6048H15.8284V26.4048H14.1218V26.6048ZM26.9578 30.6652H23.8615V30.8652H26.9578V30.6652ZM26.8578 29.6293V30.7652H27.0578V29.6293H26.8578ZM23.8615 29.7293H26.9578V29.5293H23.8615V29.7293ZM23.7615 27.6524V29.6293H23.9615V27.6524H23.7615ZM27.1406 27.5524H23.8615V27.7524H27.1406V27.5524ZM27.0406 26.5048V27.6524H27.2406V26.5048H27.0406ZM22.3621 26.6048H27.1406V26.4048H22.3621V26.6048ZM22.4621 34.1624V26.5048H22.2621V34.1624H22.4621ZM27.3234 34.0624H22.3621V34.2624H27.3234V34.0624ZM27.2234 33.0148V34.1624H27.4234V33.0148H27.2234ZM23.8615 33.1148H27.3234V32.9148H23.8615V33.1148ZM23.7615 30.7652V33.0148H23.9615V30.7652H23.7615ZM27.9584 26.5302L29.9697 34.1878L30.1631 34.137L28.1518 26.4794L27.9584 26.5302ZM29.652 26.4048H28.0551V26.6048H29.652V26.4048ZM30.5297 29.9596L29.7495 26.4829L29.5544 26.5267L30.3346 30.0034L30.5297 29.9596ZM31.0671 32.6341C30.9326 31.8712 30.7372 30.8927 30.5298 29.9598L30.3345 30.0032C30.5414 30.9335 30.7362 31.9092 30.8701 32.6688L31.0671 32.6341ZM30.993 32.5515H30.9686V32.7515H30.993V32.5515ZM31.3831 30.4029C31.1906 31.198 31.0079 31.9524 30.8944 32.635L31.0916 32.6679C31.2037 31.9939 31.3845 31.2469 31.5774 30.45L31.3831 30.4029ZM31.3833 30.4019L31.3832 30.4022L31.5773 30.4507L31.5773 30.4504L31.3833 30.4019ZM31.4931 29.9468C31.4564 30.1002 31.4195 30.2522 31.3831 30.4026L31.5775 30.4497C31.6139 30.2993 31.6508 30.1471 31.6876 29.9935L31.4931 29.9468ZM32.3834 26.4799L31.4935 29.9453L31.6872 29.995L32.5771 26.5297L32.3834 26.4799ZM34.0527 26.4048H32.4803V26.6048H34.0527V26.4048ZM34.9668 30.0043L34.1502 26.4822L33.9553 26.5274L34.772 30.0494L34.9668 30.0043ZM35.4681 32.6028C35.3457 31.77 35.1745 30.9151 34.9669 30.0046L34.7719 30.0491C34.9788 30.9566 35.1489 31.806 35.2702 32.6319L35.4681 32.6028ZM35.3936 32.5173H35.3692V32.7173H35.3936V32.5173ZM35.8569 29.9472C35.6375 30.8793 35.4418 31.7565 35.2951 32.6002L35.4921 32.6345C35.6378 31.7967 35.8324 30.9242 36.0516 29.9931L35.8569 29.9472ZM36.7105 26.4809L35.8572 29.9462L36.0513 29.9941L36.9047 26.5287L36.7105 26.4809ZM38.3315 26.4048H36.8076V26.6048H38.3315V26.4048ZM36.2212 34.1901L38.4275 26.5325L38.2354 26.4771L36.029 34.1347L36.2212 34.1901ZM34.516 34.2624H36.1251V34.0624H34.516V34.2624ZM33.5654 30.584L34.4186 34.1855L34.6133 34.1394L33.7601 30.5379L33.5654 30.584ZM33.1123 28.1413C33.2106 28.9759 33.3578 29.7071 33.5654 30.584L33.7601 30.5379C33.5533 29.665 33.408 28.942 33.311 28.1179L33.1123 28.1413ZM33.1872 28.2296H33.2116V28.0296H33.1872V28.2296ZM32.735 30.5878C32.9799 29.7092 33.139 28.9676 33.2857 28.1472L33.0888 28.112C32.943 28.9275 32.7852 29.6628 32.5423 30.5341L32.735 30.5878ZM31.7845 34.1879L32.7354 30.5864L32.542 30.5354L31.5911 34.1369L31.7845 34.1879ZM30.0664 34.2624H31.6878V34.0624H30.0664V34.2624ZM34.1365 11.5864C32.5003 11.1391 30.7777 10.9 28.9995 10.9V11.1C30.7597 11.1 32.4646 11.3366 34.0838 11.7794L34.1365 11.5864ZM47.3157 23.8343C45.2058 17.8833 40.2781 13.266 34.1365 11.5864L34.0838 11.7794C40.1618 13.4415 45.0391 18.0114 47.1272 23.9011L47.3157 23.8343ZM46.5507 23.8745C46.7739 23.8745 46.9897 23.9057 47.1941 23.9639L47.2489 23.7715C47.0268 23.7083 46.7926 23.6745 46.5507 23.6745V23.8745ZM45.3643 23.8745H46.5507V23.6745H45.3643V23.8745ZM41.0439 17.4495C42.8965 19.2088 44.3398 21.4098 45.2711 23.8107L45.4575 23.7384C44.5161 21.3114 43.0567 19.0852 41.1816 17.3045L41.0439 17.4495ZM41.0368 17.4429L41.0447 17.4502L41.1809 17.3037L41.173 17.2964L41.0368 17.4429ZM40.7335 17.1546C40.835 17.2488 40.9357 17.3444 41.0351 17.4413L41.1747 17.298C41.074 17.1999 40.9721 17.1032 40.8695 17.008L40.7335 17.1546ZM36.5188 19.2154C38.0405 18.6812 39.4919 17.9957 40.8535 17.1667L40.7495 16.9959C39.4 17.8175 37.9613 18.4971 36.4526 19.0267L36.5188 19.2154ZM38.5825 23.7454C38.0885 22.1216 37.4146 20.5489 36.5726 19.0715L36.3988 19.1705C37.2334 20.6348 37.9014 22.1938 38.3912 23.8036L38.5825 23.7454ZM36.6678 23.8745H38.4868V23.6745H36.6678V23.8745ZM34.7141 19.6926C35.4808 21.0016 36.1035 22.3788 36.5728 23.8058L36.7628 23.7433C36.289 22.3027 35.6604 20.9126 34.8867 19.5915L34.7141 19.6926ZM29.8828 20.5245C31.5588 20.4347 33.2152 20.1712 34.8263 19.7386L34.7745 19.5455C33.1768 19.9744 31.5342 20.2357 29.8722 20.3247L29.8828 20.5245ZM29.9775 23.7745V20.4246H29.7775V23.7745H29.9775ZM28.1221 23.8745H29.8775V23.6745H28.1221V23.8745ZM28.0221 20.4551V23.7745H28.2221V20.4551H28.0221ZM23.0697 19.9237C24.7197 20.3111 26.4119 20.5228 28.1202 20.555L28.124 20.3551C26.4297 20.3231 24.7516 20.1131 23.1154 19.729L23.0697 19.9237ZM21.4204 23.8058C21.8686 22.4474 22.4577 21.1365 23.1793 19.876L23.0058 19.7766C22.2777 21.0484 21.683 22.3715 21.2305 23.7432L21.4204 23.8058ZM19.503 23.8745H21.3254V23.6745H19.503V23.8745ZM21.2934 19.3074C20.5082 20.723 19.8762 22.2087 19.4074 23.7453L19.5987 23.8037C20.0633 22.2806 20.6898 20.8079 21.4683 19.4044L21.2934 19.3074ZM16.8265 17.4737C18.2492 18.2885 19.7644 18.9507 21.3507 19.4513L21.4109 19.2606C19.838 18.7642 18.336 18.1077 16.9259 17.3001L16.8265 17.4737ZM12.7283 23.8107C13.6581 21.4143 15.0977 19.2171 16.9451 17.4593L16.8072 17.3144C14.9374 19.0936 13.4817 21.3159 12.5418 23.7383L12.7283 23.8107ZM11.4493 23.8745H12.6351V23.6745H11.4493V23.8745ZM10.8048 23.9642C11.0095 23.9058 11.2257 23.8745 11.4493 23.8745V23.6745C11.207 23.6745 10.9723 23.7084 10.75 23.7718L10.8048 23.9642ZM23.8599 11.5874C17.7192 13.2673 12.7926 17.8843 10.6831 23.8346L10.8716 23.9014C12.9594 18.0124 17.8356 13.4429 23.9127 11.7803L23.8599 11.5874ZM28.9995 10.9C27.2213 10.9 25.4969 11.1392 23.8599 11.5874L23.9127 11.7803C25.5326 11.3368 27.2393 11.1 28.9995 11.1V10.9ZM10.6832 36.8215C12.793 42.7726 17.7208 47.39 23.8625 49.0696L23.9152 48.8767C17.8371 47.2145 12.9598 42.6445 10.8717 36.7547L10.6832 36.8215ZM23.8625 49.0696C25.4987 49.517 27.2213 49.756 28.9995 49.756V49.556C27.2393 49.556 25.5344 49.3194 23.9152 48.8767L23.8625 49.0696ZM28.9995 49.756C30.7777 49.756 32.5022 49.5168 34.1391 49.0687L34.0863 48.8758C32.4664 49.3192 30.7597 49.556 28.9995 49.556V49.756ZM34.1391 49.0687C40.2795 47.3887 45.2062 42.772 47.3157 36.8218L47.1272 36.755C45.0394 42.6438 40.1632 47.2132 34.0863 48.8758L34.1391 49.0687ZM47.1941 36.6922C46.9897 36.7504 46.7739 36.7816 46.5507 36.7816V36.9816C46.7926 36.9816 47.0268 36.9478 47.2489 36.8846L47.1941 36.6922ZM46.5507 36.7816H45.3636V36.9816H46.5507V36.7816ZM45.2703 36.8454C44.3406 39.2418 42.9009 41.4389 41.0536 43.1967L41.1914 43.3416C43.0612 41.5625 44.517 39.3402 45.4568 36.9177L45.2703 36.8454ZM41.1722 43.1824C39.7494 42.3676 38.2343 41.7051 36.6479 41.2046L36.5878 41.3953C38.1606 41.8916 39.6626 42.5484 41.0728 43.3559L41.1722 43.1824ZM36.7053 41.3484C37.4904 39.9329 38.1224 38.4473 38.5912 36.9107L38.3999 36.8524C37.9353 38.3754 37.3088 39.848 36.5304 41.2514L36.7053 41.3484ZM38.4956 36.7816H36.6742V36.9816H38.4956V36.7816ZM36.5792 36.8502C36.131 38.2088 35.5419 39.5196 34.8202 40.7802L34.9938 40.8796C35.7219 39.6078 36.3166 38.2847 36.7691 36.9129L36.5792 36.8502ZM34.9299 40.7326C33.2799 40.3452 31.5877 40.1334 29.8794 40.1012L29.8756 40.3011C31.5699 40.3331 33.248 40.5431 34.8842 40.9273L34.9299 40.7326ZM29.9775 40.2012V36.8816H29.7775V40.2012H29.9775ZM29.8775 36.7816H28.1221V36.9816H29.8775V36.7816ZM28.0221 36.8816V40.2314H28.2221V36.8816H28.0221ZM28.1167 40.1316C26.4408 40.2213 24.7844 40.4849 23.1733 40.9174L23.2251 41.1106C24.8227 40.6817 26.4654 40.4203 28.1274 40.3313L28.1167 40.1316ZM23.2855 40.9635C22.5187 39.6544 21.896 38.2774 21.4268 36.8503L21.2368 36.9128C21.7105 38.3535 22.3391 39.7434 23.1129 41.0645L23.2855 40.9635ZM21.3318 36.7816H19.5119V36.9816H21.3318V36.7816ZM19.4162 36.9107C19.9102 38.5344 20.5841 40.107 21.4261 41.5844L21.5998 41.4853C20.7653 40.0211 20.0973 38.4622 19.6076 36.8525L19.4162 36.9107ZM21.4798 41.4405C19.9581 41.9746 18.5067 42.6603 17.1452 43.4891L17.2491 43.66C18.5986 42.8385 20.0374 42.1588 21.5461 41.6292L21.4798 41.4405ZM17.2652 43.5012C17.1637 43.4071 17.063 43.3115 16.9636 43.2146L16.824 43.3578C16.9246 43.4559 17.0265 43.5526 17.1291 43.6478L17.2652 43.5012ZM16.961 43.2122L16.9531 43.205L16.8187 43.3531L16.8266 43.3603L16.961 43.2122ZM16.9548 43.2066C15.1022 41.4472 13.6589 39.2463 12.7276 36.8454L12.5411 36.9177C13.4826 39.3447 14.942 41.5708 16.817 43.3516L16.9548 43.2066ZM12.6344 36.7816H11.4493V36.9816H12.6344V36.7816ZM11.4493 36.7816C11.2257 36.7816 11.0096 36.7503 10.8048 36.6919L10.75 36.8843C10.9724 36.9477 11.207 36.9816 11.4493 36.9816V36.7816ZM39.4068 15.8792C38.1854 16.5888 36.9031 17.1674 35.5822 17.615L35.6464 17.8044C36.9797 17.3527 38.2741 16.7685 39.5072 16.0521L39.4068 15.8792ZM31.3277 12.9479C34.1747 13.1838 37.0073 14.2698 39.3974 16.0459L39.5166 15.8854C37.0979 14.0879 34.2299 12.9877 31.3442 12.7486L31.3277 12.9479ZM35.6975 17.6542C34.5134 15.8799 33.0738 14.2389 31.4019 12.7731L31.2701 12.9235C32.9291 14.378 34.357 16.0059 35.5312 17.7652L35.6975 17.6542ZM29.8126 13.8732C31.3592 15.1931 32.6971 16.672 33.8076 18.2725L33.9719 18.1585C32.8514 16.5436 31.5018 15.0519 29.9424 13.7211L29.8126 13.8732ZM29.9775 18.8254V13.7971H29.7775V18.8254H29.9775ZM33.8656 18.1185C32.5547 18.4444 31.2167 18.6468 29.8717 18.7255L29.8833 18.9252C31.2406 18.8457 32.5908 18.6415 33.9139 18.3125L33.8656 18.1185ZM29.8754 41.8973C31.2546 41.9259 32.6314 42.084 33.9836 42.3719L34.0253 42.1763C32.6606 41.8857 31.2713 41.7262 29.8796 41.6973L29.8754 41.8973ZM29.9775 46.8591V41.7973H29.7775V46.8591H29.9775ZM33.9218 42.2178C32.7894 43.882 31.4124 45.4176 29.8126 46.783L29.9424 46.9352C31.5554 45.5584 32.9445 44.0096 34.0871 42.3303L33.9218 42.2178ZM28.9002 48.6153V48.6193H29.1002V48.6153H28.9002ZM28.9997 48.7153H29.0002V48.5153H28.9997V48.7153ZM29.0993 48.6058L29.0988 48.6017L28.9006 48.6288L28.9012 48.6328L29.0993 48.6058ZM28.0221 13.7973V18.8591H28.2221V13.7973H28.0221ZM24.0778 18.4386C25.2102 16.7744 26.5872 15.2388 28.187 13.8734L28.0572 13.7212C26.4441 15.098 25.0551 16.6468 23.9125 18.3261L24.0778 18.4386ZM28.1242 18.7591C26.745 18.7305 25.3682 18.5724 24.016 18.2845L23.9743 18.4801C25.339 18.7707 26.7283 18.9302 28.12 18.9591L28.1242 18.7591ZM28.0221 41.8307V46.8591H28.2221V41.8307H28.0221ZM24.134 42.5378C25.4449 42.2119 26.7829 42.0094 28.1279 41.9305L28.1162 41.7309C26.759 41.8105 25.4087 42.0148 24.0857 42.3437L24.134 42.5378ZM28.187 46.783C26.6404 45.4631 25.3025 43.9842 24.192 42.3837L24.0277 42.4977C25.1482 44.1126 26.4978 45.6043 28.0572 46.9352L28.187 46.783ZM26.5972 12.7735C24.856 14.3002 23.3669 16.0173 22.1555 17.877L22.3231 17.9862C23.5243 16.1421 25.0012 14.4388 26.7291 12.9239L26.5972 12.7735ZM22.2682 17.8358C20.8777 17.4164 19.5247 16.8544 18.2352 16.1502L18.1393 16.3258C19.4412 17.0366 20.807 17.604 22.2105 18.0273L22.2682 17.8358ZM18.2491 16.3166C20.7101 14.3808 23.6828 13.1962 26.6714 12.9483L26.6549 12.749C23.6257 13.0002 20.6161 14.2003 18.1254 16.1594L18.2491 16.3166ZM18.5923 44.7768C19.8136 44.0673 21.0959 43.4886 22.4168 43.041L22.3526 42.8516C21.0193 43.3034 19.7249 43.8875 18.4918 44.6039L18.5923 44.7768ZM26.6713 47.7081C23.8244 47.4722 20.9917 46.3863 18.6017 44.6101L18.4824 44.7706C20.9011 46.5681 23.7691 47.6683 26.6548 47.9074L26.6713 47.7081ZM22.3015 43.0019C23.4856 44.7761 24.9252 46.4172 26.5971 47.8829L26.729 47.7326C25.0699 46.2781 23.642 44.6502 22.4679 42.8908L22.3015 43.0019ZM39.7503 44.3396C37.2893 46.2755 34.3166 47.4601 31.328 47.7079L31.3445 47.9072C34.3737 47.656 37.3833 46.4559 39.8739 44.4968L39.7503 44.3396ZM35.7312 42.8204C37.1217 43.2398 38.4747 43.8019 39.7642 44.506L39.86 44.3304C38.5582 43.6196 37.1924 43.0522 35.7889 42.6289L35.7312 42.8204ZM31.4022 47.8827C33.1434 46.356 34.6325 44.6389 35.8438 42.7792L35.6763 42.6701C34.4751 44.5141 32.9982 46.2174 31.2703 47.7323L31.4022 47.8827Z" fill="black" mask="url(#path-2-inside-1_748_1527)"/>
<path d="M61.368 24.64H64.488L63.592 28.832H66.984L67.88 24.64H71L68.584 36H65.464L66.408 31.552H63.016L62.072 36H58.952L61.368 24.64ZM76.0661 36.096C75.2021 36.096 74.4395 35.936 73.7781 35.616C73.1275 35.2853 72.5888 34.848 72.1621 34.304C71.7355 33.7493 71.4315 33.1307 71.2501 32.448C71.0795 31.7547 71.0421 31.04 71.1381 30.304C71.2448 29.5467 71.4901 28.8267 71.8741 28.144C72.2581 27.4613 72.7488 26.8533 73.3461 26.32C73.9435 25.776 74.6155 25.3493 75.3621 25.04C76.1195 24.7307 76.9195 24.576 77.7621 24.576C78.6261 24.576 79.3835 24.7413 80.0341 25.072C80.6955 25.392 81.2395 25.8293 81.6661 26.384C82.0928 26.9387 82.3915 27.5627 82.5621 28.256C82.7328 28.9387 82.7701 29.6427 82.6741 30.368C82.5675 31.1147 82.3221 31.8293 81.9381 32.512C81.5648 33.1947 81.0795 33.808 80.4821 34.352C79.8955 34.8853 79.2235 35.312 78.4661 35.632C77.7195 35.9413 76.9195 36.096 76.0661 36.096ZM76.4981 33.328C76.9461 33.328 77.3461 33.2427 77.6981 33.072C78.0501 32.9013 78.3488 32.672 78.5941 32.384C78.8501 32.0853 79.0528 31.76 79.2021 31.408C79.3515 31.0453 79.4528 30.6773 79.5061 30.304C79.5595 29.92 79.5595 29.552 79.5061 29.2C79.4528 28.848 79.3355 28.5333 79.1541 28.256C78.9728 27.968 78.7275 27.744 78.4181 27.584C78.1195 27.424 77.7515 27.344 77.3141 27.344C76.8661 27.344 76.4661 27.4293 76.1141 27.6C75.7621 27.7707 75.4581 28 75.2021 28.288C74.9568 28.5653 74.7595 28.8853 74.6101 29.248C74.4608 29.6 74.3595 29.9627 74.3061 30.336C74.2528 30.72 74.2528 31.0933 74.3061 31.456C74.3701 31.808 74.4875 32.128 74.6581 32.416C74.8288 32.6933 75.0635 32.9173 75.3621 33.088C75.6715 33.248 76.0501 33.328 76.4981 33.328ZM85.2274 24.64H91.5794C92.006 24.64 92.358 24.752 92.6354 24.976C92.9234 25.2 93.1367 25.488 93.2754 25.84C93.4247 26.192 93.4994 26.5707 93.4994 26.976C93.4994 27.392 93.414 27.8133 93.2434 28.24C93.0727 28.656 92.822 29.0347 92.4914 29.376C92.1714 29.7173 91.7767 29.984 91.3074 30.176C91.7767 30.3253 92.1394 30.592 92.3954 30.976C92.662 31.3493 92.7954 31.824 92.7954 32.4C92.7954 33.04 92.6674 33.5893 92.4114 34.048C92.166 34.496 91.8247 34.864 91.3874 35.152C90.95 35.44 90.4487 35.6533 89.8834 35.792C89.3287 35.9307 88.7474 36 88.1394 36H82.8114L85.2274 24.64ZM88.6994 33.376C88.8274 33.376 88.95 33.3493 89.0674 33.296C89.1954 33.2427 89.302 33.168 89.3874 33.072C89.4834 32.9653 89.558 32.8373 89.6114 32.688C89.6754 32.5387 89.7074 32.3733 89.7074 32.192C89.7074 32.0533 89.686 31.9307 89.6434 31.824C89.6007 31.7173 89.542 31.632 89.4674 31.568C89.3927 31.504 89.302 31.472 89.1954 31.472H86.8914L86.4914 33.376H88.6994ZM89.2914 29.04C89.398 29.04 89.5047 29.024 89.6114 28.992C89.718 28.9493 89.8194 28.8853 89.9154 28.8C90.0114 28.7147 90.086 28.6027 90.1394 28.464C90.2034 28.3147 90.2354 28.128 90.2354 27.904C90.2354 27.6907 90.1874 27.536 90.0914 27.44C90.006 27.344 89.894 27.296 89.7554 27.296H87.7874L87.4034 29.04H89.2914ZM99.0193 36.096C98.1553 36.096 97.3926 35.936 96.7313 35.616C96.0806 35.2853 95.5419 34.848 95.1153 34.304C94.6886 33.7493 94.3846 33.1307 94.2033 32.448C94.0326 31.7547 93.9953 31.04 94.0913 30.304C94.1979 29.5467 94.4433 28.8267 94.8273 28.144C95.2113 27.4613 95.7019 26.8533 96.2993 26.32C96.8966 25.776 97.5686 25.3493 98.3153 25.04C99.0726 24.7307 99.8726 24.576 100.715 24.576C101.579 24.576 102.337 24.7413 102.987 25.072C103.649 25.392 104.193 25.8293 104.619 26.384C105.046 26.9387 105.345 27.5627 105.515 28.256C105.686 28.9387 105.723 29.6427 105.627 30.368C105.521 31.1147 105.275 31.8293 104.891 32.512C104.518 33.1947 104.033 33.808 103.435 34.352C102.849 34.8853 102.177 35.312 101.419 35.632C100.673 35.9413 99.8726 36.096 99.0193 36.096ZM99.4513 33.328C99.8993 33.328 100.299 33.2427 100.651 33.072C101.003 32.9013 101.302 32.672 101.547 32.384C101.803 32.0853 102.006 31.76 102.155 31.408C102.305 31.0453 102.406 30.6773 102.459 30.304C102.513 29.92 102.513 29.552 102.459 29.2C102.406 28.848 102.289 28.5333 102.107 28.256C101.926 27.968 101.681 27.744 101.371 27.584C101.073 27.424 100.705 27.344 100.267 27.344C99.8193 27.344 99.4193 27.4293 99.0673 27.6C98.7153 27.7707 98.4113 28 98.1553 28.288C97.9099 28.5653 97.7126 28.8853 97.5633 29.248C97.4139 29.6 97.3126 29.9627 97.2593 30.336C97.2059 30.72 97.2059 31.0933 97.2593 31.456C97.3233 31.808 97.4406 32.128 97.6113 32.416C97.7819 32.6933 98.0166 32.9173 98.3153 33.088C98.6246 33.248 99.0033 33.328 99.4513 33.328ZM111.269 36.096C110.426 36.096 109.679 35.9307 109.029 35.6C108.378 35.2587 107.839 34.8107 107.413 34.256C106.986 33.6907 106.682 33.0613 106.501 32.368C106.319 31.664 106.282 30.9493 106.389 30.224C106.485 29.5307 106.709 28.8533 107.061 28.192C107.423 27.52 107.893 26.912 108.469 26.368C109.045 25.824 109.717 25.392 110.485 25.072C111.253 24.7413 112.09 24.576 112.997 24.576C114.085 24.576 115.002 24.8053 115.749 25.264C116.495 25.712 117.013 26.3093 117.301 27.056L114.677 28.752C114.591 28.3787 114.431 28.0907 114.197 27.888C113.962 27.6853 113.695 27.5467 113.397 27.472C113.109 27.3867 112.821 27.344 112.533 27.344C112.085 27.344 111.685 27.4347 111.333 27.616C110.991 27.7867 110.693 28.016 110.437 28.304C110.191 28.592 109.994 28.912 109.845 29.264C109.695 29.616 109.594 29.968 109.541 30.32C109.487 30.7147 109.493 31.0933 109.557 31.456C109.631 31.8187 109.759 32.144 109.941 32.432C110.122 32.7093 110.362 32.928 110.661 33.088C110.97 33.248 111.327 33.328 111.733 33.328C112.021 33.328 112.319 33.2853 112.629 33.2C112.938 33.104 113.231 32.9547 113.509 32.752C113.786 32.5493 114.01 32.2773 114.181 31.936L116.517 33.456C116.218 34.0107 115.775 34.4853 115.189 34.88C114.613 35.2747 113.978 35.5787 113.285 35.792C112.591 35.9947 111.919 36.096 111.269 36.096ZM121.205 27.36H118.149L118.725 24.64H127.941L127.365 27.36H124.325L122.485 36H119.365L121.205 27.36ZM126.702 36L129.102 24.64H132.222L130.734 31.664L136.03 24.64H138.942L136.542 36H133.422L134.83 29.392L129.662 36H126.702Z" fill="white"/>
<defs>
<linearGradient id="paint0_linear_748_1527" x1="171" y1="30.0001" x2="-6.97675e-07" y2="30.0001" gradientUnits="userSpaceOnUse">
<stop stop-color="#0B0B17" stop-opacity="0"/>
<stop offset="0.335108" stop-color="#0D443E" stop-opacity="0.34"/>
<stop offset="0.473677" stop-color="#0D4B43" stop-opacity="0.5"/>
<stop offset="0.648803" stop-color="#0D443E" stop-opacity="0.32"/>
<stop offset="1" stop-color="#0B0B17" stop-opacity="0"/>
</linearGradient>
<linearGradient id="paint1_linear_748_1527" x1="1.27405e-06" y1="30" x2="162.45" y2="30" gradientUnits="userSpaceOnUse">
<stop stop-opacity="0"/>
<stop offset="0.260841" stop-color="#24CAB6"/>
<stop offset="0.721452" stop-color="#24CAB6" stop-opacity="0.882827"/>
<stop offset="1" stop-opacity="0"/>
</linearGradient>
<linearGradient id="paint2_linear_748_1527" x1="9.58511" y1="30.401" x2="45.7819" y2="30.401" gradientUnits="userSpaceOnUse">
<stop stop-color="#BAFB02"/>
<stop offset="1" stop-color="#06AEE5"/>
</linearGradient>
<linearGradient id="paint3_linear_748_1527" x1="9.58511" y1="30.401" x2="45.7819" y2="30.401" gradientUnits="userSpaceOnUse">
<stop stop-color="#BAFB02"/>
<stop offset="1" stop-color="#06AEE5"/>
</linearGradient>
<linearGradient id="paint4_linear_748_1527" x1="9.58511" y1="30.401" x2="45.7819" y2="30.401" gradientUnits="userSpaceOnUse">
<stop stop-color="#BAFB02"/>
<stop offset="1" stop-color="#06AEE5"/>
</linearGradient>
</defs>
</svg>
