<svg width="54" height="54" viewBox="0 0 54 54" fill="none" xmlns="http://www.w3.org/2000/svg">
<path d="M54 27C54 12.088 41.912 0 27 0C12.088 0 0 12.088 0 27C0 40.476 9.872 51.648 22.78 53.672V34.804H15.924V27H22.78V21.052C22.78 14.284 26.812 10.548 32.98 10.548C35.936 10.548 39.024 11.076 39.024 11.076V17.72H35.62C32.268 17.72 31.22 19.8 31.22 21.936V27H38.708L37.512 34.804H31.22V53.672C44.128 51.648 54 40.476 54 27Z" fill="#4676ED"/>
<path d="M37.5079 34.8039L38.7039 26.9999H31.2159V21.9359C31.2159 19.7999 32.2599 17.7199 35.6159 17.7199H39.0199V11.0759C39.0199 11.0759 35.9319 10.5479 32.9759 10.5479C26.8079 10.5479 22.7759 14.2839 22.7759 21.0519V26.9999H15.9199V34.8039H22.7759V53.6718C24.1519 53.8878 25.5599 53.9999 26.9959 53.9999C28.4319 53.9999 29.8399 53.8878 31.2159 53.6718V34.8039H37.5079Z" fill="white"/>
</svg>
