<svg width="54" height="54" viewBox="0 0 54 54" fill="none" xmlns="http://www.w3.org/2000/svg">
<path d="M27 54C41.9117 54 54 41.9117 54 27C54 12.0883 41.9117 0 27 0C12.0883 0 0 12.0883 0 27C0 41.9117 12.0883 54 27 54Z" fill="url(#paint0_linear_533_143)"/>
<path d="M18.2765 28.972L21.4805 37.84C21.4805 37.84 21.8805 38.668 22.3085 38.668C22.7365 38.668 29.1165 32.032 29.1165 32.032L36.2085 18.332L18.3885 26.684L18.2725 28.972H18.2765Z" fill="#C8DAEA"/>
<path d="M22.5241 31.248L21.9081 37.784C21.9081 37.784 21.6521 39.788 23.6521 37.784C25.6561 35.78 27.5721 34.236 27.5721 34.236L22.5241 31.248Z" fill="#A9C6D8"/>
<path d="M17.1712 29.0327L10.5832 26.8847C10.5832 26.8847 9.79516 26.5647 10.0512 25.8407C10.1032 25.6927 10.2072 25.5647 10.5232 25.3447C11.9832 24.3287 37.5472 15.1367 37.5472 15.1367C37.5472 15.1367 38.2672 14.8927 38.6952 15.0567C38.8912 15.1287 39.0152 15.2127 39.1192 15.5207C39.1592 15.6327 39.1792 15.8687 39.1752 16.1007C39.1752 16.2687 39.1512 16.4287 39.1352 16.6727C38.9792 19.1847 34.3192 37.9327 34.3192 37.9327C34.3192 37.9327 34.0392 39.0287 33.0432 39.0687C32.6792 39.0807 32.2352 39.0087 31.7072 38.5527C29.7472 36.8647 22.9712 32.3127 21.4752 31.3127C21.3912 31.2567 21.3672 31.1847 21.3512 31.1127C21.3312 31.0087 21.4432 30.8767 21.4432 30.8767C21.4432 30.8767 33.2392 20.3927 33.5512 19.2927C33.5752 19.2087 33.4832 19.1647 33.3592 19.2007C32.5752 19.4887 18.9952 28.0647 17.4952 29.0127C17.4072 29.0687 17.1632 29.0327 17.1632 29.0327H17.1712Z" fill="white"/>
<defs>
<linearGradient id="paint0_linear_533_143" x1="27" y1="54" x2="27" y2="0" gradientUnits="userSpaceOnUse">
<stop stop-color="#1D93D2"/>
<stop offset="1" stop-color="#38B0E3"/>
</linearGradient>
</defs>
</svg>
