<svg width="54" height="54" viewBox="0 0 54 54" fill="none" xmlns="http://www.w3.org/2000/svg">
<g clip-path="url(#clip0_533_131)">
<path d="M27 54C41.9117 54 54 41.9117 54 27C54 12.0883 41.9117 0 27 0C12.0883 0 0 12.0883 0 27C0 41.9117 12.0883 54 27 54Z" fill="#5A99EC"/>
<path d="M21.5436 42.5523C34.7316 42.5523 41.9436 31.6283 41.9436 22.1523C41.9436 21.8403 41.9356 21.5323 41.9236 21.2243C43.3236 20.2123 44.5396 18.9483 45.4996 17.5123C44.2156 18.0843 42.8316 18.4683 41.3836 18.6403C42.8636 17.7523 43.9996 16.3483 44.5356 14.6763C43.1516 15.4963 41.6156 16.0963 39.9836 16.4163C38.6756 15.0243 36.8116 14.1523 34.7516 14.1523C30.7916 14.1523 27.5796 17.3643 27.5796 21.3203C27.5796 21.8843 27.6436 22.4283 27.7676 22.9563C21.8076 22.6563 16.5236 19.8043 12.9916 15.4643C12.3756 16.5243 12.0196 17.7563 12.0196 19.0683C12.0196 21.5563 13.2836 23.7523 15.2116 25.0363C14.0356 25.0003 12.9316 24.6763 11.9636 24.1403C11.9636 24.1683 11.9636 24.2003 11.9636 24.2323C11.9636 27.7043 14.4356 30.6043 17.7156 31.2603C17.1116 31.4243 16.4796 31.5123 15.8276 31.5123C15.3676 31.5123 14.9156 31.4683 14.4796 31.3843C15.3916 34.2323 18.0396 36.3043 21.1756 36.3643C18.7196 38.2883 15.6316 39.4323 12.2716 39.4323C11.6916 39.4323 11.1236 39.4003 10.5596 39.3323C13.7316 41.3643 17.4996 42.5523 21.5476 42.5523" fill="white"/>
</g>
<defs>
<clipPath id="clip0_533_131">
<rect width="54" height="54" fill="white"/>
</clipPath>
</defs>
</svg>
