<svg width="54" height="54" viewBox="0 0 54 54" fill="none" xmlns="http://www.w3.org/2000/svg">
<g clip-path="url(#clip0_533_125)">
<path d="M27 54C41.9117 54 54 41.9117 54 27C54 12.0883 41.9117 0 27 0C12.0883 0 0 12.0883 0 27C0 41.9117 12.0883 54 27 54Z" fill="url(#paint0_linear_533_125)"/>
<path fill-rule="evenodd" clip-rule="evenodd" d="M39.9875 14.3442C36.7555 11.1082 32.4515 9.32422 27.8715 9.32422C18.4315 9.32422 10.7475 17.0042 10.7435 26.4442C10.7435 29.4602 11.5315 32.4082 13.0315 35.0042L10.6035 43.8762L19.6835 41.4962C22.1835 42.8602 25.0035 43.5802 27.8675 43.5802H27.8755C37.3155 43.5802 44.9995 35.9002 45.0035 26.4562C45.0035 21.8802 43.2235 17.5802 39.9915 14.3442H39.9875ZM27.8715 40.6882H27.8675C25.3115 40.6882 22.8075 40.0002 20.6235 38.7042L20.1035 38.3962L14.7155 39.8082L16.1555 34.5562L15.8155 34.0162C14.3915 31.7522 13.6395 29.1322 13.6395 26.4442C13.6395 18.5962 20.0275 12.2122 27.8835 12.2122C31.6875 12.2122 35.2595 13.6962 37.9475 16.3842C40.6355 19.0762 42.1155 22.6482 42.1115 26.4522C42.1115 34.3002 35.7235 40.6842 27.8755 40.6842L27.8715 40.6882ZM35.6795 30.0282C35.2515 29.8122 33.1475 28.7802 32.7555 28.6362C32.3635 28.4922 32.0795 28.4202 31.7915 28.8522C31.5075 29.2802 30.6875 30.2442 30.4355 30.5282C30.1875 30.8122 29.9355 30.8482 29.5075 30.6362C29.0795 30.4202 27.6995 29.9722 26.0675 28.5122C24.7955 27.3762 23.9355 25.9762 23.6875 25.5482C23.4395 25.1202 23.6595 24.8882 23.8755 24.6762C24.0675 24.4842 24.3035 24.1762 24.5155 23.9282C24.7275 23.6802 24.7995 23.5002 24.9435 23.2162C25.0875 22.9322 25.0155 22.6802 24.9075 22.4682C24.7995 22.2522 23.9435 20.1482 23.5875 19.2922C23.2395 18.4562 22.8875 18.5722 22.6235 18.5562C22.3755 18.5442 22.0875 18.5402 21.8035 18.5402C21.5195 18.5402 21.0555 18.6482 20.6635 19.0762C20.2715 19.5042 19.1675 20.5402 19.1675 22.6442C19.1675 24.7482 20.6995 26.7842 20.9155 27.0682C21.1275 27.3522 23.9315 31.6762 28.2275 33.5282C29.2475 33.9682 30.0475 34.2322 30.6675 34.4282C31.6915 34.7522 32.6275 34.7082 33.3635 34.5962C34.1875 34.4722 35.8955 33.5602 36.2515 32.5602C36.6075 31.5602 36.6075 30.7042 36.4995 30.5242C36.3915 30.3442 36.1075 30.2402 35.6795 30.0242V30.0282Z" fill="white"/>
</g>
<defs>
<linearGradient id="paint0_linear_533_125" x1="27" y1="50.076" x2="27" y2="-3.924" gradientUnits="userSpaceOnUse">
<stop stop-color="#78CD51"/>
<stop offset="1" stop-color="#A0FC84"/>
</linearGradient>
<clipPath id="clip0_533_125">
<rect width="54" height="54" fill="white"/>
</clipPath>
</defs>
</svg>
