<svg width="80" height="119" viewBox="0 0 80 119" fill="none" xmlns="http://www.w3.org/2000/svg">
<path d="M80 40C80 62.0914 62.0914 80 40 80C17.9086 80 0 62.0914 0 40C0 17.9086 17.9086 0 40 0C62.0914 0 80 17.9086 80 40Z" fill="#0099DE"/>
<path fill-rule="evenodd" clip-rule="evenodd" d="M27.0222 14.9333H45.5612C52.8268 14.9333 58.7167 20.8233 58.7167 28.0889V33.4723C58.7167 40.7379 52.8268 46.6279 45.5612 46.6279H35.2129V65.5021H27.0222V14.9333ZM43.7699 23.8362H35.213V38.081H43.7699C47.3045 38.081 50.1699 35.2156 50.1699 31.681V30.2362C50.1699 26.7016 47.3045 23.8362 43.7699 23.8362Z" fill="white"/>
<path d="M8.60891 114V99.8H14.6289C15.2822 99.8 15.8822 99.9333 16.4289 100.2C16.9756 100.467 17.4489 100.827 17.8489 101.28C18.2622 101.733 18.5822 102.24 18.8089 102.8C19.0356 103.36 19.1489 103.933 19.1489 104.52C19.1489 105.32 18.9622 106.08 18.5889 106.8C18.2156 107.52 17.7022 108.107 17.0489 108.56C16.3956 109.013 15.6222 109.24 14.7289 109.24H11.3689V114H8.60891ZM11.3689 106.82H14.5689C14.9022 106.82 15.2022 106.727 15.4689 106.54C15.7356 106.353 15.9489 106.087 16.1089 105.74C16.2689 105.38 16.3489 104.973 16.3489 104.52C16.3489 104.027 16.2556 103.607 16.0689 103.26C15.8956 102.913 15.6622 102.653 15.3689 102.48C15.0889 102.307 14.7822 102.22 14.4489 102.22H11.3689V106.82ZM19.9531 110.9C19.9531 110.22 20.1398 109.627 20.5131 109.12C20.8998 108.6 21.4331 108.2 22.1131 107.92C22.7931 107.64 23.5731 107.5 24.4531 107.5C24.8931 107.5 25.3398 107.533 25.7931 107.6C26.2465 107.667 26.6398 107.773 26.9731 107.92V107.36C26.9731 106.693 26.7731 106.18 26.3731 105.82C25.9865 105.46 25.4065 105.28 24.6331 105.28C24.0598 105.28 23.5131 105.38 22.9931 105.58C22.4731 105.78 21.9265 106.073 21.3531 106.46L20.4931 104.7C21.1865 104.247 21.8931 103.907 22.6131 103.68C23.3465 103.453 24.1131 103.34 24.9131 103.34C26.4065 103.34 27.5665 103.713 28.3931 104.46C29.2331 105.207 29.6531 106.273 29.6531 107.66V111C29.6531 111.28 29.6998 111.48 29.7931 111.6C29.8998 111.72 30.0665 111.793 30.2931 111.82V114C30.0531 114.04 29.8331 114.073 29.6331 114.1C29.4465 114.127 29.2865 114.14 29.1531 114.14C28.6198 114.14 28.2131 114.02 27.9331 113.78C27.6665 113.54 27.4998 113.247 27.4331 112.9L27.3731 112.36C26.9198 112.947 26.3531 113.4 25.6731 113.72C24.9931 114.04 24.2998 114.2 23.5931 114.2C22.8998 114.2 22.2731 114.06 21.7131 113.78C21.1665 113.487 20.7331 113.093 20.4131 112.6C20.1065 112.093 19.9531 111.527 19.9531 110.9ZM26.4731 111.44C26.6198 111.28 26.7398 111.12 26.8331 110.96C26.9265 110.8 26.9731 110.653 26.9731 110.52V109.46C26.6531 109.327 26.3065 109.227 25.9331 109.16C25.5598 109.08 25.2065 109.04 24.8731 109.04C24.1798 109.04 23.6065 109.193 23.1531 109.5C22.7131 109.793 22.4931 110.187 22.4931 110.68C22.4931 110.947 22.5665 111.2 22.7131 111.44C22.8598 111.68 23.0731 111.873 23.3531 112.02C23.6331 112.167 23.9665 112.24 24.3531 112.24C24.7531 112.24 25.1465 112.167 25.5331 112.02C25.9198 111.86 26.2331 111.667 26.4731 111.44ZM31.9869 116.04C32.2269 116.093 32.4469 116.14 32.6469 116.18C32.8602 116.22 33.0402 116.24 33.1869 116.24C33.4402 116.24 33.6469 116.173 33.8069 116.04C33.9802 115.92 34.1469 115.693 34.3069 115.36C34.4669 115.04 34.6335 114.587 34.8069 114L30.6669 103.52H33.4469L36.2669 111.26L38.7469 103.52H41.3069L36.9069 116.08C36.7469 116.547 36.5002 116.967 36.1669 117.34C35.8469 117.727 35.4402 118.027 34.9469 118.24C34.4669 118.467 33.9269 118.58 33.3269 118.58C33.1135 118.58 32.9002 118.56 32.6869 118.52C32.4735 118.493 32.2402 118.44 31.9869 118.36V116.04ZM47.2714 114.2C46.4314 114.2 45.6714 114.06 44.9914 113.78C44.3114 113.487 43.7314 113.093 43.2514 112.6C42.7714 112.093 42.3981 111.52 42.1314 110.88C41.8781 110.227 41.7514 109.54 41.7514 108.82C41.7514 107.82 41.9714 106.907 42.4114 106.08C42.8647 105.253 43.5047 104.593 44.3314 104.1C45.1714 103.593 46.1581 103.34 47.2914 103.34C48.4381 103.34 49.4181 103.593 50.2314 104.1C51.0447 104.593 51.6647 105.253 52.0914 106.08C52.5314 106.893 52.7514 107.773 52.7514 108.72C52.7514 108.88 52.7447 109.047 52.7314 109.22C52.7181 109.38 52.7047 109.513 52.6914 109.62H44.5914C44.6447 110.153 44.7981 110.62 45.0514 111.02C45.3181 111.42 45.6514 111.727 46.0514 111.94C46.4647 112.14 46.9047 112.24 47.3714 112.24C47.9047 112.24 48.4047 112.113 48.8714 111.86C49.3514 111.593 49.6781 111.247 49.8514 110.82L52.1514 111.46C51.8981 111.993 51.5314 112.467 51.0514 112.88C50.5847 113.293 50.0314 113.62 49.3914 113.86C48.7514 114.087 48.0447 114.2 47.2714 114.2ZM44.5314 107.92H50.0114C49.9581 107.387 49.8047 106.927 49.5514 106.54C49.3114 106.14 48.9914 105.833 48.5914 105.62C48.1914 105.393 47.7447 105.28 47.2514 105.28C46.7714 105.28 46.3314 105.393 45.9314 105.62C45.5447 105.833 45.2247 106.14 44.9714 106.54C44.7314 106.927 44.5847 107.387 44.5314 107.92ZM59.2441 114.2C58.4041 114.2 57.6441 114.06 56.9641 113.78C56.2841 113.487 55.7041 113.093 55.2241 112.6C54.7441 112.093 54.3707 111.52 54.1041 110.88C53.8507 110.227 53.7241 109.54 53.7241 108.82C53.7241 107.82 53.9441 106.907 54.3841 106.08C54.8374 105.253 55.4774 104.593 56.3041 104.1C57.1441 103.593 58.1307 103.34 59.2641 103.34C60.4107 103.34 61.3907 103.593 62.2041 104.1C63.0174 104.593 63.6374 105.253 64.0641 106.08C64.5041 106.893 64.7241 107.773 64.7241 108.72C64.7241 108.88 64.7174 109.047 64.7041 109.22C64.6907 109.38 64.6774 109.513 64.6641 109.62H56.5641C56.6174 110.153 56.7707 110.62 57.0241 111.02C57.2907 111.42 57.6241 111.727 58.0241 111.94C58.4374 112.14 58.8774 112.24 59.3441 112.24C59.8774 112.24 60.3774 112.113 60.8441 111.86C61.3241 111.593 61.6507 111.247 61.8241 110.82L64.1241 111.46C63.8707 111.993 63.5041 112.467 63.0241 112.88C62.5574 113.293 62.0041 113.62 61.3641 113.86C60.7241 114.087 60.0174 114.2 59.2441 114.2ZM56.5041 107.92H61.9841C61.9307 107.387 61.7774 106.927 61.5241 106.54C61.2841 106.14 60.9641 105.833 60.5641 105.62C60.1641 105.393 59.7174 105.28 59.2241 105.28C58.7441 105.28 58.3041 105.393 57.9041 105.62C57.5174 105.833 57.1974 106.14 56.9441 106.54C56.7041 106.927 56.5574 107.387 56.5041 107.92ZM72.5967 105.84C71.7834 105.84 71.0567 106 70.4167 106.32C69.7767 106.627 69.3167 107.073 69.0367 107.66V114H66.3567V103.52H68.8167V105.76C69.1901 105.04 69.6634 104.473 70.2367 104.06C70.8101 103.647 71.4167 103.42 72.0567 103.38C72.2034 103.38 72.3167 103.38 72.3967 103.38C72.4767 103.38 72.5434 103.387 72.5967 103.4V105.84Z" fill="#0F5A51"/>
</svg>
