<svg width="93" height="115" viewBox="0 0 93 115" fill="none" xmlns="http://www.w3.org/2000/svg">
<path fill-rule="evenodd" clip-rule="evenodd" d="M42.3843 8.4614L46.4969 0L50.6158 8.46029L59.8117 9.81438L53.1512 16.3985L54.5592 24.6973L54.5772 24.6792L54.607 24.649L54.6199 24.636C55.2073 24.0529 55.6098 23.3077 55.6737 22.4785L55.9929 18.3514L56.3123 22.4785C56.376 23.3077 56.7848 24.0529 57.3659 24.636L57.3788 24.649C57.9534 25.2448 58.6879 25.6531 59.5052 25.7178L63.5732 26.0417L59.5052 26.3659C59.1801 26.3916 58.8681 26.4728 58.574 26.5982C64.5712 28.6756 69.8815 32.2571 74.0677 36.8994C73.4854 30.9303 71.7438 25.494 68.65 21.0883L68.6617 21.0966L68.65 21.08C80.0624 29.1992 86.2478 42.0425 86.4367 55.1653C87.8378 51.6294 88.6217 48.0204 88.6576 44.4228C92.1252 54.6971 91.4858 65.381 87.6259 74.6419C89.7595 72.7109 91.5749 70.551 93 68.1648C88.9559 87.9473 71.9623 101.605 52.8598 101.926L46.4969 115L40.1399 101.926C21.0376 101.605 4.04416 87.9472 0 68.1648C0.177856 68.4626 0.361786 68.7569 0.551666 69.0476C1.8808 71.083 3.50095 72.9452 5.36401 74.6328C3.2186 69.4821 2.06934 63.8914 2.06863 58.1761C2.06778 53.6173 2.79782 48.9795 4.33612 44.4228C4.3721 48.0256 5.15833 51.64 6.56326 55.1809C6.74881 42.0596 12.9303 29.2142 24.3384 21.0883L24.3501 21.0717V21.08C21.256 25.486 19.5144 30.923 18.9322 36.8927C24.0017 31.2736 30.7184 27.2096 38.3067 25.4877L39.8426 16.3988L33.1819 9.81627L42.3843 8.4614ZM46.4969 21.3095L53.8769 25.2419C53.8476 25.2602 53.8181 25.2781 53.7883 25.2955C51.4301 24.8222 48.9921 24.574 46.4969 24.574C43.8964 24.574 41.358 24.8436 38.9073 25.3567L46.4969 21.3095ZM33.5354 49.9834C42.9203 41.3089 48.7531 35.2416 48.8404 30C48.8404 30 58.1762 38.4844 49.4952 47.9899C44.9609 52.9491 31.6639 67.5116 31.6639 67.5116L45.1956 66.8869L39.4828 81.7047C25.0344 83.8013 13.9635 68.0547 33.5354 49.9834ZM44.1596 97C44.2469 91.7584 50.0797 85.6911 59.4646 77.0166C79.0365 58.9453 67.9656 43.1987 53.5172 45.2953L47.8044 60.1131L61.3362 59.4884C61.3362 59.4884 48.0391 74.0509 43.5048 79.0101C34.8238 88.5156 44.1541 97 44.1541 97H44.1596Z" fill="white"/>
</svg>
