<svg width="219" height="94" viewBox="0 0 219 94" fill="none" xmlns="http://www.w3.org/2000/svg">
<g filter="url(#filter0_f_925_4670)">
<mask id="path-1-inside-1_925_4670" fill="white">
<path d="M10 18C10 13.5817 13.5817 10 18 10H201C205.418 10 209 13.5817 209 18V76C209 80.4183 205.418 84 201 84H18C13.5817 84 10 80.4183 10 76V18Z"/>
</mask>
<path d="M10 18C10 13.5817 13.5817 10 18 10H201C205.418 10 209 13.5817 209 18V76C209 80.4183 205.418 84 201 84H18C13.5817 84 10 80.4183 10 76V18Z" fill="url(#paint0_radial_925_4670)"/>
<path d="M10 18C10 13.5817 13.5817 10 18 10H201C205.418 10 209 13.5817 209 18V76C209 80.4183 205.418 84 201 84H18C13.5817 84 10 80.4183 10 76V18Z" stroke="url(#paint1_linear_925_4670)" stroke-width="2" mask="url(#path-1-inside-1_925_4670)"/>
</g>
<g filter="url(#filter1_f_925_4670)">
<mask id="path-2-inside-2_925_4670" fill="white">
<path d="M10 18C10 13.5817 13.5817 10 18 10H201C205.418 10 209 13.5817 209 18V76C209 80.4183 205.418 84 201 84H18C13.5817 84 10 80.4183 10 76V18Z"/>
</mask>
<path d="M10 18C10 13.5817 13.5817 10 18 10H201C205.418 10 209 13.5817 209 18V76C209 80.4183 205.418 84 201 84H18C13.5817 84 10 80.4183 10 76V18Z" fill="url(#paint2_radial_925_4670)"/>
<path d="M10 18C10 13.5817 13.5817 10 18 10H201C205.418 10 209 13.5817 209 18V76C209 80.4183 205.418 84 201 84H18C13.5817 84 10 80.4183 10 76V18Z" stroke="url(#paint3_linear_925_4670)" stroke-width="2" mask="url(#path-2-inside-2_925_4670)"/>
</g>
<mask id="path-3-inside-3_925_4670" fill="white">
<path d="M10 18C10 13.5817 13.5817 10 18 10H201C205.418 10 209 13.5817 209 18V76C209 80.4183 205.418 84 201 84H18C13.5817 84 10 80.4183 10 76V18Z"/>
</mask>
<path d="M10 18C10 13.5817 13.5817 10 18 10H201C205.418 10 209 13.5817 209 18V76C209 80.4183 205.418 84 201 84H18C13.5817 84 10 80.4183 10 76V18Z" fill="url(#paint4_radial_925_4670)" stroke="url(#paint5_linear_925_4670)" stroke-width="2" mask="url(#path-3-inside-3_925_4670)"/>
<path d="M18.3973 42L21.9973 24.96H26.6533L25.3333 31.224H25.9573L31.6213 24.96H37.2853L29.3173 32.88L33.5413 42H28.1413L25.5493 35.472H24.4213L23.0533 42H18.3973ZM37.9324 42.168L38.7484 38.328H40.7884C41.0444 38.328 41.2524 38.272 41.4124 38.16C41.5724 38.048 41.7324 37.912 41.8924 37.752L42.0364 37.584L37.2844 24.96H42.4444L44.5564 33.072L48.8284 24.96H53.6524L45.1084 39.528C44.6924 40.2 44.2524 40.728 43.7884 41.112C43.3244 41.496 42.8044 41.768 42.2284 41.928C41.6684 42.088 41.0124 42.168 40.2604 42.168H37.9324ZM51.7957 42L55.3958 24.96H70.0118L66.4118 42H61.7318L64.4678 29.04H59.2118L56.4758 42H51.7957ZM69.3739 42L72.9739 24.96H77.6539L75.4219 35.496L83.3659 24.96H87.7339L84.1339 42H79.4539L81.5659 32.088L73.8139 42H69.3739ZM93.2366 29.04H88.6526L89.5166 24.96H103.341L102.477 29.04H97.9166L95.1566 42H90.4766L93.2366 29.04ZM101.483 42L105.083 24.96H109.763L108.563 30.6H111.155C112.435 30.6 113.499 30.832 114.347 31.296C115.211 31.744 115.835 32.392 116.219 33.24C116.603 34.072 116.715 35.072 116.555 36.24C116.395 37.424 116.011 38.448 115.403 39.312C114.795 40.176 114.011 40.84 113.051 41.304C112.107 41.768 111.019 42 109.787 42H101.483ZM106.979 38.208H109.643C110.059 38.208 110.411 38.128 110.699 37.968C111.003 37.808 111.243 37.584 111.419 37.296C111.611 36.992 111.731 36.64 111.779 36.24C111.827 35.92 111.795 35.624 111.683 35.352C111.587 35.064 111.411 34.832 111.155 34.656C110.915 34.48 110.595 34.392 110.195 34.392H107.771L106.979 38.208ZM122.929 42L126.529 24.96H141.145L137.545 42H132.865L135.601 29.04H130.345L127.609 42H122.929ZM148.235 24.96H152.531L154.427 42H149.675L149.507 38.664H145.427L143.867 42H139.091L148.235 24.96ZM149.435 35.544L149.243 30.264L146.771 35.544H149.435ZM155.272 42L158.872 24.96H163.528L162.208 31.224H162.832L168.496 24.96H174.16L166.192 32.88L170.416 42H165.016L162.424 35.472H161.296L159.928 42H155.272ZM175.911 24.96H187.287L186.423 29.04H179.727L179.223 31.44H184.935L184.119 35.232H178.407L177.831 37.92H184.743L183.879 42H172.287L175.911 24.96ZM192.26 29.04H187.676L188.54 24.96H202.364L201.5 29.04H196.94L194.18 42H189.5L192.26 29.04Z" fill="url(#paint6_linear_925_4670)"/>
<path d="M67.4502 55.8H73.2902C74.0502 55.8 74.7036 56 75.2502 56.4C75.7969 56.7867 76.2102 57.2933 76.4902 57.92C76.7836 58.5467 76.9302 59.2067 76.9302 59.9C76.9302 60.5933 76.7836 61.28 76.4902 61.96C76.1969 62.64 75.7902 63.26 75.2702 63.82C74.7502 64.3667 74.1502 64.8067 73.4702 65.14C72.7902 65.4733 72.0636 65.64 71.2902 65.64H69.2502L68.3302 70H64.4302L67.4502 55.8ZM71.7502 62.24C71.8702 62.24 71.9969 62.2 72.1302 62.12C72.2636 62.04 72.3902 61.92 72.5102 61.76C72.6436 61.5867 72.7436 61.3733 72.8102 61.12C72.8902 60.8667 72.9302 60.5667 72.9302 60.22C72.9302 59.9533 72.8969 59.7467 72.8302 59.6C72.7636 59.4533 72.6836 59.3533 72.5902 59.3C72.4969 59.2333 72.3969 59.2 72.2902 59.2H70.6302L69.9902 62.24H71.7502ZM76.4615 70L79.4815 55.8H85.7215C86.4948 55.8 87.1482 56 87.6815 56.4C88.2282 56.7867 88.6415 57.2933 88.9215 57.92C89.2148 58.5467 89.3615 59.2067 89.3615 59.9C89.3615 60.3667 89.2948 60.8333 89.1615 61.3C89.0282 61.7533 88.8348 62.1933 88.5815 62.62C88.3415 63.0467 88.0482 63.4467 87.7015 63.82C87.3548 64.18 86.9682 64.5 86.5415 64.78L88.2415 70H83.8415L82.4615 65.64H81.2815L80.3615 70H76.4615ZM84.1815 62.24C84.2882 62.24 84.4082 62.1933 84.5415 62.1C84.6748 62.0067 84.8015 61.8733 84.9215 61.7C85.0415 61.5267 85.1415 61.32 85.2215 61.08C85.3015 60.84 85.3415 60.58 85.3415 60.3C85.3415 60.06 85.3082 59.86 85.2415 59.7C85.1882 59.54 85.1148 59.42 85.0215 59.34C84.9282 59.2467 84.8282 59.2 84.7215 59.2H82.6615L82.0215 62.24H84.1815ZM92.5479 55.8H102.028L101.308 59.2H95.7279L95.3079 61.2H100.068L99.3879 64.36H94.6279L94.1479 66.6H99.9079L99.1879 70H89.5279L92.5479 55.8ZM104.052 55.8H108.312L109.612 62.48L113.772 55.8H118.012L114.992 70H111.092L112.672 62.52L109.512 67.78H107.452L106.532 62.52L104.932 70H101.032L104.052 55.8ZM120.458 55.8H124.358L121.338 70H117.438L120.458 55.8ZM129.666 70.12C128.506 70.12 127.566 69.9067 126.846 69.48C126.139 69.0533 125.619 68.4733 125.286 67.74C124.966 66.9933 124.806 66.16 124.806 65.24C124.806 64.8933 124.826 64.5467 124.866 64.2C124.906 63.84 124.966 63.4733 125.046 63.1L126.606 55.8H130.506L128.946 63.1C128.892 63.3533 128.852 63.6 128.826 63.84C128.799 64.0667 128.786 64.2933 128.786 64.52C128.786 64.9333 128.839 65.3 128.946 65.62C129.052 65.94 129.226 66.1933 129.466 66.38C129.706 66.5667 130.019 66.66 130.406 66.66C130.806 66.66 131.166 66.5667 131.486 66.38C131.806 66.18 132.092 65.9133 132.346 65.58C132.599 65.2333 132.812 64.8467 132.986 64.42C133.159 63.9933 133.292 63.5533 133.386 63.1L134.946 55.8H138.846L137.286 63.1C137.072 64.0867 136.752 65.0067 136.326 65.86C135.899 66.7133 135.366 67.46 134.726 68.1C134.086 68.74 133.339 69.24 132.486 69.6C131.646 69.9467 130.706 70.12 129.666 70.12ZM141.064 55.8H145.324L146.624 62.48L150.784 55.8H155.024L152.004 70H148.104L149.684 62.52L146.524 67.78H144.464L143.544 62.52L141.944 70H138.044L141.064 55.8Z" fill="url(#paint7_linear_925_4670)"/>
<defs>
<filter id="filter0_f_925_4670" x="0" y="0" width="219" height="94" filterUnits="userSpaceOnUse" color-interpolation-filters="sRGB">
<feFlood flood-opacity="0" result="BackgroundImageFix"/>
<feBlend mode="normal" in="SourceGraphic" in2="BackgroundImageFix" result="shape"/>
<feGaussianBlur stdDeviation="5" result="effect1_foregroundBlur_925_4670"/>
</filter>
<filter id="filter1_f_925_4670" x="5" y="5" width="209" height="84" filterUnits="userSpaceOnUse" color-interpolation-filters="sRGB">
<feFlood flood-opacity="0" result="BackgroundImageFix"/>
<feBlend mode="normal" in="SourceGraphic" in2="BackgroundImageFix" result="shape"/>
<feGaussianBlur stdDeviation="2.5" result="effect1_foregroundBlur_925_4670"/>
</filter>
<radialGradient id="paint0_radial_925_4670" cx="0" cy="0" r="1" gradientUnits="userSpaceOnUse" gradientTransform="translate(109.5 47) rotate(90) scale(37 99.5)">
<stop stop-color="#02100E"/>
<stop offset="1" stop-color="#062622"/>
</radialGradient>
<linearGradient id="paint1_linear_925_4670" x1="12.9109" y1="47.1397" x2="192.99" y2="47.1397" gradientUnits="userSpaceOnUse">
<stop stop-color="#BAFB02"/>
<stop offset="1" stop-color="#06AEE5"/>
</linearGradient>
<radialGradient id="paint2_radial_925_4670" cx="0" cy="0" r="1" gradientUnits="userSpaceOnUse" gradientTransform="translate(109.5 47) rotate(90) scale(37 99.5)">
<stop stop-color="#02100E"/>
<stop offset="1" stop-color="#062622"/>
</radialGradient>
<linearGradient id="paint3_linear_925_4670" x1="12.9109" y1="47.1397" x2="192.99" y2="47.1397" gradientUnits="userSpaceOnUse">
<stop stop-color="#BAFB02"/>
<stop offset="1" stop-color="#06AEE5"/>
</linearGradient>
<radialGradient id="paint4_radial_925_4670" cx="0" cy="0" r="1" gradientUnits="userSpaceOnUse" gradientTransform="translate(109.5 47) rotate(90) scale(37 99.5)">
<stop stop-color="#02100E"/>
<stop offset="1" stop-color="#062622"/>
</radialGradient>
<linearGradient id="paint5_linear_925_4670" x1="12.9109" y1="47.1397" x2="192.99" y2="47.1397" gradientUnits="userSpaceOnUse">
<stop stop-color="#BAFB02"/>
<stop offset="1" stop-color="#06AEE5"/>
</linearGradient>
<linearGradient id="paint6_linear_925_4670" x1="20.6769" y1="34.0528" x2="186.277" y2="34.0528" gradientUnits="userSpaceOnUse">
<stop stop-color="#BAFB02"/>
<stop offset="1" stop-color="#06AEE5"/>
</linearGradient>
<linearGradient id="paint7_linear_925_4670" x1="150.766" y1="51.9142" x2="150.303" y2="71.6211" gradientUnits="userSpaceOnUse">
<stop stop-color="#06AEE5"/>
<stop offset="0.09" stop-color="#1E5769"/>
<stop offset="0.29" stop-color="#16B5D1"/>
<stop offset="0.33" stop-color="#30C0B1"/>
<stop offset="0.54" stop-color="#A0FFD3"/>
<stop offset="0.63" stop-color="#5CD378"/>
<stop offset="0.8" stop-color="#6FDB61"/>
<stop offset="0.89" stop-color="#68AC25"/>
<stop offset="0.94" stop-color="#576B1D"/>
<stop offset="1" stop-color="#BAFB02"/>
</linearGradient>
</defs>
</svg>
