<svg width="171" height="60" viewBox="0 0 171 60" fill="none" xmlns="http://www.w3.org/2000/svg">
<rect x="0.5" y="-0.5" width="170" height="59" transform="matrix(1 0 0 -1 0 59)" fill="url(#paint0_linear_333_170)" stroke="url(#paint1_linear_333_170)"/>
<path d="M59.3117 34.4912L61.7118 23.1312H71.4558L69.0558 34.4912H65.9358L67.7598 25.8512H64.2558L62.4318 34.4912H59.3117ZM73.4305 23.1312H78.1025C78.7105 23.1312 79.2332 23.2912 79.6705 23.6112C80.1078 23.9205 80.4385 24.3259 80.6625 24.8272C80.8972 25.3285 81.0145 25.8565 81.0145 26.4112C81.0145 26.9659 80.8972 27.5152 80.6625 28.0592C80.4278 28.6032 80.1025 29.0992 79.6865 29.5472C79.2705 29.9845 78.7905 30.3365 78.2465 30.6032C77.7025 30.8699 77.1212 31.0032 76.5025 31.0032H74.8705L74.1345 34.4912H71.0145L73.4305 23.1312ZM76.8705 28.2832C76.9665 28.2832 77.0678 28.2512 77.1745 28.1872C77.2812 28.1232 77.3825 28.0272 77.4785 27.8992C77.5852 27.7605 77.6652 27.5899 77.7185 27.3872C77.7825 27.1845 77.8145 26.9445 77.8145 26.6672C77.8145 26.4539 77.7878 26.2885 77.7345 26.1712C77.6812 26.0539 77.6172 25.9739 77.5425 25.9312C77.4678 25.8779 77.3878 25.8512 77.3025 25.8512H75.9745L75.4625 28.2832H76.8705ZM86.1755 34.5872C85.3115 34.5872 84.5488 34.4272 83.8875 34.1072C83.2368 33.7765 82.6982 33.3392 82.2715 32.7952C81.8448 32.2405 81.5408 31.6219 81.3595 30.9392C81.1888 30.2459 81.1515 29.5312 81.2475 28.7952C81.3542 28.0379 81.5995 27.3179 81.9835 26.6352C82.3675 25.9525 82.8582 25.3445 83.4555 24.8112C84.0528 24.2672 84.7248 23.8405 85.4715 23.5312C86.2288 23.2219 87.0288 23.0672 87.8715 23.0672C88.7355 23.0672 89.4928 23.2325 90.1435 23.5632C90.8048 23.8832 91.3488 24.3205 91.7755 24.8752C92.2022 25.4299 92.5008 26.0539 92.6715 26.7472C92.8422 27.4299 92.8795 28.1339 92.7835 28.8592C92.6768 29.6059 92.4315 30.3205 92.0475 31.0032C91.6742 31.6859 91.1888 32.2992 90.5915 32.8432C90.0048 33.3765 89.3328 33.8032 88.5755 34.1232C87.8288 34.4325 87.0288 34.5872 86.1755 34.5872ZM86.6075 31.8192C87.0555 31.8192 87.4555 31.7339 87.8075 31.5632C88.1595 31.3925 88.4582 31.1632 88.7035 30.8752C88.9595 30.5765 89.1622 30.2512 89.3115 29.8992C89.4608 29.5365 89.5622 29.1685 89.6155 28.7952C89.6688 28.4112 89.6688 28.0432 89.6155 27.6912C89.5622 27.3392 89.4448 27.0245 89.2635 26.7472C89.0822 26.4592 88.8368 26.2352 88.5275 26.0752C88.2288 25.9152 87.8608 25.8352 87.4235 25.8352C86.9755 25.8352 86.5755 25.9205 86.2235 26.0912C85.8715 26.2619 85.5675 26.4912 85.3115 26.7792C85.0662 27.0565 84.8688 27.3765 84.7195 27.7392C84.5702 28.0912 84.4688 28.4539 84.4155 28.8272C84.3622 29.2112 84.3622 29.5845 84.4155 29.9472C84.4795 30.2992 84.5968 30.6192 84.7675 30.9072C84.9382 31.1845 85.1728 31.4085 85.4715 31.5792C85.7808 31.7392 86.1595 31.8192 86.6075 31.8192ZM97.9928 33.3392C97.3421 33.3392 96.7288 33.2272 96.1528 33.0032C95.5768 32.7685 95.0754 32.4379 94.6488 32.0112C94.2328 31.5845 93.9234 31.0725 93.7208 30.4752C93.5288 29.8779 93.4861 29.2059 93.5928 28.4592C93.7101 27.6699 93.9554 26.9765 94.3288 26.3792C94.7128 25.7712 95.1821 25.2592 95.7368 24.8432C96.3021 24.4165 96.9101 24.0965 97.5608 23.8832C98.2221 23.6699 98.8888 23.5632 99.5608 23.5632L99.2088 25.7232C98.7608 25.7232 98.3341 25.8245 97.9288 26.0272C97.5341 26.2299 97.1981 26.5339 96.9208 26.9392C96.6541 27.3339 96.4781 27.8405 96.3928 28.4592C96.3074 29.0779 96.3501 29.5899 96.5208 29.9952C96.6914 30.4005 96.9421 30.6992 97.2728 30.8912C97.6141 31.0832 97.9714 31.1792 98.3448 31.1792L97.9928 33.3392ZM97.1608 34.4912L97.5928 32.4272L97.7688 31.9792L99.3208 24.6672L99.3368 24.2512L99.6888 22.5232H102.633L102.281 24.2512L102.105 24.6672L100.553 31.9792L100.537 32.4272L100.105 34.4912H97.1608ZM100.025 33.3392L100.377 31.1792C100.793 31.1792 101.209 31.0832 101.625 30.8912C102.051 30.6992 102.425 30.4005 102.745 29.9952C103.065 29.5899 103.267 29.0779 103.353 28.4592C103.438 27.8512 103.395 27.3445 103.225 26.9392C103.065 26.5339 102.819 26.2299 102.489 26.0272C102.169 25.8245 101.806 25.7232 101.401 25.7232L101.753 23.5632C102.371 23.5632 102.963 23.6699 103.529 23.8832C104.105 24.0965 104.606 24.4165 105.033 24.8432C105.47 25.2592 105.79 25.7712 105.993 26.3792C106.206 26.9765 106.259 27.6699 106.153 28.4592C106.046 29.2059 105.795 29.8779 105.401 30.4752C105.017 31.0725 104.537 31.5845 103.961 32.0112C103.385 32.4379 102.755 32.7685 102.073 33.0032C101.401 33.2272 100.718 33.3392 100.025 33.3392ZM106.234 34.4912L108.634 23.1312H111.754L110.266 30.1552L115.562 23.1312H118.474L116.074 34.4912H112.954L114.362 27.8832L109.194 34.4912H106.234ZM117.726 34.6032L118.286 31.9152C118.627 31.9152 118.921 31.8405 119.166 31.6912C119.411 31.5419 119.635 31.2805 119.838 30.9072C120.051 30.5232 120.265 29.9952 120.478 29.3232C120.691 28.6405 120.931 27.7712 121.198 26.7152L122.094 23.1312H130.318L127.918 34.4912H124.798L126.622 25.8512H124.414L123.966 27.6432C123.614 29.0405 123.262 30.1925 122.91 31.0992C122.558 32.0059 122.153 32.7152 121.694 33.2272C121.246 33.7285 120.702 34.0859 120.062 34.2992C119.433 34.5019 118.654 34.6032 117.726 34.6032ZM129.89 34.4912L132.29 23.1312H135.41L134.61 26.8912H136.338C137.191 26.8912 137.901 27.0459 138.466 27.3552C139.042 27.6539 139.458 28.0859 139.714 28.6512C139.97 29.2059 140.045 29.8725 139.938 30.6512C139.831 31.4405 139.575 32.1232 139.17 32.6992C138.765 33.2752 138.242 33.7179 137.602 34.0272C136.973 34.3365 136.247 34.4912 135.426 34.4912H129.89ZM133.554 31.9632H135.33C135.607 31.9632 135.842 31.9099 136.034 31.8032C136.237 31.6965 136.397 31.5472 136.514 31.3552C136.642 31.1525 136.722 30.9179 136.754 30.6512C136.786 30.4379 136.765 30.2405 136.69 30.0592C136.626 29.8672 136.509 29.7125 136.338 29.5952C136.178 29.4779 135.965 29.4192 135.698 29.4192H134.082L133.554 31.9632Z" fill="white"/>
<path d="M45.7341 38.3217L45.7342 38.3217C44.111 37.6994 42.5811 37.2327 41.0499 36.781C40.8407 36.7193 40.6315 36.6579 40.4221 36.5964C39.0984 36.2078 37.7639 35.816 36.3596 35.331L36.3534 35.3288L36.3536 35.3285C36.2251 35.2643 35.936 35.1042 35.6792 34.7528C35.4222 34.4009 35.2004 33.8609 35.2004 33.0413C35.2004 32.7301 35.1681 32.4961 35.0536 32.3391C34.9421 32.1864 34.743 32.0949 34.3759 32.0949C34.3451 32.0949 34.3184 32.0949 34.2962 32.0939C34.2744 32.0929 34.2532 32.0907 34.2344 32.0849C34.2141 32.0788 34.1956 32.0681 34.181 32.0502C34.1673 32.0333 34.1601 32.0137 34.1554 31.9949C34.1492 31.9707 34.1451 31.9375 34.1401 31.8975C34.1379 31.88 34.1355 31.8613 34.1328 31.8415C34.1233 31.7728 34.1082 31.6811 34.0779 31.5585L34.0769 31.5547L34.0771 31.5547C33.8704 30.3185 33.9186 29.5872 33.942 29.2319C33.947 29.1559 33.9508 29.0971 33.9508 29.0542C33.9508 28.9108 34.0232 28.8052 34.1057 28.7227C34.1468 28.6816 34.1917 28.645 34.2327 28.612L34.2412 28.6051C34.2784 28.5752 34.3113 28.5487 34.3382 28.5227C35.4528 27.0399 35.7015 25.1855 35.7015 24.1944V24.1133L35.773 24.1492C35.773 24.1492 35.773 24.1492 35.773 24.1492C35.7731 24.1493 35.7732 24.1493 35.7733 24.1494C35.7733 24.1494 35.7733 24.1494 35.7734 24.1494L35.7773 24.1508C35.7814 24.1521 35.7879 24.1537 35.7963 24.1543C35.8126 24.1556 35.8372 24.1535 35.8663 24.1361C35.9258 24.1005 36.0155 23.9937 36.0775 23.686L36.0793 23.677L36.0801 23.6773C36.2038 23.3684 36.2656 23.1525 36.3278 22.9199C36.3353 22.892 36.3428 22.8638 36.3504 22.8352C36.4062 22.6249 36.4683 22.3909 36.5791 22.0601L36.5801 22.0573L36.5801 22.0573C36.7018 21.7543 36.7632 21.2963 36.7022 20.9161C36.6717 20.7262 36.6114 20.5603 36.5172 20.443C36.4257 20.329 36.3009 20.259 36.1325 20.2573C36.0111 20.2875 35.9207 20.3044 35.8553 20.3023C35.8213 20.3012 35.7897 20.2949 35.7629 20.2792C35.7349 20.2628 35.7164 20.2388 35.7051 20.2106C35.6943 20.1836 35.69 20.1529 35.6884 20.1211C35.6868 20.089 35.6879 20.0523 35.6898 20.0122C35.6908 19.9934 35.6919 19.9737 35.693 19.953C35.6969 19.8839 35.7015 19.8035 35.7015 19.7089V15.4747C35.577 14.0015 34.7158 13.1413 33.9738 12.6486C32.9733 12.0256 32.5969 11.7755 32.0964 11.4004C31.8378 11.2071 31.7309 11.0053 31.7483 10.7802C31.7651 10.562 31.8986 10.3337 32.0863 10.0842L32.0906 10.0785L32.091 10.0789C32.2182 9.9521 32.3765 9.82582 32.5172 9.71671C32.543 9.69674 32.568 9.67742 32.5921 9.65883C32.6484 9.61543 32.6996 9.57596 32.7428 9.54121H32.7424H32.7417H32.7411H32.7404H32.7398H32.7391H32.7384H32.7378H32.7371H32.7364H32.7358H32.7351H32.7344H32.7338H32.7331H32.7324H32.7318H32.7311H32.7304H32.7298H32.7291H32.7284H32.7277H32.7271H32.7264H32.7257H32.725H32.7243H32.7237H32.723H32.7223H32.7216H32.7209H32.7203H32.7196H32.7189H32.7182H32.7175H32.7168H32.7162H32.7155H32.7148H32.7141H32.7134H32.7127H32.712H32.7113H32.7106H32.7099H32.7092H32.7085H32.7079H32.7072H32.7065H32.7058H32.7051H32.7044H32.7037H32.703H32.7023H32.7016H32.7009H32.7002H32.6995H32.6988H32.6981H32.6974H32.6967H32.696H32.6953H32.6945H32.6938H32.6931H32.6924H32.6917H32.691H32.6903H32.6896H32.6889H32.6882H32.6875H32.6868H32.686H32.6853H32.6846H32.6839H32.6832H32.6825H32.6818H32.6811H32.6803H32.6796H32.6789H32.6782H32.6775H32.6768H32.6761H32.6753H32.6746H32.6739H32.6732H32.6725H32.6718H32.671H32.6703H32.6696H32.6689H32.6682H32.6674H32.6667H32.666H32.6653H32.6646H32.6638H32.6631H32.6624H32.6617H32.661H32.6602H32.6595H32.6588H32.6581H32.6573H32.6566H32.6559H32.6552H32.6544H32.6537H32.653H32.6523H32.6516H32.6508H32.6501H32.6494H32.6487H32.6479H32.6472H32.6465H32.6458H32.645H32.6443H32.6436H32.6429H32.6421H32.6414H32.6407H32.6399H32.6392H32.6385H32.6378H32.637H32.6363H32.6356H32.6349H32.6341H32.6334H32.6327H32.632H32.6312H32.6305H32.6298H32.6291H32.6283H32.6276H32.6269C32.569 9.54121 32.3781 9.56385 32.105 9.60309C31.8341 9.642 31.4869 9.6965 31.12 9.75879C30.3855 9.8835 29.5755 10.0389 29.1409 10.1624L29.1401 10.1626C27.2647 10.6613 25.5244 11.1576 24.0333 12.3958L24.0314 12.3974L24.0313 12.3973C23.0365 13.1411 22.1768 14.2496 22.1768 15.4732V15.4768V15.4805V15.4843V15.4881V15.4919V15.4958V15.4997V15.5036V15.5076V15.5116V15.5157V15.5198V15.5239V15.5281V15.5323V15.5365V15.5408V15.5452V15.5495V15.5539V15.5584V15.5628V15.5674V15.5719V15.5765V15.5811V15.5858V15.5905V15.5952V15.6V15.6048V15.6096V15.6145V15.6194V15.6244V15.6294V15.6344V15.6394V15.6445V15.6497V15.6548V15.66V15.6652V15.6705V15.6758V15.6811V15.6865V15.6919V15.6973V15.7028V15.7083V15.7138V15.7194V15.725V15.7306V15.7363V15.742V15.7477V15.7535V15.7593V15.7651V15.771V15.7769V15.7828V15.7888V15.7948V15.8008V15.8068V15.8129V15.819V15.8252V15.8314V15.8376V15.8438V15.8501V15.8564V15.8627V15.8691V15.8755V15.8819V15.8883V15.8948V15.9013V15.9078V15.9144V15.921V15.9276V15.9343V15.941V15.9477V15.9544V15.9612V15.968V15.9748V15.9816V15.9885V15.9954V16.0024V16.0093V16.0163V16.0233V16.0304V16.0374V16.0445V16.0517V16.0588V16.066V16.0732V16.0804V16.0877V16.0949V16.1023V16.1096V16.1169V16.1243V16.1317V16.1392V16.1466V16.1541V16.1616V16.1691V16.1767V16.1843V16.1919V16.1995V16.2072V16.2148V16.2225V16.2303V16.238V16.2458V16.2536V16.2614V16.2692V16.2771V16.285V16.2929V16.3008V16.3088V16.3167V16.3247V16.3327V16.3408V16.3488V16.3569V16.365V16.3732V16.3813V16.3895V16.3977V16.4059V16.4141V16.4223V16.4306V16.4389V16.4472V16.4555V16.4639V16.4723V16.4807V16.4891V16.4975V16.5059V16.5144V16.5229V16.5314V16.5399V16.5485V16.557V16.5656V16.5742V16.5828V16.5914V16.6001V16.6088V16.6174V16.6261V16.6349V16.6436V16.6524V16.6611V16.6699V16.6787V16.6875V16.6964V16.7052V16.7141V16.723V16.7319V16.7408V16.7497V16.7587V16.7676V16.7766V16.7856V16.7946V16.8036V16.8127V16.8217V16.8308V16.8399V16.849V16.8581V16.8672V16.8764V16.8855V16.8947V16.9038V16.913V16.9222V16.9315V16.9407V16.9499V16.9592V16.9685V16.9777V16.987V16.9963V17.0056V17.015V17.0243V17.0337V17.043V17.0524V17.0618V17.0712V17.0806V17.09V17.0995V17.1089V17.1183V17.1278V17.1373V17.1468V17.1562V17.1657V17.1753V17.1848V17.1943V17.2039V17.2134V17.223V17.2325V17.2421V17.2517V17.2613V17.2709V17.2805V17.2901V17.2997V17.3094V17.319V17.3287V17.3383V17.348V17.3576V17.3673V17.377V17.3867V17.3964V17.4061V17.4158V17.4255V17.4353V17.445V17.4547V17.4645V17.4742V17.484V17.4937V17.5035V17.5133V17.523V17.5328V17.5426V17.5524V17.5622V17.572V17.5818V17.5916V17.6014V17.6112V17.621V17.6309V17.6407V17.6505V17.6603V17.6702V17.68V17.6899V17.6997V17.7095V17.7194V17.7292V17.7391V17.749V17.7588V17.7687V17.7785V17.7884V17.7983V17.8081V17.818V17.8279V17.8377V17.8476V17.8575V17.8674V17.8772V17.8871V17.897V17.9068V17.9167V17.9266V17.9365V17.9463V17.9562V17.9661V17.9759V17.9858V17.9957V18.0055V18.0154V18.0253V18.0351V18.045V18.0549V18.0647V18.0746V18.0844V18.0943V18.1041V18.114V18.1238V18.1336V18.1435V18.1533V18.1631V18.173V18.1828V18.1926V18.2024V18.2122V18.222V18.2318V18.2416V18.2514V18.2612V18.271V18.2808V18.2906V18.3003V18.3101V18.3199V18.3296V18.3394V18.3491V18.3589V18.3686V18.3783V18.388V18.3977V18.4075V18.4172V18.4268V18.4365V18.4462V18.4559V18.4655V18.4752V18.4849V18.4945V18.5041V18.5138V18.5234V18.533V18.5426V18.5522V18.5618V18.5714V18.5809V18.5905V18.6V18.6096V18.6191V18.6286V18.6381V18.6476V18.6571V18.6666V18.6761V18.6856V18.695V18.7045V18.7139V18.7233V18.7327V18.7421V18.7515V18.7609V18.7703V18.7796V18.7889V18.7983V18.8076V18.8169V18.8262V18.8355V18.8448V18.854V18.8633V18.8725V18.8817V18.8909V18.9001V18.9093V18.9185V18.9276V18.9368V18.9459V18.955V18.9641V18.9732V18.9822V18.9913V19.0003V19.0094V19.0184V19.0274V19.0364V19.0453V19.0543V19.0632V19.0721V19.081V19.0899V19.0988V19.1077V19.1165V19.1253V19.1341V19.1429V19.1517V19.1605V19.1692V19.1779V19.1866V19.1953V19.204V19.2126V19.2213V19.2299V19.2385V19.2471V19.2556V19.2642V19.2727V19.2812V19.2897V19.2982V19.3066V19.3151V19.3235V19.3319V19.3402V19.3486V19.3569V19.3652V19.3735V19.3818V19.3901V19.3983V19.4065V19.4147V19.4229V19.431V19.4392V19.4473V19.4554V19.4634V19.4715V19.4795V19.4875V19.4955V19.5034V19.5114V19.5193V19.5272V19.535V19.5429V19.5507V19.5585V19.5663V19.574V19.5817V19.5894V19.5971V19.6048V19.6124V19.62V19.6276V19.6352V19.6427V19.6502V19.6577V19.6652V19.6726V19.68V19.6874V19.6948V19.7021V19.7094V19.7113C22.1768 19.8033 22.1768 19.8912 22.1688 19.9678C22.1607 20.0445 22.1439 20.1165 22.1059 20.1734C22.0662 20.2327 22.0066 20.2707 21.9241 20.2845C21.8445 20.2977 21.7439 20.2884 21.6173 20.257C21.5169 20.2431 21.4407 20.2563 21.3823 20.2863C21.3234 20.3165 21.2779 20.3662 21.2435 20.433C21.1735 20.569 21.1534 20.7685 21.1611 20.9848C21.1688 21.1993 21.2035 21.4224 21.2365 21.6008C21.2501 21.674 21.2633 21.7394 21.2742 21.7935C21.2766 21.8052 21.2789 21.8164 21.281 21.8271C21.287 21.8568 21.2921 21.8824 21.2956 21.9027C21.2985 21.9189 21.301 21.9348 21.3016 21.9472C21.3634 22.253 21.4557 22.5296 21.5643 22.8235C21.5959 22.9091 21.6289 22.9963 21.6629 23.0861C21.746 23.3054 21.835 23.5403 21.9237 23.8058L21.9249 23.8094L21.9248 23.8094C21.9856 24.0511 22.0748 24.1649 22.1423 24.2187C22.1762 24.2457 22.2057 24.2584 22.2255 24.2645C22.2354 24.2675 22.2431 24.2689 22.2477 24.2696L22.2523 24.2701M45.7341 38.3217L21.6268 20.2079C20.8806 20.1011 21.1344 21.3544 21.2253 21.8035C21.241 21.881 21.2518 21.9346 21.2518 21.953C21.3325 22.355 21.4654 22.7057 21.6165 23.1048C21.6995 23.3237 21.7879 23.5572 21.8763 23.8216C22.0018 24.3201 22.2519 24.3201 22.2519 24.3201M45.7341 38.3217L45.7363 38.3224M45.7341 38.3217L45.7363 38.3224M22.2523 24.2701L22.2522 24.2701L22.252 24.2701L22.2525 24.2701M22.2523 24.2701L22.2525 24.2701L22.2527 24.2701C22.2528 24.2701 22.2527 24.2701 22.2525 24.2701M22.2523 24.2701C22.2524 24.2701 22.2525 24.2701 22.2525 24.2701M22.2525 24.2701H22.292L22.3007 24.3092C22.3196 24.3943 22.3392 24.4843 22.3597 24.5786C22.4749 25.1068 22.6189 25.7675 22.8303 26.4395C23.0793 27.2306 23.4203 28.0327 23.9137 28.6481M23.9137 28.6481C23.913 28.6474 23.9124 28.6468 23.9117 28.6461L23.8764 28.6815M23.9137 28.6481C24.0473 28.7826 24.1764 29.0431 24.1764 29.3046V29.313L24.1757 29.3128C24.1134 29.6842 24.0821 30.1178 24.0508 30.5544L24.0504 30.5607C24.0194 30.9925 23.9883 31.427 23.9263 31.8006C23.925 31.8749 23.8904 32.0051 23.8258 32.1175C23.7604 32.2313 23.6536 32.3447 23.5014 32.3447C23.2034 32.3447 23.0014 32.4627 22.8868 32.6341C22.7711 32.8071 22.74 33.0414 22.7993 33.2801L22.8023 33.2922H22.8008C22.8008 33.8641 22.6096 34.3714 22.3717 34.7664C22.1343 35.1607 21.8482 35.4468 21.6533 35.5758L21.6469 35.58L21.6466 35.5795C20.8305 35.9553 19.0142 36.5484 17.1716 37.1242C16.4356 37.3542 15.6951 37.5816 15.0113 37.7915C13.9807 38.1079 13.0789 38.3848 12.5154 38.5717L12.514 38.5721L12.514 38.5721C11.8915 38.7586 11.4911 38.9439 11.2164 39.1419C10.9438 39.3384 10.7925 39.5488 10.6708 39.7908L9.07345 43.8338C12.6112 43.8487 15.2887 44.9365 17.9902 46.1747C18.2739 46.3047 18.5579 46.4364 18.8432 46.5687C21.2922 47.7045 23.8358 48.884 27.1297 49.4412H27.1297H27.1298H27.1299H27.13H27.1301H27.1301H27.1302H27.1303H27.1304H27.1305H27.1306H27.1306H27.1307H27.1308H27.1309H27.131H27.1311H27.1312H27.1313H27.1314H27.1315H27.1316H27.1317H27.1318H27.1319H27.132H27.1321H27.1322H27.1323H27.1324H27.1325H27.1326H27.1327H27.1328H27.1329H27.1331H27.1332H27.1333H27.1334H27.1335H27.1336H27.1338H27.1339H27.134H27.1341H27.1342H27.1344H27.1345H27.1346H27.1348H27.1349H27.135H27.1351H27.1353H27.1354H27.1356H27.1357H27.1358H27.136H27.1361H27.1363H27.1364H27.1365H27.1367H27.1368H27.137H27.1371H27.1373H27.1374H27.1376H27.1378H27.1379H27.1381H27.1382H27.1384H27.1385H27.1387H27.1389H27.139H27.1392H27.1394H27.1396H27.1397H27.1399H27.1401H27.1402H27.1404H27.1406H27.1408H27.141H27.1411H27.1413H27.1415H27.1417H27.1419H27.1421H27.1423H27.1425H27.1427H27.1429H27.1431H27.1433H27.1435H27.1437H27.1439H27.1441H27.1443H27.1445H27.1447H27.1449H27.1451H27.1453H27.1456H27.1458H27.146H27.1462H27.1464H27.1467H27.1469H27.1471H27.1473H27.1476H27.1478H27.148H27.1483H27.1485H27.1487H27.149H27.1492H27.1495H27.1497H27.15H27.1502H27.1505H27.1507H27.151H27.1512H27.1515H27.1517H27.152H27.1523H27.1525H27.1528H27.1531H27.1533H27.1536H27.1539H27.1541H27.1544H27.1547H27.155H27.1553H27.1555H27.1558H27.1561H27.1564H27.1567H27.157H27.1573H27.1576H27.1579H27.1582H27.1585H27.1588H27.1591H27.1594H27.1597H27.16H27.1603H27.1606H27.1609H27.1613H27.1616H27.1619H27.1622H27.1625H27.1629H27.1632H27.1635H27.1639H27.1642H27.1645H27.1647L25.2075 46.0275L25.196 46.0074L25.2039 45.9856L29.0709 35.2886L27.8304 32.6901L27.7962 32.6185H27.8755H30.3751H30.4544L30.4202 32.6901L29.1791 35.2886M23.9137 28.6481C23.9142 28.6488 23.9148 28.6495 23.9154 28.6502L23.8764 28.6815M23.8764 28.6815C22.9519 27.5301 22.5616 25.7393 22.3108 24.5888C22.2903 24.4947 22.2707 24.4049 22.2519 24.3201M23.8764 28.6815C24.002 28.8067 24.1264 29.0559 24.1264 29.3046C24.0634 29.68 24.032 30.118 24.0006 30.5556C23.9695 30.99 23.9384 31.4241 23.8764 31.7963C23.8764 31.922 23.7508 32.2947 23.5014 32.2947C22.8763 32.2947 22.6269 32.7932 22.7508 33.2922C22.7508 34.4137 22.0007 35.286 21.6257 35.5341C20.4892 36.0574 17.3962 37.007 14.9975 37.7434L29.1791 35.2886M22.2519 24.3201L22.252 24.2701H22.2519V24.3201ZM35.7515 24.1944C35.7515 24.1944 35.7708 24.2041 35.8015 24.2046C35.8015 24.2012 35.8015 24.1978 35.8015 24.1944H35.7515ZM35.7515 24.1944C35.7291 24.239 35.7291 24.2391 35.7292 24.2391L35.7293 24.2391L35.7295 24.2393L35.73 24.2395L35.7314 24.2402L35.7353 24.2418C35.7384 24.2431 35.7425 24.2447 35.7476 24.2462C35.7487 24.2466 35.75 24.247 35.7513 24.2473C35.7514 24.2294 35.7515 24.2118 35.7515 24.1944ZM35.7515 24.1944C35.7739 24.1497 35.7739 24.1496 35.7738 24.1496L35.7739 24.1497L35.7515 24.1944ZM29.1791 35.2886L33.0467 45.9856L33.0557 46.0107L33.04 46.0322L30.7226 49.1925L29.1791 35.2886ZM45.7363 38.3224C45.7817 38.3376 45.8262 38.3522 45.8696 38.3665M45.7363 38.3224L45.8696 38.3665M37.001 41.5155H36.951V41.5655H37.001V41.5155ZM37.001 41.5155V40.518M37.001 41.5155H42.7519M37.001 40.518H42.7524M37.001 40.518H36.951V40.468H37.001V40.518ZM42.7519 41.5155V41.5655H42.8019L42.8019 41.5155L42.7519 41.5155ZM42.7519 41.5155L42.7524 40.518M42.7524 40.518L42.8024 40.518L42.8025 40.468H42.7524V40.518ZM45.8696 38.3665C46.1873 38.4712 46.4513 38.5582 46.6797 38.6922M45.8696 38.3665L46.6797 38.6922M46.6797 38.6922C46.9364 38.8427 47.1485 39.0532 47.3325 39.419M46.6797 38.6922L47.3325 39.419M47.3325 39.419L47.3771 39.3965L47.3325 39.419ZM30.8705 49.1925H30.8704H30.8702H30.8701H30.8699H30.8698H30.8696H30.8695H30.8693H30.8691H30.869H30.8688H30.8686H30.8684H30.8683H30.8681H30.8679H30.8677H30.8675H30.8673H30.8671H30.8669H30.8667H30.8665H30.8663H30.8661H30.8659H30.8657H30.8655H30.8653H30.865H30.8648H30.8646H30.8644H30.8641H30.8639H30.8637H30.8634H30.8632H30.863H30.8627H30.8625H30.8622H30.862H30.8617H30.8615H30.8612H30.861H30.8607H30.8604H30.8602H30.8599H30.8596H30.8594H30.8591H30.8588H30.8585H30.8583H30.858H30.8577H30.8574H30.8571H30.8568H30.8565H30.8562H30.8559H30.8556H30.8553H30.855H30.8547H30.8544H30.8541H30.8538H30.8535H30.8531H30.8528H30.8525H30.8522H30.8518H30.8515H30.8512H30.8508H30.8505H30.8502H30.8498H30.8495H30.8491H30.8488H30.8485H30.8481H30.8477H30.8474H30.847H30.8467H30.8463H30.846H30.8456H30.8452H30.8449H30.8445H30.8441H30.8437H30.8434H30.843H30.8426H30.8422H30.8418H30.8414H30.8411H30.8407H30.8403H30.8399H30.8395H30.8391H30.8387H30.8383H30.8379H30.8375H30.8371H30.8367H30.8362H30.8358H30.8354H30.835H30.8346H30.8342H30.8337H30.8333H30.8329H30.8325H30.832H30.8316H30.8312H30.8307H30.8303H30.8299H30.8294H30.829H30.8285H30.8281H30.8276H30.8272H30.8267H30.8263H30.8258H30.8254H30.8249H30.8244H30.824H30.8235H30.823H30.8226H30.8221H30.8216H30.8212H30.8207H30.8202H30.8197H30.8193H30.8188H30.8183H30.8178H30.8173H30.8168H30.8163H30.8158H30.8154H30.8705Z" fill="url(#paint2_linear_333_170)" stroke="black" stroke-width="0.1"/>
<defs>
<linearGradient id="paint0_linear_333_170" x1="171" y1="30.0001" x2="-6.97675e-07" y2="30.0001" gradientUnits="userSpaceOnUse">
<stop stop-color="#0B0B17" stop-opacity="0"/>
<stop offset="0.335108" stop-color="#0D443E" stop-opacity="0.34"/>
<stop offset="0.473677" stop-color="#0D4B43" stop-opacity="0.5"/>
<stop offset="0.648803" stop-color="#0D443E" stop-opacity="0.32"/>
<stop offset="1" stop-color="#0B0B17" stop-opacity="0"/>
</linearGradient>
<linearGradient id="paint1_linear_333_170" x1="1.27405e-06" y1="30" x2="162.45" y2="30" gradientUnits="userSpaceOnUse">
<stop stop-opacity="0"/>
<stop offset="0.260841" stop-color="#24CAB6"/>
<stop offset="0.721452" stop-color="#24CAB6" stop-opacity="0.882827"/>
<stop offset="1" stop-opacity="0"/>
</linearGradient>
<linearGradient id="paint2_linear_333_170" x1="9.58511" y1="29.5667" x2="45.7819" y2="29.5667" gradientUnits="userSpaceOnUse">
<stop stop-color="#BAFB02"/>
<stop offset="1" stop-color="#06AEE5"/>
</linearGradient>
</defs>
</svg>
