<svg width="16" height="17" viewBox="0 0 16 17" fill="none" xmlns="http://www.w3.org/2000/svg">
<path fill-rule="evenodd" clip-rule="evenodd" d="M3.79238 6.24792C3.69017 6.1419 3.60256 5.97177 3.54543 5.70895L3.54032 5.68568C3.47298 5.37918 3.36402 4.88331 3.54289 4.64751C3.56892 4.61196 3.60002 4.58276 3.63431 4.5599C3.28364 3.29409 3.56896 2.62354 3.61689 2.5109L3.6178 2.50876C4.24247 1.01501 5.59593 0.11672 7.51312 0.757264C8.16255 0.974377 8.88118 1.24926 9.39857 1.79648C10.3053 2.75567 10.0051 3.81735 9.82309 4.46115C9.81344 4.49527 9.80413 4.52821 9.79534 4.5599C9.8074 4.57069 9.87723 4.63481 9.88803 4.64751C10.0709 4.89001 9.99975 5.34836 9.93373 5.65245C9.87469 5.91717 9.77629 6.14254 9.67409 6.24792C9.42714 7.57344 8.32698 9.24622 6.77481 9.3224C5.55467 9.38271 4.03552 7.94038 3.79238 6.24792ZM13.4586 14.9513L13.4616 15.0168C13.4978 15.8218 13.3302 16.1227 13.1169 16.2078C10.4842 17.2641 2.98115 17.2641 0.349145 16.2078C0.137111 16.1221 -0.0317535 15.8218 0.00506664 15.0168L0.00786044 14.9556C0.0610141 13.7879 0.143334 11.9796 1.14268 10.4956C1.14268 10.4956 1.4328 10.1001 2.12096 9.83724C2.12096 9.83724 3.61598 9.38207 4.30287 8.89008C4.30287 8.89008 4.62219 9.12242 4.61775 9.10528C4.61838 9.11163 4.58347 11.1482 4.58347 11.1482L6.46955 16.1849C6.51081 16.2954 6.6162 16.3684 6.73364 16.3684C6.85108 16.3684 6.95647 16.2954 6.99773 16.1849L8.88445 11.1482L8.84953 9.10528L9.16377 8.89008C9.85193 9.38207 11.3463 9.83724 11.3463 9.83724C12.0345 10.1001 12.3246 10.4956 12.3246 10.4956C12.5706 10.8606 12.761 11.2453 12.909 11.6352L11.5795 13.0856L10.9057 12.229C10.5643 11.7949 9.93564 11.7197 9.50153 12.0611C9.06742 12.4026 8.99228 13.0312 9.3337 13.4654L10.7352 15.2473C10.9166 15.478 11.1902 15.6173 11.4835 15.6284C11.7767 15.6395 12.0601 15.5212 12.2584 15.3048L13.4063 14.0526C13.4325 14.3782 13.4463 14.6817 13.4586 14.9513ZM13.4063 14.0526C13.3468 13.3147 13.2233 12.4631 12.909 11.6352L13.7522 10.7153C14.1254 10.3082 14.758 10.2807 15.1651 10.6539C15.5722 11.0271 15.5997 11.6597 15.2265 12.0668L13.4063 14.0526ZM6.80234 9.97307L6.71727 9.97498C6.44302 9.97498 6.16624 9.92165 5.89453 9.8277L6.64236 10.9723L5.97135 11.6198L6.66204 15.8142C6.66776 15.8503 6.69886 15.8764 6.73568 15.8764C6.77187 15.8764 6.80297 15.8503 6.80932 15.8142L7.50002 11.6198L6.82837 10.9723L7.56541 9.84484C7.32481 9.91531 7.07024 9.96228 6.80234 9.97307Z" fill="#03323F"/>
</svg>
