<svg width="46" height="46" viewBox="0 0 46 46" fill="none" xmlns="http://www.w3.org/2000/svg">
<rect x="0.5" y="0.5" width="45" height="45" rx="7.5" fill="url(#paint0_radial_376_271)" stroke="url(#paint1_linear_376_271)"/>
<path d="M10.9089 31V16.8H17.1889C17.8422 16.8 18.4422 16.9333 18.9889 17.2C19.5489 17.4667 20.0289 17.8267 20.4289 18.28C20.8422 18.7333 21.1556 19.24 21.3689 19.8C21.5956 20.36 21.7089 20.9333 21.7089 21.52C21.7089 22.12 21.6022 22.7 21.3889 23.26C21.1889 23.8067 20.8956 24.2867 20.5089 24.7C20.1222 25.1133 19.6689 25.4333 19.1489 25.66L22.3889 31H19.3489L16.4289 26.24H13.6689V31H10.9089ZM13.6689 23.82H17.1289C17.4756 23.82 17.7822 23.72 18.0489 23.52C18.3156 23.3067 18.5289 23.0267 18.6889 22.68C18.8489 22.3333 18.9289 21.9467 18.9289 21.52C18.9289 21.0667 18.8356 20.6733 18.6489 20.34C18.4622 19.9933 18.2222 19.72 17.9289 19.52C17.6489 19.32 17.3422 19.22 17.0089 19.22H13.6689V23.82ZM30.0711 31.1C28.9378 31.1 27.9711 30.9133 27.1711 30.54C26.3844 30.1533 25.7444 29.6267 25.2511 28.96C24.7711 28.2933 24.4178 27.54 24.1911 26.7C23.9644 25.8467 23.8511 24.96 23.8511 24.04V16.8H26.6111V24.04C26.6111 24.6267 26.6644 25.2 26.7711 25.76C26.8911 26.3067 27.0844 26.8 27.3511 27.24C27.6178 27.68 27.9711 28.0267 28.4111 28.28C28.8511 28.5333 29.3978 28.66 30.0511 28.66C30.7178 28.66 31.2711 28.5333 31.7111 28.28C32.1644 28.0133 32.5178 27.66 32.7711 27.22C33.0378 26.78 33.2311 26.2867 33.3511 25.74C33.4711 25.18 33.5311 24.6133 33.5311 24.04V16.8H36.2711V24.04C36.2711 25.0133 36.1511 25.9267 35.9111 26.78C35.6844 27.6333 35.3178 28.3867 34.8111 29.04C34.3178 29.68 33.6778 30.1867 32.8911 30.56C32.1044 30.92 31.1644 31.1 30.0711 31.1Z" fill="url(#paint2_linear_376_271)"/>
<defs>
<radialGradient id="paint0_radial_376_271" cx="0" cy="0" r="1" gradientUnits="userSpaceOnUse" gradientTransform="translate(23 23) rotate(90) scale(23)">
<stop stop-color="#02100E"/>
<stop offset="1" stop-color="#062622"/>
</radialGradient>
<linearGradient id="paint1_linear_376_271" x1="0.672872" y1="23.0868" x2="42.2992" y2="23.0868" gradientUnits="userSpaceOnUse">
<stop stop-color="#BAFB02"/>
<stop offset="1" stop-color="#06AEE5"/>
</linearGradient>
<linearGradient id="paint2_linear_376_271" x1="9.4242" y1="23.5434" x2="35.6669" y2="23.5434" gradientUnits="userSpaceOnUse">
<stop stop-color="#BAFB02"/>
<stop offset="1" stop-color="#06AEE5"/>
</linearGradient>
</defs>
</svg>
