<svg width="46" height="46" viewBox="0 0 46 46" fill="none" xmlns="http://www.w3.org/2000/svg">
<rect x="0.5" y="0.5" width="45" height="45" rx="7.5" fill="url(#paint0_radial_376_267)" stroke="url(#paint1_linear_376_267)"/>
<path d="M29.0604 16.0827L29.0362 16.0471L28.9975 16.0658L17.464 21.6018L17.4293 21.6185L17.4366 21.6564C17.4752 21.8558 17.4955 22.0619 17.4955 22.2727C17.4955 22.7046 17.4105 23.1166 17.2565 23.4929L17.2392 23.5351L17.2797 23.5562L29.1581 29.7153L29.1943 29.7341L29.22 29.7024C29.8109 28.9717 30.7145 28.5045 31.7273 28.5045C33.5071 28.5045 34.95 29.9474 34.95 31.7273C34.95 33.5071 33.5071 34.95 31.7273 34.95C29.9474 34.95 28.5045 33.5071 28.5045 31.7273C28.5045 31.4731 28.534 31.2259 28.5895 30.9888L28.5984 30.9509L28.5639 30.933L16.4787 24.6667L16.4481 24.6508L16.4224 24.6738C15.852 25.1848 15.0987 25.4955 14.2727 25.4955C12.4929 25.4955 11.05 24.0526 11.05 22.2727C11.05 20.4929 12.4929 19.05 14.2727 19.05C15.3302 19.05 16.2687 19.5593 16.8564 20.3462L16.8811 20.3791L16.9181 20.3613L28.511 14.7968L28.5442 14.7808L28.5388 14.7444C28.5162 14.5905 28.5045 14.433 28.5045 14.2727C28.5045 12.4929 29.9474 11.05 31.7273 11.05C33.5071 11.05 34.95 12.4929 34.95 14.2727C34.95 16.0526 33.5071 17.4955 31.7273 17.4955C30.6184 17.4955 29.6404 16.9355 29.0604 16.0827Z" fill="url(#paint2_linear_376_267)" stroke="black" stroke-width="0.1"/>
<defs>
<radialGradient id="paint0_radial_376_267" cx="0" cy="0" r="1" gradientUnits="userSpaceOnUse" gradientTransform="translate(23 23) rotate(90) scale(23)">
<stop stop-color="#02100E"/>
<stop offset="1" stop-color="#062622"/>
</radialGradient>
<linearGradient id="paint1_linear_376_267" x1="0.672872" y1="23.0868" x2="42.2992" y2="23.0868" gradientUnits="userSpaceOnUse">
<stop stop-color="#BAFB02"/>
<stop offset="1" stop-color="#06AEE5"/>
</linearGradient>
<linearGradient id="paint2_linear_376_267" x1="11.3511" y1="23.0453" x2="33.0691" y2="23.0453" gradientUnits="userSpaceOnUse">
<stop stop-color="#BAFB02"/>
<stop offset="1" stop-color="#06AEE5"/>
</linearGradient>
</defs>
</svg>
