<svg width="273" height="143" viewBox="0 0 273 143" fill="none" xmlns="http://www.w3.org/2000/svg">
<path d="M259.406 103.944C246.483 98.9913 238.763 93.9264 238.763 93.9264L227.463 129.831L222.987 117.113C233.225 102.762 222.204 102.087 220.302 102.087C220.302 102.087 220.302 102.087 220.246 102.087C220.246 102.087 220.246 102.087 220.19 102.087C220.19 102.087 220.19 102.087 220.134 102.087C220.134 102.087 220.134 102.087 220.078 102.087C218.176 102.087 207.156 102.762 217.393 117.113L212.918 129.831L201.617 93.9264C201.617 93.9264 197.254 96.7965 189.645 100.286C187.743 98.8788 185.506 97.6407 182.765 96.6277C167.436 90.7186 158.262 84.697 158.262 84.697L146.458 122.234L144.835 127.299L139.577 112.216C151.716 95.1645 138.682 94.3766 136.388 94.3204C136.388 94.3204 136.388 94.3204 136.332 94.3204C136.332 94.3204 136.332 94.3204 136.276 94.3204C136.276 94.3204 136.276 94.3204 136.22 94.3204C136.22 94.3204 136.22 94.3204 136.164 94.3204C133.927 94.3204 120.836 95.1645 132.976 112.216L127.717 127.299L126.095 122.234L114.291 84.697C114.291 84.697 105.116 90.7186 89.7879 96.6277C87.0467 97.6407 84.809 98.8225 82.907 100.286C75.2988 96.7965 70.9352 93.9264 70.9352 93.9264L59.6348 129.831L55.1594 117.113C65.3969 102.762 54.3762 102.087 52.4742 102.087C52.4742 102.087 52.4742 102.087 52.4182 102.087C52.4182 102.087 52.4182 102.087 52.3623 102.087C52.3623 102.087 52.3623 102.087 52.3064 102.087C52.3064 102.087 52.3064 102.087 52.2504 102.087C50.3484 102.087 39.3277 102.762 49.5652 117.113L45.0898 129.831L33.7893 93.9264C33.7893 93.9264 26.0693 98.9913 13.1465 103.944C-0.615369 109.177 0.279713 120.939 0 143H273C272.72 120.939 273.615 109.177 259.406 103.944Z" fill="#4CFFDF"/>
<path d="M97.8996 48.6234H103.158C103.997 53.1818 105.732 57.5714 108.417 61.5108L104.725 65.2251C103.326 66.632 103.326 68.8831 104.725 70.2901L108.585 74.2294C109.983 75.6364 112.221 75.6364 113.619 74.2294L117.312 70.5152C121.228 73.2165 125.591 75.0173 130.123 75.8615V81.1515C130.123 83.1212 131.689 84.7533 133.647 84.7533H139.129C141.087 84.7533 142.71 83.1775 142.71 81.2078V75.9178C147.185 75.0736 151.549 73.2727 155.465 70.5714L159.213 74.342C160.611 75.7489 162.849 75.7489 164.248 74.342L168.164 70.4589C169.562 69.0519 169.562 66.8009 168.164 65.3939L164.415 61.5671C167.101 57.6277 168.835 53.2944 169.674 48.7922H175.044C177.002 48.7922 178.625 47.2165 178.625 45.2468V39.7316C178.625 37.7619 177.058 36.1299 175.1 36.1299H169.674C168.835 31.6277 167.101 27.2944 164.471 23.4113L168.331 19.5281C169.73 18.1212 169.73 15.8701 168.331 14.4632L164.471 10.5238C163.073 9.11688 160.835 9.11688 159.436 10.5238L155.576 14.4069C151.716 11.7056 147.409 9.96104 142.933 9.06061V3.60173C142.933 1.63204 141.367 0 139.409 0H133.927C131.969 0 130.346 1.57576 130.346 3.54546V8.94806C125.871 9.79221 121.507 11.5368 117.591 14.1818L113.843 10.355C112.445 8.94806 110.207 8.94806 108.808 10.355L104.892 14.2381C103.494 15.645 103.494 17.8961 104.892 19.303L108.641 23.0736C105.955 27.013 104.165 31.3463 103.27 35.9048H98.0115C96.0535 35.9048 94.4312 37.4805 94.4312 39.4502V44.9654C94.3752 46.9914 95.9416 48.6234 97.8996 48.6234ZM123.577 29.2641C130.738 22.0606 142.374 22.1169 149.535 29.3204C156.695 36.5238 156.639 48.2294 149.479 55.4329C142.318 62.6364 130.682 62.5801 123.521 55.3766C116.361 48.1732 116.361 36.4675 123.577 29.2641Z" fill="#4CFFDF"/>
<path d="M189.142 65.8442H193.394C194.065 69.5022 195.464 73.0476 197.645 76.2554L194.68 79.2381C193.561 80.3636 193.561 82.1645 194.68 83.3463L197.813 86.4978C198.932 87.6234 200.722 87.6234 201.897 86.4978L204.862 83.5152C208.051 85.71 211.575 87.1169 215.211 87.8485V92.1255C215.211 93.7013 216.498 94.9957 218.064 94.9957H222.484C224.05 94.9957 225.337 93.7013 225.337 92.1255V87.8485C228.973 87.1732 232.498 85.71 235.63 83.5714L238.651 86.6104C239.77 87.7359 241.56 87.7359 242.735 86.6104L245.868 83.4589C246.987 82.3333 246.987 80.5325 245.868 79.3507L242.847 76.2554C244.973 73.1039 246.427 69.5584 247.099 65.9567H251.462C253.028 65.9567 254.315 64.6623 254.315 63.0866V58.6407C254.315 57.0649 253.028 55.7706 251.462 55.7706H247.099C246.427 52.1688 245.029 48.6234 242.903 45.4719L246.036 42.3766C247.155 41.2511 247.155 39.4502 246.036 38.2684L242.903 35.1169C241.784 33.9913 239.994 33.9913 238.819 35.1169L235.686 38.2121C232.553 36.0736 229.085 34.6104 225.505 33.9351V29.5455C225.505 27.9697 224.218 26.6753 222.652 26.6753H218.232C216.666 26.6753 215.379 27.9697 215.379 29.5455V33.9351C211.743 34.6104 208.274 36.0173 205.086 38.1558L202.065 35.0606C200.946 33.9351 199.156 33.9351 197.981 35.0606L194.848 38.2121C193.729 39.3377 193.729 41.1385 194.848 42.3203L197.869 45.3593C195.687 48.5108 194.233 52.0563 193.561 55.7143H189.31C187.743 55.7143 186.457 57.0087 186.457 58.5844V63.0303C186.289 64.5498 187.576 65.8442 189.142 65.8442ZM209.841 50.2554C215.659 44.4589 225.001 44.4589 230.763 50.3117C236.525 56.1645 236.525 65.5628 230.707 71.3593C224.889 77.1559 215.547 77.1558 209.785 71.303C204.023 65.5065 204.023 56.052 209.841 50.2554Z" fill="#4CFFDF"/>
<path d="M21.5939 65.8442H25.8455C26.5168 69.5022 27.9154 73.0476 30.0971 76.2554L27.1322 79.2381C26.0133 80.3636 26.0133 82.1645 27.1322 83.3463L30.265 86.4978C31.3838 87.6234 33.174 87.6234 34.3488 86.4978L37.3137 83.5152C40.5025 85.71 44.0268 87.1169 47.6631 87.8485V92.1255C47.6631 93.7013 48.9498 94.9957 50.5162 94.9957H54.9357C56.502 94.9957 57.7887 93.7013 57.7887 92.1255V87.8485C61.425 87.1732 64.9494 85.71 68.0822 83.5714L71.1031 86.6104C72.2219 87.7359 74.0121 87.7359 75.1869 86.6104L78.3197 83.4589C79.4385 82.3333 79.4385 80.5325 78.3197 79.3507L75.2988 76.2554C77.4246 73.1039 78.8791 69.5584 79.5504 65.9567H83.9139C85.4803 65.9567 86.767 64.6623 86.767 63.0866V58.6407C86.767 57.0649 85.4803 55.7706 83.9139 55.7706H79.5504C78.8791 52.1688 77.4805 48.6234 75.3547 45.4719L78.4875 42.3766C79.6064 41.2511 79.6064 39.4502 78.4875 38.2684L75.3547 35.1169C74.2359 33.9913 72.4457 33.9913 71.2709 35.1169L68.1381 38.2121C65.0053 36.0736 61.5369 34.6104 57.9566 33.9351V29.5455C57.9566 27.9697 56.6699 26.6753 55.1035 26.6753H50.684C49.1176 26.6753 47.8309 27.9697 47.8309 29.5455V33.9351C44.1947 34.6104 40.7262 36.0173 37.5375 38.1558L34.5166 35.0606C33.3977 33.9351 31.6076 33.9351 30.4328 35.0606L27.3 38.2121C26.1811 39.3377 26.1811 41.1385 27.3 42.3203L30.3209 45.3593C28.1391 48.5108 26.6846 52.0563 26.0133 55.7143H21.7617C20.1953 55.7143 18.9086 57.0087 18.9086 58.5844V63.0303C18.7408 64.5498 20.0275 65.8442 21.5939 65.8442ZM42.2926 50.2554C48.1107 44.4589 57.4531 44.4589 63.2152 50.3117C68.9773 56.1645 68.9773 65.5628 63.1592 71.3593C57.3412 77.1559 47.9988 77.1558 42.2367 71.303C36.4746 65.5065 36.4746 56.052 42.2926 50.2554Z" fill="#4CFFDF"/>
</svg>
