<svg width="171" height="60" viewBox="0 0 171 60" fill="none" xmlns="http://www.w3.org/2000/svg">
<rect x="0.5" y="-0.5" width="170" height="59" transform="matrix(1 0 0 -1 0 59)" fill="url(#paint0_linear_1328_2121)" stroke="url(#paint1_linear_1328_2121)"/>
<path d="M64.024 34.848C63.3733 34.848 62.76 34.736 62.184 34.512C61.608 34.2773 61.1067 33.9467 60.68 33.52C60.264 33.0933 59.9547 32.5813 59.752 31.984C59.56 31.3867 59.5173 30.7147 59.624 29.968C59.7413 29.1787 59.9867 28.4853 60.36 27.888C60.744 27.28 61.2133 26.768 61.768 26.352C62.3333 25.9253 62.9413 25.6053 63.592 25.392C64.2533 25.1787 64.92 25.072 65.592 25.072L65.24 27.232C64.792 27.232 64.3653 27.3333 63.96 27.536C63.5653 27.7387 63.2293 28.0427 62.952 28.448C62.6853 28.8427 62.5093 29.3493 62.424 29.968C62.3387 30.5867 62.3813 31.0987 62.552 31.504C62.7227 31.9093 62.9733 32.208 63.304 32.4C63.6453 32.592 64.0027 32.688 64.376 32.688L64.024 34.848ZM63.192 36L63.624 33.936L63.8 33.488L65.352 26.176L65.368 25.76L65.72 24.032H68.664L68.312 25.76L68.136 26.176L66.584 33.488L66.568 33.936L66.136 36H63.192ZM66.056 34.848L66.408 32.688C66.824 32.688 67.24 32.592 67.656 32.4C68.0827 32.208 68.456 31.9093 68.776 31.504C69.096 31.0987 69.2987 30.5867 69.384 29.968C69.4693 29.36 69.4267 28.8533 69.256 28.448C69.096 28.0427 68.8507 27.7387 68.52 27.536C68.2 27.3333 67.8373 27.232 67.432 27.232L67.784 25.072C68.4027 25.072 68.9947 25.1787 69.56 25.392C70.136 25.6053 70.6373 25.9253 71.064 26.352C71.5013 26.768 71.8213 27.28 72.024 27.888C72.2373 28.4853 72.2907 29.1787 72.184 29.968C72.0773 30.7147 71.8267 31.3867 71.432 31.984C71.048 32.5813 70.568 33.0933 69.992 33.52C69.416 33.9467 68.7867 34.2773 68.104 34.512C67.432 34.736 66.7493 34.848 66.056 34.848ZM77.7849 36.096C76.9209 36.096 76.1582 35.936 75.4969 35.616C74.8462 35.2853 74.3075 34.848 73.8809 34.304C73.4542 33.7493 73.1502 33.1307 72.9689 32.448C72.7982 31.7547 72.7609 31.04 72.8569 30.304C72.9635 29.5467 73.2089 28.8267 73.5929 28.144C73.9769 27.4613 74.4675 26.8533 75.0649 26.32C75.6622 25.776 76.3342 25.3493 77.0809 25.04C77.8382 24.7307 78.6382 24.576 79.4809 24.576C80.3449 24.576 81.1022 24.7413 81.7529 25.072C82.4142 25.392 82.9582 25.8293 83.3849 26.384C83.8115 26.9387 84.1102 27.5627 84.2809 28.256C84.4515 28.9387 84.4889 29.6427 84.3929 30.368C84.2862 31.1147 84.0409 31.8293 83.6569 32.512C83.2835 33.1947 82.7982 33.808 82.2009 34.352C81.6142 34.8853 80.9422 35.312 80.1849 35.632C79.4382 35.9413 78.6382 36.096 77.7849 36.096ZM78.2169 33.328C78.6649 33.328 79.0649 33.2427 79.4169 33.072C79.7689 32.9013 80.0675 32.672 80.3129 32.384C80.5689 32.0853 80.7715 31.76 80.9209 31.408C81.0702 31.0453 81.1715 30.6773 81.2249 30.304C81.2782 29.92 81.2782 29.552 81.2249 29.2C81.1715 28.848 81.0542 28.5333 80.8729 28.256C80.6915 27.968 80.4462 27.744 80.1369 27.584C79.8382 27.424 79.4702 27.344 79.0329 27.344C78.5849 27.344 78.1849 27.4293 77.8329 27.6C77.4809 27.7707 77.1769 28 76.9209 28.288C76.6755 28.5653 76.4782 28.8853 76.3289 29.248C76.1795 29.6 76.0782 29.9627 76.0249 30.336C75.9715 30.72 75.9715 31.0933 76.0249 31.456C76.0889 31.808 76.2062 32.128 76.3769 32.416C76.5475 32.6933 76.7822 32.9173 77.0809 33.088C77.3902 33.248 77.7689 33.328 78.2169 33.328ZM86.9461 24.64H90.0661L89.1701 28.832H92.5621L93.4581 24.64H96.5781L94.1621 36H91.0421L91.9861 31.552H88.5941L87.6501 36H84.5301L86.9461 24.64ZM95.5162 38.176L96.5563 33.28H97.3883C97.7296 33.248 98.0283 33.04 98.2843 32.656C98.5509 32.2613 98.8016 31.6747 99.0363 30.896C99.2816 30.1173 99.5269 29.1413 99.7723 27.968L100.476 24.64H108.828L106.988 33.28H108.588L107.548 38.176H104.828L105.292 36H98.7003L98.2363 38.176H95.5162ZM100.86 33.28H103.868L105.132 27.36H102.844L102.62 28.416C102.46 29.2267 102.3 29.9467 102.14 30.576C101.991 31.2053 101.815 31.744 101.612 32.192C101.42 32.64 101.17 33.0027 100.86 33.28Z" fill="white"/>
<path d="M38.0531 17C38.9742 17.2892 39.7628 17.6909 40.3172 18.2117H47.7856V31.1148C48.1779 31.5633 48.4055 32.0895 48.4055 32.6987V33.2638C48.4055 33.5931 48.3332 33.8984 48.21 34.1823L48.4055 34.1876V35.6577C48.4055 35.9737 48.3413 36.2669 48.2274 36.5387L48.4055 36.5441V38.0156C48.4055 38.3034 48.3479 38.5712 48.2515 38.8229H49V17H38.0531Z" fill="url(#paint2_linear_1328_2121)"/>
<path d="M29.9714 17H9V38.8176H27.4475C27.1476 38.4628 26.9575 38.0597 26.8932 37.6072H10.2117V18.2131H27.7046C28.2603 17.6909 29.0515 17.2905 29.9714 17Z" fill="url(#paint3_linear_1328_2121)"/>
<path d="M39.9516 21.5081C39.9516 22.8203 37.2926 23.8833 34.0122 23.8833C30.7305 23.8833 28.0715 22.8203 28.0715 21.5081V22.9769C28.0715 24.289 30.7265 25.3521 34.0122 25.3521C37.2899 25.3521 39.9516 24.289 39.9516 22.9769V21.5081Z" fill="url(#paint4_linear_1328_2121)"/>
<path d="M39.9516 23.8659C39.9516 25.1781 37.2926 26.2398 34.0122 26.2398C30.7305 26.2398 28.0715 25.1781 28.0715 23.8659V25.3361C28.0715 26.6482 30.7265 27.7113 34.0122 27.7113C37.2899 27.7113 39.9516 26.6482 39.9516 25.3361V23.8659Z" fill="url(#paint5_linear_1328_2121)"/>
<path d="M39.9516 26.2211C39.9516 27.5332 37.2926 28.5963 34.0122 28.5963C30.7305 28.5963 28.0715 27.5332 28.0715 26.2211V27.6912C28.0715 29.0033 30.7265 30.0664 34.0122 30.0664C37.2899 30.0664 39.9516 29.0047 39.9516 27.6912V26.2211Z" fill="url(#paint6_linear_1328_2121)"/>
<path d="M39.9516 20.0206C39.9516 18.7085 37.2926 17.6454 34.0122 17.6454C30.7305 17.6454 28.0715 18.7085 28.0715 20.0206V20.5843C28.0715 21.8964 30.7265 22.9595 34.0122 22.9595C37.2899 22.9595 39.9516 21.8977 39.9516 20.5843V20.0206ZM34.0136 21.8027C30.7493 21.8027 28.6673 20.7476 28.6673 20.0206C28.6673 19.2936 30.7493 18.2385 34.0136 18.2385C37.2765 18.2385 39.3558 19.2936 39.3558 20.0206C39.3558 20.7476 37.2751 21.8027 34.0136 21.8027Z" fill="url(#paint7_linear_1328_2121)"/>
<path d="M39.9516 29.4733V28.5789C39.9516 28.915 39.7736 29.2336 39.4589 29.5255C39.6223 29.5054 39.7856 29.4867 39.9516 29.4733Z" fill="url(#paint8_linear_1328_2121)"/>
<path d="M34.0136 30.9541C30.7319 30.9541 28.0728 29.8924 28.0728 28.5803V30.0504C28.0728 31.3625 30.7279 32.4256 34.0136 32.4256C34.1555 32.4256 34.2987 32.4189 34.4393 32.4162C34.5277 31.8164 34.8932 31.3023 35.4529 30.8818C34.991 30.9274 34.5103 30.9541 34.0136 30.9541Z" fill="url(#paint9_linear_1328_2121)"/>
<path d="M28.0741 31.0974V32.5689C28.0741 33.8797 30.7305 34.9428 34.0136 34.9428C34.1501 34.9428 34.28 34.9374 34.4139 34.9347C34.4139 34.2746 34.4139 33.7418 34.4139 33.4646C34.28 33.4673 34.1501 33.4726 34.0136 33.4726C30.7305 33.4726 28.0741 32.4109 28.0741 31.0974Z" fill="url(#paint10_linear_1328_2121)"/>
<path d="M28.0741 33.4526V34.924C28.0741 36.2348 30.7305 37.2979 34.0136 37.2979C34.1501 37.2979 34.28 37.2926 34.4139 37.2899C34.4139 36.7985 34.4139 36.2991 34.4139 35.8197C34.28 35.8224 34.1501 35.8278 34.0136 35.8278C30.7305 35.8305 28.0741 34.7674 28.0741 33.4526Z" fill="url(#paint11_linear_1328_2121)"/>
<path d="M28.0741 35.8104V37.2818C28.0741 38.5926 30.7305 39.6571 34.0136 39.6571C34.1501 39.6571 34.28 39.6517 34.4139 39.649C34.4139 39.2621 34.4139 38.7506 34.4139 38.1789C34.28 38.1816 34.1501 38.1869 34.0136 38.1869C30.7305 38.1856 28.0741 37.1238 28.0741 35.8104Z" fill="url(#paint12_linear_1328_2121)"/>
<path d="M41.2544 36.5628C37.9754 36.5628 35.315 35.4997 35.315 34.1876V35.6577C35.315 36.9699 37.9741 38.033 41.2544 38.033C44.5361 38.033 47.1938 36.9699 47.1938 35.6577V34.1876C47.1925 35.4997 44.5361 36.5628 41.2544 36.5628Z" fill="url(#paint13_linear_1328_2121)"/>
<path d="M41.2544 38.918C37.9754 38.918 35.315 37.8562 35.315 36.5428V38.0142C35.315 39.325 37.9741 40.3895 41.2544 40.3895C44.5361 40.3895 47.1938 39.325 47.1938 38.0142V36.5428C47.1925 37.8549 44.5361 38.918 41.2544 38.918Z" fill="url(#paint14_linear_1328_2121)"/>
<path d="M41.2544 41.2758C37.9754 41.2758 35.315 40.2114 35.315 38.9006V40.3707C35.315 41.6815 37.9741 42.7459 41.2544 42.7459C44.5361 42.7459 47.1938 41.6815 47.1938 40.3707V38.9006C47.1925 40.2114 44.5361 41.2758 41.2544 41.2758Z" fill="url(#paint15_linear_1328_2121)"/>
<path d="M41.2544 30.3208C37.9754 30.3208 35.315 31.3839 35.315 32.6947V33.2611C35.315 34.5719 37.9741 35.6363 41.2544 35.6363C44.5361 35.6363 47.1938 34.5746 47.1938 33.2611V32.6974C47.1925 31.3839 44.5361 30.3208 41.2544 30.3208ZM41.2544 34.4795C37.9901 34.4795 35.9121 33.4231 35.9121 32.6961C35.9121 31.969 37.9941 30.9153 41.2544 30.9153C44.5187 30.9153 46.5993 31.969 46.5993 32.6961C46.5993 33.4231 44.5173 34.4795 41.2544 34.4795Z" fill="url(#paint16_linear_1328_2121)"/>
<path d="M26.8611 37.0007V20.0206C26.8611 19.5761 26.9856 19.1784 27.2025 18.8209H10.8182V37.002L26.8611 37.0007ZM16.6867 23.8914C17.2115 23.3692 17.9064 23.0666 18.7714 22.9809V21.6621H19.8064V22.9528C20.8038 22.9997 21.5483 23.1603 22.0397 23.4348V25.3481C21.3782 24.9478 20.6325 24.7014 19.8064 24.6117V27.2989C20.8413 27.6725 21.5831 28.0982 22.033 28.5789C22.4815 29.0582 22.7064 29.6393 22.7064 30.3195C22.7064 31.1028 22.4547 31.7374 21.954 32.2154C21.4532 32.6934 20.7369 32.9866 19.8064 33.091V34.6281H18.77V33.1326C17.81 33.1272 16.9183 32.9103 16.0909 32.4818V30.515C16.3654 30.7372 16.7737 30.9434 17.3173 31.1322C17.8596 31.3223 18.3456 31.4308 18.77 31.4589V28.8775C17.6654 28.4664 16.9076 28.0206 16.5059 27.5413C16.1016 27.0619 15.8994 26.4768 15.8994 25.7859C15.8994 25.0455 16.1618 24.4122 16.6867 23.8914Z" fill="url(#paint17_linear_1328_2121)"/>
<path d="M41.2544 29.1105C43.4783 29.1105 45.804 29.5818 47.1804 30.5752V18.8196H40.8233C41.0402 19.1784 41.1633 19.5761 41.1633 20.0192V29.1118C41.1928 29.1131 41.2249 29.1105 41.2544 29.1105Z" fill="url(#paint18_linear_1328_2121)"/>
<path d="M18.77 26.8865V24.6398C18.114 24.7577 17.7846 25.1004 17.7846 25.6668C17.7846 26.1541 18.114 26.5585 18.77 26.8865Z" fill="url(#paint19_linear_1328_2121)"/>
<path d="M20.8199 30.4172C20.8199 29.9526 20.4825 29.5764 19.8064 29.2832V31.4308C20.4825 31.325 20.8199 30.989 20.8199 30.4172Z" fill="url(#paint20_linear_1328_2121)"/>
<defs>
<linearGradient id="paint0_linear_1328_2121" x1="171" y1="30.0001" x2="-6.97675e-07" y2="30.0001" gradientUnits="userSpaceOnUse">
<stop stop-color="#0B0B17" stop-opacity="0"/>
<stop offset="0.335108" stop-color="#0D443E" stop-opacity="0.34"/>
<stop offset="0.473677" stop-color="#0D4B43" stop-opacity="0.5"/>
<stop offset="0.648803" stop-color="#0D443E" stop-opacity="0.32"/>
<stop offset="1" stop-color="#0B0B17" stop-opacity="0"/>
</linearGradient>
<linearGradient id="paint1_linear_1328_2121" x1="1.27405e-06" y1="30" x2="162.45" y2="30" gradientUnits="userSpaceOnUse">
<stop stop-opacity="0"/>
<stop offset="0.260841" stop-color="#24CAB6"/>
<stop offset="0.721452" stop-color="#24CAB6" stop-opacity="0.882827"/>
<stop offset="1" stop-opacity="0"/>
</linearGradient>
<linearGradient id="paint2_linear_1328_2121" x1="9.58511" y1="29.9216" x2="45.7819" y2="29.9216" gradientUnits="userSpaceOnUse">
<stop stop-color="#BAFB02"/>
<stop offset="1" stop-color="#06AEE5"/>
</linearGradient>
<linearGradient id="paint3_linear_1328_2121" x1="9.58511" y1="29.9216" x2="45.7819" y2="29.9216" gradientUnits="userSpaceOnUse">
<stop stop-color="#BAFB02"/>
<stop offset="1" stop-color="#06AEE5"/>
</linearGradient>
<linearGradient id="paint4_linear_1328_2121" x1="9.58511" y1="29.9216" x2="45.7819" y2="29.9216" gradientUnits="userSpaceOnUse">
<stop stop-color="#BAFB02"/>
<stop offset="1" stop-color="#06AEE5"/>
</linearGradient>
<linearGradient id="paint5_linear_1328_2121" x1="9.58511" y1="29.9216" x2="45.7819" y2="29.9216" gradientUnits="userSpaceOnUse">
<stop stop-color="#BAFB02"/>
<stop offset="1" stop-color="#06AEE5"/>
</linearGradient>
<linearGradient id="paint6_linear_1328_2121" x1="9.58511" y1="29.9216" x2="45.7819" y2="29.9216" gradientUnits="userSpaceOnUse">
<stop stop-color="#BAFB02"/>
<stop offset="1" stop-color="#06AEE5"/>
</linearGradient>
<linearGradient id="paint7_linear_1328_2121" x1="9.58511" y1="29.9216" x2="45.7819" y2="29.9216" gradientUnits="userSpaceOnUse">
<stop stop-color="#BAFB02"/>
<stop offset="1" stop-color="#06AEE5"/>
</linearGradient>
<linearGradient id="paint8_linear_1328_2121" x1="9.58511" y1="29.9216" x2="45.7819" y2="29.9216" gradientUnits="userSpaceOnUse">
<stop stop-color="#BAFB02"/>
<stop offset="1" stop-color="#06AEE5"/>
</linearGradient>
<linearGradient id="paint9_linear_1328_2121" x1="9.58511" y1="29.9216" x2="45.7819" y2="29.9216" gradientUnits="userSpaceOnUse">
<stop stop-color="#BAFB02"/>
<stop offset="1" stop-color="#06AEE5"/>
</linearGradient>
<linearGradient id="paint10_linear_1328_2121" x1="9.58511" y1="29.9216" x2="45.7819" y2="29.9216" gradientUnits="userSpaceOnUse">
<stop stop-color="#BAFB02"/>
<stop offset="1" stop-color="#06AEE5"/>
</linearGradient>
<linearGradient id="paint11_linear_1328_2121" x1="9.58511" y1="29.9216" x2="45.7819" y2="29.9216" gradientUnits="userSpaceOnUse">
<stop stop-color="#BAFB02"/>
<stop offset="1" stop-color="#06AEE5"/>
</linearGradient>
<linearGradient id="paint12_linear_1328_2121" x1="9.58511" y1="29.9216" x2="45.7819" y2="29.9216" gradientUnits="userSpaceOnUse">
<stop stop-color="#BAFB02"/>
<stop offset="1" stop-color="#06AEE5"/>
</linearGradient>
<linearGradient id="paint13_linear_1328_2121" x1="9.58511" y1="29.9216" x2="45.7819" y2="29.9216" gradientUnits="userSpaceOnUse">
<stop stop-color="#BAFB02"/>
<stop offset="1" stop-color="#06AEE5"/>
</linearGradient>
<linearGradient id="paint14_linear_1328_2121" x1="9.58511" y1="29.9216" x2="45.7819" y2="29.9216" gradientUnits="userSpaceOnUse">
<stop stop-color="#BAFB02"/>
<stop offset="1" stop-color="#06AEE5"/>
</linearGradient>
<linearGradient id="paint15_linear_1328_2121" x1="9.58511" y1="29.9216" x2="45.7819" y2="29.9216" gradientUnits="userSpaceOnUse">
<stop stop-color="#BAFB02"/>
<stop offset="1" stop-color="#06AEE5"/>
</linearGradient>
<linearGradient id="paint16_linear_1328_2121" x1="9.58511" y1="29.9216" x2="45.7819" y2="29.9216" gradientUnits="userSpaceOnUse">
<stop stop-color="#BAFB02"/>
<stop offset="1" stop-color="#06AEE5"/>
</linearGradient>
<linearGradient id="paint17_linear_1328_2121" x1="9.58511" y1="29.9216" x2="45.7819" y2="29.9216" gradientUnits="userSpaceOnUse">
<stop stop-color="#BAFB02"/>
<stop offset="1" stop-color="#06AEE5"/>
</linearGradient>
<linearGradient id="paint18_linear_1328_2121" x1="9.58511" y1="29.9216" x2="45.7819" y2="29.9216" gradientUnits="userSpaceOnUse">
<stop stop-color="#BAFB02"/>
<stop offset="1" stop-color="#06AEE5"/>
</linearGradient>
<linearGradient id="paint19_linear_1328_2121" x1="9.58511" y1="29.9216" x2="45.7819" y2="29.9216" gradientUnits="userSpaceOnUse">
<stop stop-color="#BAFB02"/>
<stop offset="1" stop-color="#06AEE5"/>
</linearGradient>
<linearGradient id="paint20_linear_1328_2121" x1="9.58511" y1="29.9216" x2="45.7819" y2="29.9216" gradientUnits="userSpaceOnUse">
<stop stop-color="#BAFB02"/>
<stop offset="1" stop-color="#06AEE5"/>
</linearGradient>
</defs>
</svg>
