<svg width="171" height="60" viewBox="0 0 171 60" fill="none" xmlns="http://www.w3.org/2000/svg">
<rect x="0.5" y="-0.5" width="170" height="59" transform="matrix(1 0 0 -1 0 59)" fill="url(#paint0_linear_333_271)" stroke="url(#paint1_linear_333_271)"/>
<path d="M64.7685 36.096C63.9258 36.096 63.1792 35.9307 62.5285 35.6C61.8778 35.2587 61.3392 34.8107 60.9125 34.256C60.4858 33.6907 60.1818 33.0613 60.0005 32.368C59.8192 31.664 59.7818 30.9493 59.8885 30.224C59.9845 29.5307 60.2085 28.8533 60.5605 28.192C60.9232 27.52 61.3925 26.912 61.9685 26.368C62.5445 25.824 63.2165 25.392 63.9845 25.072C64.7525 24.7413 65.5898 24.576 66.4965 24.576C67.5845 24.576 68.5018 24.8053 69.2485 25.264C69.9952 25.712 70.5125 26.3093 70.8005 27.056L68.1765 28.752C68.0912 28.3787 67.9312 28.0907 67.6965 27.888C67.4618 27.6853 67.1952 27.5467 66.8965 27.472C66.6085 27.3867 66.3205 27.344 66.0325 27.344C65.5845 27.344 65.1845 27.4347 64.8325 27.616C64.4912 27.7867 64.1925 28.016 63.9365 28.304C63.6912 28.592 63.4938 28.912 63.3445 29.264C63.1952 29.616 63.0938 29.968 63.0405 30.32C62.9872 30.7147 62.9925 31.0933 63.0565 31.456C63.1312 31.8187 63.2592 32.144 63.4405 32.432C63.6218 32.7093 63.8618 32.928 64.1605 33.088C64.4698 33.248 64.8272 33.328 65.2325 33.328C65.5205 33.328 65.8192 33.2853 66.1285 33.2C66.4378 33.104 66.7312 32.9547 67.0085 32.752C67.2858 32.5493 67.5098 32.2773 67.6805 31.936L70.0165 33.456C69.7178 34.0107 69.2752 34.4853 68.6885 34.88C68.1125 35.2747 67.4778 35.5787 66.7845 35.792C66.0912 35.9947 65.4192 36.096 64.7685 36.096ZM74.7046 27.36H71.6486L72.2246 24.64H81.4406L80.8646 27.36H77.8246L75.9846 36H72.8646L74.7046 27.36ZM82.6024 24.64H90.1864L89.6104 27.36H85.1464L84.8104 28.96H88.6184L88.0744 31.488H84.2664L83.8824 33.28H88.4904L87.9144 36H80.1864L82.6024 24.64ZM89.4055 36L91.8055 24.64H94.9255L93.4375 31.664L98.7335 24.64H101.646L99.2455 36H96.1255L97.5335 29.392L92.3655 36H89.4055ZM96.8295 24.096C95.8375 24.096 95.0642 23.8507 94.5095 23.36C93.9655 22.8693 93.7522 22.1973 93.8695 21.344H96.2215C96.1788 21.6427 96.2428 21.872 96.4135 22.032C96.5948 22.192 96.8188 22.272 97.0855 22.272C97.3415 22.272 97.5815 22.192 97.8055 22.032C98.0295 21.872 98.1628 21.6427 98.2055 21.344H100.558C100.483 21.9093 100.275 22.4 99.9335 22.816C99.5922 23.232 99.1548 23.552 98.6215 23.776C98.0882 23.9893 97.4908 24.096 96.8295 24.096ZM101.218 36L103.618 24.64H106.722L105.842 28.816H106.258L110.034 24.64H113.81L108.498 29.92L111.314 36H107.714L105.986 31.648H105.234L104.322 36H101.218ZM112.577 36L114.977 24.64H118.097L116.609 31.664L121.905 24.64H124.817L122.417 36H119.297L120.705 29.392L115.537 36H112.577ZM126.79 24.64H129.91L129.014 28.832H132.406L133.302 24.64H136.422L134.006 36H130.886L131.83 31.552H128.438L127.494 36H124.374L126.79 24.64ZM135.84 36L138.24 24.64H145.648L145.072 27.36H140.784L138.96 36H135.84Z" fill="white"/>
<mask id="path-3-inside-1_333_271" fill="white">
<path d="M44.6634 29.8144C44.237 29.8144 43.9099 29.9062 43.6869 30.0889C43.5563 30.193 43.4325 30.3719 43.3141 30.6146H46.0243C45.9967 30.2785 45.7832 30.0454 45.3802 29.9179C45.1747 29.8457 44.9347 29.8144 44.6634 29.8144Z"/>
<path d="M42.2532 30.8971H39.8329C39.8531 31.1562 39.9853 31.342 40.2445 31.4541C40.5009 31.5645 40.7739 31.6192 41.0558 31.6192C41.3951 31.6192 41.6564 31.5528 41.8502 31.4227C42.0424 31.2916 42.1783 31.1169 42.2532 30.8971Z"/>
<path d="M39.8425 30.6146H42.3498C42.5755 30.1595 42.7858 29.8468 42.9775 29.6822C43.2998 29.414 43.7782 29.2828 44.4106 29.2828C45.3266 29.2828 45.9739 29.4544 46.3583 29.7963C46.5712 29.9853 46.7104 30.2593 46.7799 30.6151H47.7814V30.8992H46.7799C46.7141 31.4721 46.3631 31.864 45.7201 32.0674C45.3712 32.1831 44.906 32.2389 44.315 32.2389V31.7111C44.785 31.6941 45.1227 31.6532 45.3415 31.5836C45.7296 31.4589 45.9494 31.2316 45.9978 30.8971H43.1862C43.0492 31.3245 42.8081 31.6436 42.4852 31.8475C42.1497 32.0504 41.6967 32.1518 41.1153 32.1518C40.5885 32.1518 40.1186 32.0429 39.6991 31.821C39.2828 31.6012 39.0694 31.2911 39.0587 30.8971H38.3732V30.613H39.0487C39.0996 30.2222 39.2982 29.9184 39.6519 29.7076C40.0108 29.4979 40.476 29.389 41.0569 29.3774V29.8961C40.7951 29.911 40.57 29.9492 40.383 30.0199C40.0411 30.1468 39.8568 30.3438 39.8425 30.6146ZM43.0816 27.3537C39.809 27.3537 37.1626 28.8782 37.1626 30.7601C37.1626 32.6403 39.8128 34.1653 43.0816 34.1653C46.3519 34.1653 49 32.6408 49 30.7601C48.9995 28.8756 46.3519 27.3537 43.0816 27.3537Z"/>
<path d="M43.0816 34.622C40.0777 34.622 37.6065 33.3354 37.2194 31.6686C37.1859 31.8189 37.1615 31.9697 37.1615 32.1221C37.1615 34.006 39.809 35.5305 43.08 35.5305C46.3477 35.5305 49 34.006 49 32.1221C49 31.9691 48.9735 31.8183 48.9421 31.6686C48.5534 33.3354 46.0806 34.622 43.0816 34.622Z"/>
<path d="M43.0816 35.9898C40.0777 35.9898 37.6065 34.7038 37.2194 33.037C37.1859 33.1851 37.1615 33.3364 37.1615 33.4915C37.1615 35.3744 39.809 36.8989 43.08 36.8989C46.3477 36.8989 49 35.3733 49 33.4915C49 33.3364 48.9735 33.1851 48.9421 33.037C48.5534 34.7 46.0806 35.9898 43.0816 35.9898Z"/>
<path d="M43.0816 37.3539C40.0777 37.3539 37.6065 36.0679 37.2194 34.4027C37.1859 34.5498 37.1615 34.7022 37.1615 34.8551C37.1615 36.7401 39.809 38.2635 43.08 38.2635C46.3477 38.2635 49 36.7401 49 34.8551C49 34.7022 48.9735 34.5498 48.9421 34.4027C48.5534 36.0679 46.0806 37.3539 43.0816 37.3539Z"/>
<path d="M43.0816 38.7223C40.0777 38.7223 37.6065 37.4362 37.2194 35.7679C37.1859 35.9181 37.1615 36.0695 37.1615 36.2245C37.1615 38.1074 39.809 39.6314 43.08 39.6314C46.3477 39.6314 49 38.108 49 36.2245C49 36.0695 48.9735 35.9181 48.9421 35.7679C48.5534 37.4362 46.0806 38.7223 43.0816 38.7223Z"/>
<path d="M43.0816 40.2887C40.0777 40.2887 37.6065 39.0037 37.2194 37.3359C37.1859 37.4856 37.1615 37.6359 37.1615 37.7909C37.1615 39.6744 39.809 41.1994 43.08 41.1994C46.3477 41.1994 49 39.6744 49 37.792C49 37.637 48.9735 37.4872 48.9421 37.337C48.5534 39.0037 46.0806 40.2887 43.0816 40.2887Z"/>
<path d="M43.0816 41.656C40.0777 41.656 37.6065 40.37 37.2194 38.7032C37.1859 38.8529 37.1615 39.0032 37.1615 39.1583C37.1615 41.0406 39.809 42.5667 43.08 42.5667C46.3477 42.5667 49 41.0406 49 39.1583C49 39.0032 48.9735 38.8529 48.9421 38.7032C48.5534 40.37 46.0806 41.656 43.0816 41.656Z"/>
<path d="M43.0816 43.0212C40.0777 43.0212 37.6065 41.7346 37.2194 40.0678C37.1859 40.2181 37.1615 40.3668 37.1615 40.5218C37.1615 42.4053 39.809 43.9303 43.08 43.9303C46.3477 43.9303 49 42.4053 49 40.5245C49 40.3695 48.9735 40.2192 48.9421 40.0694C48.5534 41.7346 46.0806 43.0212 43.0816 43.0212Z"/>
<path d="M43.0816 44.3885C40.0777 44.3885 37.6065 43.1025 37.2194 41.4352C37.1859 41.5854 37.1615 41.7341 37.1615 41.8892C37.1615 43.7731 39.809 45.2976 43.08 45.2976C46.3477 45.2976 49 43.7731 49 41.8892C49 41.7341 48.9735 41.5854 48.9421 41.4352C48.5534 43.1025 46.0806 44.3885 43.0816 44.3885Z"/>
<path d="M31.9774 33.9163C31.55 33.9163 31.2239 34.0066 31.0004 34.1903C30.8714 34.2944 30.7476 34.4717 30.6271 34.7165H33.3373C33.3092 34.3804 33.0984 34.1462 32.6916 34.0193C32.4882 33.9471 32.2482 33.9163 31.9774 33.9163Z"/>
<path d="M29.5678 34.9995H27.1491C27.1677 35.2586 27.302 35.4434 27.5596 35.5549C27.8176 35.6654 28.0884 35.7195 28.3709 35.7195C28.7092 35.7195 28.9736 35.6553 29.1669 35.5252C29.358 35.3935 29.4918 35.2162 29.5678 34.9995Z"/>
<path d="M27.1592 34.7138H29.666C29.8901 34.2572 30.1025 33.946 30.2921 33.7809C30.6186 33.5127 31.0944 33.3816 31.7273 33.3816C32.6412 33.3816 33.29 33.5531 33.6729 33.894C33.8858 34.082 34.0249 34.3581 34.0966 34.7138H35.0975V34.9979H34.0966C34.0313 35.5698 33.6777 35.9611 33.0357 36.1661C32.6868 36.2797 32.2196 36.3355 31.6307 36.3355V35.8098C32.1011 35.7912 32.4399 35.7503 32.6582 35.6824C33.0458 35.5555 33.264 35.3282 33.3145 34.9937H30.5044C30.3669 35.4232 30.1269 35.7403 29.8004 35.9442C29.468 36.1475 29.0124 36.2495 28.4309 36.2495C27.9052 36.2495 27.4321 36.1401 27.0153 35.9181C26.5985 35.6999 26.3829 35.3898 26.3739 34.9942H25.6883V34.7144H26.3654C26.4153 34.323 26.616 34.0193 26.968 33.8101C27.3238 33.5988 27.7889 33.4899 28.3746 33.4788V33.9986C28.1118 34.0119 27.8861 34.0517 27.6987 34.1228C27.3573 34.2455 27.1741 34.4436 27.1592 34.7138ZM30.3951 31.4514C27.1215 31.4514 24.4777 32.9759 24.4777 34.8572C24.4777 36.739 27.1252 38.2635 30.3951 38.2635C33.6655 38.2635 36.3135 36.739 36.3135 34.8572C36.3135 32.9748 33.6655 31.4514 30.3951 31.4514Z"/>
<path d="M30.3951 38.7223C27.3923 38.7223 24.9216 37.4362 24.5318 35.7689C24.4994 35.9192 24.474 36.0705 24.474 36.224C24.474 38.1069 27.1215 39.633 30.3924 39.633C33.6628 39.633 36.3103 38.1069 36.3103 36.224C36.3103 36.07 36.2859 35.9187 36.2525 35.7689C35.8701 37.4362 33.3989 38.7223 30.3951 38.7223Z"/>
<path d="M30.3951 40.0891C27.3923 40.0891 24.9216 38.8025 24.5318 37.1352C24.4994 37.2854 24.474 37.4352 24.474 37.5902C24.474 39.4737 27.1215 40.9987 30.3924 40.9987C33.6628 40.9987 36.3103 39.4737 36.3103 37.5902C36.3103 37.4352 36.2859 37.2854 36.2525 37.1352C35.8701 38.8025 33.3989 40.0891 30.3951 40.0891Z"/>
<path d="M30.3951 41.4553C27.3923 41.4553 24.9216 40.1687 24.5318 38.5019C24.4994 38.6522 24.474 38.802 24.474 38.957C24.474 40.842 27.1215 42.3655 30.3924 42.3655C33.6628 42.3655 36.3103 40.8404 36.3103 38.957C36.3103 38.802 36.2859 38.6522 36.2525 38.5019C35.8701 40.1687 33.3989 41.4553 30.3951 41.4553Z"/>
<path d="M30.3951 42.82C27.3923 42.82 24.9216 41.535 24.5318 39.8666C24.4994 40.0169 24.474 40.1671 24.474 40.3222C24.474 42.2056 27.1215 43.729 30.3924 43.729C33.6628 43.729 36.3103 42.2056 36.3103 40.3222C36.3103 40.1671 36.2859 40.0169 36.2525 39.8666C35.8701 41.535 33.3989 42.82 30.3951 42.82Z"/>
<path d="M30.3951 44.3885C27.3923 44.3885 24.9216 43.1025 24.5318 41.4352C24.4994 41.5854 24.474 41.7368 24.474 41.8918C24.474 43.7731 27.1215 45.2976 30.3924 45.2976C33.6628 45.2976 36.3103 43.7731 36.3103 41.8918C36.3103 41.7368 36.2859 41.5854 36.2525 41.4352C35.8701 43.1025 33.3989 44.3885 30.3951 44.3885Z"/>
<path d="M19.2915 38.2147C18.8651 38.2147 18.5396 38.3071 18.3171 38.4903C18.1881 38.5917 18.0628 38.7712 17.9433 39.0154H20.6545C20.6259 38.6788 20.414 38.4441 20.0094 38.3182C19.8055 38.2481 19.5649 38.2147 19.2915 38.2147Z"/>
<path d="M16.8808 39.2979H14.4631C14.4807 39.557 14.6155 39.7423 14.8725 39.8539C15.1317 39.9664 15.4035 40.0195 15.6839 40.0195C16.0237 40.0195 16.2866 39.9553 16.4815 39.8231C16.6747 39.6935 16.8085 39.5172 16.8808 39.2979Z"/>
<path d="M14.4732 39.0154H16.9801C17.2073 38.5582 17.4165 38.2455 17.6077 38.0803C17.9332 37.8138 18.41 37.6832 19.0419 37.6832C19.9557 37.6832 20.6046 37.8525 20.9891 38.1945C21.202 38.3857 21.3427 38.6597 21.4107 39.0154H22.4116V39.299H21.4107C21.3454 39.873 20.9938 40.2627 20.3503 40.4687C20.003 40.5829 19.5368 40.6381 18.9453 40.6381V40.1103C19.4178 40.096 19.755 40.0524 19.9749 39.9845C20.362 39.8597 20.5786 39.6308 20.628 39.2953H17.8196C17.6794 39.7254 17.4415 40.0424 17.1149 40.2463C16.7799 40.4523 16.3264 40.5511 15.7455 40.5511C15.2198 40.5511 14.7467 40.4433 14.3299 40.2208C13.912 40.0015 13.698 39.6914 13.6884 39.2953H13.005V39.0133H13.681C13.7293 38.622 13.9306 38.3177 14.2821 38.1085C14.6394 37.8977 15.1057 37.7883 15.6887 37.7755V38.2959C15.4269 38.3113 15.2002 38.3496 15.0133 38.4207C14.6745 38.5455 14.4881 38.7441 14.4732 39.0154ZM17.7118 35.753C14.4371 35.753 11.7917 37.2775 11.7917 39.1583C11.7917 41.0406 14.4403 42.5667 17.7118 42.5667C20.9827 42.5667 23.6292 41.0406 23.6292 39.1583C23.6292 37.2759 20.9827 35.753 17.7118 35.753Z"/>
<path d="M17.7118 43.0212C14.7079 43.0212 12.2367 41.7346 11.8475 40.0678C11.8151 40.2197 11.7907 40.37 11.7907 40.525C11.7907 42.4074 14.4382 43.9308 17.7091 43.9308C20.98 43.9308 23.6276 42.4074 23.6276 40.525C23.6276 40.37 23.6015 40.2197 23.5681 40.07C23.1863 41.7346 20.7129 43.0212 17.7118 43.0212Z"/>
<path d="M17.7118 44.3885C14.7079 44.3885 12.2367 43.1025 11.8475 41.4352C11.8151 41.586 11.7907 41.7373 11.7907 41.8923C11.7907 43.7736 14.4382 45.2981 17.7091 45.2981C20.98 45.2981 23.6276 43.7736 23.6276 41.8923C23.6276 41.7373 23.6015 41.586 23.5681 41.4357C23.1863 43.1025 20.7129 44.3885 17.7118 44.3885Z"/>
<path d="M47.139 15.3953C47.139 16.1659 46.5143 16.7907 45.7437 16.7907C45.5283 16.7907 45.3243 16.7418 45.1421 16.6547L41.4217 20.3751C41.5089 20.5572 41.5577 20.7612 41.5577 20.9767C41.5577 21.7473 40.933 22.372 40.1624 22.372C39.8794 22.372 39.6161 22.2878 39.3962 22.143L35.8666 25.0844C35.9373 25.2514 35.9764 25.435 35.9764 25.6278C35.9764 26.3984 35.3517 27.0231 34.5811 27.0231C34.0516 27.0231 33.591 26.7282 33.3546 26.2937L28.5013 28.1137C28.5231 28.2118 28.5346 28.3138 28.5346 28.4184C28.5346 29.189 27.9099 29.8137 27.1393 29.8137C26.4043 29.8137 25.802 29.2454 25.7479 28.5242L19.2289 29.2485C19.2312 29.2816 19.2324 29.315 19.2324 29.3486C19.2324 30.1193 18.6077 30.744 17.8371 30.744C17.4141 30.744 17.035 30.5557 16.7791 30.2584L11.5651 34.1689C11.7077 34.3878 11.7907 34.6492 11.7907 34.93C11.7907 35.7006 11.1659 36.3253 10.3953 36.3253C9.62471 36.3253 9 35.7006 9 34.93C9 34.1593 9.62471 33.5346 10.3953 33.5346C10.7164 33.5346 11.0122 33.6431 11.248 33.8254L16.5377 29.8581C16.4758 29.7003 16.4418 29.5284 16.4418 29.3486C16.4418 28.578 17.0665 27.9533 17.8371 27.9533C18.4102 27.9533 18.9026 28.2988 19.1174 28.7929L25.7928 28.0512C25.954 27.4588 26.4958 27.0231 27.1393 27.0231C27.64 27.0231 28.0791 27.2868 28.3253 27.683L33.2039 25.8535C33.1919 25.78 33.1857 25.7046 33.1857 25.6278C33.1857 24.8571 33.8104 24.2324 34.5811 24.2324C34.9904 24.2324 35.3586 24.4087 35.6139 24.6895L39.0533 21.8234C38.8737 21.5886 38.767 21.2951 38.767 20.9767C38.767 20.206 39.3918 19.5813 40.1624 19.5813C40.5477 19.5813 40.8965 19.7375 41.149 19.99L44.757 16.382C44.5045 16.1295 44.3484 15.7806 44.3484 15.3953C44.3484 14.6247 44.9731 14 45.7437 14C46.5143 14 47.139 14.6247 47.139 15.3953Z"/>
</mask>
<path d="M44.6634 29.8144C44.237 29.8144 43.9099 29.9062 43.6869 30.0889C43.5563 30.193 43.4325 30.3719 43.3141 30.6146H46.0243C45.9967 30.2785 45.7832 30.0454 45.3802 29.9179C45.1747 29.8457 44.9347 29.8144 44.6634 29.8144Z" fill="url(#paint2_linear_333_271)"/>
<path d="M42.2532 30.8971H39.8329C39.8531 31.1562 39.9853 31.342 40.2445 31.4541C40.5009 31.5645 40.7739 31.6192 41.0558 31.6192C41.3951 31.6192 41.6564 31.5528 41.8502 31.4227C42.0424 31.2916 42.1783 31.1169 42.2532 30.8971Z" fill="url(#paint3_linear_333_271)"/>
<path d="M39.8425 30.6146H42.3498C42.5755 30.1595 42.7858 29.8468 42.9775 29.6822C43.2998 29.414 43.7782 29.2828 44.4106 29.2828C45.3266 29.2828 45.9739 29.4544 46.3583 29.7963C46.5712 29.9853 46.7104 30.2593 46.7799 30.6151H47.7814V30.8992H46.7799C46.7141 31.4721 46.3631 31.864 45.7201 32.0674C45.3712 32.1831 44.906 32.2389 44.315 32.2389V31.7111C44.785 31.6941 45.1227 31.6532 45.3415 31.5836C45.7296 31.4589 45.9494 31.2316 45.9978 30.8971H43.1862C43.0492 31.3245 42.8081 31.6436 42.4852 31.8475C42.1497 32.0504 41.6967 32.1518 41.1153 32.1518C40.5885 32.1518 40.1186 32.0429 39.6991 31.821C39.2828 31.6012 39.0694 31.2911 39.0587 30.8971H38.3732V30.613H39.0487C39.0996 30.2222 39.2982 29.9184 39.6519 29.7076C40.0108 29.4979 40.476 29.389 41.0569 29.3774V29.8961C40.7951 29.911 40.57 29.9492 40.383 30.0199C40.0411 30.1468 39.8568 30.3438 39.8425 30.6146ZM43.0816 27.3537C39.809 27.3537 37.1626 28.8782 37.1626 30.7601C37.1626 32.6403 39.8128 34.1653 43.0816 34.1653C46.3519 34.1653 49 32.6408 49 30.7601C48.9995 28.8756 46.3519 27.3537 43.0816 27.3537Z" fill="url(#paint4_linear_333_271)"/>
<path d="M43.0816 34.622C40.0777 34.622 37.6065 33.3354 37.2194 31.6686C37.1859 31.8189 37.1615 31.9697 37.1615 32.1221C37.1615 34.006 39.809 35.5305 43.08 35.5305C46.3477 35.5305 49 34.006 49 32.1221C49 31.9691 48.9735 31.8183 48.9421 31.6686C48.5534 33.3354 46.0806 34.622 43.0816 34.622Z" fill="url(#paint5_linear_333_271)"/>
<path d="M43.0816 35.9898C40.0777 35.9898 37.6065 34.7038 37.2194 33.037C37.1859 33.1851 37.1615 33.3364 37.1615 33.4915C37.1615 35.3744 39.809 36.8989 43.08 36.8989C46.3477 36.8989 49 35.3733 49 33.4915C49 33.3364 48.9735 33.1851 48.9421 33.037C48.5534 34.7 46.0806 35.9898 43.0816 35.9898Z" fill="url(#paint6_linear_333_271)"/>
<path d="M43.0816 37.3539C40.0777 37.3539 37.6065 36.0679 37.2194 34.4027C37.1859 34.5498 37.1615 34.7022 37.1615 34.8551C37.1615 36.7401 39.809 38.2635 43.08 38.2635C46.3477 38.2635 49 36.7401 49 34.8551C49 34.7022 48.9735 34.5498 48.9421 34.4027C48.5534 36.0679 46.0806 37.3539 43.0816 37.3539Z" fill="url(#paint7_linear_333_271)"/>
<path d="M43.0816 38.7223C40.0777 38.7223 37.6065 37.4362 37.2194 35.7679C37.1859 35.9181 37.1615 36.0695 37.1615 36.2245C37.1615 38.1074 39.809 39.6314 43.08 39.6314C46.3477 39.6314 49 38.108 49 36.2245C49 36.0695 48.9735 35.9181 48.9421 35.7679C48.5534 37.4362 46.0806 38.7223 43.0816 38.7223Z" fill="url(#paint8_linear_333_271)"/>
<path d="M43.0816 40.2887C40.0777 40.2887 37.6065 39.0037 37.2194 37.3359C37.1859 37.4856 37.1615 37.6359 37.1615 37.7909C37.1615 39.6744 39.809 41.1994 43.08 41.1994C46.3477 41.1994 49 39.6744 49 37.792C49 37.637 48.9735 37.4872 48.9421 37.337C48.5534 39.0037 46.0806 40.2887 43.0816 40.2887Z" fill="url(#paint9_linear_333_271)"/>
<path d="M43.0816 41.656C40.0777 41.656 37.6065 40.37 37.2194 38.7032C37.1859 38.8529 37.1615 39.0032 37.1615 39.1583C37.1615 41.0406 39.809 42.5667 43.08 42.5667C46.3477 42.5667 49 41.0406 49 39.1583C49 39.0032 48.9735 38.8529 48.9421 38.7032C48.5534 40.37 46.0806 41.656 43.0816 41.656Z" fill="url(#paint10_linear_333_271)"/>
<path d="M43.0816 43.0212C40.0777 43.0212 37.6065 41.7346 37.2194 40.0678C37.1859 40.2181 37.1615 40.3668 37.1615 40.5218C37.1615 42.4053 39.809 43.9303 43.08 43.9303C46.3477 43.9303 49 42.4053 49 40.5245C49 40.3695 48.9735 40.2192 48.9421 40.0694C48.5534 41.7346 46.0806 43.0212 43.0816 43.0212Z" fill="url(#paint11_linear_333_271)"/>
<path d="M43.0816 44.3885C40.0777 44.3885 37.6065 43.1025 37.2194 41.4352C37.1859 41.5854 37.1615 41.7341 37.1615 41.8892C37.1615 43.7731 39.809 45.2976 43.08 45.2976C46.3477 45.2976 49 43.7731 49 41.8892C49 41.7341 48.9735 41.5854 48.9421 41.4352C48.5534 43.1025 46.0806 44.3885 43.0816 44.3885Z" fill="url(#paint12_linear_333_271)"/>
<path d="M31.9774 33.9163C31.55 33.9163 31.2239 34.0066 31.0004 34.1903C30.8714 34.2944 30.7476 34.4717 30.6271 34.7165H33.3373C33.3092 34.3804 33.0984 34.1462 32.6916 34.0193C32.4882 33.9471 32.2482 33.9163 31.9774 33.9163Z" fill="url(#paint13_linear_333_271)"/>
<path d="M29.5678 34.9995H27.1491C27.1677 35.2586 27.302 35.4434 27.5596 35.5549C27.8176 35.6654 28.0884 35.7195 28.3709 35.7195C28.7092 35.7195 28.9736 35.6553 29.1669 35.5252C29.358 35.3935 29.4918 35.2162 29.5678 34.9995Z" fill="url(#paint14_linear_333_271)"/>
<path d="M27.1592 34.7138H29.666C29.8901 34.2572 30.1025 33.946 30.2921 33.7809C30.6186 33.5127 31.0944 33.3816 31.7273 33.3816C32.6412 33.3816 33.29 33.5531 33.6729 33.894C33.8858 34.082 34.0249 34.3581 34.0966 34.7138H35.0975V34.9979H34.0966C34.0313 35.5698 33.6777 35.9611 33.0357 36.1661C32.6868 36.2797 32.2196 36.3355 31.6307 36.3355V35.8098C32.1011 35.7912 32.4399 35.7503 32.6582 35.6824C33.0458 35.5555 33.264 35.3282 33.3145 34.9937H30.5044C30.3669 35.4232 30.1269 35.7403 29.8004 35.9442C29.468 36.1475 29.0124 36.2495 28.4309 36.2495C27.9052 36.2495 27.4321 36.1401 27.0153 35.9181C26.5985 35.6999 26.3829 35.3898 26.3739 34.9942H25.6883V34.7144H26.3654C26.4153 34.323 26.616 34.0193 26.968 33.8101C27.3238 33.5988 27.7889 33.4899 28.3746 33.4788V33.9986C28.1118 34.0119 27.8861 34.0517 27.6987 34.1228C27.3573 34.2455 27.1741 34.4436 27.1592 34.7138ZM30.3951 31.4514C27.1215 31.4514 24.4777 32.9759 24.4777 34.8572C24.4777 36.739 27.1252 38.2635 30.3951 38.2635C33.6655 38.2635 36.3135 36.739 36.3135 34.8572C36.3135 32.9748 33.6655 31.4514 30.3951 31.4514Z" fill="url(#paint15_linear_333_271)"/>
<path d="M30.3951 38.7223C27.3923 38.7223 24.9216 37.4362 24.5318 35.7689C24.4994 35.9192 24.474 36.0705 24.474 36.224C24.474 38.1069 27.1215 39.633 30.3924 39.633C33.6628 39.633 36.3103 38.1069 36.3103 36.224C36.3103 36.07 36.2859 35.9187 36.2525 35.7689C35.8701 37.4362 33.3989 38.7223 30.3951 38.7223Z" fill="url(#paint16_linear_333_271)"/>
<path d="M30.3951 40.0891C27.3923 40.0891 24.9216 38.8025 24.5318 37.1352C24.4994 37.2854 24.474 37.4352 24.474 37.5902C24.474 39.4737 27.1215 40.9987 30.3924 40.9987C33.6628 40.9987 36.3103 39.4737 36.3103 37.5902C36.3103 37.4352 36.2859 37.2854 36.2525 37.1352C35.8701 38.8025 33.3989 40.0891 30.3951 40.0891Z" fill="url(#paint17_linear_333_271)"/>
<path d="M30.3951 41.4553C27.3923 41.4553 24.9216 40.1687 24.5318 38.5019C24.4994 38.6522 24.474 38.802 24.474 38.957C24.474 40.842 27.1215 42.3655 30.3924 42.3655C33.6628 42.3655 36.3103 40.8404 36.3103 38.957C36.3103 38.802 36.2859 38.6522 36.2525 38.5019C35.8701 40.1687 33.3989 41.4553 30.3951 41.4553Z" fill="url(#paint18_linear_333_271)"/>
<path d="M30.3951 42.82C27.3923 42.82 24.9216 41.535 24.5318 39.8666C24.4994 40.0169 24.474 40.1671 24.474 40.3222C24.474 42.2056 27.1215 43.729 30.3924 43.729C33.6628 43.729 36.3103 42.2056 36.3103 40.3222C36.3103 40.1671 36.2859 40.0169 36.2525 39.8666C35.8701 41.535 33.3989 42.82 30.3951 42.82Z" fill="url(#paint19_linear_333_271)"/>
<path d="M30.3951 44.3885C27.3923 44.3885 24.9216 43.1025 24.5318 41.4352C24.4994 41.5854 24.474 41.7368 24.474 41.8918C24.474 43.7731 27.1215 45.2976 30.3924 45.2976C33.6628 45.2976 36.3103 43.7731 36.3103 41.8918C36.3103 41.7368 36.2859 41.5854 36.2525 41.4352C35.8701 43.1025 33.3989 44.3885 30.3951 44.3885Z" fill="url(#paint20_linear_333_271)"/>
<path d="M19.2915 38.2147C18.8651 38.2147 18.5396 38.3071 18.3171 38.4903C18.1881 38.5917 18.0628 38.7712 17.9433 39.0154H20.6545C20.6259 38.6788 20.414 38.4441 20.0094 38.3182C19.8055 38.2481 19.5649 38.2147 19.2915 38.2147Z" fill="url(#paint21_linear_333_271)"/>
<path d="M16.8808 39.2979H14.4631C14.4807 39.557 14.6155 39.7423 14.8725 39.8539C15.1317 39.9664 15.4035 40.0195 15.6839 40.0195C16.0237 40.0195 16.2866 39.9553 16.4815 39.8231C16.6747 39.6935 16.8085 39.5172 16.8808 39.2979Z" fill="url(#paint22_linear_333_271)"/>
<path d="M14.4732 39.0154H16.9801C17.2073 38.5582 17.4165 38.2455 17.6077 38.0803C17.9332 37.8138 18.41 37.6832 19.0419 37.6832C19.9557 37.6832 20.6046 37.8525 20.9891 38.1945C21.202 38.3857 21.3427 38.6597 21.4107 39.0154H22.4116V39.299H21.4107C21.3454 39.873 20.9938 40.2627 20.3503 40.4687C20.003 40.5829 19.5368 40.6381 18.9453 40.6381V40.1103C19.4178 40.096 19.755 40.0524 19.9749 39.9845C20.362 39.8597 20.5786 39.6308 20.628 39.2953H17.8196C17.6794 39.7254 17.4415 40.0424 17.1149 40.2463C16.7799 40.4523 16.3264 40.5511 15.7455 40.5511C15.2198 40.5511 14.7467 40.4433 14.3299 40.2208C13.912 40.0015 13.698 39.6914 13.6884 39.2953H13.005V39.0133H13.681C13.7293 38.622 13.9306 38.3177 14.2821 38.1085C14.6394 37.8977 15.1057 37.7883 15.6887 37.7755V38.2959C15.4269 38.3113 15.2002 38.3496 15.0133 38.4207C14.6745 38.5455 14.4881 38.7441 14.4732 39.0154ZM17.7118 35.753C14.4371 35.753 11.7917 37.2775 11.7917 39.1583C11.7917 41.0406 14.4403 42.5667 17.7118 42.5667C20.9827 42.5667 23.6292 41.0406 23.6292 39.1583C23.6292 37.2759 20.9827 35.753 17.7118 35.753Z" fill="url(#paint23_linear_333_271)"/>
<path d="M17.7118 43.0212C14.7079 43.0212 12.2367 41.7346 11.8475 40.0678C11.8151 40.2197 11.7907 40.37 11.7907 40.525C11.7907 42.4074 14.4382 43.9308 17.7091 43.9308C20.98 43.9308 23.6276 42.4074 23.6276 40.525C23.6276 40.37 23.6015 40.2197 23.5681 40.07C23.1863 41.7346 20.7129 43.0212 17.7118 43.0212Z" fill="url(#paint24_linear_333_271)"/>
<path d="M17.7118 44.3885C14.7079 44.3885 12.2367 43.1025 11.8475 41.4352C11.8151 41.586 11.7907 41.7373 11.7907 41.8923C11.7907 43.7736 14.4382 45.2981 17.7091 45.2981C20.98 45.2981 23.6276 43.7736 23.6276 41.8923C23.6276 41.7373 23.6015 41.586 23.5681 41.4357C23.1863 43.1025 20.7129 44.3885 17.7118 44.3885Z" fill="url(#paint25_linear_333_271)"/>
<path d="M47.139 15.3953C47.139 16.1659 46.5143 16.7907 45.7437 16.7907C45.5283 16.7907 45.3243 16.7418 45.1421 16.6547L41.4217 20.3751C41.5089 20.5572 41.5577 20.7612 41.5577 20.9767C41.5577 21.7473 40.933 22.372 40.1624 22.372C39.8794 22.372 39.6161 22.2878 39.3962 22.143L35.8666 25.0844C35.9373 25.2514 35.9764 25.435 35.9764 25.6278C35.9764 26.3984 35.3517 27.0231 34.5811 27.0231C34.0516 27.0231 33.591 26.7282 33.3546 26.2937L28.5013 28.1137C28.5231 28.2118 28.5346 28.3138 28.5346 28.4184C28.5346 29.189 27.9099 29.8137 27.1393 29.8137C26.4043 29.8137 25.802 29.2454 25.7479 28.5242L19.2289 29.2485C19.2312 29.2816 19.2324 29.315 19.2324 29.3486C19.2324 30.1193 18.6077 30.744 17.8371 30.744C17.4141 30.744 17.035 30.5557 16.7791 30.2584L11.5651 34.1689C11.7077 34.3878 11.7907 34.6492 11.7907 34.93C11.7907 35.7006 11.1659 36.3253 10.3953 36.3253C9.62471 36.3253 9 35.7006 9 34.93C9 34.1593 9.62471 33.5346 10.3953 33.5346C10.7164 33.5346 11.0122 33.6431 11.248 33.8254L16.5377 29.8581C16.4758 29.7003 16.4418 29.5284 16.4418 29.3486C16.4418 28.578 17.0665 27.9533 17.8371 27.9533C18.4102 27.9533 18.9026 28.2988 19.1174 28.7929L25.7928 28.0512C25.954 27.4588 26.4958 27.0231 27.1393 27.0231C27.64 27.0231 28.0791 27.2868 28.3253 27.683L33.2039 25.8535C33.1919 25.78 33.1857 25.7046 33.1857 25.6278C33.1857 24.8571 33.8104 24.2324 34.5811 24.2324C34.9904 24.2324 35.3586 24.4087 35.6139 24.6895L39.0533 21.8234C38.8737 21.5886 38.767 21.2951 38.767 20.9767C38.767 20.206 39.3918 19.5813 40.1624 19.5813C40.5477 19.5813 40.8965 19.7375 41.149 19.99L44.757 16.382C44.5045 16.1295 44.3484 15.7806 44.3484 15.3953C44.3484 14.6247 44.9731 14 45.7437 14C46.5143 14 47.139 14.6247 47.139 15.3953Z" fill="url(#paint26_linear_333_271)"/>
<path d="M44.6634 29.8144C44.237 29.8144 43.9099 29.9062 43.6869 30.0889C43.5563 30.193 43.4325 30.3719 43.3141 30.6146H46.0243C45.9967 30.2785 45.7832 30.0454 45.3802 29.9179C45.1747 29.8457 44.9347 29.8144 44.6634 29.8144Z" stroke="black" stroke-width="0.2" mask="url(#path-3-inside-1_333_271)"/>
<path d="M42.2532 30.8971H39.8329C39.8531 31.1562 39.9853 31.342 40.2445 31.4541C40.5009 31.5645 40.7739 31.6192 41.0558 31.6192C41.3951 31.6192 41.6564 31.5528 41.8502 31.4227C42.0424 31.2916 42.1783 31.1169 42.2532 30.8971Z" stroke="black" stroke-width="0.2" mask="url(#path-3-inside-1_333_271)"/>
<path d="M39.8425 30.6146H42.3498C42.5755 30.1595 42.7858 29.8468 42.9775 29.6822C43.2998 29.414 43.7782 29.2828 44.4106 29.2828C45.3266 29.2828 45.9739 29.4544 46.3583 29.7963C46.5712 29.9853 46.7104 30.2593 46.7799 30.6151H47.7814V30.8992H46.7799C46.7141 31.4721 46.3631 31.864 45.7201 32.0674C45.3712 32.1831 44.906 32.2389 44.315 32.2389V31.7111C44.785 31.6941 45.1227 31.6532 45.3415 31.5836C45.7296 31.4589 45.9494 31.2316 45.9978 30.8971H43.1862C43.0492 31.3245 42.8081 31.6436 42.4852 31.8475C42.1497 32.0504 41.6967 32.1518 41.1153 32.1518C40.5885 32.1518 40.1186 32.0429 39.6991 31.821C39.2828 31.6012 39.0694 31.2911 39.0587 30.8971H38.3732V30.613H39.0487C39.0996 30.2222 39.2982 29.9184 39.6519 29.7076C40.0108 29.4979 40.476 29.389 41.0569 29.3774V29.8961C40.7951 29.911 40.57 29.9492 40.383 30.0199C40.0411 30.1468 39.8568 30.3438 39.8425 30.6146ZM43.0816 27.3537C39.809 27.3537 37.1626 28.8782 37.1626 30.7601C37.1626 32.6403 39.8128 34.1653 43.0816 34.1653C46.3519 34.1653 49 32.6408 49 30.7601C48.9995 28.8756 46.3519 27.3537 43.0816 27.3537Z" stroke="black" stroke-width="0.2" mask="url(#path-3-inside-1_333_271)"/>
<path d="M43.0816 34.622C40.0777 34.622 37.6065 33.3354 37.2194 31.6686C37.1859 31.8189 37.1615 31.9697 37.1615 32.1221C37.1615 34.006 39.809 35.5305 43.08 35.5305C46.3477 35.5305 49 34.006 49 32.1221C49 31.9691 48.9735 31.8183 48.9421 31.6686C48.5534 33.3354 46.0806 34.622 43.0816 34.622Z" stroke="black" stroke-width="0.2" mask="url(#path-3-inside-1_333_271)"/>
<path d="M43.0816 35.9898C40.0777 35.9898 37.6065 34.7038 37.2194 33.037C37.1859 33.1851 37.1615 33.3364 37.1615 33.4915C37.1615 35.3744 39.809 36.8989 43.08 36.8989C46.3477 36.8989 49 35.3733 49 33.4915C49 33.3364 48.9735 33.1851 48.9421 33.037C48.5534 34.7 46.0806 35.9898 43.0816 35.9898Z" stroke="black" stroke-width="0.2" mask="url(#path-3-inside-1_333_271)"/>
<path d="M43.0816 37.3539C40.0777 37.3539 37.6065 36.0679 37.2194 34.4027C37.1859 34.5498 37.1615 34.7022 37.1615 34.8551C37.1615 36.7401 39.809 38.2635 43.08 38.2635C46.3477 38.2635 49 36.7401 49 34.8551C49 34.7022 48.9735 34.5498 48.9421 34.4027C48.5534 36.0679 46.0806 37.3539 43.0816 37.3539Z" stroke="black" stroke-width="0.2" mask="url(#path-3-inside-1_333_271)"/>
<path d="M43.0816 38.7223C40.0777 38.7223 37.6065 37.4362 37.2194 35.7679C37.1859 35.9181 37.1615 36.0695 37.1615 36.2245C37.1615 38.1074 39.809 39.6314 43.08 39.6314C46.3477 39.6314 49 38.108 49 36.2245C49 36.0695 48.9735 35.9181 48.9421 35.7679C48.5534 37.4362 46.0806 38.7223 43.0816 38.7223Z" stroke="black" stroke-width="0.2" mask="url(#path-3-inside-1_333_271)"/>
<path d="M43.0816 40.2887C40.0777 40.2887 37.6065 39.0037 37.2194 37.3359C37.1859 37.4856 37.1615 37.6359 37.1615 37.7909C37.1615 39.6744 39.809 41.1994 43.08 41.1994C46.3477 41.1994 49 39.6744 49 37.792C49 37.637 48.9735 37.4872 48.9421 37.337C48.5534 39.0037 46.0806 40.2887 43.0816 40.2887Z" stroke="black" stroke-width="0.2" mask="url(#path-3-inside-1_333_271)"/>
<path d="M43.0816 41.656C40.0777 41.656 37.6065 40.37 37.2194 38.7032C37.1859 38.8529 37.1615 39.0032 37.1615 39.1583C37.1615 41.0406 39.809 42.5667 43.08 42.5667C46.3477 42.5667 49 41.0406 49 39.1583C49 39.0032 48.9735 38.8529 48.9421 38.7032C48.5534 40.37 46.0806 41.656 43.0816 41.656Z" stroke="black" stroke-width="0.2" mask="url(#path-3-inside-1_333_271)"/>
<path d="M43.0816 43.0212C40.0777 43.0212 37.6065 41.7346 37.2194 40.0678C37.1859 40.2181 37.1615 40.3668 37.1615 40.5218C37.1615 42.4053 39.809 43.9303 43.08 43.9303C46.3477 43.9303 49 42.4053 49 40.5245C49 40.3695 48.9735 40.2192 48.9421 40.0694C48.5534 41.7346 46.0806 43.0212 43.0816 43.0212Z" stroke="black" stroke-width="0.2" mask="url(#path-3-inside-1_333_271)"/>
<path d="M43.0816 44.3885C40.0777 44.3885 37.6065 43.1025 37.2194 41.4352C37.1859 41.5854 37.1615 41.7341 37.1615 41.8892C37.1615 43.7731 39.809 45.2976 43.08 45.2976C46.3477 45.2976 49 43.7731 49 41.8892C49 41.7341 48.9735 41.5854 48.9421 41.4352C48.5534 43.1025 46.0806 44.3885 43.0816 44.3885Z" stroke="black" stroke-width="0.2" mask="url(#path-3-inside-1_333_271)"/>
<path d="M31.9774 33.9163C31.55 33.9163 31.2239 34.0066 31.0004 34.1903C30.8714 34.2944 30.7476 34.4717 30.6271 34.7165H33.3373C33.3092 34.3804 33.0984 34.1462 32.6916 34.0193C32.4882 33.9471 32.2482 33.9163 31.9774 33.9163Z" stroke="black" stroke-width="0.2" mask="url(#path-3-inside-1_333_271)"/>
<path d="M29.5678 34.9995H27.1491C27.1677 35.2586 27.302 35.4434 27.5596 35.5549C27.8176 35.6654 28.0884 35.7195 28.3709 35.7195C28.7092 35.7195 28.9736 35.6553 29.1669 35.5252C29.358 35.3935 29.4918 35.2162 29.5678 34.9995Z" stroke="black" stroke-width="0.2" mask="url(#path-3-inside-1_333_271)"/>
<path d="M27.1592 34.7138H29.666C29.8901 34.2572 30.1025 33.946 30.2921 33.7809C30.6186 33.5127 31.0944 33.3816 31.7273 33.3816C32.6412 33.3816 33.29 33.5531 33.6729 33.894C33.8858 34.082 34.0249 34.3581 34.0966 34.7138H35.0975V34.9979H34.0966C34.0313 35.5698 33.6777 35.9611 33.0357 36.1661C32.6868 36.2797 32.2196 36.3355 31.6307 36.3355V35.8098C32.1011 35.7912 32.4399 35.7503 32.6582 35.6824C33.0458 35.5555 33.264 35.3282 33.3145 34.9937H30.5044C30.3669 35.4232 30.1269 35.7403 29.8004 35.9442C29.468 36.1475 29.0124 36.2495 28.4309 36.2495C27.9052 36.2495 27.4321 36.1401 27.0153 35.9181C26.5985 35.6999 26.3829 35.3898 26.3739 34.9942H25.6883V34.7144H26.3654C26.4153 34.323 26.616 34.0193 26.968 33.8101C27.3238 33.5988 27.7889 33.4899 28.3746 33.4788V33.9986C28.1118 34.0119 27.8861 34.0517 27.6987 34.1228C27.3573 34.2455 27.1741 34.4436 27.1592 34.7138ZM30.3951 31.4514C27.1215 31.4514 24.4777 32.9759 24.4777 34.8572C24.4777 36.739 27.1252 38.2635 30.3951 38.2635C33.6655 38.2635 36.3135 36.739 36.3135 34.8572C36.3135 32.9748 33.6655 31.4514 30.3951 31.4514Z" stroke="black" stroke-width="0.2" mask="url(#path-3-inside-1_333_271)"/>
<path d="M30.3951 38.7223C27.3923 38.7223 24.9216 37.4362 24.5318 35.7689C24.4994 35.9192 24.474 36.0705 24.474 36.224C24.474 38.1069 27.1215 39.633 30.3924 39.633C33.6628 39.633 36.3103 38.1069 36.3103 36.224C36.3103 36.07 36.2859 35.9187 36.2525 35.7689C35.8701 37.4362 33.3989 38.7223 30.3951 38.7223Z" stroke="black" stroke-width="0.2" mask="url(#path-3-inside-1_333_271)"/>
<path d="M30.3951 40.0891C27.3923 40.0891 24.9216 38.8025 24.5318 37.1352C24.4994 37.2854 24.474 37.4352 24.474 37.5902C24.474 39.4737 27.1215 40.9987 30.3924 40.9987C33.6628 40.9987 36.3103 39.4737 36.3103 37.5902C36.3103 37.4352 36.2859 37.2854 36.2525 37.1352C35.8701 38.8025 33.3989 40.0891 30.3951 40.0891Z" stroke="black" stroke-width="0.2" mask="url(#path-3-inside-1_333_271)"/>
<path d="M30.3951 41.4553C27.3923 41.4553 24.9216 40.1687 24.5318 38.5019C24.4994 38.6522 24.474 38.802 24.474 38.957C24.474 40.842 27.1215 42.3655 30.3924 42.3655C33.6628 42.3655 36.3103 40.8404 36.3103 38.957C36.3103 38.802 36.2859 38.6522 36.2525 38.5019C35.8701 40.1687 33.3989 41.4553 30.3951 41.4553Z" stroke="black" stroke-width="0.2" mask="url(#path-3-inside-1_333_271)"/>
<path d="M30.3951 42.82C27.3923 42.82 24.9216 41.535 24.5318 39.8666C24.4994 40.0169 24.474 40.1671 24.474 40.3222C24.474 42.2056 27.1215 43.729 30.3924 43.729C33.6628 43.729 36.3103 42.2056 36.3103 40.3222C36.3103 40.1671 36.2859 40.0169 36.2525 39.8666C35.8701 41.535 33.3989 42.82 30.3951 42.82Z" stroke="black" stroke-width="0.2" mask="url(#path-3-inside-1_333_271)"/>
<path d="M30.3951 44.3885C27.3923 44.3885 24.9216 43.1025 24.5318 41.4352C24.4994 41.5854 24.474 41.7368 24.474 41.8918C24.474 43.7731 27.1215 45.2976 30.3924 45.2976C33.6628 45.2976 36.3103 43.7731 36.3103 41.8918C36.3103 41.7368 36.2859 41.5854 36.2525 41.4352C35.8701 43.1025 33.3989 44.3885 30.3951 44.3885Z" stroke="black" stroke-width="0.2" mask="url(#path-3-inside-1_333_271)"/>
<path d="M19.2915 38.2147C18.8651 38.2147 18.5396 38.3071 18.3171 38.4903C18.1881 38.5917 18.0628 38.7712 17.9433 39.0154H20.6545C20.6259 38.6788 20.414 38.4441 20.0094 38.3182C19.8055 38.2481 19.5649 38.2147 19.2915 38.2147Z" stroke="black" stroke-width="0.2" mask="url(#path-3-inside-1_333_271)"/>
<path d="M16.8808 39.2979H14.4631C14.4807 39.557 14.6155 39.7423 14.8725 39.8539C15.1317 39.9664 15.4035 40.0195 15.6839 40.0195C16.0237 40.0195 16.2866 39.9553 16.4815 39.8231C16.6747 39.6935 16.8085 39.5172 16.8808 39.2979Z" stroke="black" stroke-width="0.2" mask="url(#path-3-inside-1_333_271)"/>
<path d="M14.4732 39.0154H16.9801C17.2073 38.5582 17.4165 38.2455 17.6077 38.0803C17.9332 37.8138 18.41 37.6832 19.0419 37.6832C19.9557 37.6832 20.6046 37.8525 20.9891 38.1945C21.202 38.3857 21.3427 38.6597 21.4107 39.0154H22.4116V39.299H21.4107C21.3454 39.873 20.9938 40.2627 20.3503 40.4687C20.003 40.5829 19.5368 40.6381 18.9453 40.6381V40.1103C19.4178 40.096 19.755 40.0524 19.9749 39.9845C20.362 39.8597 20.5786 39.6308 20.628 39.2953H17.8196C17.6794 39.7254 17.4415 40.0424 17.1149 40.2463C16.7799 40.4523 16.3264 40.5511 15.7455 40.5511C15.2198 40.5511 14.7467 40.4433 14.3299 40.2208C13.912 40.0015 13.698 39.6914 13.6884 39.2953H13.005V39.0133H13.681C13.7293 38.622 13.9306 38.3177 14.2821 38.1085C14.6394 37.8977 15.1057 37.7883 15.6887 37.7755V38.2959C15.4269 38.3113 15.2002 38.3496 15.0133 38.4207C14.6745 38.5455 14.4881 38.7441 14.4732 39.0154ZM17.7118 35.753C14.4371 35.753 11.7917 37.2775 11.7917 39.1583C11.7917 41.0406 14.4403 42.5667 17.7118 42.5667C20.9827 42.5667 23.6292 41.0406 23.6292 39.1583C23.6292 37.2759 20.9827 35.753 17.7118 35.753Z" stroke="black" stroke-width="0.2" mask="url(#path-3-inside-1_333_271)"/>
<path d="M17.7118 43.0212C14.7079 43.0212 12.2367 41.7346 11.8475 40.0678C11.8151 40.2197 11.7907 40.37 11.7907 40.525C11.7907 42.4074 14.4382 43.9308 17.7091 43.9308C20.98 43.9308 23.6276 42.4074 23.6276 40.525C23.6276 40.37 23.6015 40.2197 23.5681 40.07C23.1863 41.7346 20.7129 43.0212 17.7118 43.0212Z" stroke="black" stroke-width="0.2" mask="url(#path-3-inside-1_333_271)"/>
<path d="M17.7118 44.3885C14.7079 44.3885 12.2367 43.1025 11.8475 41.4352C11.8151 41.586 11.7907 41.7373 11.7907 41.8923C11.7907 43.7736 14.4382 45.2981 17.7091 45.2981C20.98 45.2981 23.6276 43.7736 23.6276 41.8923C23.6276 41.7373 23.6015 41.586 23.5681 41.4357C23.1863 43.1025 20.7129 44.3885 17.7118 44.3885Z" stroke="black" stroke-width="0.2" mask="url(#path-3-inside-1_333_271)"/>
<path d="M47.139 15.3953C47.139 16.1659 46.5143 16.7907 45.7437 16.7907C45.5283 16.7907 45.3243 16.7418 45.1421 16.6547L41.4217 20.3751C41.5089 20.5572 41.5577 20.7612 41.5577 20.9767C41.5577 21.7473 40.933 22.372 40.1624 22.372C39.8794 22.372 39.6161 22.2878 39.3962 22.143L35.8666 25.0844C35.9373 25.2514 35.9764 25.435 35.9764 25.6278C35.9764 26.3984 35.3517 27.0231 34.5811 27.0231C34.0516 27.0231 33.591 26.7282 33.3546 26.2937L28.5013 28.1137C28.5231 28.2118 28.5346 28.3138 28.5346 28.4184C28.5346 29.189 27.9099 29.8137 27.1393 29.8137C26.4043 29.8137 25.802 29.2454 25.7479 28.5242L19.2289 29.2485C19.2312 29.2816 19.2324 29.315 19.2324 29.3486C19.2324 30.1193 18.6077 30.744 17.8371 30.744C17.4141 30.744 17.035 30.5557 16.7791 30.2584L11.5651 34.1689C11.7077 34.3878 11.7907 34.6492 11.7907 34.93C11.7907 35.7006 11.1659 36.3253 10.3953 36.3253C9.62471 36.3253 9 35.7006 9 34.93C9 34.1593 9.62471 33.5346 10.3953 33.5346C10.7164 33.5346 11.0122 33.6431 11.248 33.8254L16.5377 29.8581C16.4758 29.7003 16.4418 29.5284 16.4418 29.3486C16.4418 28.578 17.0665 27.9533 17.8371 27.9533C18.4102 27.9533 18.9026 28.2988 19.1174 28.7929L25.7928 28.0512C25.954 27.4588 26.4958 27.0231 27.1393 27.0231C27.64 27.0231 28.0791 27.2868 28.3253 27.683L33.2039 25.8535C33.1919 25.78 33.1857 25.7046 33.1857 25.6278C33.1857 24.8571 33.8104 24.2324 34.5811 24.2324C34.9904 24.2324 35.3586 24.4087 35.6139 24.6895L39.0533 21.8234C38.8737 21.5886 38.767 21.2951 38.767 20.9767C38.767 20.206 39.3918 19.5813 40.1624 19.5813C40.5477 19.5813 40.8965 19.7375 41.149 19.99L44.757 16.382C44.5045 16.1295 44.3484 15.7806 44.3484 15.3953C44.3484 14.6247 44.9731 14 45.7437 14C46.5143 14 47.139 14.6247 47.139 15.3953Z" stroke="black" stroke-width="0.2" mask="url(#path-3-inside-1_333_271)"/>
<defs>
<linearGradient id="paint0_linear_333_271" x1="171" y1="30.0001" x2="-6.97675e-07" y2="30.0001" gradientUnits="userSpaceOnUse">
<stop stop-color="#0B0B17" stop-opacity="0"/>
<stop offset="0.335108" stop-color="#0D443E" stop-opacity="0.34"/>
<stop offset="0.473677" stop-color="#0D4B43" stop-opacity="0.5"/>
<stop offset="0.648803" stop-color="#0D443E" stop-opacity="0.32"/>
<stop offset="1" stop-color="#0B0B17" stop-opacity="0"/>
</linearGradient>
<linearGradient id="paint1_linear_333_271" x1="1.27405e-06" y1="30" x2="162.45" y2="30" gradientUnits="userSpaceOnUse">
<stop stop-opacity="0"/>
<stop offset="0.260841" stop-color="#24CAB6"/>
<stop offset="0.721452" stop-color="#24CAB6" stop-opacity="0.882827"/>
<stop offset="1" stop-opacity="0"/>
</linearGradient>
<linearGradient id="paint2_linear_333_271" x1="9.58511" y1="29.7081" x2="45.7819" y2="29.7081" gradientUnits="userSpaceOnUse">
<stop stop-color="#BAFB02"/>
<stop offset="1" stop-color="#06AEE5"/>
</linearGradient>
<linearGradient id="paint3_linear_333_271" x1="9.58511" y1="29.7081" x2="45.7819" y2="29.7081" gradientUnits="userSpaceOnUse">
<stop stop-color="#BAFB02"/>
<stop offset="1" stop-color="#06AEE5"/>
</linearGradient>
<linearGradient id="paint4_linear_333_271" x1="9.58511" y1="29.7081" x2="45.7819" y2="29.7081" gradientUnits="userSpaceOnUse">
<stop stop-color="#BAFB02"/>
<stop offset="1" stop-color="#06AEE5"/>
</linearGradient>
<linearGradient id="paint5_linear_333_271" x1="9.58511" y1="29.7081" x2="45.7819" y2="29.7081" gradientUnits="userSpaceOnUse">
<stop stop-color="#BAFB02"/>
<stop offset="1" stop-color="#06AEE5"/>
</linearGradient>
<linearGradient id="paint6_linear_333_271" x1="9.58511" y1="29.7081" x2="45.7819" y2="29.7081" gradientUnits="userSpaceOnUse">
<stop stop-color="#BAFB02"/>
<stop offset="1" stop-color="#06AEE5"/>
</linearGradient>
<linearGradient id="paint7_linear_333_271" x1="9.58511" y1="29.7081" x2="45.7819" y2="29.7081" gradientUnits="userSpaceOnUse">
<stop stop-color="#BAFB02"/>
<stop offset="1" stop-color="#06AEE5"/>
</linearGradient>
<linearGradient id="paint8_linear_333_271" x1="9.58511" y1="29.7081" x2="45.7819" y2="29.7081" gradientUnits="userSpaceOnUse">
<stop stop-color="#BAFB02"/>
<stop offset="1" stop-color="#06AEE5"/>
</linearGradient>
<linearGradient id="paint9_linear_333_271" x1="9.58511" y1="29.7081" x2="45.7819" y2="29.7081" gradientUnits="userSpaceOnUse">
<stop stop-color="#BAFB02"/>
<stop offset="1" stop-color="#06AEE5"/>
</linearGradient>
<linearGradient id="paint10_linear_333_271" x1="9.58511" y1="29.7081" x2="45.7819" y2="29.7081" gradientUnits="userSpaceOnUse">
<stop stop-color="#BAFB02"/>
<stop offset="1" stop-color="#06AEE5"/>
</linearGradient>
<linearGradient id="paint11_linear_333_271" x1="9.58511" y1="29.7081" x2="45.7819" y2="29.7081" gradientUnits="userSpaceOnUse">
<stop stop-color="#BAFB02"/>
<stop offset="1" stop-color="#06AEE5"/>
</linearGradient>
<linearGradient id="paint12_linear_333_271" x1="9.58511" y1="29.7081" x2="45.7819" y2="29.7081" gradientUnits="userSpaceOnUse">
<stop stop-color="#BAFB02"/>
<stop offset="1" stop-color="#06AEE5"/>
</linearGradient>
<linearGradient id="paint13_linear_333_271" x1="9.58511" y1="29.7081" x2="45.7819" y2="29.7081" gradientUnits="userSpaceOnUse">
<stop stop-color="#BAFB02"/>
<stop offset="1" stop-color="#06AEE5"/>
</linearGradient>
<linearGradient id="paint14_linear_333_271" x1="9.58511" y1="29.7081" x2="45.7819" y2="29.7081" gradientUnits="userSpaceOnUse">
<stop stop-color="#BAFB02"/>
<stop offset="1" stop-color="#06AEE5"/>
</linearGradient>
<linearGradient id="paint15_linear_333_271" x1="9.58511" y1="29.7081" x2="45.7819" y2="29.7081" gradientUnits="userSpaceOnUse">
<stop stop-color="#BAFB02"/>
<stop offset="1" stop-color="#06AEE5"/>
</linearGradient>
<linearGradient id="paint16_linear_333_271" x1="9.58511" y1="29.7081" x2="45.7819" y2="29.7081" gradientUnits="userSpaceOnUse">
<stop stop-color="#BAFB02"/>
<stop offset="1" stop-color="#06AEE5"/>
</linearGradient>
<linearGradient id="paint17_linear_333_271" x1="9.58511" y1="29.7081" x2="45.7819" y2="29.7081" gradientUnits="userSpaceOnUse">
<stop stop-color="#BAFB02"/>
<stop offset="1" stop-color="#06AEE5"/>
</linearGradient>
<linearGradient id="paint18_linear_333_271" x1="9.58511" y1="29.7081" x2="45.7819" y2="29.7081" gradientUnits="userSpaceOnUse">
<stop stop-color="#BAFB02"/>
<stop offset="1" stop-color="#06AEE5"/>
</linearGradient>
<linearGradient id="paint19_linear_333_271" x1="9.58511" y1="29.7081" x2="45.7819" y2="29.7081" gradientUnits="userSpaceOnUse">
<stop stop-color="#BAFB02"/>
<stop offset="1" stop-color="#06AEE5"/>
</linearGradient>
<linearGradient id="paint20_linear_333_271" x1="9.58511" y1="29.7081" x2="45.7819" y2="29.7081" gradientUnits="userSpaceOnUse">
<stop stop-color="#BAFB02"/>
<stop offset="1" stop-color="#06AEE5"/>
</linearGradient>
<linearGradient id="paint21_linear_333_271" x1="9.58511" y1="29.7081" x2="45.7819" y2="29.7081" gradientUnits="userSpaceOnUse">
<stop stop-color="#BAFB02"/>
<stop offset="1" stop-color="#06AEE5"/>
</linearGradient>
<linearGradient id="paint22_linear_333_271" x1="9.58511" y1="29.7081" x2="45.7819" y2="29.7081" gradientUnits="userSpaceOnUse">
<stop stop-color="#BAFB02"/>
<stop offset="1" stop-color="#06AEE5"/>
</linearGradient>
<linearGradient id="paint23_linear_333_271" x1="9.58511" y1="29.7081" x2="45.7819" y2="29.7081" gradientUnits="userSpaceOnUse">
<stop stop-color="#BAFB02"/>
<stop offset="1" stop-color="#06AEE5"/>
</linearGradient>
<linearGradient id="paint24_linear_333_271" x1="9.58511" y1="29.7081" x2="45.7819" y2="29.7081" gradientUnits="userSpaceOnUse">
<stop stop-color="#BAFB02"/>
<stop offset="1" stop-color="#06AEE5"/>
</linearGradient>
<linearGradient id="paint25_linear_333_271" x1="9.58511" y1="29.7081" x2="45.7819" y2="29.7081" gradientUnits="userSpaceOnUse">
<stop stop-color="#BAFB02"/>
<stop offset="1" stop-color="#06AEE5"/>
</linearGradient>
<linearGradient id="paint26_linear_333_271" x1="9.58511" y1="29.7081" x2="45.7819" y2="29.7081" gradientUnits="userSpaceOnUse">
<stop stop-color="#BAFB02"/>
<stop offset="1" stop-color="#06AEE5"/>
</linearGradient>
</defs>
</svg>
