<svg width="171" height="60" viewBox="0 0 171 60" fill="none" xmlns="http://www.w3.org/2000/svg">
<rect x="0.5" y="-0.5" width="170" height="59" transform="matrix(1 0 0 -1 0 59)" fill="url(#paint0_linear_333_208)" stroke="url(#paint1_linear_333_208)"/>
<path d="M64.9013 36.096C64.0586 36.096 63.312 35.9307 62.6613 35.6C62.0106 35.2587 61.472 34.8107 61.0453 34.256C60.6186 33.6907 60.3146 33.0613 60.1333 32.368C59.952 31.664 59.9146 30.9493 60.0213 30.224C60.1173 29.5307 60.3413 28.8533 60.6933 28.192C61.056 27.52 61.5253 26.912 62.1013 26.368C62.6773 25.824 63.3493 25.392 64.1173 25.072C64.8853 24.7413 65.7226 24.576 66.6293 24.576C67.7173 24.576 68.6346 24.8053 69.3813 25.264C70.128 25.712 70.6453 26.3093 70.9333 27.056L68.3093 28.752C68.224 28.3787 68.064 28.0907 67.8293 27.888C67.5946 27.6853 67.328 27.5467 67.0293 27.472C66.7413 27.3867 66.4533 27.344 66.1653 27.344C65.7173 27.344 65.3173 27.4347 64.9653 27.616C64.624 27.7867 64.3253 28.016 64.0693 28.304C63.824 28.592 63.6266 28.912 63.4773 29.264C63.328 29.616 63.2266 29.968 63.1733 30.32C63.12 30.7147 63.1253 31.0933 63.1893 31.456C63.264 31.8187 63.392 32.144 63.5733 32.432C63.7546 32.7093 63.9946 32.928 64.2933 33.088C64.6026 33.248 64.96 33.328 65.3653 33.328C65.6533 33.328 65.952 33.2853 66.2613 33.2C66.5706 33.104 66.864 32.9547 67.1413 32.752C67.4186 32.5493 67.6426 32.2773 67.8133 31.936L70.1493 33.456C69.8506 34.0107 69.408 34.4853 68.8213 34.88C68.2453 35.2747 67.6106 35.5787 66.9173 35.792C66.224 35.9947 65.552 36.096 64.9013 36.096ZM74.8374 27.36H71.7814L72.3574 24.64H81.5734L80.9974 27.36H77.9574L76.1174 36H72.9974L74.8374 27.36ZM82.7352 24.64H87.4072C88.0152 24.64 88.5379 24.8 88.9752 25.12C89.4125 25.4293 89.7432 25.8347 89.9672 26.336C90.2019 26.8373 90.3192 27.3653 90.3192 27.92C90.3192 28.4747 90.2019 29.024 89.9672 29.568C89.7325 30.112 89.4072 30.608 88.9912 31.056C88.5752 31.4933 88.0952 31.8453 87.5512 32.112C87.0072 32.3787 86.4259 32.512 85.8072 32.512H84.1752L83.4392 36H80.3192L82.7352 24.64ZM86.1752 29.792C86.2712 29.792 86.3725 29.76 86.4792 29.696C86.5859 29.632 86.6872 29.536 86.7832 29.408C86.8899 29.2693 86.9699 29.0987 87.0232 28.896C87.0872 28.6933 87.1192 28.4533 87.1192 28.176C87.1192 27.9627 87.0925 27.7973 87.0392 27.68C86.9859 27.5627 86.9219 27.4827 86.8472 27.44C86.7725 27.3867 86.6925 27.36 86.6072 27.36H85.2792L84.7672 29.792H86.1752ZM91.6242 36.112L92.1682 33.552H93.5282C93.6989 33.552 93.8375 33.5147 93.9442 33.44C94.0509 33.3653 94.1575 33.2747 94.2642 33.168L94.3602 33.056L91.1922 24.64H94.6322L96.0402 30.048L98.8882 24.64H102.104L96.4082 34.352C96.1309 34.8 95.8375 35.152 95.5282 35.408C95.2189 35.664 94.8722 35.8453 94.4882 35.952C94.1149 36.0587 93.6775 36.112 93.1762 36.112H91.6242ZM100.866 36L103.266 24.64H106.37L105.49 28.816H105.906L109.682 24.64H113.458L108.146 29.92L110.962 36H107.362L105.634 31.648H104.882L103.97 36H100.866ZM116.322 27.36H113.266L113.842 24.64H123.058L122.482 27.36H119.442L117.602 36H114.482L116.322 27.36ZM123.484 36.112L124.028 33.552H125.388C125.558 33.552 125.697 33.5147 125.804 33.44C125.91 33.3653 126.017 33.2747 126.124 33.168L126.22 33.056L123.052 24.64H126.492L127.9 30.048L130.748 24.64H133.964L128.268 34.352C127.99 34.8 127.697 35.152 127.388 35.408C127.078 35.664 126.732 35.8453 126.348 35.952C125.974 36.0587 125.537 36.112 125.036 36.112H123.484ZM135.126 24.64H139.798C140.406 24.64 140.928 24.8 141.366 25.12C141.803 25.4293 142.134 25.8347 142.358 26.336C142.592 26.8373 142.71 27.3653 142.71 27.92C142.71 28.4747 142.592 29.024 142.358 29.568C142.123 30.112 141.798 30.608 141.382 31.056C140.966 31.4933 140.486 31.8453 139.942 32.112C139.398 32.3787 138.816 32.512 138.198 32.512H136.566L135.83 36H132.71L135.126 24.64ZM138.566 29.792C138.662 29.792 138.763 29.76 138.87 29.696C138.976 29.632 139.078 29.536 139.174 29.408C139.28 29.2693 139.36 29.0987 139.414 28.896C139.478 28.6933 139.51 28.4533 139.51 28.176C139.51 27.9627 139.483 27.7973 139.43 27.68C139.376 27.5627 139.312 27.4827 139.238 27.44C139.163 27.3867 139.083 27.36 138.998 27.36H137.67L137.158 29.792H138.566ZM147.503 24.64H150.367L151.631 36H148.463L148.351 33.776H145.631L144.591 36H141.407L147.503 24.64ZM148.303 31.696L148.175 28.176L146.527 31.696H148.303Z" fill="white"/>
<path d="M36.6557 41.1764H47.1953C48.1927 41.1764 49 40.3691 49 39.3717V13.8047C49.0048 12.8085 48.1975 12 47.2001 12H10.8047C9.80731 12 9 12.8073 9 13.8047V39.3717C9 40.3691 9.80731 41.1764 10.8047 41.1764H36.6557ZM36.6557 41.1764C36.6449 41.1647 36.6341 41.1532 36.6231 41.1417L36.5871 41.1764V41.2264H36.6335C36.9213 41.548 37.0972 41.9696 37.0972 42.4313V44.8129V44.8629H37.1472H41.1831C42.1805 44.8629 42.9878 45.6702 42.9878 46.6676C42.9878 47.665 42.1805 48.4723 41.1831 48.4723H16.8193C15.8219 48.4723 15.0146 47.665 15.0146 46.6676C15.0146 45.6702 15.8219 44.8629 16.8193 44.8629H20.8528H20.9028V44.8129V42.4313C20.9028 41.9697 21.0797 41.5471 21.3675 41.2264L36.6557 41.1764ZM21.4501 41.2112L21.532 41.1264H21.4141H10.8047C9.83493 41.1264 9.05 40.3415 9.05 39.3717V13.8047C9.05 12.8349 9.83493 12.05 10.8047 12.05H47.2001C48.1699 12.05 48.9547 12.8361 48.95 13.8045V13.8047V39.3717C48.95 40.3415 48.165 41.1264 47.1953 41.1264H36.5871H36.4695L36.5511 41.2111C36.8578 41.5296 37.0472 41.9589 37.0472 42.4313V44.8629V44.9129H37.0972H41.1831C42.1529 44.9129 42.9378 45.6978 42.9378 46.6676C42.9378 47.6374 42.1529 48.4223 41.1831 48.4223H16.8193C15.8495 48.4223 15.0646 47.6374 15.0646 46.6676C15.0646 45.6978 15.8495 44.9129 16.8193 44.9129H20.9028H20.9528V44.8629V42.4313C20.9528 41.959 21.1433 41.5285 21.4501 41.2112ZM45.3953 37.617H45.4453V37.567V15.6095V15.5595H45.3953H12.6095H12.5595V15.6095V37.567V37.617H12.6095H45.3953ZM40.8778 21.4065L40.8471 21.3924L40.8226 21.4157L34.3556 27.5699L34.3296 27.5946L34.3448 27.6271C34.4526 27.8593 34.5158 28.118 34.5158 28.3905C34.5158 29.4013 33.6959 30.2211 32.6864 30.2211C31.7195 30.2211 30.9369 29.4683 30.8678 28.5204L30.8654 28.4867L30.8332 28.4765L26.8495 27.2047L26.8173 27.1944L26.7958 27.2205C26.4592 27.6274 25.958 27.8906 25.3905 27.8906C24.966 27.8906 24.5808 27.7398 24.2686 27.4968L24.2371 27.4723L24.2062 27.4976L18.0184 32.5701L17.9878 32.5952L18.0052 32.6307C18.1238 32.8738 18.1962 33.1443 18.1962 33.4329C18.1962 34.4424 17.3764 35.2623 16.3657 35.2623C15.355 35.2623 14.5364 34.4425 14.5364 33.4317C14.5364 32.421 15.3562 31.6012 16.3669 31.6012C16.6577 31.6012 16.9293 31.6759 17.175 31.797L17.2039 31.8112L17.2288 31.7908L23.6067 26.5631L23.6314 26.5429L23.6234 26.512C23.5856 26.3654 23.56 26.2169 23.56 26.0612C23.56 25.0505 24.3798 24.2307 25.3905 24.2307C26.4012 24.2307 27.2211 25.0505 27.2211 26.0612C27.2211 26.0686 27.2201 26.0757 27.2186 26.0866C27.2171 26.0968 27.215 26.1107 27.215 26.1262V26.1627L27.2498 26.1738L31.1023 27.4059L31.1383 27.4174L31.1592 27.3858C31.4873 26.8902 32.0495 26.5624 32.6876 26.5624C32.9949 26.5624 33.2793 26.6441 33.5365 26.7804L33.5683 26.7972L33.5944 26.7724L40.018 20.6592L40.0456 20.633L40.0277 20.5994C39.8903 20.3423 39.8074 20.0543 39.8074 19.7459C39.8074 18.7351 40.626 17.9154 41.6367 17.9154C42.6473 17.9154 43.4636 18.7351 43.4636 19.7459C43.4636 20.7566 42.645 21.5752 41.6343 21.5752C41.3666 21.5752 41.109 21.5121 40.8778 21.4065Z" fill="url(#paint2_linear_333_208)" stroke="black" stroke-width="0.1"/>
<defs>
<linearGradient id="paint0_linear_333_208" x1="171" y1="30.0001" x2="-6.97675e-07" y2="30.0001" gradientUnits="userSpaceOnUse">
<stop stop-color="#0B0B17" stop-opacity="0"/>
<stop offset="0.335108" stop-color="#0D443E" stop-opacity="0.34"/>
<stop offset="0.473677" stop-color="#0D4B43" stop-opacity="0.5"/>
<stop offset="0.648803" stop-color="#0D443E" stop-opacity="0.32"/>
<stop offset="1" stop-color="#0B0B17" stop-opacity="0"/>
</linearGradient>
<linearGradient id="paint1_linear_333_208" x1="1.27405e-06" y1="30" x2="162.45" y2="30" gradientUnits="userSpaceOnUse">
<stop stop-opacity="0"/>
<stop offset="0.260841" stop-color="#24CAB6"/>
<stop offset="0.721452" stop-color="#24CAB6" stop-opacity="0.882827"/>
<stop offset="1" stop-opacity="0"/>
</linearGradient>
<linearGradient id="paint2_linear_333_208" x1="9.58511" y1="30.305" x2="45.7819" y2="30.305" gradientUnits="userSpaceOnUse">
<stop stop-color="#BAFB02"/>
<stop offset="1" stop-color="#06AEE5"/>
</linearGradient>
</defs>
</svg>
