<svg width="932" height="182" viewBox="0 0 932 182" fill="none" xmlns="http://www.w3.org/2000/svg">
<rect x="0.5" y="-0.5" width="931" height="124" transform="matrix(1 0 0 -1 0 181)" fill="url(#paint0_linear_755_1251)" fill-opacity="0.7" stroke="url(#paint1_linear_755_1251)"/>
<mask id="path-2-inside-1_755_1251" fill="white">
<path d="M673.945 0H511.076C506.613 0 503 3.61273 503 8.07615V122.488C503 126.952 506.613 130.564 511.076 130.564H558.553C557.143 132.024 556.265 134.005 556.265 136.18V147.061H537.991C533.528 147.061 529.915 150.674 529.915 155.138C529.915 159.601 533.528 163.214 537.991 163.214H647.019C651.483 163.214 655.096 159.601 655.096 155.138C655.096 150.674 651.483 147.061 647.019 147.061H628.735V136.18C628.735 134.005 627.863 132.029 626.452 130.564H673.924C678.387 130.564 682 126.952 682 122.488V8.07615C682.021 3.61812 678.409 0 673.945 0ZM665.869 114.412H519.152V16.1523H665.869V114.412ZM657.448 34.6629C657.448 39.3093 653.685 43.0728 649.038 43.0728C647.805 43.0728 646.621 42.7821 645.56 42.2975L616.621 69.8372C617.116 70.9033 617.407 72.0931 617.407 73.3476C617.407 77.9941 613.638 81.763 608.997 81.763C604.55 81.763 600.953 78.301 600.635 73.9453L582.809 68.2543C581.263 70.1226 578.959 71.334 576.348 71.334C574.393 71.334 572.622 70.6394 571.19 69.5249L543.499 92.2243C544.043 93.3388 544.377 94.5825 544.377 95.9124C544.377 100.554 540.608 104.322 535.961 104.322C531.315 104.322 527.552 100.554 527.552 95.907C527.552 91.2606 531.32 87.4917 535.967 87.4917C537.308 87.4917 538.557 87.8363 539.682 88.3908L568.223 64.9969C568.051 64.3293 567.932 63.6455 567.932 62.924C567.932 58.2775 571.701 54.5087 576.348 54.5087C580.994 54.5087 584.763 58.2775 584.763 62.924C584.763 63.0263 584.736 63.1125 584.736 63.2148L601.976 68.7281C603.484 66.4506 606.068 64.9431 609.002 64.9431C610.418 64.9431 611.727 65.3199 612.906 65.9445L641.651 38.5879C641.021 37.4087 640.639 36.0843 640.639 34.6629C640.639 30.0164 644.403 26.2475 649.049 26.2475C653.696 26.2475 657.448 30.0164 657.448 34.6629Z"/>
</mask>
<path d="M673.945 0H511.076C506.613 0 503 3.61273 503 8.07615V122.488C503 126.952 506.613 130.564 511.076 130.564H558.553C557.143 132.024 556.265 134.005 556.265 136.18V147.061H537.991C533.528 147.061 529.915 150.674 529.915 155.138C529.915 159.601 533.528 163.214 537.991 163.214H647.019C651.483 163.214 655.096 159.601 655.096 155.138C655.096 150.674 651.483 147.061 647.019 147.061H628.735V136.18C628.735 134.005 627.863 132.029 626.452 130.564H673.924C678.387 130.564 682 126.952 682 122.488V8.07615C682.021 3.61812 678.409 0 673.945 0ZM665.869 114.412H519.152V16.1523H665.869V114.412ZM657.448 34.6629C657.448 39.3093 653.685 43.0728 649.038 43.0728C647.805 43.0728 646.621 42.7821 645.56 42.2975L616.621 69.8372C617.116 70.9033 617.407 72.0931 617.407 73.3476C617.407 77.9941 613.638 81.763 608.997 81.763C604.55 81.763 600.953 78.301 600.635 73.9453L582.809 68.2543C581.263 70.1226 578.959 71.334 576.348 71.334C574.393 71.334 572.622 70.6394 571.19 69.5249L543.499 92.2243C544.043 93.3388 544.377 94.5825 544.377 95.9124C544.377 100.554 540.608 104.322 535.961 104.322C531.315 104.322 527.552 100.554 527.552 95.907C527.552 91.2606 531.32 87.4917 535.967 87.4917C537.308 87.4917 538.557 87.8363 539.682 88.3908L568.223 64.9969C568.051 64.3293 567.932 63.6455 567.932 62.924C567.932 58.2775 571.701 54.5087 576.348 54.5087C580.994 54.5087 584.763 58.2775 584.763 62.924C584.763 63.0263 584.736 63.1125 584.736 63.2148L601.976 68.7281C603.484 66.4506 606.068 64.9431 609.002 64.9431C610.418 64.9431 611.727 65.3199 612.906 65.9445L641.651 38.5879C641.021 37.4087 640.639 36.0843 640.639 34.6629C640.639 30.0164 644.403 26.2475 649.049 26.2475C653.696 26.2475 657.448 30.0164 657.448 34.6629Z" fill="url(#paint2_linear_755_1251)" stroke="black" stroke-width="0.2" mask="url(#path-2-inside-1_755_1251)"/>
<path d="M68.824 142.384C65.4533 142.384 62.4667 141.723 59.864 140.4C57.2613 139.035 55.1067 137.243 53.4 135.024C51.6933 132.763 50.4773 130.245 49.752 127.472C49.0267 124.656 48.8773 121.797 49.304 118.896C49.688 116.123 50.584 113.413 51.992 110.768C53.4427 108.08 55.32 105.648 57.624 103.472C59.928 101.296 62.616 99.568 65.688 98.288C68.76 96.9653 72.1093 96.304 75.736 96.304C80.088 96.304 83.7573 97.2213 86.744 99.056C89.7307 100.848 91.8 103.237 92.952 106.224L82.456 113.008C82.1147 111.515 81.4747 110.363 80.536 109.552C79.5973 108.741 78.5307 108.187 77.336 107.888C76.184 107.547 75.032 107.376 73.88 107.376C72.088 107.376 70.488 107.739 69.08 108.464C67.7147 109.147 66.52 110.064 65.496 111.216C64.5147 112.368 63.7253 113.648 63.128 115.056C62.5307 116.464 62.1253 117.872 61.912 119.28C61.6987 120.859 61.72 122.373 61.976 123.824C62.2747 125.275 62.7867 126.576 63.512 127.728C64.2373 128.837 65.1973 129.712 66.392 130.352C67.6293 130.992 69.0587 131.312 70.68 131.312C71.832 131.312 73.0267 131.141 74.264 130.8C75.5013 130.416 76.6747 129.819 77.784 129.008C78.8933 128.197 79.7893 127.109 80.472 125.744L89.816 131.824C88.6213 134.043 86.8507 135.941 84.504 137.52C82.2 139.099 79.6613 140.315 76.888 141.168C74.1147 141.979 71.4267 142.384 68.824 142.384ZM108.569 107.44H96.3445L98.6485 96.56H135.513L133.209 107.44H121.049L113.689 142H101.209L108.569 107.44ZM140.16 96.56H158.848C161.28 96.56 163.37 97.2 165.12 98.48C166.869 99.7173 168.192 101.339 169.088 103.344C170.026 105.349 170.496 107.461 170.496 109.68C170.496 111.899 170.026 114.096 169.088 116.272C168.149 118.448 166.848 120.432 165.184 122.224C163.52 123.973 161.6 125.381 159.424 126.448C157.248 127.515 154.922 128.048 152.448 128.048H145.92L142.976 142H130.495L140.16 96.56ZM153.92 117.168C154.304 117.168 154.709 117.04 155.136 116.784C155.562 116.528 155.968 116.144 156.352 115.632C156.778 115.077 157.098 114.395 157.312 113.584C157.568 112.773 157.696 111.813 157.696 110.704C157.696 109.851 157.589 109.189 157.376 108.72C157.162 108.251 156.906 107.931 156.608 107.76C156.309 107.547 155.989 107.44 155.648 107.44H150.336L148.288 117.168H153.92ZM175.716 142.448L177.892 132.208H183.332C184.014 132.208 184.569 132.059 184.996 131.76C185.422 131.461 185.849 131.099 186.276 130.672L186.66 130.224L173.988 96.56H187.748L193.38 118.192L204.772 96.56H217.636L194.852 135.408C193.742 137.2 192.569 138.608 191.332 139.632C190.094 140.656 188.708 141.381 187.172 141.808C185.678 142.235 183.929 142.448 181.924 142.448H175.716ZM212.684 142L222.285 96.56H234.701L231.181 113.264H232.845L247.949 96.56H263.053L241.805 117.68L253.069 142H238.669L231.757 124.592H228.749L225.101 142H212.684ZM274.506 107.44H262.282L264.586 96.56H301.45L299.146 107.44H286.986L279.626 142H267.146L274.506 107.44ZM303.153 142.448L305.329 132.208H310.769C311.452 132.208 312.006 132.059 312.433 131.76C312.86 131.461 313.286 131.099 313.713 130.672L314.097 130.224L301.425 96.56H315.185L320.817 118.192L332.209 96.56H345.073L322.289 135.408C321.18 137.2 320.006 138.608 318.769 139.632C317.532 140.656 316.145 141.381 314.609 141.808C313.116 142.235 311.366 142.448 309.361 142.448H303.153ZM349.722 96.56H368.41C370.842 96.56 372.933 97.2 374.682 98.48C376.431 99.7173 377.754 101.339 378.65 103.344C379.589 105.349 380.058 107.461 380.058 109.68C380.058 111.899 379.589 114.096 378.65 116.272C377.711 118.448 376.41 120.432 374.746 122.224C373.082 123.973 371.162 125.381 368.986 126.448C366.81 127.515 364.485 128.048 362.01 128.048H355.482L352.538 142H340.058L349.722 96.56ZM363.482 117.168C363.866 117.168 364.271 117.04 364.698 116.784C365.125 116.528 365.53 116.144 365.914 115.632C366.341 115.077 366.661 114.395 366.874 113.584C367.13 112.773 367.258 111.813 367.258 110.704C367.258 109.851 367.151 109.189 366.938 108.72C366.725 108.251 366.469 107.931 366.17 107.76C365.871 107.547 365.551 107.44 365.21 107.44H359.898L357.85 117.168H363.482ZM399.23 96.56H410.686L415.742 142H403.07L402.622 133.104H391.742L387.582 142H374.846L399.23 96.56ZM402.43 124.784L401.918 110.704L395.326 124.784H402.43Z" fill="url(#paint3_linear_755_1251)"/>
<defs>
<linearGradient id="paint0_linear_755_1251" x1="932" y1="62.5001" x2="-3.80253e-06" y2="62.5001" gradientUnits="userSpaceOnUse">
<stop stop-color="#0B0B17" stop-opacity="0"/>
<stop offset="0.105792" stop-color="#082523" stop-opacity="0.365182"/>
<stop offset="0.246641" stop-color="#0A312C" stop-opacity="0.5"/>
<stop offset="0.473677" stop-color="#0D4B43" stop-opacity="0.5"/>
<stop offset="0.682984" stop-color="#09342E" stop-opacity="0.5"/>
<stop offset="0.806953" stop-color="#082C28" stop-opacity="0.419712"/>
<stop offset="1" stop-color="#0B1117" stop-opacity="0"/>
</linearGradient>
<linearGradient id="paint1_linear_755_1251" x1="6.94394e-06" y1="62.4999" x2="885.4" y2="62.5" gradientUnits="userSpaceOnUse">
<stop stop-opacity="0"/>
<stop offset="0.260841" stop-color="#24CAB6"/>
<stop offset="0.721452" stop-color="#24CAB6" stop-opacity="0.882827"/>
<stop offset="1" stop-opacity="0"/>
</linearGradient>
<linearGradient id="paint2_linear_755_1251" x1="505.618" y1="81.9149" x2="667.599" y2="81.9149" gradientUnits="userSpaceOnUse">
<stop stop-color="#BAFB02"/>
<stop offset="1" stop-color="#06AEE5"/>
</linearGradient>
<linearGradient id="paint3_linear_755_1251" x1="52.4561" y1="119.642" x2="389.991" y2="119.642" gradientUnits="userSpaceOnUse">
<stop stop-color="#BAFB02"/>
<stop offset="1" stop-color="#06AEE5"/>
</linearGradient>
</defs>
</svg>
