<svg width="91" height="24" viewBox="0 0 91 24" fill="none" xmlns="http://www.w3.org/2000/svg">
<mask id="path-1-inside-1_757_1326" fill="white">
<path d="M0 8C0 3.58172 3.58172 0 8 0H83C87.4183 0 91 3.58172 91 8V16C91 20.4183 87.4183 24 83 24H8C3.58172 24 0 20.4183 0 16V8Z"/>
</mask>
<path d="M0 8C0 3.58172 3.58172 0 8 0H83C87.4183 0 91 3.58172 91 8V16C91 20.4183 87.4183 24 83 24H8C3.58172 24 0 20.4183 0 16V8Z" fill="url(#paint0_radial_757_1326)" stroke="url(#paint1_linear_757_1326)" stroke-width="2" mask="url(#path-1-inside-1_757_1326)"/>
<path d="M4.99789 17V7.06H13.5239V17H10.7939V9.44H7.72789V17H4.99789ZM22.3755 14.62V17H15.2915V7.06H22.2495V9.44H18.0215V10.84H21.6335V13.052H18.0215V14.62H22.3755ZM23.645 17V7.06H27.929C28.4143 7.06 28.8623 7.158 29.273 7.354C29.6837 7.55 30.0383 7.816 30.337 8.152C30.6357 8.47867 30.8643 8.84733 31.023 9.258C31.191 9.66867 31.275 10.084 31.275 10.504C31.275 11.092 31.135 11.6473 30.855 12.17C30.5843 12.6927 30.2017 13.122 29.707 13.458C29.2217 13.7847 28.6523 13.948 27.999 13.948H26.375V17H23.645ZM26.375 11.568H27.817C27.929 11.568 28.0363 11.5353 28.139 11.47C28.2417 11.4047 28.3257 11.2927 28.391 11.134C28.4657 10.9753 28.503 10.7653 28.503 10.504C28.503 10.224 28.461 10.0093 28.377 9.86C28.3023 9.70133 28.2043 9.594 28.083 9.538C27.971 9.47267 27.859 9.44 27.747 9.44H26.375V11.568ZM39.4517 14.62V17H32.3677V7.06H39.3257V9.44H35.0977V10.84H38.7097V13.052H35.0977V14.62H39.4517ZM49.1772 14.452C49.1772 15.0493 49.0139 15.5347 48.6872 15.908C48.3699 16.2813 47.9405 16.5567 47.3992 16.734C46.8579 16.9113 46.2605 17 45.6072 17H40.7212V7.06H46.4892C46.9559 7.06 47.3572 7.186 47.6932 7.438C48.0385 7.68067 48.2999 7.998 48.4772 8.39C48.6639 8.782 48.7572 9.188 48.7572 9.608C48.7572 10.0653 48.6359 10.5087 48.3932 10.938C48.1599 11.3673 47.8052 11.6893 47.3292 11.904C47.8985 12.072 48.3465 12.366 48.6732 12.786C49.0092 13.206 49.1772 13.7613 49.1772 14.452ZM46.4052 13.892C46.4052 13.724 46.3725 13.5793 46.3072 13.458C46.2512 13.3273 46.1719 13.2247 46.0692 13.15C45.9665 13.0753 45.8452 13.038 45.7052 13.038H43.4512V14.704H45.6072C45.7565 14.704 45.8919 14.6713 46.0132 14.606C46.1345 14.5407 46.2279 14.4473 46.2932 14.326C46.3679 14.2047 46.4052 14.06 46.4052 13.892ZM43.4512 9.384V10.91H45.3132C45.4345 10.91 45.5512 10.8913 45.6632 10.854C45.7752 10.8073 45.8685 10.728 45.9432 10.616C46.0179 10.504 46.0552 10.3453 46.0552 10.14C46.0552 9.95333 46.0225 9.80867 45.9572 9.706C45.9012 9.594 45.8219 9.51467 45.7192 9.468C45.6259 9.412 45.5185 9.384 45.3972 9.384H43.4512ZM57.4712 14.62V17H50.3872V7.06H57.3452V9.44H53.1172V10.84H56.7292V13.052H53.1172V14.62H57.4712ZM58.0443 11.946C58.0443 11.3393 58.1563 10.7467 58.3803 10.168C58.6137 9.58 58.9497 9.048 59.3883 8.572C59.827 8.096 60.359 7.718 60.9843 7.438C61.619 7.14867 62.333 7.004 63.1263 7.004C64.0783 7.004 64.909 7.20467 65.6183 7.606C66.3277 7.998 66.855 8.52067 67.2003 9.174L65.1143 10.658C64.993 10.3313 64.8157 10.0793 64.5823 9.902C64.3583 9.72467 64.111 9.60333 63.8403 9.538C63.579 9.46333 63.3223 9.426 63.0703 9.426C62.6783 9.426 62.3377 9.50533 62.0483 9.664C61.7683 9.81333 61.535 10.014 61.3483 10.266C61.171 10.518 61.0357 10.798 60.9423 11.106C60.8583 11.414 60.8163 11.722 60.8163 12.03C60.8163 12.3753 60.8677 12.7067 60.9703 13.024C61.073 13.3413 61.2223 13.626 61.4183 13.878C61.6143 14.1207 61.8523 14.312 62.1323 14.452C62.4217 14.592 62.7437 14.662 63.0983 14.662C63.3503 14.662 63.607 14.6247 63.8683 14.55C64.1297 14.466 64.3677 14.3353 64.5823 14.158C64.797 13.9807 64.9603 13.7427 65.0723 13.444L67.2983 14.774C67.1023 15.2593 66.7757 15.6747 66.3183 16.02C65.861 16.3653 65.343 16.6313 64.7643 16.818C64.1857 16.9953 63.6117 17.084 63.0423 17.084C62.305 17.084 61.6283 16.9393 61.0123 16.65C60.4057 16.3513 59.8783 15.9593 59.4303 15.474C58.9917 14.9793 58.651 14.4287 58.4083 13.822C58.1657 13.206 58.0443 12.5807 58.0443 11.946ZM76.012 9.44H73.156V17H70.426V9.44H67.556V7.06H76.012V9.44ZM77.0623 17V7.06H79.7923V13.108L83.4603 7.06H86.0083V17H83.2783V10.952L79.6523 17H77.0623Z" fill="url(#paint2_linear_757_1326)"/>
<defs>
<radialGradient id="paint0_radial_757_1326" cx="0" cy="0" r="1" gradientUnits="userSpaceOnUse" gradientTransform="translate(45.5 12) rotate(90) scale(12 45.5)">
<stop stop-color="#02100E"/>
<stop offset="1" stop-color="#062622"/>
</radialGradient>
<linearGradient id="paint1_linear_757_1326" x1="1.33112" y1="12.0453" x2="83.6789" y2="12.0453" gradientUnits="userSpaceOnUse">
<stop stop-color="#BAFB02"/>
<stop offset="1" stop-color="#06AEE5"/>
</linearGradient>
<linearGradient id="paint2_linear_757_1326" x1="5.2141" y1="12.0302" x2="80.3225" y2="12.0302" gradientUnits="userSpaceOnUse">
<stop stop-color="#BAFB02"/>
<stop offset="1" stop-color="#06AEE5"/>
</linearGradient>
</defs>
</svg>
