<svg width="100" height="24" viewBox="0 0 100 24" fill="none" xmlns="http://www.w3.org/2000/svg">
<mask id="path-1-inside-1_757_1320" fill="white">
<path d="M0 8C0 3.58172 3.58172 0 8 0H92C96.4183 0 100 3.58172 100 8V16C100 20.4183 96.4183 24 92 24H8C3.58172 24 0 20.4183 0 16V8Z"/>
</mask>
<path d="M0 8C0 3.58172 3.58172 0 8 0H92C96.4183 0 100 3.58172 100 8V16C100 20.4183 96.4183 24 92 24H8C3.58172 24 0 20.4183 0 16V8Z" fill="url(#paint0_radial_757_1320)" stroke="url(#paint1_linear_757_1320)" stroke-width="2" mask="url(#path-1-inside-1_757_1320)"/>
<path d="M24.1207 14.452C24.1207 15.0493 23.9574 15.5347 23.6307 15.908C23.3134 16.2813 22.8841 16.5567 22.3427 16.734C21.8014 16.9113 21.2041 17 20.5507 17H15.6647V7.06H21.4327C21.8994 7.06 22.3007 7.186 22.6367 7.438C22.9821 7.68067 23.2434 7.998 23.4207 8.39C23.6074 8.782 23.7007 9.188 23.7007 9.608C23.7007 10.0653 23.5794 10.5087 23.3367 10.938C23.1034 11.3673 22.7487 11.6893 22.2727 11.904C22.8421 12.072 23.2901 12.366 23.6167 12.786C23.9527 13.206 24.1207 13.7613 24.1207 14.452ZM21.3487 13.892C21.3487 13.724 21.3161 13.5793 21.2507 13.458C21.1947 13.3273 21.1154 13.2247 21.0127 13.15C20.9101 13.0753 20.7887 13.038 20.6487 13.038H18.3947V14.704H20.5507C20.7001 14.704 20.8354 14.6713 20.9567 14.606C21.0781 14.5407 21.1714 14.4473 21.2367 14.326C21.3114 14.2047 21.3487 14.06 21.3487 13.892ZM18.3947 9.384V10.91H20.2567C20.3781 10.91 20.4947 10.8913 20.6067 10.854C20.7187 10.8073 20.8121 10.728 20.8867 10.616C20.9614 10.504 20.9987 10.3453 20.9987 10.14C20.9987 9.95333 20.9661 9.80867 20.9007 9.706C20.8447 9.594 20.7654 9.51467 20.6627 9.468C20.5694 9.412 20.4621 9.384 20.3407 9.384H18.3947ZM25.3307 17V7.06H28.0607V10.35H29.6847C30.4314 10.35 31.0707 10.4853 31.6027 10.756C32.1441 11.0173 32.5594 11.3953 32.8488 11.89C33.1474 12.3753 33.2968 12.9587 33.2968 13.64C33.2968 14.3307 33.1568 14.928 32.8767 15.432C32.5968 15.936 32.1954 16.3233 31.6727 16.594C31.1594 16.8647 30.5434 17 29.8247 17H25.3307ZM28.0607 14.788H29.4327C29.6754 14.788 29.8761 14.7413 30.0347 14.648C30.1934 14.5547 30.3101 14.424 30.3847 14.256C30.4687 14.0787 30.5107 13.8733 30.5107 13.64C30.5107 13.4533 30.4687 13.2807 30.3847 13.122C30.3007 12.954 30.1794 12.8187 30.0207 12.716C29.8621 12.6133 29.6661 12.562 29.4327 12.562H28.0607V14.788ZM34.5707 17V7.06H37.3008V17H34.5707ZM47.4586 14.452C47.4586 15.0493 47.2953 15.5347 46.9686 15.908C46.6513 16.2813 46.222 16.5567 45.6806 16.734C45.1393 16.9113 44.542 17 43.8886 17H39.0026V7.06H44.7706C45.2373 7.06 45.6386 7.186 45.9746 7.438C46.32 7.68067 46.5813 7.998 46.7586 8.39C46.9453 8.782 47.0386 9.188 47.0386 9.608C47.0386 10.0653 46.9173 10.5087 46.6746 10.938C46.4413 11.3673 46.0866 11.6893 45.6106 11.904C46.18 12.072 46.628 12.366 46.9546 12.786C47.2906 13.206 47.4586 13.7613 47.4586 14.452ZM44.6866 13.892C44.6866 13.724 44.654 13.5793 44.5886 13.458C44.5326 13.3273 44.4533 13.2247 44.3506 13.15C44.248 13.0753 44.1266 13.038 43.9866 13.038H41.7326V14.704H43.8886C44.038 14.704 44.1733 14.6713 44.2946 14.606C44.416 14.5407 44.5093 14.4473 44.5746 14.326C44.6493 14.2047 44.6866 14.06 44.6866 13.892ZM41.7326 9.384V10.91H43.5946C43.716 10.91 43.8326 10.8913 43.9446 10.854C44.0566 10.8073 44.15 10.728 44.2246 10.616C44.2993 10.504 44.3366 10.3453 44.3366 10.14C44.3366 9.95333 44.304 9.80867 44.2386 9.706C44.1826 9.594 44.1033 9.51467 44.0006 9.468C43.9073 9.412 43.8 9.384 43.6786 9.384H41.7326ZM55.7526 14.62V17H48.6686V7.06H55.6266V9.44H51.3986V10.84H55.0106V13.052H51.3986V14.62H55.7526ZM56.3258 11.946C56.3258 11.3393 56.4378 10.7467 56.6618 10.168C56.8951 9.58 57.2311 9.048 57.6698 8.572C58.1084 8.096 58.6404 7.718 59.2658 7.438C59.9004 7.14867 60.6144 7.004 61.4078 7.004C62.3598 7.004 63.1904 7.20467 63.8998 7.606C64.6091 7.998 65.1364 8.52067 65.4818 9.174L63.3958 10.658C63.2744 10.3313 63.0971 10.0793 62.8638 9.902C62.6398 9.72467 62.3924 9.60333 62.1218 9.538C61.8604 9.46333 61.6038 9.426 61.3518 9.426C60.9598 9.426 60.6191 9.50533 60.3298 9.664C60.0498 9.81333 59.8164 10.014 59.6298 10.266C59.4524 10.518 59.3171 10.798 59.2238 11.106C59.1398 11.414 59.0978 11.722 59.0978 12.03C59.0978 12.3753 59.1491 12.7067 59.2518 13.024C59.3544 13.3413 59.5038 13.626 59.6998 13.878C59.8958 14.1207 60.1338 14.312 60.4138 14.452C60.7031 14.592 61.0251 14.662 61.3798 14.662C61.6318 14.662 61.8884 14.6247 62.1498 14.55C62.4111 14.466 62.6491 14.3353 62.8638 14.158C63.0784 13.9807 63.2418 13.7427 63.3538 13.444L65.5798 14.774C65.3838 15.2593 65.0571 15.6747 64.5998 16.02C64.1424 16.3653 63.6244 16.6313 63.0458 16.818C62.4671 16.9953 61.8931 17.084 61.3238 17.084C60.5864 17.084 59.9098 16.9393 59.2938 16.65C58.6871 16.3513 58.1598 15.9593 57.7118 15.474C57.2731 14.9793 56.9324 14.4287 56.6898 13.822C56.4471 13.206 56.3258 12.5807 56.3258 11.946ZM74.2935 9.44H71.4375V17H68.7075V9.44H65.8375V7.06H74.2935V9.44ZM75.3438 17V7.06H78.0738V13.108L81.7418 7.06H84.2898V17H81.5598V10.952L77.9338 17H75.3438Z" fill="url(#paint2_linear_757_1320)"/>
<defs>
<radialGradient id="paint0_radial_757_1320" cx="0" cy="0" r="1" gradientUnits="userSpaceOnUse" gradientTransform="translate(50 12) rotate(90) scale(12 50)">
<stop stop-color="#02100E"/>
<stop offset="1" stop-color="#062622"/>
</radialGradient>
<linearGradient id="paint1_linear_757_1320" x1="1.46277" y1="12.0453" x2="91.9548" y2="12.0453" gradientUnits="userSpaceOnUse">
<stop stop-color="#BAFB02"/>
<stop offset="1" stop-color="#06AEE5"/>
</linearGradient>
<linearGradient id="paint2_linear_757_1320" x1="6.38007" y1="12.0302" x2="87.7083" y2="12.0302" gradientUnits="userSpaceOnUse">
<stop stop-color="#BAFB02"/>
<stop offset="1" stop-color="#06AEE5"/>
</linearGradient>
</defs>
</svg>
